<?xml version="1.0" encoding="utf-8"?>
<!-- Generator: Adobe Illustrator 16.0.0, SVG Export Plug-In . SVG Version: 6.00 Build 0)  -->
<!DOCTYPE svg PUBLIC "-//W3C//DTD SVG 1.1//EN" "http://www.w3.org/Graphics/SVG/1.1/DTD/svg11.dtd">
<svg version="1.1" id="Layer_1" xmlns="http://www.w3.org/2000/svg" xmlns:xlink="http://www.w3.org/1999/xlink" x="0px" y="0px"
	 width="85.039px" height="65.711px" viewBox="0 0 85.039 65.711" enable-background="new 0 0 85.039 65.711" xml:space="preserve">
<path fill="#FFFFFF" d="M0.414,2.418l41.102,41.101c0.002,0.001,0.002,0.001,0.002,0.002c0.276,0.276,0.64,0.415,1.001,0.415
	c0.363,0,0.726-0.139,1.001-0.415c0-0.001,0-0.001,0.001-0.002L84.624,2.418c0.276-0.277,0.415-0.641,0.415-1.002
	S84.9,0.691,84.624,0.414C84.347,0.139,83.984,0,83.623,0c-0.362,0-0.726,0.139-1.001,0.414L42.519,40.517L2.418,0.414
	C2.141,0.139,1.777,0,1.416,0S0.691,0.139,0.414,0.414C0.139,0.691,0,1.055,0,1.416S0.139,2.141,0.414,2.418z"/>
</svg>
