<?xml version="1.0" encoding="utf-8"?>
<!-- Generator: Adobe Illustrator 16.0.0, SVG Export Plug-In . SVG Version: 6.00 Build 0)  -->
<!DOCTYPE svg PUBLIC "-//W3C//DTD SVG 1.1//EN" "http://www.w3.org/Graphics/SVG/1.1/DTD/svg11.dtd">
<svg version="1.1" id="Layer_1" xmlns="http://www.w3.org/2000/svg" xmlns:xlink="http://www.w3.org/1999/xlink" x="0px" y="0px"
	 width="85.039px" height="65.712px" viewBox="0 0 85.039 65.712" enable-background="new 0 0 85.039 65.712" xml:space="preserve">
<path fill="#FFFFFF" d="M84.625,41.518L43.523,0.417c-0.002-0.001-0.002-0.001-0.002-0.002C43.245,0.138,42.882,0,42.52,0
	c-0.363,0-0.726,0.138-1.002,0.415c0,0.001,0,0.001-0.001,0.002L0.415,41.518C0.138,41.795,0,42.158,0,42.52
	s0.138,0.725,0.415,1.002c0.277,0.275,0.639,0.414,1.001,0.414s0.725-0.139,1.001-0.414L42.52,3.419l40.101,40.103
	c0.277,0.275,0.64,0.414,1.002,0.414s0.725-0.139,1.002-0.414c0.276-0.277,0.414-0.64,0.414-1.002S84.901,41.795,84.625,41.518z"/>
</svg>
