<?xml version="1.0" encoding="utf-8"?>
<!-- Generator: Adobe Illustrator 25.2.0, SVG Export Plug-In . SVG Version: 6.00 Build 0)  -->
<svg version="1.1" id="Capa_1" xmlns="http://www.w3.org/2000/svg" xmlns:xlink="http://www.w3.org/1999/xlink" x="0px" y="0px"
	 viewBox="0 0 67 8" style="enable-background:new 0 0 67 8;" xml:space="preserve">
<style type="text/css">
	.st0{fill-rule:evenodd;clip-rule:evenodd;fill:#FFFFFF;}
	.st1{fill:#FFFFFF;}
</style>
<g>
	<g>
		<path class="st0" d="M10.67,2.22C10.62,2.1,10.53,2,10.42,1.91c-0.17-0.14-0.37-0.24-0.57-0.33C9.31,1.36,8.74,1.23,8.16,1.16
			C7.8,1.12,7.45,1.09,7.09,1.07C6.6,1.04,6.11,1.05,5.61,1.09C5.22,1.12,4.83,1.17,4.44,1.25C4,1.34,3.57,1.45,3.17,1.64
			c-0.2,0.1-0.4,0.21-0.55,0.37c-0.24,0.25-0.24,0.54,0,0.78c0.09,0.09,0.2,0.18,0.32,0.25c0.3,0.19,0.64,0.3,0.99,0.4
			c0.36,0.1,0.74,0.17,1.11,0.22C5.18,3.68,5.33,3.69,5.48,3.7c0.24-0.74,0.48-1.48,0.71-2.22c0,0,0.01,0,0.01,0
			c0.04,0.75,0.08,1.5,0.12,2.25c0.05,0,0.1,0.01,0.14,0.01c0.29-0.01,0.58-0.01,0.87-0.03c0.45-0.02,0.89-0.08,1.33-0.16
			C9.09,3.49,9.51,3.38,9.91,3.2c0.24-0.11,0.46-0.23,0.63-0.42C10.69,2.62,10.75,2.43,10.67,2.22z"/>
		<path class="st0" d="M5.32,3.81C4.8,3.82,4.29,3.86,3.79,3.96C3.3,4.05,2.82,4.17,2.38,4.38C2.09,4.51,1.83,4.67,1.63,4.9
			C1.45,5.11,1.37,5.34,1.46,5.6c0.07,0.22,0.23,0.38,0.43,0.52c0.32,0.24,0.7,0.39,1.09,0.51c0.4,0.13,0.82,0.21,1.24,0.26
			c0.07,0.01,0.13,0.02,0.2,0.02c0.33-1.04,0.67-2.08,1-3.12C5.38,3.81,5.35,3.8,5.32,3.81z"/>
		<path class="st0" d="M9.05,4.54C8.68,4.32,8.28,4.18,7.86,4.07c-0.4-0.1-0.81-0.17-1.23-0.22c-0.1-0.01-0.2-0.02-0.31-0.03
			c0.05,1.04,0.11,2.08,0.16,3.11c0.03,0,0.06,0,0.08,0c0.25-0.03,0.51-0.06,0.76-0.11c0.46-0.08,0.91-0.2,1.33-0.39
			c0.31-0.13,0.59-0.29,0.81-0.53c0.27-0.29,0.3-0.63,0.08-0.94C9.42,4.8,9.24,4.66,9.05,4.54z"/>
	</g>
	<g>
		<g>
			<g>
				<rect x="50.99" y="2.31" class="st1" width="0.34" height="4.15"/>
			</g>
		</g>
		<g>
			<path class="st1" d="M52.02,5.05l0.2-0.24c0.19,0.16,0.37,0.25,0.61,0.25c0.21,0,0.34-0.1,0.34-0.24V4.81
				c0-0.14-0.08-0.21-0.44-0.3c-0.41-0.1-0.64-0.22-0.64-0.58V3.94c0-0.33,0.28-0.56,0.66-0.56c0.28,0,0.51,0.09,0.7,0.24
				l-0.18,0.26c-0.17-0.13-0.35-0.2-0.52-0.2c-0.2,0-0.32,0.1-0.32,0.23v0.01c0,0.15,0.09,0.22,0.46,0.3
				c0.41,0.1,0.62,0.25,0.62,0.57v0.01c0,0.36-0.28,0.58-0.69,0.58C52.53,5.36,52.25,5.26,52.02,5.05z"/>
			<path class="st1" d="M53.89,3.4h1.43v0.3h-1.09v0.5h0.97v0.3h-0.97v0.52h1.11v0.3h-1.45V3.4z"/>
			<path class="st1" d="M55.63,4.37L55.63,4.37c0-0.55,0.41-1.01,1-1.01c0.34,0,0.54,0.09,0.74,0.26l-0.22,0.26
				c-0.15-0.13-0.3-0.21-0.54-0.21c-0.36,0-0.63,0.31-0.63,0.68v0.01c0,0.4,0.26,0.69,0.66,0.69c0.18,0,0.35-0.06,0.47-0.15V4.55
				h-0.49v-0.3h0.82v0.81c-0.19,0.16-0.46,0.3-0.81,0.3C56.03,5.37,55.63,4.94,55.63,4.37z"/>
			<path class="st1" d="M57.83,4.52V3.4h0.34v1.1c0,0.36,0.19,0.55,0.49,0.55c0.3,0,0.49-0.18,0.49-0.54V3.4h0.34v1.1
				c0,0.58-0.33,0.87-0.83,0.87C58.15,5.37,57.83,5.08,57.83,4.52z"/>
			<path class="st1" d="M59.93,3.4h0.86c0.24,0,0.43,0.07,0.56,0.19c0.1,0.1,0.16,0.25,0.16,0.42v0.01c0,0.32-0.19,0.51-0.46,0.59
				l0.52,0.73h-0.4l-0.48-0.67h-0.43v0.67h-0.34V3.4z M60.76,4.36c0.24,0,0.4-0.13,0.4-0.32V4.03c0-0.21-0.15-0.32-0.4-0.32h-0.49
				v0.65H60.76z"/>
			<path class="st1" d="M61.81,4.37L61.81,4.37c0-0.55,0.42-1.01,1.01-1.01c0.59,0,1.01,0.45,1.01,0.99v0.01c0,0.54-0.42,1-1.01,1
				C62.23,5.37,61.81,4.92,61.81,4.37z M63.48,4.37L63.48,4.37c0-0.38-0.27-0.69-0.66-0.69c-0.38,0-0.65,0.31-0.65,0.68v0.01
				c0,0.38,0.27,0.69,0.66,0.69C63.21,5.06,63.48,4.75,63.48,4.37z"/>
			<path class="st1" d="M64.08,5.05l0.2-0.24c0.19,0.16,0.37,0.25,0.61,0.25c0.21,0,0.34-0.1,0.34-0.24V4.81
				c0-0.14-0.08-0.21-0.44-0.3c-0.41-0.1-0.64-0.22-0.64-0.58V3.94c0-0.33,0.28-0.56,0.66-0.56c0.28,0,0.51,0.09,0.7,0.24
				l-0.18,0.26c-0.17-0.13-0.35-0.2-0.52-0.2c-0.2,0-0.32,0.1-0.32,0.23v0.01c0,0.15,0.09,0.22,0.46,0.3
				c0.41,0.1,0.62,0.25,0.62,0.57v0.01c0,0.36-0.28,0.58-0.69,0.58C64.59,5.36,64.31,5.26,64.08,5.05z"/>
		</g>
		<g>
			<path class="st1" d="M16.45,4.33c0.33-0.09,0.5-0.31,0.5-0.65V3.21c0-0.52-0.31-0.79-0.91-0.79H12.7v3.94h3.11
				c0.78,0,1.18-0.27,1.18-0.8V5.07C16.99,4.68,16.81,4.44,16.45,4.33z M13.66,4.69h2.01c0.18,0,0.26,0.03,0.29,0.05
				c0.07,0.04,0.1,0.13,0.1,0.26v0.29c0,0.13-0.03,0.22-0.1,0.26c-0.05,0.03-0.15,0.05-0.29,0.05h-2.01V4.69z M16.05,3.73
				c0,0.06,0,0.24-0.37,0.24h-2.01V3.13h2.01c0.37,0,0.37,0.18,0.37,0.24V3.73z"/>
			<path class="st1" d="M20.65,2.42h-0.92L17.5,6.36h0.99l0.45-0.85h2.4l0.46,0.85h1.1l-2.25-3.92L20.65,2.42z M20.92,4.74h-1.56
				l0.79-1.45L20.92,4.74z"/>
			<path class="st1" d="M27.26,4.49c0,0.08,0.01,0.26,0.03,0.55c-0.1-0.1-0.22-0.21-0.37-0.34L24.2,2.43l-0.01-0.01h-0.67v3.94h0.89
				V4.23c0-0.13-0.01-0.3-0.03-0.5c0.08,0.08,0.16,0.16,0.24,0.23l2.84,2.39l0.01,0.01h0.67V2.42h-0.89V4.49z"/>
			<path class="st1" d="M33.12,2.42h-2.85c-0.38,0-0.64,0.06-0.78,0.2C29.35,2.75,29.28,3,29.28,3.37v2.04
				c0,0.37,0.07,0.62,0.22,0.76c0.14,0.13,0.4,0.2,0.78,0.2h2.85c0.38,0,0.64-0.06,0.78-0.2c0.14-0.13,0.22-0.38,0.22-0.76V3.37
				c0-0.37-0.07-0.62-0.22-0.76C33.76,2.48,33.5,2.42,33.12,2.42z M33.14,3.19v2.37h-2.88V3.19H33.14z"/>
			<path class="st1" d="M38.63,4.9c0.6,0,0.91-0.27,0.91-0.79V3.21c0-0.52-0.31-0.79-0.91-0.79h-3.35v3.94h0.96V4.9h0.8l1.55,1.45
				l0.01,0.01h1.42L38.23,4.9H38.63z M36.24,3.16h1.98c0.16,0,0.24,0.02,0.27,0.04c0.06,0.04,0.09,0.11,0.09,0.23V3.9
				c0,0.12-0.03,0.19-0.09,0.23c-0.03,0.02-0.11,0.04-0.27,0.04h-1.98V3.16z"/>
			<polygon class="st1" points="40.28,3.19 42.06,3.19 42.06,6.36 43.04,6.36 43.04,3.19 44.82,3.19 44.82,2.42 40.28,2.42 			"/>
			<polygon class="st1" points="46.57,5.56 46.57,4.68 48.4,4.68 48.4,3.94 46.57,3.94 46.57,3.16 49.56,3.16 49.56,2.42 
				45.59,2.42 45.59,6.36 49.59,6.36 49.59,5.56 			"/>
		</g>
	</g>
</g>
</svg>
