<?xml version="1.0" encoding="utf-8"?>
<!-- Generator: Adobe Illustrator 16.0.0, SVG Export Plug-In . SVG Version: 6.00 Build 0)  -->
<!DOCTYPE svg PUBLIC "-//W3C//DTD SVG 1.1//EN" "http://www.w3.org/Graphics/SVG/1.1/DTD/svg11.dtd">
<svg version="1.1" id="Layer_1" xmlns="http://www.w3.org/2000/svg" xmlns:xlink="http://www.w3.org/1999/xlink" x="0px" y="0px"
	 width="85.039px" height="85.039px" viewBox="-27.02 23.48 85.039 85.039" enable-background="new -27.02 23.48 85.039 85.039"
	 xml:space="preserve">
<g>
	<path fill="#B01E58" d="M0.437,69.54c4.36,9.118,9.868,18.306,13.988,16.206c5.909-3.01,9.947-6.004,16.893,5.235
		c6.946,11.247-2.271,14.028-7.99,16.948c-6.602,3.352-23.244-7.61-34.997-32.238c-11.755-24.629-10.036-44.921-3.428-48.281
		c5.723-2.911,13.485-8.76,17.869,3.775c4.41,12.543-0.354,14.012-6.258,17.022C-7.618,50.302-3.921,60.409,0.437,69.54L0.437,69.54
		z M21.65,38.856c0,0-1.903-1.011-3.826-0.043c-1.961,0.994-2.915,3.542-1.922,5.649c0.594,1.231,1.801,1.883,1.801,1.883
		c2.323,1.33,5.806,3.43,8.397,8.906c2.582,5.477,2.047,9.606,1.632,12.327c0,0-0.259,1.374,0.328,2.626
		c0.994,2.1,3.533,2.886,5.499,1.9c1.914-0.967,2.311-3.145,2.311-3.145c0.984-5.446,0.397-11.709-2.319-17.467
		C30.829,45.741,26.429,41.422,21.65,38.856L21.65,38.856z M39.235,49.948c4.737,10.047,4.937,19.644,1.537,26.218
		c0,0-1.105,2.057-0.203,3.965c1.011,2.151,3.533,2.92,5.525,1.918c1.273-0.644,2.025-2.146,2.025-2.146
		c2.885-5.685,5.96-18.063-1.417-33.708c-7.399-15.636-18.746-20.758-24.861-21.89c0,0-1.616-0.316-2.895,0.328
		c-1.974,0.994-2.952,3.516-1.939,5.654c0.916,1.922,3.175,2.293,3.175,2.293C27.271,33.846,34.493,39.918,39.235,49.948
		L39.235,49.948z"/>
	<path fill="#B01E58" d="M21.202,58.068c-1.547-3.265-4.11-5.978-7.205-7.645c-0.205-0.104-1.937-0.665-3.189-0.034
		c-1.689,0.851-2.397,2.946-1.579,4.656c0.473,0.993,1.384,1.512,1.464,1.546c1.097,0.635,2.937,1.676,4.293,4.552
		c1.367,2.885,1.032,5.037,0.838,6.298c-0.024,0.111-0.197,1.148,0.279,2.15c0.557,1.184,1.769,1.953,3.09,1.953
		c0.522,0,1.041-0.121,1.517-0.363c1.521-0.781,1.857-2.376,1.892-2.565C23.24,65.074,22.748,61.325,21.202,58.068z"/>
</g>
</svg>
