<?xml version="1.0" encoding="utf-8"?>
<!-- Generator: Adobe Illustrator 16.0.0, SVG Export Plug-In . SVG Version: 6.00 Build 0)  -->
<!DOCTYPE svg PUBLIC "-//W3C//DTD SVG 1.1//EN" "http://www.w3.org/Graphics/SVG/1.1/DTD/svg11.dtd">
<svg version="1.1" id="Layer_1" xmlns="http://www.w3.org/2000/svg" xmlns:xlink="http://www.w3.org/1999/xlink" x="0px" y="0px"
	 width="85.039px" height="85.039px" viewBox="-27.02 23.48 85.039 85.039" enable-background="new -27.02 23.48 85.039 85.039"
	 xml:space="preserve">
<g>
	<path fill="#B01E58" d="M29.021,78.693c-1.709-1.001-3.648-2.131-3.723-2.918c-0.301-3.353,0.814-5.149,2.353-7.622
		c2.083-3.344,4.677-7.502,4.677-17.041c0-7.512-1.38-13.874-3.982-18.432c-2.918-5.103-7.363-7.797-12.855-7.797
		c-5.492,0-9.94,2.694-12.855,7.797c-2.605,4.558-3.973,10.92-3.973,18.432c0,9.539,2.593,13.697,4.666,17.041
		c1.544,2.473,2.66,4.27,2.353,7.622c-0.067,0.787-2.012,1.917-3.724,2.918c-5.656,3.306-28.977,8.83-28.977,27.274
		c0,0.64,0.389,1.148,0.87,1.148h83.3c0.481,0,0.869-0.509,0.869-1.148C58.02,87.523,34.69,81.999,29.021,78.693L29.021,78.693z"/>
</g>
</svg>
