<?xml version="1.0" encoding="UTF-8"?>
<svg width="53px" height="29px" viewBox="0 0 53 29" version="1.1" xmlns="http://www.w3.org/2000/svg" xmlns:xlink="http://www.w3.org/1999/xlink">
    <title>B59BB75C-0C96-40ED-AF36-50B084B3E410</title>
    <g id="DESKTOP---MINISITE" stroke="none" stroke-width="1" fill="none" fill-rule="evenodd">
        <g id="BANORTE---HOME---AUTO---TRANSPORTE-PÚBLICO---DESKTOP" transform="translate(-818.000000, -166.000000)" fill="#E1251B" fill-rule="nonzero">
            <g id="ico-vehiculo-bus" transform="translate(818.000000, 166.000000)">
                <g id="bus-(1)" transform="translate(26.530378, 14.444444) scale(-1, 1) translate(-26.530378, -14.444444) translate(0.060755, 0.000000)">
                    <path d="M0.865361398,24.450927 L5.27771906,24.450927 C5.74736595,26.8028098 8.02025996,28.3258056 10.3547643,27.8526625 C11.4070692,27.6394999 12.3424904,27.038672 12.9783093,26.1672233 C14.3886584,28.0998744 17.0871919,28.51485 19.0055623,27.0940021 C19.8705717,26.4534501 20.46696,25.5110655 20.6788995,24.450927 L38.156173,24.450927 C38.631805,26.8099034 40.9152607,28.3339633 43.2568063,27.8547906 C44.9590124,27.5064949 46.2897961,26.1661594 46.6355181,24.450927 L51.0482278,24.450927 C51.5259721,24.450927 51.9132381,24.0607791 51.9132381,23.5794784 L51.9132381,16.9607957 C51.9132381,16.0779973 51.8107879,15.198391 51.6080019,14.3397108 L49.7181482,6.33529348 C49.3917894,4.70695776 47.973343,3.53509518 46.3246499,3.53119367 L20.4349225,3.53119367 L18.9481766,0.52634506 C18.801016,0.229477956 18.4989491,0.0425615951 18.1697738,0.0443224639 L6.05647395,0.0443224639 C5.72870684,0.0443224639 5.42875242,0.230896676 5.28229581,0.52634506 L3.79132519,3.53119367 L0.865361398,3.53119367 C0.387265089,3.53119367 0,3.92134163 0,4.40264231 L0,23.5791237 C0,24.0607791 0.387265089,24.450927 0.865361398,24.450927 Z M9.5175676,26.194179 C8.08398265,26.194179 6.92183535,25.0233805 6.92183535,23.5791237 C6.92183535,22.1348669 8.08398265,20.964423 9.5175676,20.964423 C10.9511525,20.964423 12.1129479,22.1348669 12.1129479,23.5791237 C12.1129479,25.0233805 10.9508005,26.194179 9.5175676,26.194179 Z M16.439051,26.194179 C15.005466,26.194179 13.8436707,25.0233805 13.8436707,23.5791237 C13.8436707,22.1348669 15.005466,20.964423 16.439051,20.964423 C17.8726359,20.964423 19.0347832,22.1348669 19.0347832,23.5791237 C19.0347832,25.0233805 17.8726359,26.194179 16.439051,26.194179 Z M42.3960216,26.194179 C40.9624367,26.194179 39.8002893,25.0233805 39.8002893,23.5791237 C39.8002893,22.1348669 40.9624367,20.964423 42.3960216,20.964423 C43.8296066,20.964423 44.9914018,22.1348669 44.9914018,23.5791237 C44.9914018,25.0233805 43.8292545,26.194179 42.3960216,26.194179 Z M49.9233987,14.7422725 C49.9329044,14.7823514 49.9353688,14.8224302 49.9441703,14.862509 L43.261031,14.862509 L43.261031,8.76094965 L48.5130497,8.76094965 L49.9233987,14.7422725 Z M6.59125176,1.78758699 L17.634996,1.78758699 L18.5000053,3.53119367 L5.72589036,3.53119367 L6.59125176,1.78758699 Z M1.73037085,5.2744457 L46.325002,5.2744457 C47.1597342,5.27976592 47.8737103,5.87988432 48.0286163,6.70664333 L48.1064214,7.01769763 L1.73037085,7.01769763 L1.73037085,5.2744457 Z M41.5306601,8.76094965 L41.5306601,14.862509 L36.3391956,14.862509 L36.3391956,8.76094965 L41.5306601,8.76094965 Z M34.6088248,8.76094965 L34.6088248,14.862509 L29.4177123,14.862509 L29.4177123,8.76094965 L34.6088248,8.76094965 Z M27.6869894,8.76094965 L27.6869894,14.862509 L22.4958769,14.862509 L22.4958769,8.76094965 L27.6869894,8.76094965 Z M20.7651541,8.76094965 L20.7651541,14.862509 L15.5740415,14.862509 L15.5740415,8.76094965 L20.7651541,8.76094965 Z M13.8436707,8.76094965 L13.8436707,14.862509 L8.6522062,14.862509 L8.6522062,8.76094965 L13.8436707,8.76094965 Z M1.73037085,8.76094965 L6.92183535,8.76094965 L6.92183535,14.862509 L1.73037085,14.862509 L1.73037085,8.76094965 Z M1.73037085,20.0926196 L3.46109374,20.0926196 L3.46109374,18.3493677 L1.73037085,18.3493677 L1.73037085,16.6061157 L50.1620948,16.6061157 C50.1663196,16.7245788 50.1828663,16.8423326 50.1828663,16.9607957 L50.1828663,18.3493677 L48.4524955,18.3493677 L48.4524955,20.0926196 L50.1828663,20.0926196 L50.1828663,22.7076751 L46.6355181,22.7076751 C46.6355181,22.6920691 46.6249564,22.6782366 46.6214358,22.662276 C46.5682748,22.4143547 46.4932862,22.171399 46.3975261,21.9362461 C46.3637284,21.8489948 46.3179608,21.7759308 46.2788822,21.6947091 C46.2045977,21.5361671 46.1211597,21.3818813 46.0289202,21.2329157 C45.9736469,21.1456645 45.9102762,21.0665709 45.849722,20.9842851 C45.7546661,20.8544723 45.6522169,20.7296249 45.5434306,20.6104525 C45.4709064,20.5327775 45.3955658,20.4604228 45.3177606,20.3880681 C45.2019332,20.2798907 45.0801207,20.1788069 44.9526753,20.0848167 C44.8660688,20.021329 44.7794622,19.960324 44.6932077,19.9025112 C44.5530882,19.8166787 44.4087439,19.7382944 44.260527,19.6680678 C44.1686395,19.6237328 44.0795685,19.5811712 43.9845126,19.5382549 C43.8151722,19.4737031 43.6416069,19.4197918 43.4652253,19.3772302 C43.3786188,19.3545307 43.2976451,19.3247376 43.2099824,19.3073583 C42.6674592,19.1956341 42.1083893,19.1956341 41.5662181,19.3073583 C41.4796116,19.3247376 41.3930051,19.3545307 41.3109752,19.3772302 C41.1345936,19.4197918 40.9613805,19.4737031 40.7916879,19.5382549 C40.696632,19.5765604 40.607209,19.6255062 40.5156735,19.6680678 C40.3674566,19.7382944 40.2227603,19.8166787 40.0829928,19.9025112 C39.9963863,19.960324 39.9101317,20.021329 39.8235252,20.0848167 C39.6960798,20.1788069 39.5739153,20.2798907 39.4584399,20.3880681 C39.3802827,20.4604228 39.3052941,20.5327775 39.2324179,20.6104525 C39.1239836,20.7296249 39.0215345,20.8544723 38.9261264,20.9842851 C38.8655723,21.0662162 38.8025536,21.1456645 38.7472804,21.2329157 C38.6550408,21.3818813 38.5712508,21.5361671 38.4973183,21.6947091 C38.4582398,21.7759308 38.4107118,21.8525417 38.3786744,21.9362461 C38.2829143,22.171399 38.2079257,22.4143547 38.1544127,22.662276 C38.1544127,22.6782366 38.1442029,22.6920691 38.1406824,22.7076751 L20.6788995,22.7076751 C20.6788995,22.6920691 20.6683378,22.6782366 20.6648172,22.662276 C20.6113042,22.4143547 20.5363156,22.171399 20.4409075,21.9362461 C20.4071098,21.8489948 20.3613422,21.7759308 20.3222636,21.6947091 C20.2479791,21.5361671 20.1645411,21.3818813 20.0723016,21.2329157 C20.0170283,21.1456645 19.9536576,21.0665709 19.8931035,20.9842851 C19.7976954,20.8544723 19.6955983,20.7296249 19.586812,20.6104525 C19.5142878,20.5327775 19.4389472,20.4604228 19.361142,20.3880681 C19.2453146,20.2798907 19.1235022,20.1788069 18.9960567,20.0848167 C18.9094502,20.021329 18.8228436,19.960324 18.7362371,19.9025112 C18.5964696,19.8166787 18.4521253,19.7382944 18.3039084,19.6680678 C18.2120209,19.6237328 18.1229499,19.5811712 18.027894,19.5382549 C17.8596097,19.4737031 17.6878048,19.4197918 17.5128314,19.3772302 C17.4262248,19.3545307 17.3452513,19.3247376 17.2533638,19.3073583 C16.7221065,19.1981168 16.1743025,19.1981168 15.6430451,19.3073583 C15.5983336,19.3162252 15.5567907,19.3222549 15.5089106,19.3318312 C15.2688062,19.3850332 15.0336308,19.4588066 14.8058485,19.5524421 L14.6776989,19.6091909 C14.4499166,19.7095653 14.2309359,19.8294472 14.023573,19.9674176 L13.9887192,19.9943733 C13.7908619,20.1326986 13.6042705,20.2876937 13.4317615,20.4572307 C13.4039488,20.4841863 13.375432,20.5093686 13.3451549,20.5373884 C13.2138369,20.6714573 13.0913203,20.8143934 12.9783093,20.964423 C12.8621298,20.8108466 12.7360926,20.6654278 12.6012539,20.5285214 C12.5734412,20.5008563 12.5449244,20.4753193 12.5146474,20.4483637 C12.3417863,20.2788267 12.155547,20.1241862 11.9573377,19.9855063 L11.9228359,19.9585507 C11.715121,19.8205802 11.4964923,19.7006983 11.26871,19.600324 L11.1405604,19.5435752 C10.9127781,19.4499397 10.6772506,19.3765209 10.4371462,19.3229642 C10.3931388,19.3133878 10.3505396,19.3073583 10.3030116,19.2984913 C9.77175436,19.1892499 9.22430233,19.1892499 8.69304506,19.2984913 C8.60643855,19.3162252 8.51983195,19.3456637 8.43780218,19.3683632 C8.26142047,19.4109248 8.08785532,19.4648362 7.91851488,19.5297426 C7.82345895,19.5680481 7.73403588,19.6169938 7.64250049,19.6595554 C7.49569184,19.7297821 7.35275577,19.8081664 7.2140445,19.8939989 C7.12779003,19.9514571 7.04118343,20.012462 6.95457683,20.0759498 C6.82713145,20.1699399 6.70531902,20.2713783 6.58949149,20.3795558 C6.51168643,20.4519105 6.43634573,20.5242652 6.36382158,20.6019402 C6.25503532,20.7207579 6.15293812,20.8456052 6.05753015,20.9757728 C5.99697588,21.0577039 5.93360532,21.1371522 5.87833196,21.2240488 C5.7860925,21.3730143 5.70230238,21.5273002 5.62837,21.6861968 C5.58929141,21.7674185 5.54176339,21.8440293 5.50972599,21.9277338 C5.41396589,22.162532 5.33897731,22.4054877 5.28581644,22.6537637 C5.28581644,22.6693696 5.27525462,22.6832021 5.27173408,22.6991627 L1.73037085,22.6991627 L1.73037085,20.0926196 Z" id="Shape"></path>
                    <polygon id="Path" points="20.7651541 18.3493677 38.0695665 18.3493677 38.0695665 20.0926196 20.7651541 20.0926196"></polygon>
                </g>
            </g>
        </g>
    </g>
</svg>