<?xml version="1.0" encoding="UTF-8"?>
<svg width="54px" height="25px" viewBox="0 0 54 25" version="1.1" xmlns="http://www.w3.org/2000/svg" xmlns:xlink="http://www.w3.org/1999/xlink">
    <title>77FBB679-4CCE-4D85-B14B-EC2D6C67AB36</title>
    <g id="DESKTOP---MINISITE" stroke="none" stroke-width="1" fill="none" fill-rule="evenodd">
        <g id="BANORTE---HOME---AUTO---AUTO-PARTICULAR---DESKTOP" transform="translate(-1149.000000, -169.000000)" fill="#707070" fill-rule="nonzero">
            <g id="ico-vehiculo-camion" transform="translate(1149.000000, 169.000000)">
                <g id="truck" transform="translate(26.601533, 12.345679) scale(-1, 1) translate(-26.601533, -12.345679) translate(0.203065, 0.000000)">
                    <path d="M51.0479626,0.0439804345 L16.439079,0.0439804345 C15.9613338,0.0439804345 15.574068,0.427936129 15.574068,0.901598013 L15.574068,16.3425544 L13.8436942,16.3425544 L13.8436942,7.76428405 C13.8436942,7.29062226 13.4560765,6.90631735 12.9783314,6.90631735 L5.2520277,6.90631735 C4.38279206,6.90527027 3.57094227,7.33564978 3.08897247,8.05259998 L0.432681435,12.0035049 C0.149977417,12.4251582 -0.000704119541,12.9197631 -2.45647533e-06,13.4258866 L-2.45647533e-06,20.6316895 C-2.45647533e-06,21.1053513 0.387265747,21.4896562 0.865362871,21.4896562 L4.4489793,21.4896562 C4.91827495,23.3172857 6.79299329,24.4216822 8.63637825,23.9567466 C9.85908181,23.6481858 10.8138679,22.7015603 11.1250887,21.4896562 L36.4621263,21.4896562 C36.931422,23.3172857 38.8061402,24.4216822 40.6495253,23.9567466 C41.8722288,23.6481858 42.8270149,22.7015603 43.1382358,21.4896562 L49.3175888,21.4896562 C49.5471318,21.4893071 49.7671692,21.3989029 49.9294687,21.2379906 L51.6598425,19.5224063 C51.822142,19.361494 51.9133255,19.1433373 51.9133255,18.9157562 L51.9133255,0.901598013 C51.9133255,0.427936129 51.5260598,0.0439804345 51.0479626,0.0439804345 Z M6.92184712,8.62225075 L8.65222092,8.62225075 L8.65222092,12.0534192 L6.92184712,12.0534192 L6.92184712,8.62225075 Z M4.5320654,9.00376315 C4.68204291,8.78525736 4.92531623,8.64703328 5.19147333,8.62992982 L5.19147333,12.0534192 L2.48131726,12.0534192 L4.5320654,9.00376315 Z M7.78685805,22.3472738 C6.83136779,22.3472738 6.05648425,21.5793622 6.05648425,20.6316895 C6.05648425,19.6840168 6.83136779,18.9161052 7.78685805,18.9161052 C8.74270026,18.9161052 9.51758379,19.6840168 9.51758379,20.6316895 C9.51758379,21.5793622 8.74270026,22.3472738 7.78685805,22.3472738 Z M12.1129685,17.2005211 L12.1129685,19.7737228 L11.1381149,19.7737228 C11.1046693,19.657489 11.0648865,19.5426513 11.0187667,19.430606 C10.9979952,19.3758051 10.9839128,19.3192588 10.9606768,19.2662031 C10.8786469,19.0780648 10.7800702,18.8979546 10.6656508,18.7272688 C10.6395983,18.6888733 10.6075608,18.6571097 10.579044,18.6201102 C10.4861002,18.4902634 10.384003,18.3673975 10.2727521,18.2522108 C10.2217033,18.1998532 10.16643,18.1544766 10.1129169,18.1052605 C10.0146923,18.0138092 9.91118666,17.9279427 9.80310429,17.8480101 C9.73797325,17.8015863 9.67249009,17.7621436 9.60489461,17.7178142 C9.49329169,17.6490512 9.37781608,17.5869201 9.25881993,17.531421 C9.18770381,17.4979122 9.11693982,17.4644033 9.04335935,17.4354322 C8.90992867,17.3848198 8.77297744,17.3429338 8.63426585,17.3094249 C8.56772657,17.2923213 8.50259554,17.2706802 8.4342959,17.2577653 C8.00619122,17.1708517 7.56470831,17.1708517 7.13660363,17.2577653 C7.06830399,17.2706802 7.00317295,17.2923213 6.93663368,17.3094249 C6.79757005,17.3429338 6.66097086,17.3848198 6.52754018,17.4354322 C6.45395971,17.4644033 6.38284359,17.4979122 6.3120796,17.531421 C6.19308344,17.5869201 6.07760784,17.6490512 5.96600483,17.7178142 C5.89840935,17.7597003 5.83257424,17.8033316 5.76779524,17.8480101 C5.65971287,17.9279427 5.55620734,18.0138092 5.45798264,18.1052605 C5.40446956,18.1541275 5.34884407,18.1998532 5.29779543,18.2522108 C5.18689658,18.3673975 5.08479929,18.4902634 4.99185551,18.6201102 C4.96474693,18.6571097 4.93270947,18.6888733 4.90524876,18.7272688 C4.79082936,18.8979546 4.69225262,19.0780648 4.61022272,19.2662031 C4.58663469,19.3192588 4.57290434,19.3758051 4.55213279,19.430606 C4.50601302,19.5426513 4.46587817,19.657489 4.43278459,19.7737228 L1.73037379,19.7737228 L1.73037379,17.2005211 L3.46109963,17.2005211 L3.46109963,15.4845877 L1.73037379,15.4845877 L1.73037379,13.7690035 L9.51758379,13.7690035 C9.99532897,13.7690035 10.3825947,13.3850477 10.3825947,12.9113859 L10.3825947,8.62225075 L12.1129685,8.62225075 L12.1129685,17.2005211 Z M17.3044418,19.7737228 L13.8436942,19.7737228 L13.8436942,18.0581386 L17.3044418,18.0581386 L17.3044418,19.7737228 Z M20.7651894,19.7737228 L19.0348156,19.7737228 L19.0348156,18.0581386 L20.7651894,18.0581386 L20.7651894,19.7737228 Z M37.4236016,18.149939 C37.3750173,18.1956646 37.3292495,18.2427864 37.2831297,18.2916535 C37.184905,18.3960197 37.0930174,18.5063198 37.008171,18.6218556 C36.9736691,18.6700245 36.9363508,18.7154011 36.9032572,18.7653153 C36.7916543,18.9321616 36.6951899,19.1084322 36.6145682,19.2920329 C36.6082311,19.306344 36.6047105,19.3227494 36.5987255,19.3374095 C36.5392274,19.4794731 36.4892349,19.6253763 36.4491001,19.7740719 L22.4959152,19.7740719 L22.4959152,18.0581386 L37.5133767,18.0581386 C37.4813394,18.0864117 37.4545828,18.1209678 37.4236016,18.149939 Z M39.800357,22.3472738 C38.8445148,22.3472738 38.0696313,21.5793622 38.0696313,20.6316895 C38.0696313,19.6840168 38.8445148,18.9161052 39.800357,18.9161052 C40.7558473,18.9161052 41.5307308,19.6840168 41.5307308,20.6316895 C41.5307308,21.5793622 40.7558473,22.3472738 39.800357,22.3472738 Z M50.1829517,18.5611207 L48.959544,19.7737228 L43.1512619,19.7737228 C43.1114792,19.6250273 43.0611346,19.4794731 43.0016366,19.3374095 C42.9956516,19.3227494 42.9921309,19.306344 42.9861459,19.2916838 C42.9055243,19.1080832 42.8087078,18.9318126 42.6971049,18.7649663 C42.6640112,18.7154011 42.627045,18.6696755 42.5925431,18.6218556 C42.5076967,18.5063198 42.4158091,18.3960197 42.3172324,18.2916535 C42.2714646,18.2427864 42.2253447,18.1953155 42.1771125,18.149939 C42.1457792,18.1209678 42.1190227,18.0864117 42.0905059,18.0581386 L50.1829517,18.0581386 L50.1829517,18.5611207 Z M50.1829517,16.3425544 L17.3044418,16.3425544 L17.3044418,1.75956462 L50.1829517,1.75956462 L50.1829517,16.3425544 Z" id="Shape"></path>
                    <polygon id="Path" points="46.7218522 3.47514889 48.4525779 3.47514889 48.4525779 14.6269701 46.7218522 14.6269701"></polygon>
                    <polygon id="Path" points="43.2611046 3.47514889 44.9914784 3.47514889 44.9914784 14.6269701 43.2611046 14.6269701"></polygon>
                    <polygon id="Path" points="39.800357 3.47514889 41.5307308 3.47514889 41.5307308 14.6269701 39.800357 14.6269701"></polygon>
                    <polygon id="Path" points="36.3392575 3.47514889 38.0696313 3.47514889 38.0696313 14.6269701 36.3392575 14.6269701"></polygon>
                    <polygon id="Path" points="32.8785099 3.47514889 34.6088837 3.47514889 34.6088837 14.6269701 32.8785099 14.6269701"></polygon>
                    <polygon id="Path" points="29.4177624 3.47514889 31.1481361 3.47514889 31.1481361 14.6269701 29.4177624 14.6269701"></polygon>
                    <polygon id="Path" points="25.9566628 3.47514889 27.6870366 3.47514889 27.6870366 14.6269701 25.9566628 14.6269701"></polygon>
                    <polygon id="Path" points="22.4959152 3.47514889 24.226289 3.47514889 24.226289 14.6269701 22.4959152 14.6269701"></polygon>
                    <polygon id="Path" points="19.0348156 3.47514889 20.7651894 3.47514889 20.7651894 14.6269701 19.0348156 14.6269701"></polygon>
                </g>
            </g>
        </g>
    </g>
</svg>