<?xml version="1.0" encoding="UTF-8"?>
<svg width="53px" height="18px" viewBox="0 0 53 18" version="1.1" xmlns="http://www.w3.org/2000/svg" xmlns:xlink="http://www.w3.org/1999/xlink">
    <title>34189360-BBE6-45C1-AB72-4505887FB92B</title>
    <g id="DESKTOP---MINISITE" stroke="none" stroke-width="1" fill="none" fill-rule="evenodd">
        <g id="BANORTE---HOME---AUTO---AUTO-PARTICULAR---DESKTOP" transform="translate(-489.000000, -175.000000)" fill="#E1251B" fill-rule="nonzero">
            <g id="ico-vehiculo-auto-mostaza" transform="translate(489.000000, 175.000000)">
                <g id="sport-car" transform="translate(26.099617, 9.000000) scale(-1, 1) translate(-26.099617, -9.000000) translate(0.199234, 0.000000)">
                    <path d="M49.750029,3.9715844 C49.629408,3.72941457 49.4025007,3.55849191 49.1374843,3.50935601 L40.3251613,1.87032282 L32.5278028,0.421515784 C30.9775611,0.170220765 29.4098383,0.0442223527 27.839668,0.0445661149 L26.5621346,0.0445661149 C23.0707696,0.0421164836 19.6073746,0.669652088 16.3373228,1.89734763 L10.9062328,3.93438146 L10.7943525,3.95614169 L7.33690119,4.6521166 C4.5608709,5.20805418 2.05020675,6.68072723 0.205230473,8.83533635 C-0.00909023075,9.08803525 -0.0601356687,9.44146268 0.0737711044,9.74470136 L0.581428029,10.8944814 C0.788057006,11.5655373 0.882106372,12.2667768 0.860079913,12.9687182 C0.852388186,13.4449854 1.23068345,13.8373706 1.70547558,13.845092 C1.7100207,13.845092 1.71456581,13.845092 1.71911093,13.845092 L4.60457412,13.845092 C5.54297035,16.5324746 8.47388488,17.9472375 11.1509711,17.0055831 C12.6242949,16.4868485 13.7829555,15.3240826 14.2990033,13.845092 L37.2550956,13.845092 C38.1934918,16.5324746 41.1244064,17.9472375 43.8014925,17.0055831 C45.2748164,16.4868485 46.4334769,15.3240826 46.9498745,13.845092 L48.1176252,13.845092 C48.2871939,13.8447411 48.4529165,13.7945522 48.5945151,13.7001412 L51.1719578,11.9751202 C51.411102,11.8150775 51.5544963,11.545883 51.5544963,11.2573851 L51.5544963,7.80734312 C51.5558472,7.67397425 51.5264786,7.54200927 51.4684406,7.4216263 L49.750029,3.9715844 Z M5.75764065,8.53350146 L4.02454469,8.53350146 L4.02454469,10.2585225 L4.64757814,10.2585225 C4.41682499,10.8520139 4.29795216,11.4830593 4.29690326,12.120071 L2.55017195,12.120071 C2.52115297,11.4612991 2.3872462,10.8116523 2.15299684,10.1956987 L1.87049904,9.55552813 C3.42808272,7.90912466 5.45486451,6.78601843 7.67289173,6.34098759 L10.8779131,5.69590341 L12.0299308,6.18059392 L12.0299308,7.64694953 C9.98636692,6.44908657 7.39109324,6.81690386 5.75764065,8.53525638 L5.75764065,8.53350146 Z M12.8197359,12.8100795 C12.4396924,14.6768925 10.623735,15.881073 8.76407449,15.4995678 C6.90441387,15.1180628 5.70484711,13.2954719 6.08489057,11.4283078 C6.46493404,9.5614947 8.28054173,8.35731422 10.140552,8.73881939 C11.7404404,9.06732796 12.8893114,10.4803359 12.8889618,12.120071 C12.8889618,12.3517117 12.8658865,12.5830014 12.8197359,12.8100795 Z M27.839668,1.76959421 C29.3101948,1.76959421 30.778624,1.8878714 32.230271,2.12231982 L34.1206987,2.47329052 L27.7830286,3.12469213 L27.5767493,1.76959421 L27.839668,1.76959421 Z M31.4568984,8.01090612 L34.4350125,7.88069606 L33.8962389,8.69143832 L31.2369836,8.81919166 L31.4568984,8.01090612 Z M16.9362321,3.51286568 C19.7891801,2.44451088 22.7998095,1.86154857 25.8436533,1.78749373 L26.0698612,3.30158136 L14.2783755,4.50892056 L16.9362321,3.51286568 Z M16.3631951,8.67002913 L29.6535276,8.09022554 L29.4318647,8.90623239 L16.2855782,9.53236411 L16.3663418,11.2573851 L28.956723,10.6537155 L28.5581493,12.120071 L14.6077231,12.120071 C14.6084224,11.1040109 14.3094921,10.1104129 13.7483425,9.26492448 L13.7483425,6.299573 L30.6097547,4.56858553 L30.12797,6.34098759 L16.2890745,6.94465719 L16.3631951,8.67002913 Z M45.4702574,12.8100795 C45.0902139,14.6768925 43.2746062,15.881073 41.4149456,15.4995678 C39.5549354,15.1180628 38.3553686,13.2954719 38.7354121,11.4283078 C39.1158051,9.5614947 40.9314128,8.35731422 42.7910735,8.73881939 C44.3913115,9.06732796 45.5401826,10.4803359 45.539833,12.120071 C45.539833,12.3517117 45.5164079,12.5830014 45.4702574,12.8100795 Z M44.9150512,7.78768876 C42.5358464,6.22446532 39.3448102,6.89376637 37.7879256,9.28212203 C37.2383136,10.1255045 36.9460263,11.1120832 36.9477745,12.120071 L30.3391441,12.120071 L30.7611427,10.5673767 L34.410189,10.39505 C34.6828973,10.3820641 34.9332295,10.239921 35.0846175,10.0121411 L36.8030293,7.42443406 C36.982737,7.15418667 36.9956732,6.80532185 36.8365934,6.52208847 C36.6813594,6.23569638 36.3757863,6.06442268 36.0513334,6.08232212 L31.9271454,6.26166817 L32.442494,4.37871041 L40.1293708,3.58972828 L48.3994238,5.12662898 L48.8392532,6.0100222 L44.9150512,7.78768876 Z M49.8360369,10.7958586 L47.8599509,12.120071 L47.2582446,12.120071 C47.257895,11.0229367 46.9079194,9.95458188 46.2600624,9.07083762 L49.6108778,7.55464421 L49.8384843,8.01090612 L49.8360369,10.7958586 Z" id="Shape"></path>
                </g>
            </g>
        </g>
    </g>
</svg>