<?xml version="1.0" encoding="UTF-8"?>
<svg width="46px" height="50px" viewBox="0 0 46 50" version="1.1" xmlns="http://www.w3.org/2000/svg" xmlns:xlink="http://www.w3.org/1999/xlink">
    <title>AB505FEB-FF3D-4F37-9446-8BDB23C28613</title>
    <defs>
        <polygon id="path-1" points="0 0.59 45.8049 0.59 45.8049 48 0 48"></polygon>
    </defs>
    <g id="Iconografía" stroke="none" stroke-width="1" fill="none" fill-rule="evenodd">
        <g id="Banorte---Iconografía---Coberturas" transform="translate(-50.000000, -1533.000000)">
            <g id="Group-22" transform="translate(50.000000, 1533.000000)">
                <path d="M19.7867,22.9375 L26.0257,22.9375 C26.3967,22.9375 26.6977,22.6365 26.6977,22.2645 C26.6977,21.8935 26.3967,21.5925 26.0257,21.5925 L19.7867,21.5925 C19.4147,21.5925 19.1137,21.8935 19.1137,22.2645 C19.1137,22.6365 19.4147,22.9375 19.7867,22.9375" id="Fill-1" fill="#707070"></path>
                <path d="M19.7867,19.2022 L26.0257,19.2022 C26.3967,19.2022 26.6977,18.9012 26.6977,18.5292 C26.6977,18.1582 26.3967,17.8572 26.0257,17.8572 L19.7867,17.8572 C19.4147,17.8572 19.1137,18.1582 19.1137,18.5292 C19.1137,18.9012 19.4147,19.2022 19.7867,19.2022" id="Fill-3" fill="#707070"></path>
                <path d="M19.7867,15.4668 L26.0257,15.4668 C26.3967,15.4668 26.6977,15.1658 26.6977,14.7948 C26.6977,14.4238 26.3967,14.1218 26.0257,14.1218 L19.7867,14.1218 C19.4147,14.1218 19.1137,14.4238 19.1137,14.7948 C19.1137,15.1658 19.4147,15.4668 19.7867,15.4668" id="Fill-5" fill="#707070"></path>
                <path d="M9.0988,18.2178 L10.4078,18.2178 C10.6488,18.2178 10.8448,18.0228 10.8448,17.7808 L10.8448,16.4718 L11.7178,16.4718 L11.7178,17.7808 C11.7178,18.0228 11.9128,18.2178 12.1538,18.2178 L13.4628,18.2178 L13.4628,19.0898 L12.1538,19.0898 C11.9128,19.0898 11.7178,19.2858 11.7178,19.5278 L11.7178,20.8358 L10.8448,20.8358 L10.8448,19.5278 C10.8448,19.2858 10.6488,19.0898 10.4078,19.0898 L9.0988,19.0898 L9.0988,18.2178 Z M8.6618,19.9628 L9.9718,19.9628 L9.9718,21.2728 C9.9718,21.5138 10.1668,21.7088 10.4078,21.7088 L12.1538,21.7088 C12.3948,21.7088 12.5898,21.5138 12.5898,21.2728 L12.5898,19.9628 L13.8998,19.9628 C14.1408,19.9628 14.3358,19.7678 14.3358,19.5278 L14.3358,17.7808 C14.3358,17.5398 14.1408,17.3448 13.8998,17.3448 L12.5898,17.3448 L12.5898,16.0348 C12.5898,15.7938 12.3948,15.5988 12.1538,15.5988 L10.4078,15.5988 C10.1668,15.5988 9.9718,15.7938 9.9718,16.0348 L9.9718,17.3448 L8.6618,17.3448 C8.4208,17.3448 8.2258,17.5398 8.2258,17.7808 L8.2258,19.5278 C8.2258,19.7678 8.4208,19.9628 8.6618,19.9628 L8.6618,19.9628 Z" id="Fill-7" fill="#707070"></path>
                <path d="M11.2687,14.3653 C13.6457,14.3653 15.5807,16.2993 15.5807,18.6773 C15.5807,21.0543 13.6457,22.9883 11.2687,22.9883 C8.8917,22.9883 6.9567,21.0543 6.9567,18.6773 C6.9567,16.2993 8.8917,14.3653 11.2687,14.3653 M11.2687,24.1813 C14.3037,24.1813 16.7727,21.7123 16.7727,18.6773 C16.7727,15.6413 14.3037,13.1723 11.2687,13.1723 C8.2337,13.1723 5.7647,15.6413 5.7647,18.6773 C5.7647,21.7123 8.2337,24.1813 11.2687,24.1813" id="Fill-9" fill="#707070"></path>
                <path d="M30.6862,37.5791 C30.6862,39.7121 28.9512,41.4471 26.8182,41.4471 C24.6862,41.4471 22.9502,39.7121 22.9502,37.5791 C22.9502,35.4461 24.6862,33.7121 26.8182,33.7121 C28.9492,33.7141 30.6842,35.4481 30.6862,37.5791 M26.8182,32.2701 C23.8912,32.2701 21.5102,34.6521 21.5102,37.5791 C21.5102,40.5061 23.8912,42.8881 26.8182,42.8881 C29.7422,42.8851 32.1232,40.5031 32.1272,37.5791 C32.1272,34.6521 29.7462,32.2701 26.8182,32.2701" id="Fill-11" fill="#707070"></path>
                <path d="M27.1603,36.9971 C26.4283,36.6941 26.3713,36.5421 26.3713,36.3601 C26.3713,36.1641 26.5173,35.9541 26.9313,35.9541 C27.2223,35.9561 27.5083,36.0271 27.7603,36.1781 C27.8033,36.2031 27.8563,36.1961 27.9093,36.1911 L27.9723,36.2291 L27.9943,36.1691 C28.0443,36.1401 28.0923,36.1051 28.1113,36.0531 L28.3013,35.5531 C28.3453,35.4391 28.3013,35.3131 28.1943,35.2511 C27.9293,35.1011 27.6343,35.0041 27.3313,34.9701 L27.3313,34.8331 C27.3313,34.7681 27.3033,34.7091 27.2613,34.6651 L27.2613,34.6541 L27.2473,34.6541 C27.2033,34.6151 27.1483,34.5871 27.0853,34.5871 L26.6143,34.5871 C26.5503,34.5871 26.4953,34.6151 26.4513,34.6541 L26.4333,34.6541 L26.4333,34.6741 C26.3953,34.7181 26.3683,34.7711 26.3683,34.8331 L26.3683,35.0241 C25.7113,35.1761 25.2283,35.7631 25.2223,36.4521 C25.2223,37.3241 25.9333,37.7211 26.6273,37.9931 C27.2093,38.2301 27.3283,38.4341 27.3283,38.6681 C27.3283,38.9661 27.0653,39.1661 26.6733,39.1661 C26.3313,39.1641 26.0003,39.0651 25.7183,38.8821 C25.6733,38.8511 25.6173,38.8571 25.5643,38.8611 L25.4923,38.8141 L25.4663,38.8871 C25.4153,38.9161 25.3653,38.9491 25.3483,39.0031 L25.1653,39.5111 C25.1283,39.6141 25.1643,39.7311 25.2633,39.8011 C25.5803,40.0001 25.9403,40.1241 26.3123,40.1611 L26.3123,40.3251 C26.3123,40.3891 26.3403,40.4441 26.3793,40.4871 L26.3793,40.5041 L26.3953,40.5041 C26.4393,40.5431 26.4943,40.5711 26.5583,40.5711 L26.9993,40.5711 L27.0033,40.5731 L27.0483,40.5721 C27.1083,40.5701 27.1603,40.5411 27.2023,40.5041 L27.2163,40.5041 L27.2163,40.4981 C27.2623,40.4521 27.2903,40.3911 27.2893,40.3231 L27.2893,40.1081 C27.9803,39.9451 28.4753,39.3411 28.4883,38.6131 C28.4883,37.8711 28.0783,37.3721 27.1603,36.9971" id="Fill-13" fill="#707070"></path>
                <g id="Group-17" transform="translate(0.000000, 0.410200)">
                    <mask id="mask-2" fill="white">
                        <use xlink:href="#path-1"></use>
                    </mask>
                    <g id="Clip-16"></g>
                    <path d="M2.3009,39.7314 C1.8779,39.7314 1.5339,39.3874 1.5339,38.9644 L1.5339,8.2264 C1.5339,7.8034 1.8779,7.4594 2.3009,7.4594 L8.0229,7.4594 L8.0229,8.2884 L2.9179,8.2884 L2.9179,38.0114 L10.4219,38.0114 L10.4219,39.7314 L2.3009,39.7314 Z M9.4569,5.1094 C9.4569,5.0004 9.5489,4.9114 9.6619,4.9114 L13.3659,4.9054 L13.4409,4.2734 C13.4649,4.0684 13.7389,2.2684 15.8219,2.0284 L16.4029,2.0194 C18.5989,2.2464 18.8769,4.0664 18.9009,4.2674 L18.9669,4.9114 L22.6799,4.9114 C22.7929,4.9114 22.8849,5.0004 22.8849,5.1094 L22.8849,8.4734 C22.8849,8.5834 22.7929,8.6714 22.6799,8.6714 L9.6619,8.6714 C9.5489,8.6714 9.4569,8.5834 9.4569,8.4734 L9.4569,5.1094 Z M30.2179,7.4594 C30.6409,7.4594 30.9849,7.8034 30.9849,8.2264 L30.9849,26.3384 L29.5019,26.3384 L29.5019,8.2884 L24.3189,8.2884 L24.3189,7.4594 L30.2179,7.4594 Z M44.3639,39.7714 C44.3639,40.4474 42.9739,41.3884 40.7109,41.3884 C38.4469,41.3884 37.0579,40.4474 37.0579,39.7714 L37.0579,39.3334 C37.9769,39.8964 39.2619,40.2444 40.7109,40.2444 C42.1589,40.2444 43.4449,39.8964 44.3639,39.3334 L44.3639,39.7714 Z M44.3639,42.3564 C44.3639,43.0324 42.9739,43.9734 40.7109,43.9734 C38.4469,43.9734 37.0579,43.0324 37.0579,42.3564 L37.0579,41.9184 C37.9769,42.4814 39.2619,42.8294 40.7109,42.8294 C42.1589,42.8294 43.4449,42.4824 44.3639,41.9184 L44.3639,42.3564 Z M44.3639,44.9424 C44.3639,45.6184 42.9739,46.5594 40.7109,46.5594 C38.4469,46.5594 37.0579,45.6184 37.0579,44.9424 L37.0579,44.5024 C37.9769,45.0664 39.2619,45.4144 40.7109,45.4144 C42.1589,45.4144 43.4449,45.0664 44.3639,44.5024 L44.3639,44.9424 Z M35.6169,43.7784 L17.7259,43.7784 C17.4309,42.2694 16.2619,41.1004 14.7539,40.8044 L14.7539,33.5334 C16.2619,33.2374 17.4309,32.0684 17.7259,30.5604 L35.9109,30.5604 C36.2059,32.0684 37.3759,33.2374 38.8839,33.5334 L38.8839,34.3334 C36.9589,34.7664 35.6169,35.8614 35.6169,37.1864 L35.6169,43.7784 Z M44.3639,37.1864 C44.3639,37.8614 42.9739,38.8024 40.7109,38.8024 C38.4469,38.8024 37.0579,37.8614 37.0579,37.1864 C37.0579,36.5104 38.4469,35.5694 40.7109,35.5694 C42.9739,35.5694 44.3639,36.5104 44.3639,37.1864 L44.3639,37.1864 Z M11.8629,28.6294 C11.8629,28.1614 12.2439,27.7794 12.7129,27.7794 L40.9249,27.7794 C41.3939,27.7794 41.7749,28.1614 41.7749,28.6294 L41.7749,34.1934 C41.4319,34.1514 41.0769,34.1274 40.7109,34.1274 C40.5779,34.1274 40.4539,34.1444 40.3239,34.1504 L40.3239,32.8814 C40.3239,32.4854 40.0009,32.1624 39.6049,32.1624 C38.3259,32.1604 37.2839,31.1184 37.2819,29.8394 C37.2819,29.4424 36.9589,29.1194 36.5619,29.1194 L17.0749,29.1194 C16.6779,29.1194 16.3549,29.4424 16.3549,29.8394 C16.3539,31.1184 15.3119,32.1604 14.0329,32.1624 C13.6359,32.1624 13.3129,32.4854 13.3129,32.8814 L13.3129,41.4564 C13.3129,41.8534 13.6359,42.1764 14.0329,42.1764 C15.3119,42.1784 16.3539,43.2194 16.3549,44.4984 C16.3549,44.8954 16.6779,45.2184 17.0749,45.2184 L35.6619,45.2184 C35.7339,45.7104 35.9799,46.1664 36.3829,46.5594 L12.7129,46.5594 C12.2439,46.5594 11.8629,46.1774 11.8629,45.7094 L11.8629,28.6294 Z M8.2899,9.3604 C8.5829,9.8074 9.0869,10.1054 9.6619,10.1054 L22.6799,10.1054 C23.2549,10.1054 23.7589,9.8074 24.0519,9.3604 L28.4309,9.3604 L28.4309,26.3384 L12.7129,26.3384 C11.4489,26.3384 10.4219,27.3674 10.4219,28.6294 L10.4219,36.9394 L3.9889,36.9394 L3.9889,9.3604 L8.2899,9.3604 Z M43.2159,34.5274 L43.2159,28.6294 C43.2139,27.3674 42.1859,26.3394 40.9249,26.3384 L32.5189,26.3384 L32.5189,8.2264 C32.5189,6.9584 31.4869,5.9254 30.2179,5.9254 L24.3189,5.9254 L24.3189,5.1094 C24.3189,4.2104 23.5829,3.4774 22.6799,3.4774 L20.1899,3.4774 C19.8369,2.3404 18.7969,0.8264 16.4709,0.5894 L15.7359,0.5994 C13.5139,0.8514 12.4999,2.3524 12.1519,3.4774 L9.6619,3.4774 C8.7589,3.4774 8.0229,4.2104 8.0229,5.1094 L8.0229,5.9254 L2.3009,5.9254 C1.0319,5.9254 -0.0001,6.9584 -0.0001,8.2264 L-0.0001,38.9644 C-0.0001,40.2334 1.0319,41.2654 2.3009,41.2654 L10.4219,41.2654 L10.4219,45.7094 C10.4219,46.9724 11.4489,48.0004 12.7129,48.0004 L40.9249,48.0004 C40.9549,48.0004 40.9819,47.9864 41.0119,47.9824 C43.7199,47.8894 45.8049,46.5954 45.8049,44.9424 L45.8049,37.1864 C45.8049,36.0254 44.7649,35.0454 43.2159,34.5274 L43.2159,34.5274 Z" id="Fill-15" fill="#707070" mask="url(#mask-2)"></path>
                </g>
                <path d="M40.3864,36.1163 L40.3754,36.1163 L40.3754,36.1383 C40.3434,36.1763 40.3144,36.2183 40.3084,36.2693 C39.7614,36.3793 39.4284,36.6743 39.4284,37.0603 C39.4284,37.6443 40.1754,37.8253 40.5744,37.9223 C40.9734,38.0223 41.0384,38.1023 41.0474,38.1023 L41.0474,38.1023 C41.0304,38.1333 40.8904,38.2173 40.5984,38.2173 L40.5844,38.2173 C40.3334,38.2173 40.0874,38.1713 39.8554,38.0813 C39.7394,38.0333 39.6084,38.0813 39.5484,38.1863 L39.3954,38.4543 C39.3774,38.4983 39.3874,38.5423 39.3944,38.5863 L39.3614,38.6433 L39.4164,38.6643 C39.4434,38.7113 39.4764,38.7563 39.5324,38.7793 C39.7724,38.8703 40.0204,38.9263 40.2714,38.9453 C40.2804,38.9863 40.3074,39.0183 40.3344,39.0503 L40.3344,39.0763 L40.3504,39.0763 C40.3934,39.1163 40.4494,39.1433 40.5134,39.1433 L40.8824,39.1433 L40.8844,39.1433 C40.9474,39.1413 41.0014,39.1153 41.0434,39.0763 L41.0584,39.0763 L41.0584,39.0543 C41.0934,39.0143 41.1204,38.9673 41.1234,38.9093 C41.6964,38.7963 42.0454,38.4893 42.0454,38.0863 C42.0454,37.4623 41.2814,37.2703 40.9554,37.1893 C40.6294,37.1063 40.4964,37.0523 40.4434,37.0193 C40.4894,36.9923 40.5954,36.9553 40.7934,36.9553 C41.0204,36.9583 41.2334,36.9883 41.4424,37.0623 C41.5524,37.1013 41.6714,37.0593 41.7354,36.9603 L41.8764,36.7273 L41.9004,36.6803 C41.9144,36.6443 41.9004,36.6073 41.8964,36.5703 L41.9404,36.4983 L41.8794,36.4763 C41.8504,36.4263 41.8094,36.3833 41.7514,36.3613 C41.5564,36.2943 41.3554,36.2513 41.1524,36.2323 C41.1424,36.1953 41.1154,36.1683 41.0924,36.1403 L41.0924,36.1163 L41.0764,36.1163 C41.0324,36.0753 40.9774,36.0473 40.9134,36.0473 L40.5534,36.0473 C40.4894,36.0473 40.4304,36.0743 40.3864,36.1163" id="Fill-18" fill="#707070"></path>
                <path d="M16.1144,4.544 C16.5104,4.544 16.8314,4.861 16.8314,5.252 C16.8314,5.643 16.5104,5.96 16.1144,5.96 C15.7194,5.96 15.3974,5.643 15.3974,5.252 C15.3974,4.861 15.7194,4.544 16.1144,4.544 M16.1144,7.243 C17.2174,7.243 18.1144,6.35 18.1144,5.252 C18.1144,4.154 17.2174,3.261 16.1144,3.261 C15.0114,3.261 14.1144,4.154 14.1144,5.252 C14.1144,6.35 15.0114,7.243 16.1144,7.243" id="Fill-20" fill="#707070"></path>
            </g>
        </g>
    </g>
</svg>