<?xml version="1.0" encoding="UTF-8" standalone="no"?>
<svg
   xmlns:dc="http://purl.org/dc/elements/1.1/"
   xmlns:cc="http://creativecommons.org/ns#"
   xmlns:rdf="http://www.w3.org/1999/02/22-rdf-syntax-ns#"
   xmlns:svg="http://www.w3.org/2000/svg"
   xmlns="http://www.w3.org/2000/svg"
   xmlns:sodipodi="http://sodipodi.sourceforge.net/DTD/sodipodi-0.dtd"
   xmlns:inkscape="http://www.inkscape.org/namespaces/inkscape"
   width="39px"
   height="45px"
   viewBox="0 0 39 45"
   version="1.1"
   id="svg23"
   sodipodi:docname="ico-vida-estandarizado-rojo.svg"
   inkscape:version="1.0.1 (3bc2e813f5, 2020-09-07)">
  <metadata
     id="metadata29">
    <rdf:RDF>
      <cc:Work
         rdf:about="">
        <dc:format>image/svg+xml</dc:format>
        <dc:type
           rdf:resource="http://purl.org/dc/dcmitype/StillImage" />
      </cc:Work>
    </rdf:RDF>
  </metadata>
  <defs
     id="defs27" />
  <sodipodi:namedview
     pagecolor="#ffffff"
     bordercolor="#666666"
     borderopacity="1"
     objecttolerance="10"
     gridtolerance="10"
     guidetolerance="10"
     inkscape:pageopacity="0"
     inkscape:pageshadow="2"
     inkscape:window-width="1366"
     inkscape:window-height="705"
     id="namedview25"
     showgrid="false"
     inkscape:zoom="11.955556"
     inkscape:cx="3.3986995"
     inkscape:cy="22.5"
     inkscape:window-x="-8"
     inkscape:window-y="-8"
     inkscape:window-maximized="1"
     inkscape:current-layer="svg23"
     inkscape:document-rotation="0" />
  <title
     id="title2">DE50AABD-837D-4B5F-ACD5-896288556D7F</title>
  <g
     id="DESKTOP---MINISITE"
     stroke="none"
     stroke-width="1"
     fill="none"
     fill-rule="evenodd"
     style="fill:#e4241c;fill-opacity:1">
    <g
       id="BANORTE---HOME---VIDA-1---DESKTOP"
       transform="translate(-1218.000000, -171.000000)"
       fill="#707070"
       fill-rule="nonzero"
       style="fill:#e4241c;fill-opacity:1">
      <g
         id="family-(3)"
         transform="translate(1218.000000, 171.000000)"
         style="fill:#e4241c;fill-opacity:1">
        <rect
           id="Rectangle"
           x="6.76271186"
           y="6.75"
           width="1.50282486"
           height="1.5"
           rx="0.75"
           style="fill:#e4241c;fill-opacity:1" />
        <rect
           id="rect5"
           x="9.76836158"
           y="6.75"
           width="1.50282486"
           height="1.5"
           rx="0.75"
           style="fill:#e4241c;fill-opacity:1" />
        <rect
           id="rect7"
           x="27.0508475"
           y="6.75"
           width="1.50282486"
           height="1.5"
           rx="0.75"
           style="fill:#e4241c;fill-opacity:1" />
        <rect
           id="rect9"
           x="24.2330508"
           y="6.75"
           width="1.50282486"
           height="1.5"
           rx="0.75"
           style="fill:#e4241c;fill-opacity:1" />
        <path
           d="m 37.570622,20.58 c 0,-0.416115 -0.05291,-0.830547 -0.157421,-1.233375 -0.104822,-0.403875 -2.599136,-4.99425 -2.599136,-4.99425 C 34.005065,12.900964 32.471946,12.000731 30.80791,12 h -0.837543 c 0.395031,-0.386252 0.727382,-0.831557 0.985101,-1.319906 0.712444,0.837325 1.757486,1.31994 2.858091,1.319906 0.414994,0 0.751413,-0.335786 0.751413,-0.75 v -6 C 34.565196,4.2553695 34.169436,3.3014123 33.464801,2.5981024 32.760167,1.8947924 31.804413,1.4997761 30.80791,1.5 H 29.975626 C 28.463802,0.02063337 26.21033,-0.40901068 24.258646,0.41000792 22.306962,1.2290265 21.038085,3.1368145 21.039548,5.25 v 3 c -5.07e-4,0.8749851 0.218489,1.7361714 0.63701,2.505 -1.266047,0.411512 -2.329792,1.284888 -2.978505,2.445469 -0.365064,0.332115 -0.673571,0.721291 -0.913436,1.152281 l -0.60855,1.093875 C 16.760918,13.445344 15.223113,11.864565 13.231152,11.391469 13.91126,10.484921 14.278205,9.3825356 14.276836,8.25 V 3.75 C 14.274507,1.679896 12.593776,0.00232495 10.519774,-2.0575844e-4 H 4.5084746 C 4.0934808,-2.0575844e-4 3.7570622,0.33578644 3.7570622,0.75 V 1.5 C 3.7566109,2.0266491 3.8959671,2.5440154 4.1609463,2.9994375 3.8962741,3.4553966 3.7569476,3.9730398 3.7570622,4.5 V 8.25 C 3.7564749,9.6620844 4.3276491,11.014475 5.3408517,12 H 4.5084746 C 2.019693,12.002842 0.00284684,14.015897 0,16.5 v 14.25 c 0,0.414214 0.3364188,0.75 0.75141243,0.75 H 3.0056497 V 33 c -1.837e-4,0.639777 0.2731821,1.249226 0.7514125,1.675219 V 40.5 c -1.2449809,0 -2.2542373,1.007359 -2.2542373,2.25 0,1.242641 1.0092564,2.25 2.2542373,2.25 H 16.219895 c 0.613122,0 1.184468,-0.310204 1.518604,-0.823313 C 18.144219,44.696145 18.767216,45 19.427111,45 h 11.573348 c 1.011252,0 1.873369,-0.731702 2.035317,-1.728026 0.161948,-0.996324 -0.424099,-1.962787 -1.383561,-2.281661 L 30.80791,40.709063 V 32.25 h 2.254237 c 0.237559,2.2e-5 0.461138,-0.112083 0.602938,-0.302322 0.1418,-0.190238 0.185119,-0.436201 0.116821,-0.663303 L 32.043326,25.5 h 0.59803 c 2.721071,-0.0031 4.92616,-2.204044 4.929266,-4.92 z m -4.070214,-5.499 2.136548,3.840187 c 0.140932,0.252388 0.248947,0.521729 0.321416,0.801469 0.265772,1.024398 0.04148,2.113895 -0.607444,2.950695 C 34.702002,23.510152 33.701535,24 32.641356,24 H 30.732768 C 30.621341,23.455919 30.389766,22.943485 30.0549,22.5 h 1.897974 c 0.652655,-2.67e-4 1.25586,-0.347159 1.583424,-0.910598 0.327564,-0.563439 0.329994,-1.258289 0.0064,-1.823996 L 31.559322,16.300781 V 13.593 c 0.824976,0.207502 1.52741,0.745975 1.941086,1.488 z M 22.542373,33.75 v 6.75 h -2.254237 v -8.25 h 6.011299 V 40.5 H 24.045198 V 33.75 Z M 17.097169,36 H 6.947935 l 0.1668136,-0.75 h 0.3993757 c 0.4149934,0 0.7514124,-0.335786 0.7514124,-0.75 V 24 h 7.5141243 v 9.75 c 0,0.414214 0.336419,0.75 0.751412,0.75 h 0.232187 z m -2.06892,4.5 h -2.254238 v -3 h 2.254238 z m -6.0112998,-3 h 2.2542368 v 3 H 9.0169492 Z M 5.259887,18 C 5.2601196,17.030956 5.8815361,16.170765 6.8026307,15.864469 6.7764947,16.075315 6.7631638,16.287546 6.7627119,16.5 v 3 c -0.00112,0.953192 -0.6028477,1.802628 -1.5028249,2.121469 z m 2.2542373,-4.5 h 0.195649 C 7.6501299,13.58522 7.5921773,13.671844 7.537512,13.760719 7.5221193,13.674659 7.5142937,13.58742 7.5141243,13.5 Z m 19.2864087,0.906563 c -0.247014,-0.249677 -0.420383,-0.562419 -0.501098,-0.903938 0.208064,0.276763 0.3767,0.580968 0.501098,0.903938 z m 0.250314,1.892999 V 17.25 c 0,2.071068 -1.682094,3.75 -3.757062,3.75 -2.074968,0 -3.757062,-1.678932 -3.757062,-3.75 v -1.5 c 0,-0.01209 7.52e-4,-0.02391 9.39e-4,-0.036 0.8658,-0.06676 1.723287,-0.215455 2.560908,-0.444094 1.122798,-0.313375 2.044938,-0.750687 2.766419,-1.311937 0.232186,0.835125 0.80805,1.81725 2.185858,2.341593 z M 19.536723,22.5 h 7.514124 c 1.244402,0.0014 2.25284,1.007938 2.254238,2.25 v 1.5 H 27.80226 v -1.5 h -1.502825 v 6 h -6.011299 v -6 h -1.502825 v 1.5 h -1.502825 v -1.5 c 0.0014,-1.242062 1.009835,-2.248605 2.254237,-2.25 z m -3.757058,-3.75 c 0.001,0.715597 -0.20396,1.416422 -0.59052,2.019094 -0.452218,0.703581 -1.125577,1.237483 -1.914505,1.518 -1.1501,0.404057 -2.425085,0.22649 -3.4204438,-0.476366 C 8.8588377,21.107872 8.2666578,19.966973 8.2655367,18.75 v -0.752813 c 1.4963488,-0.02682 2.8909023,-0.761729 3.7570623,-1.979906 0.86616,1.218177 2.260713,1.953082 3.757066,1.979906 z M 7.5141243,22.5 c -0.2934243,9.9e-5 -0.5861389,0.02877 -0.8739866,0.08559 0.3818622,-0.263521 0.711928,-0.594873 0.9737366,-0.977532 0.2108895,0.323091 0.4565604,0.622183 0.7326271,0.891938 z M 4.5084746,33 v -6 c 0.00178,-1.367472 0.9281829,-2.56137 2.2542373,-2.905125 V 33.75 H 5.259887 C 4.8450867,33.749535 4.5089405,33.414021 4.5084746,33 Z m 12.7740114,0 v -5.25 h 1.502825 V 33 Z m 10.519774,7.5 v -6 h 1.502825 v 6 z M 29.305085,33 H 27.80226 v -5.25 h 1.502825 z m 2.254237,-13.675594 0.678619,1.185375 c 0.05775,0.101455 0.05718,0.22589 -0.0015,0.32681 C 32.177748,20.93751 32.069781,20.99973 31.952874,21 H 31.559322 Z M 30.056497,16.5 V 21 h -3.08652 c 1.013141,-0.985559 1.584275,-2.337936 1.583695,-3.75 v -1.5 c 0,-0.15225 -0.008,-0.302625 -0.02076,-0.451594 0.166422,-0.25149 0.289063,-0.529245 0.362744,-0.821531 L 29.139868,13.5 h 0.916629 z m 3.00565,-11.25 v 5.121469 C 32.16217,10.052629 31.560438,9.2031918 31.559322,8.25 v -3 C 31.56002,4.4767155 31.388474,3.7129473 31.057097,3.0139688 32.198833,3.140115 33.062655,4.1034493 33.062147,5.25 Z m -10.519774,0 c 0,-2.0710678 1.682094,-3.75 3.757062,-3.75 2.074968,0 3.757062,1.6789322 3.757062,3.75 -2.57e-4,0.086239 -0.0114,0.1721025 -0.03316,0.2555625 C 29.349205,4.9897779 28.827952,4.301049 28.515162,3.5128125 28.426789,3.2481478 28.198541,3.0543129 27.922648,3.0096309 27.646754,2.9649489 27.368812,3.0768045 27.20113,3.3 25.78453,5.1854062 23.661977,5.7545625 22.542373,5.926125 Z m -8e-6,2.19375 C 23.050807,7.379897 23.553338,7.2757241 24.045198,7.1322187 L 25.112203,6.75 c 0.936378,-0.3950812 1.790719,-0.9610069 2.519205,-1.66875 0.452632,0.721125 1.221233,1.629375 2.425089,2.1778125 V 8.25 c -0.0065,1.831072 -1.331738,3.39204 -3.14034,3.698813 C 25.940618,11.018387 24.643093,10.499425 23.293785,10.5 22.805273,9.8512883 22.541523,9.0615257 22.542365,8.25 Z M 23.293785,12 c 0.417593,-8.5e-5 0.832252,0.06963 1.226775,0.20625 -1.017412,1.23675 -3.046038,1.786594 -4.635557,1.969594 C 20.500329,12.850343 21.83016,12.001505 23.293785,12 Z m -5.259887,4.994531 V 17.25 c -9.15e-4,1.022874 0.299381,2.023461 0.863561,2.877375 -0.09641,0.302652 -0.110609,0.625423 -0.04114,0.935344 -0.746122,0.137351 -1.432999,0.497239 -1.970015,1.032187 -0.123261,-0.247189 -0.215746,-0.508507 -0.275393,-0.778125 0.441027,-0.783815 0.672318,-1.667815 0.671575,-2.566781 v -0.404812 z m -2.254237,-0.495844 c -1.441637,-0.03966 -2.679994,-1.03365 -3.028098,-2.430562 -0.08365,-0.33385 -0.384186,-0.568046 -0.728964,-0.568046 -0.344779,0 -0.645319,0.234196 -0.728964,0.568046 -0.348104,1.396912 -1.5864609,2.390903 -3.0280983,2.430562 0,-2.071067 1.6820939,-3.749999 3.7570623,-3.749999 2.074968,0 3.757062,1.678932 3.757062,3.749999 z M 10.519774,1.5 c 1.244401,0.0014 2.25284,1.0079376 2.254237,2.25 V 4.5 L 10.970621,3.15 C 10.840555,3.0526334 10.682357,3 10.519774,3 H 6.7627119 C 5.9331323,2.9990185 5.2608702,2.3280202 5.259887,1.5 Z M 5.259887,8.25 V 6.20775 L 6.3074499,4.4655937 c 0.1506668,0.022918 0.3028556,0.03442 0.455262,0.034406 h 3.5065601 l 2.504743,1.875 V 8.25 c 0.0018,1.2230968 -0.596281,2.369632 -1.601264,3.069469 -0.64579,0.105245 -1.2660123,0.330689 -1.8283739,0.664594 C 9.2353284,11.993438 9.125904,12 9.0169492,12 6.9429468,11.997675 5.2622164,10.320104 5.259887,8.25 Z M 1.5028249,16.5 c 0.00186,-1.656083 1.3464477,-2.99814 3.0056497,-3 h 1.5028248 c 5.56e-5,0.33847 0.057603,0.674481 0.170195,0.99375 C 4.7227064,15.04713 3.7579725,16.442342 3.7570622,18 H 1.5028249 Z m 0,13.5 V 19.5 h 2.2542373 v 5.016281 C 3.2662659,25.251917 3.0047953,26.116182 3.0056497,27 v 3 z m 3.7570621,5.25 h 0.3154993 l -0.2976532,1.337437 c -0.049397,0.222062 0.00485,0.454499 0.147465,0.631919 0.1426196,0.177421 0.3582043,0.280649 0.5861013,0.280644 h 1.5028249 v 3 H 5.259887 Z m -2.2542404,7.5 c -5.728e-4,-0.199088 0.078409,-0.390188 0.2194509,-0.530965 0.1410422,-0.140777 0.3325017,-0.21961 0.5319647,-0.219038 h 2.7029244 c -0.2897916,0.328643 -0.4493503,0.751611 -0.4486872,1.189409 5.997e-4,0.10416 0.010184,0.208075 0.028648,0.310591 H 3.7570622 C 3.3422616,43.499535 3.0061156,43.164021 3.0056466,42.75 Z M 7.825303,43.5 C 7.6994425,43.499935 7.5860063,43.42422 7.5378629,43.308155 7.4897192,43.192085 7.5163436,43.058499 7.605327,42.969656 L 8.5767154,42 h 2.6944706 v 1.5 z m 8.394592,0 H 12.774011 V 42 h 2.694471 l 0.971389,0.969656 c 0.08898,0.08884 0.115608,0.222429 0.06746,0.338499 -0.04814,0.11607 -0.16158,0.19178 -0.28744,0.191845 z m 1.283976,-1.589531 -0.0012,-0.0014 -0.971577,-0.96975 V 37.5 h 1.502825 c 0.227918,1.1e-5 0.443522,-0.10323 0.586146,-0.280673 0.142624,-0.177443 0.19685,-0.409909 0.147421,-0.631983 L 18.302716,34.5 h 0.482595 v 6.2865 l -0.317378,0.158344 c -0.418572,0.207891 -0.757247,0.547114 -0.964062,0.965625 z m 1.281436,0.948937 C 18.784465,42.616548 18.92206,42.394345 19.140071,42.2865 L 19.71415,42 h 2.828223 v 1.5 h -3.115262 c -0.354306,-3.62e-4 -0.641438,-0.286954 -0.641804,-0.640594 z M 24.045198,43.5 V 42 h 2.828222 l 0.574079,0.2865 c 0.266163,0.132899 0.405873,0.430998 0.33749,0.7201 -0.06838,0.289102 -0.32692,0.493354 -0.624529,0.4934 z m 7.514127,-0.557812 c 4.48e-4,0.148078 -0.05829,0.290222 -0.163192,0.394929 C 31.291227,43.441825 31.148816,43.50045 31.000459,43.5 h -1.793997 c 0.154483,-0.493435 0.125877,-1.025884 -0.08059,-1.5 h 0.80852 l 1.24246,0.413344 c 0.228364,0.07557 0.382506,0.288707 0.382472,0.528844 z M 30.80791,30.75 V 26.610094 L 32.052249,30.75 Z"
           id="Shape"
           style="stroke-width:1;fill:#e4241c;fill-opacity:1" />
        <rect
           id="rect12"
           x="9.76836158"
           y="18"
           width="1.50282486"
           height="1.5"
           rx="0.75"
           style="fill:#e4241c;fill-opacity:1" />
        <rect
           id="rect14"
           x="12.7740113"
           y="18"
           width="1.50282486"
           height="1.5"
           rx="0.75"
           style="fill:#e4241c;fill-opacity:1" />
        <rect
           id="rect16"
           x="21.039548"
           y="16.5"
           width="1.50282486"
           height="1.5"
           rx="0.75"
           style="fill:#e4241c;fill-opacity:1" />
        <rect
           id="rect18"
           x="24.0451977"
           y="16.5"
           width="1.50282486"
           height="1.5"
           rx="0.75"
           style="fill:#e4241c;fill-opacity:1" />
      </g>
    </g>
  </g>
</svg>
