<?xml version="1.0" encoding="UTF-8"?>
<svg width="35px" height="44px" viewBox="0 0 35 44" version="1.1" xmlns="http://www.w3.org/2000/svg" xmlns:xlink="http://www.w3.org/1999/xlink">
    <title>824E29CF-8EBA-4D45-8D4E-5F4F175B662D</title>
    <defs>
        <polygon id="path-1" points="0.0002 0.547 34.745 0.547 34.745 42.9998 0.0002 42.9998"></polygon>
    </defs>
    <g id="Iconografía" stroke="none" stroke-width="1" fill="none" fill-rule="evenodd">
        <g id="Banorte---Iconografía---Coberturas" transform="translate(-810.000000, -2008.000000)">
            <g id="Group-20" transform="translate(810.000000, 2008.000000)">
                <path d="M17.1683,38.0898 C15.5253,38.0898 14.1893,36.7538 14.1893,35.1108 C14.1893,33.4688 15.5253,32.1328 17.1683,32.1328 C18.8093,32.1338 20.1453,33.4698 20.1473,35.1108 C20.1473,36.7538 18.8113,38.0898 17.1683,38.0898 M17.1683,31.0228 C14.9143,31.0228 13.0793,32.8568 13.0793,35.1108 C13.0793,37.3648 14.9143,39.1988 17.1683,39.1988 C19.4203,39.1968 21.2533,37.3628 21.2563,35.1108 C21.2563,32.8568 19.4223,31.0228 17.1683,31.0228" id="Fill-1" fill="#EB0029"></path>
                <path d="M17.4315,34.6631 C16.8675,34.4301 16.8245,34.3121 16.8245,34.1721 C16.8245,34.0201 16.9365,33.8591 17.2555,33.8591 L17.2695,33.8591 C17.4885,33.8591 17.7035,33.9191 17.8975,34.0341 C17.9325,34.0531 17.9715,34.0481 18.0095,34.0441 L18.0565,34.0711 L18.0745,34.0221 C18.1125,34.0011 18.1495,33.9761 18.1635,33.9351 L18.3095,33.5521 C18.3435,33.4661 18.3095,33.3661 18.2285,33.3181 C18.0245,33.2021 17.7975,33.1281 17.5635,33.1011 L17.5635,32.9961 C17.5635,32.9441 17.5425,32.8991 17.5095,32.8651 L17.5095,32.8581 L17.4965,32.8581 C17.4635,32.8291 17.4225,32.8081 17.3735,32.8061 L17.0115,32.8061 C16.9615,32.8061 16.9185,32.8271 16.8845,32.8581 L16.8715,32.8581 L16.8715,32.8741 C16.8425,32.9071 16.8215,32.9481 16.8215,32.9961 L16.8215,33.1431 C16.3155,33.2601 15.9445,33.7131 15.9385,34.2431 C15.9385,34.9151 16.4865,35.2211 17.0215,35.4301 C17.4695,35.6121 17.5615,35.7701 17.5615,35.9501 C17.5615,36.1801 17.3585,36.3331 17.0565,36.3331 C16.7925,36.3321 16.5375,36.2561 16.3255,36.1181 C16.2895,36.0921 16.2455,36.0971 16.2025,36.0991 L16.1475,36.0621 L16.1265,36.1191 C16.0885,36.1421 16.0495,36.1671 16.0355,36.2081 L15.8955,36.5991 C15.8665,36.6781 15.8945,36.7671 15.9705,36.8211 C16.2155,36.9761 16.4925,37.0701 16.7785,37.1001 L16.7785,37.2261 C16.7785,37.2741 16.7995,37.3171 16.8305,37.3511 L16.8305,37.3631 L16.8415,37.3631 C16.8755,37.3941 16.9185,37.4161 16.9685,37.4161 L17.3445,37.4161 L17.3465,37.4161 C17.3935,37.4141 17.4325,37.3921 17.4655,37.3631 L17.4745,37.3631 L17.4745,37.3581 C17.5105,37.3241 17.5315,37.2771 17.5315,37.2251 L17.5315,37.0591 C18.0625,36.9341 18.4445,36.4681 18.4545,35.9071 C18.4545,35.3361 18.1385,34.9521 17.4315,34.6631" id="Fill-3" fill="#EB0029"></path>
                <path d="M10.2234,20.331 L10.2854,20.205 L9.2174,19.671 L9.1554,19.797 C8.9274,20.252 8.4704,20.535 7.9604,20.535 C7.4514,20.535 6.9944,20.252 6.7664,19.797 L6.7034,19.671 L5.6354,20.205 L5.6984,20.331 C6.1294,21.194 6.9964,21.729 7.9604,21.729 C8.9254,21.729 9.7924,21.194 10.2234,20.331" id="Fill-5" fill="#EB0029"></path>
                <path d="M6.2952,18.5342 C6.7092,18.5342 7.0442,18.1982 7.0442,17.7842 C7.0442,17.3712 6.7092,17.0362 6.2952,17.0362 C5.8812,17.0362 5.5462,17.3712 5.5462,17.7842 C5.5462,18.1982 5.8812,18.5342 6.2952,18.5342" id="Fill-7" fill="#EB0029"></path>
                <path d="M9.4754,18.5342 C9.8894,18.5342 10.2244,18.1982 10.2244,17.7842 C10.2244,17.3712 9.8894,17.0362 9.4754,17.0362 C9.0614,17.0362 8.7264,17.3712 8.7264,17.7842 C8.7264,18.1982 9.0614,18.5342 9.4754,18.5342" id="Fill-9" fill="#EB0029"></path>
                <path d="M25.6561,12.626 C25.4201,13.098 24.9461,13.392 24.4171,13.392 C23.8881,13.392 23.4141,13.098 23.1781,12.626 L23.1131,12.495 L22.0051,13.049 L22.0701,13.18 C22.5171,14.074 23.4161,14.63 24.4171,14.63 C25.4181,14.63 26.3171,14.074 26.7641,13.179 L26.8291,13.049 L25.7211,12.494 L25.6561,12.626 Z" id="Fill-11" fill="#EB0029"></path>
                <path d="M22.9329,9.9619 C22.9329,9.5319 22.5849,9.1849 22.1559,9.1849 C21.7269,9.1849 21.3789,9.5319 21.3789,9.9619 C21.3789,10.3909 21.7269,10.7379 22.1559,10.7379 C22.5849,10.7379 22.9329,10.3909 22.9329,9.9619" id="Fill-13" fill="#EB0029"></path>
                <path d="M26.137,9.1845 C25.708,9.1845 25.36,9.5325 25.36,9.9615 C25.36,10.3905 25.708,10.7385 26.137,10.7385 C26.566,10.7385 26.914,10.3905 26.914,9.9615 C26.914,9.5325 26.566,9.1845 26.137,9.1845" id="Fill-15" fill="#EB0029"></path>
                <g id="Group-19" transform="translate(0.000000, 0.453100)">
                    <mask id="mask-2" fill="white">
                        <use xlink:href="#path-1"></use>
                    </mask>
                    <g id="Clip-18"></g>
                    <path d="M33.5062,31.7578 L29.7972,31.7848 L29.7972,28.0808 C29.7952,27.1098 29.0042,26.3178 28.0322,26.3168 L27.3672,26.3168 C27.3602,25.3488 26.5712,24.5618 25.6032,24.5598 L14.7622,24.5598 L14.7792,23.7588 C14.7792,22.0498 15.9372,20.5668 17.5952,20.1528 L21.4042,19.1998 L21.5192,19.3158 C22.1922,19.9868 23.1222,20.3718 24.0722,20.3718 L24.2132,20.3718 C25.1632,20.3718 26.0932,19.9868 26.7662,19.3158 L26.8812,19.1998 L30.6902,20.1528 C32.3482,20.5668 33.5062,22.0498 33.5062,23.7588 L33.5062,31.7578 Z M29.6472,35.9158 C27.9032,35.9158 26.8332,35.1908 26.8332,34.6708 C26.8332,34.2278 27.6172,33.6378 28.9292,33.4738 C29.0192,33.5368 29.1232,33.5828 29.2422,33.5828 C29.2922,33.5828 29.3382,33.5678 29.3842,33.5538 C29.3612,33.5818 29.3412,33.6118 29.3372,33.6498 C28.9162,33.7338 28.6592,33.9608 28.6592,34.2588 C28.6592,34.7068 29.2342,34.8478 29.5422,34.9228 C29.8492,34.9978 29.8992,35.0618 29.9062,35.0618 C29.8922,35.0848 29.7852,35.1498 29.5612,35.1498 L29.5542,35.1498 C29.3592,35.1498 29.1682,35.1138 28.9872,35.0438 C28.8992,35.0128 28.8002,35.0428 28.7512,35.1248 L28.6332,35.3318 C28.6192,35.3648 28.6272,35.4008 28.6332,35.4348 L28.6082,35.4788 L28.6492,35.4938 C28.6702,35.5298 28.6962,35.5648 28.7382,35.5818 C28.9222,35.6518 29.1122,35.6948 29.3082,35.7098 C29.3152,35.7418 29.3362,35.7668 29.3562,35.7898 L29.3562,35.8118 L29.3692,35.8118 C29.4022,35.8418 29.4452,35.8618 29.4942,35.8618 L29.7772,35.8618 C29.8252,35.8618 29.8692,35.8428 29.9022,35.8118 L29.9142,35.8118 L29.9142,35.7928 C29.9412,35.7618 29.9632,35.7258 29.9642,35.6828 C30.4052,35.5948 30.6742,35.3588 30.6742,35.0478 C30.6742,34.5678 30.0872,34.4208 29.8362,34.3578 C29.5832,34.2938 29.4812,34.2518 29.4402,34.2268 C29.4762,34.2058 29.5582,34.1778 29.7112,34.1778 C29.8892,34.1728 30.0482,34.2018 30.2132,34.2618 C30.2962,34.2848 30.3862,34.2578 30.4352,34.1818 L30.5482,33.9988 L30.5632,33.9658 C30.5742,33.9378 30.5632,33.9088 30.5602,33.8808 L30.5942,33.8248 L30.5432,33.8078 C30.5212,33.7708 30.4922,33.7368 30.4482,33.7198 C30.2982,33.6678 30.1442,33.6358 29.9862,33.6208 C29.9792,33.5928 29.9592,33.5708 29.9412,33.5498 L29.9412,33.5308 L29.9282,33.5308 C29.8952,33.5008 29.8542,33.4798 29.8032,33.4778 L29.5492,33.4778 C29.5742,33.4598 29.6032,33.4478 29.6242,33.4268 C29.6322,33.4268 29.6392,33.4258 29.6472,33.4258 C31.3902,33.4258 32.4602,34.1518 32.4602,34.6708 C32.4602,35.1908 31.3902,35.9158 29.6472,35.9158 L29.6472,35.9158 Z M32.4602,36.6618 C32.4602,37.1818 31.3902,37.9068 29.6472,37.9068 C27.9032,37.9068 26.8332,37.1818 26.8332,36.6618 L26.8332,36.3238 C27.5412,36.7588 28.5312,37.0268 29.6472,37.0268 C30.7622,37.0268 31.7522,36.7588 32.4602,36.3238 L32.4602,36.6618 Z M32.4602,38.6538 C32.4602,39.1728 31.3902,39.8988 29.6472,39.8988 C27.9032,39.8988 26.8332,39.1728 26.8332,38.6538 L26.8332,38.3158 C27.5412,38.7498 28.5312,39.0178 29.6472,39.0178 C30.7622,39.0178 31.7522,38.7498 32.4602,38.3158 L32.4602,38.6538 Z M32.4602,40.6448 C32.4602,41.1638 31.3902,41.8898 29.6472,41.8898 C27.9032,41.8898 26.8332,41.1638 26.8332,40.6448 L26.8332,40.3068 C27.5412,40.7408 28.5312,41.0088 29.6472,41.0088 C30.7622,41.0088 31.7522,40.7408 32.4602,40.3068 L32.4602,40.6448 Z M25.7232,34.6708 L25.7232,39.0038 C25.3962,39.1508 25.0672,39.3638 24.8172,39.5368 C24.6882,39.6258 24.5272,39.7368 24.4992,39.7478 L10.1662,39.7478 C9.9392,38.5868 9.0382,37.6868 7.8762,37.4588 L7.8762,31.8578 C9.0382,31.6298 9.9382,30.7298 10.1662,29.5688 L24.1712,29.5688 C24.3992,30.7298 25.2992,31.6298 26.4612,31.8578 L26.4612,32.9278 C26.4612,33.0368 26.5012,33.1338 26.5562,33.2198 C26.0402,33.6178 25.7232,34.1158 25.7232,34.6708 L25.7232,34.6708 Z M6.3042,41.8898 C5.9432,41.8898 5.6502,41.5968 5.6502,41.2358 L5.6502,28.0808 C5.6502,27.7198 5.9432,27.4268 6.3042,27.4268 L28.0322,27.4268 C28.3932,27.4268 28.6872,27.7198 28.6872,28.0808 L28.6872,32.3918 C28.2852,32.4498 27.9102,32.5438 27.5702,32.6698 L27.5702,31.3568 C27.5702,31.0508 27.3212,30.8018 27.0162,30.8018 C26.0312,30.7998 25.2282,29.9978 25.2272,29.0138 C25.2272,28.7068 24.9782,28.4578 24.6732,28.4578 L9.6642,28.4578 C9.3582,28.4578 9.1092,28.7068 9.1092,29.0138 C9.1092,29.9978 8.3062,30.7998 7.3212,30.8018 C7.0152,30.8018 6.7662,31.0508 6.7662,31.3568 L6.7662,37.9598 C6.7662,38.2658 7.0152,38.5148 7.3202,38.5148 C8.3062,38.5168 9.1092,39.3188 9.1092,40.3028 C9.1092,40.6088 9.3582,40.8578 9.6642,40.8578 L24.7742,40.8578 C24.9132,40.8578 25.0722,40.7378 25.3642,40.5098 C25.4762,40.4218 25.6002,40.3278 25.7232,40.2418 L25.7232,40.6448 C25.7232,41.1068 25.9442,41.5288 26.3132,41.8898 L6.3042,41.8898 Z M4.5402,28.0808 L4.5402,40.1338 L3.8752,40.1338 C3.5142,40.1338 3.2202,39.8398 3.2202,39.4788 L3.2202,26.3248 C3.2202,25.9638 3.5142,25.6698 3.8752,25.6698 L25.6032,25.6698 C25.9612,25.6698 26.2512,25.9598 26.2562,26.3168 L6.3042,26.3168 C5.3312,26.3168 4.5402,27.1088 4.5402,28.0808 L4.5402,28.0808 Z M1.2472,31.8648 L1.2202,28.4428 C1.3642,26.8158 2.0972,25.2878 3.2572,24.1478 C3.3412,24.3098 3.4542,24.4518 3.5702,24.5908 C2.7432,24.7358 2.1102,25.4558 2.1102,26.3248 L2.1102,31.8698 L1.2472,31.8648 Z M12.5812,24.5598 L11.9782,24.5598 C12.0852,24.4288 12.1922,24.2978 12.2702,24.1458 C12.3772,24.2508 12.4812,24.3928 12.5812,24.5598 L12.5812,24.5598 Z M1.1942,17.0958 C1.1942,13.4738 4.1412,10.5268 7.7632,10.5268 C11.3852,10.5268 14.3322,13.4738 14.3322,17.0958 C14.3322,19.1878 13.8672,21.2788 12.9952,23.1818 C12.7762,22.9748 12.5462,22.7788 12.3022,22.5968 C12.0592,22.4128 11.8092,22.2468 11.5542,22.0968 C12.5322,21.1218 13.1382,19.7768 13.1382,18.2898 L13.1382,17.5228 C13.1382,16.2908 12.2132,15.2688 10.9862,15.1468 L9.6572,15.0138 C8.1082,14.8588 6.8612,13.7288 6.5572,12.2008 L5.3862,12.4368 C5.4392,12.7008 5.5132,12.9578 5.6072,13.2038 L4.9972,13.4068 C4.6762,13.5148 4.3692,13.6648 4.0882,13.8528 C3.0242,14.5618 2.3892,15.7468 2.3892,17.0268 L2.3892,18.2898 C2.3892,19.7768 2.9952,21.1218 3.9722,22.0968 C3.7172,22.2468 3.4682,22.4128 3.2252,22.5958 C2.9822,22.7778 2.7512,22.9738 2.5322,23.1818 C1.6592,21.2788 1.1942,19.1888 1.1942,17.0958 L1.1942,17.0958 Z M3.5832,18.2898 L3.5832,17.0268 C3.5832,16.1488 4.0192,15.3328 4.7502,14.8468 C4.9442,14.7168 5.1552,14.6138 5.3752,14.5398 L6.1812,14.2728 C6.9502,15.3428 8.1552,16.0638 9.5402,16.2018 L10.8692,16.3348 C11.4822,16.3958 11.9442,16.9068 11.9442,17.5228 L11.9442,18.2898 C11.9442,20.5948 10.0682,22.4708 7.7632,22.4708 C5.4592,22.4708 3.5832,20.5948 3.5832,18.2898 L3.5832,18.2898 Z M6.7532,24.3078 L6.4482,23.8388 L5.9612,24.1118 C5.7822,24.2118 5.5852,24.2628 5.3752,24.2628 C4.8112,24.2628 4.3522,23.8858 4.2212,23.3638 C4.4802,23.1888 4.7432,23.0328 5.0132,22.8998 C5.8192,23.3818 6.7572,23.6648 7.7632,23.6648 C8.7692,23.6648 9.7082,23.3818 10.5142,22.8998 C10.7832,23.0328 11.0482,23.1888 11.3062,23.3638 C11.1742,23.8848 10.7162,24.2628 10.1522,24.2628 C9.9422,24.2628 9.7452,24.2118 9.5662,24.1118 L9.0792,23.8388 L8.7752,24.3078 C8.7112,24.4038 8.6342,24.4868 8.5502,24.5598 L6.9772,24.5598 C6.8932,24.4868 6.8162,24.4038 6.7532,24.3078 L6.7532,24.3078 Z M26.0182,18.3098 L25.8902,18.4388 C25.4482,18.8808 24.8372,19.1338 24.2132,19.1338 C23.5882,19.1338 22.9772,18.8808 22.5352,18.4388 L22.4072,18.3108 L22.7772,16.4618 C23.2352,16.5828 23.7152,16.6548 24.2132,16.6548 C24.7092,16.6548 25.1902,16.5828 25.6482,16.4608 L26.0182,18.3098 Z M24.2132,15.4158 C21.8212,15.4158 19.8762,13.4698 19.8762,11.0788 L19.8762,8.5288 C19.8762,7.6178 20.3282,6.7728 21.0862,6.2678 C21.2872,6.1328 21.5062,6.0268 21.7352,5.9488 L22.5712,5.6708 C23.3692,6.7818 24.6192,7.5298 26.0562,7.6738 L27.4342,7.8118 C28.0702,7.8738 28.5492,8.4048 28.5492,9.0438 L28.5492,11.0788 C28.5492,13.4698 26.6032,15.4158 24.2132,15.4158 L24.2132,15.4158 Z M17.3972,8.6008 C17.3972,4.8438 20.4552,1.7858 24.2132,1.7858 C27.9702,1.7858 31.0272,4.8438 31.0272,8.6008 L31.0272,18.9618 C31.0142,18.9588 31.0032,18.9538 30.9902,18.9498 L27.2212,18.0088 L26.8202,16.0048 C28.5842,15.0678 29.7882,13.2118 29.7882,11.0788 L29.7882,9.0438 C29.7882,7.7658 28.8292,6.7048 27.5562,6.5778 L26.1782,6.4408 C24.5702,6.2798 23.2772,5.1078 22.9612,3.5238 L21.7462,3.7668 C21.8012,4.0418 21.8782,4.3078 21.9752,4.5638 L21.3422,4.7748 C21.0092,4.8858 20.6922,5.0408 20.3992,5.2368 C19.2952,5.9718 18.6362,7.2018 18.6362,8.5288 L18.6362,11.0788 C18.6362,13.2118 19.8412,15.0678 21.6052,16.0038 L21.2042,18.0078 C21.2042,18.0078 18.0992,18.9278 17.3972,18.8978 L17.3972,8.6008 Z M34.7452,23.7588 C34.7452,21.9508 33.7722,20.3368 32.2672,19.4698 L32.2672,8.6008 C32.2672,4.1598 28.6532,0.5468 24.2132,0.5468 C19.7722,0.5468 16.1582,4.1598 16.1582,8.6008 L16.1582,11.4128 L16.1582,12.9458 L16.1582,17.9768 L16.1582,19.4978 C16.1582,19.4978 15.7262,19.6728 15.2162,20.0768 C15.4062,19.0928 15.5272,18.0968 15.5272,17.0958 C15.5272,15.6968 15.1502,14.3878 14.5002,13.2528 C11.9302,9.3938 8.3362,9.3578 8.3362,9.3578 C8.1462,9.3428 7.9562,9.3328 7.7632,9.3328 C3.4832,9.3328 0.0002,12.8158 0.0002,17.0958 C0.0002,19.5318 0.5762,21.9718 1.6652,24.1508 L1.6692,24.1568 C0.6092,25.5468 0.0002,27.2608 0.0002,29.0398 L0.0002,33.2418 L2.1102,33.2418 L2.1102,39.4788 C2.1102,40.4508 2.9022,41.2428 3.8752,41.2428 L4.5412,41.2428 C4.5452,42.2118 5.3342,42.9998 6.3042,42.9998 L28.0322,42.9998 C28.1652,42.9998 28.2832,42.9458 28.3792,42.8678 C28.7772,42.9468 29.1982,42.9998 29.6472,42.9998 C31.8462,42.9998 33.5702,41.9648 33.5702,40.6448 L33.5702,34.6708 C33.5702,34.1078 33.2422,33.6048 32.7112,33.2048 L34.7452,33.2068 L34.7452,23.7588 Z" id="Fill-17" fill="#EB0029" mask="url(#mask-2)"></path>
                </g>
            </g>
        </g>
    </g>
</svg>