<?xml version="1.0" encoding="UTF-8"?>
<svg width="42px" height="43px" viewBox="0 0 42 43" version="1.1" xmlns="http://www.w3.org/2000/svg" xmlns:xlink="http://www.w3.org/1999/xlink">
    <title>F0211C9B-BD0E-408A-BDCA-1B6D16173A70</title>
    <defs>
        <polygon id="path-1" points="0 0.455 41.7289 0.455 41.7289 41 0 41"></polygon>
    </defs>
    <g id="Iconografía" stroke="none" stroke-width="1" fill="none" fill-rule="evenodd">
        <g id="Banorte---Iconografía---Coberturas" transform="translate(-50.000000, -1377.000000)">
            <g id="Group-14" transform="translate(50.000000, 1377.000000)">
                <path d="M18.3545,5.5854 L23.5935,5.5854 C24.0015,5.5854 24.3335,5.2544 24.3335,4.8464 C24.3335,4.4384 24.0015,4.1064 23.5935,4.1064 L18.3545,4.1064 C17.9465,4.1064 17.6155,4.4384 17.6155,4.8464 C17.6155,5.2544 17.9465,5.5854 18.3545,5.5854" id="Fill-1" fill="#707070"></path>
                <path d="M26.5981,14.3335 C27.0061,14.3335 27.3371,14.0025 27.3371,13.5945 C27.3371,13.1865 27.0061,12.8545 26.5981,12.8545 L15.4521,12.8545 C15.0441,12.8545 14.7131,13.1865 14.7131,13.5945 C14.7131,14.0025 15.0441,14.3335 15.4521,14.3335 L26.5981,14.3335 Z" id="Fill-3" fill="#707070"></path>
                <path d="M26.5361,16.7388 L15.8331,16.7388 C15.4251,16.7388 15.0941,17.0688 15.0941,17.4768 C15.0941,17.8848 15.4251,18.2168 15.8331,18.2168 L26.5361,18.2168 C26.9441,18.2168 27.2751,17.8848 27.2751,17.4768 C27.2751,17.0688 26.9441,16.7388 26.5361,16.7388" id="Fill-5" fill="#707070"></path>
                <path d="M27.2754,21.6626 C27.2754,21.2546 26.9444,20.9246 26.5364,20.9246 L15.8334,20.9246 C15.4254,20.9246 15.0944,21.2546 15.0944,21.6626 C15.0944,22.0706 15.4254,22.4016 15.8334,22.4016 L26.5364,22.4016 C26.9444,22.4016 27.2754,22.0706 27.2754,21.6626" id="Fill-7" fill="#707070"></path>
                <g id="Group-11" transform="translate(0.000000, 0.545400)">
                    <mask id="mask-2" fill="white">
                        <use xlink:href="#path-1"></use>
                    </mask>
                    <g id="Clip-10"></g>
                    <path d="M33.0239,39.502 C29.0499,39.502 25.8169,36.269 25.8169,32.295 C25.8169,28.321 29.0499,25.089 33.0239,25.089 C36.9979,25.089 40.2309,28.321 40.2309,32.295 C40.2309,36.269 36.9979,39.502 33.0239,39.502 L33.0239,39.502 Z M9.1019,33.94 L9.1019,33.94 C8.8719,33.94 8.6849,33.754 8.6849,33.524 L8.6849,29.315 L10.5699,29.315 L10.5699,32.39 C10.5699,32.798 10.9009,33.129 11.3099,33.129 L24.3609,33.129 C24.3869,33.403 24.4279,33.674 24.4799,33.94 L9.1019,33.94 Z M4.0519,31.017 L4.0519,32.529 L3.6079,32.529 C2.6029,32.529 1.7849,31.711 1.7849,30.706 L1.7849,25.191 C1.7849,24.187 2.6029,23.368 3.6079,23.368 L7.2069,23.368 L7.2069,27.621 C5.4339,27.827 4.0519,29.262 4.0519,31.017 L4.0519,31.017 Z M9.1019,4.271 L13.3469,4.271 C13.5839,4.945 13.9419,5.579 14.4149,6.152 L11.3099,6.152 C10.9009,6.152 10.5699,6.483 10.5699,6.892 L10.5699,27.579 L8.6849,27.579 L8.6849,4.686 C8.6849,4.457 8.8719,4.271 9.1019,4.271 L9.1019,4.271 Z M15.1399,1.933 L26.8089,1.933 C27.1959,1.933 27.4539,2.155 27.4539,2.302 C27.4539,2.669 27.4109,3.024 27.3279,3.365 C27.3269,3.371 27.3249,3.377 27.3239,3.384 C27.0399,4.542 26.3009,5.536 25.2509,6.256 C25.2209,6.274 25.1909,6.294 25.1639,6.316 C24.0499,7.052 22.5999,7.483 20.9729,7.483 C19.3539,7.483 17.9089,7.056 16.7959,6.325 C16.7599,6.295 16.7209,6.269 16.6789,6.245 C15.6429,5.529 14.9129,4.546 14.6279,3.401 C14.6229,3.373 14.6159,3.346 14.6079,3.318 C14.5329,2.991 14.4929,2.652 14.4929,2.302 C14.4929,2.155 14.7509,1.933 15.1399,1.933 L15.1399,1.933 Z M15.5299,28.64 L15.5299,28.304 C15.5299,27.981 15.7919,27.72 16.1139,27.72 L16.7489,27.72 C17.0699,27.72 17.3329,27.981 17.3329,28.304 L17.3329,28.64 C17.3329,28.962 17.0699,29.224 16.7489,29.224 L16.1139,29.224 C15.7919,29.224 15.5299,28.962 15.5299,28.64 L15.5299,28.64 Z M24.3519,31.651 L12.0479,31.651 L12.0479,29.315 L13.8549,29.315 C14.1479,30.291 15.0439,31.009 16.1139,31.009 L16.7489,31.009 C18.0549,31.009 19.1179,29.946 19.1179,28.64 L19.1179,28.304 C19.1179,26.997 18.0549,25.935 16.7489,25.935 L16.1139,25.935 C15.0619,25.935 14.1779,26.628 13.8699,27.579 L12.0479,27.579 L12.0479,7.631 L16.1049,7.631 C17.4679,8.493 19.1619,8.962 20.9729,8.962 C22.7849,8.962 24.4789,8.493 25.8419,7.631 L29.8999,7.631 L29.8999,14.775 L29.8999,14.776 L29.8999,24.18 C26.8329,25.365 24.6039,28.233 24.3519,31.651 L24.3519,31.651 Z M28.5989,4.271 L32.8449,4.271 C33.0719,4.271 33.2639,4.461 33.2639,4.686 L33.2639,23.603 C33.1839,23.601 33.1049,23.591 33.0239,23.591 C32.4609,23.591 31.9119,23.649 31.3779,23.752 L31.3779,14.121 L31.3779,14.12 L31.3779,6.892 C31.3779,6.483 31.0469,6.152 30.6389,6.152 L27.5329,6.152 C28.0039,5.579 28.3629,4.945 28.5989,4.271 L28.5989,4.271 Z M15.5299,38.146 C15.5299,37.823 15.7919,37.562 16.1139,37.562 L16.7489,37.562 C17.0699,37.562 17.3329,37.823 17.3329,38.146 L17.3329,38.481 C17.3329,38.804 17.0699,39.065 16.7489,39.065 L16.1139,39.065 C15.7919,39.065 15.5299,38.804 15.5299,38.481 L15.5299,38.146 Z M34.7419,23.763 L34.7419,4.686 C34.7419,3.642 33.8909,2.792 32.8449,2.792 L28.9119,2.792 C28.9249,2.63 28.9319,2.467 28.9319,2.302 C28.9319,1.283 27.9799,0.455 26.8089,0.455 L15.1399,0.455 C13.9679,0.455 13.0149,1.283 13.0149,2.302 C13.0149,2.467 13.0219,2.63 13.0349,2.792 L9.1019,2.792 C8.0569,2.792 7.2069,3.642 7.2069,4.686 L7.2069,21.583 L3.6079,21.583 C1.6189,21.583 -0.0001,23.201 -0.0001,25.191 L-0.0001,30.706 C-0.0001,32.696 1.6189,34.315 3.6079,34.315 L4.0519,34.315 L4.0519,35.636 C4.0519,37.531 5.6599,39.073 7.6359,39.073 L13.8289,39.073 C14.0929,40.093 15.0129,40.851 16.1139,40.851 L16.7489,40.851 C18.0549,40.851 19.1179,39.788 19.1179,38.481 L19.1179,38.146 C19.1179,36.839 18.0549,35.776 16.7489,35.776 L16.1139,35.776 C15.0919,35.776 14.2279,36.43 13.8959,37.337 L7.6359,37.337 C6.6179,37.337 5.7889,36.573 5.7889,35.636 L5.7889,31.017 C5.7889,30.216 6.3959,29.546 7.2069,29.367 L7.2069,33.524 C7.2069,34.568 8.0569,35.418 9.1019,35.418 L24.9079,35.418 C26.1669,38.678 29.3259,41 33.0239,41 C37.8239,41 41.7289,37.095 41.7289,32.295 C41.7289,28.083 38.7209,24.563 34.7419,23.763 L34.7419,23.763 Z" id="Fill-9" fill="#707070" mask="url(#mask-2)"></path>
                </g>
                <path d="M36.3721,33.5102 L34.3631,33.5102 C33.9931,33.5102 33.6931,33.8102 33.6931,34.1802 L33.6931,36.1892 L32.3541,36.1892 L32.3541,34.1802 C32.3541,33.8102 32.0541,33.5102 31.6841,33.5102 L29.6751,33.5102 L29.6751,32.1702 L31.6841,32.1702 C32.0541,32.1702 32.3541,31.8702 32.3541,31.5012 L32.3541,29.4912 L33.6931,29.4912 L33.6931,31.5012 C33.6931,31.8702 33.9931,32.1702 34.3631,32.1702 L36.3721,32.1702 L36.3721,33.5102 Z M37.0421,30.8312 L35.0331,30.8312 L35.0331,28.8232 C35.0331,28.4522 34.7331,28.1532 34.3631,28.1532 L31.6841,28.1532 C31.3141,28.1532 31.0151,28.4522 31.0151,28.8232 L31.0151,30.8312 L29.0051,30.8312 C28.6361,30.8312 28.3351,31.1312 28.3351,31.5012 L28.3351,34.1802 C28.3351,34.5502 28.6361,34.8502 29.0051,34.8502 L31.0151,34.8502 L31.0151,36.8592 C31.0151,37.2292 31.3141,37.5292 31.6841,37.5292 L34.3631,37.5292 C34.7331,37.5292 35.0331,37.2292 35.0331,36.8592 L35.0331,34.8502 L37.0421,34.8502 C37.4121,34.8502 37.7121,34.5502 37.7121,34.1802 L37.7121,31.5012 C37.7121,31.1312 37.4121,30.8312 37.0421,30.8312 L37.0421,30.8312 Z" id="Fill-12" fill="#707070"></path>
            </g>
        </g>
    </g>
</svg>