<?xml version="1.0" encoding="UTF-8"?>
<svg width="33px" height="45px" viewBox="0 0 33 45" version="1.1" xmlns="http://www.w3.org/2000/svg" xmlns:xlink="http://www.w3.org/1999/xlink">
    <title>FAC7D041-B686-4A2F-BD32-5F3B7D1A16D4</title>
    <defs>
        <polygon id="path-1" points="0 44.2825 32.468 44.2825 32.468 0.0005 0 0.0005"></polygon>
    </defs>
    <g id="Iconografía" stroke="none" stroke-width="1" fill="none" fill-rule="evenodd">
        <g id="Banorte---Iconografía---Coberturas" transform="translate(-50.000000, -1218.000000)">
            <g id="Group-12" transform="translate(50.000000, 1218.000000)">
                <path d="M16.2341,5.1735 C15.8261,5.1735 15.4961,4.8425 15.4961,4.4355 C15.4961,4.0275 15.8261,3.6965 16.2341,3.6965 C16.6421,3.6965 16.9721,4.0275 16.9721,4.4355 C16.9721,4.8425 16.6421,5.1735 16.2341,5.1735 M16.2341,2.2215 C15.0111,2.2215 14.0201,3.2125 14.0201,4.4355 C14.0201,5.6575 15.0111,6.6495 16.2341,6.6495 C17.4571,6.6495 18.4481,5.6575 18.4481,4.4355 C18.4481,3.2125 17.4571,2.2215 16.2341,2.2215" id="Fill-1" fill="#707070"></path>
                <mask id="mask-2" fill="white">
                    <use xlink:href="#path-1"></use>
                </mask>
                <g id="Clip-4"></g>
                <polygon id="Fill-3" fill="#707070" mask="url(#mask-2)" points="8.784 26.8595 10.307 26.8595 10.307 25.3825 8.784 25.3825"></polygon>
                <polygon id="Fill-5" fill="#707070" mask="url(#mask-2)" points="11.783 26.8595 22.852 26.8595 22.852 25.3825 11.783 25.3825"></polygon>
                <polygon id="Fill-6" fill="#707070" mask="url(#mask-2)" points="11.783 31.2845 22.852 31.2845 22.852 29.8085 11.783 29.8085"></polygon>
                <polygon id="Fill-7" fill="#707070" mask="url(#mask-2)" points="11.783 35.7115 22.852 35.7115 22.852 34.2355 11.783 34.2355"></polygon>
                <polygon id="Fill-8" fill="#707070" mask="url(#mask-2)" points="8.784 31.2865 10.307 31.2865 10.307 29.8105 8.784 29.8105"></polygon>
                <polygon id="Fill-9" fill="#707070" mask="url(#mask-2)" points="8.784 35.7135 10.307 35.7135 10.307 34.2375 8.784 34.2375"></polygon>
                <path d="M30.9924,41.9518 C30.9214,42.3828 30.7434,42.6508 30.5284,42.7288 L30.5344,42.7398 C30.4464,42.7808 30.3514,42.8038 30.2544,42.8058 L2.2134,42.8058 C1.8064,42.8058 1.4754,42.4758 1.4754,42.0688 L1.4754,6.6488 C1.4754,6.2418 1.8064,5.9108 2.2134,5.9108 L8.1174,5.9108 L8.1174,7.3878 L3.6894,7.3878 C3.2824,7.3878 2.9514,7.7178 2.9514,8.1248 L2.9514,40.5938 C2.9514,41.0008 3.2824,41.3308 3.6894,41.3308 L29.5164,41.3308 L29.5164,8.1248 C29.5164,7.7178 29.1864,7.3878 28.7784,7.3878 L24.3514,7.3878 L24.3514,5.9108 L30.2544,5.9108 C30.6614,5.9108 30.9924,6.2418 30.9924,6.6488 L30.9924,41.9518 Z M8.8554,9.5998 L23.6134,9.5998 C24.0204,9.5998 24.3514,9.2698 24.3514,8.8628 L28.0684,8.8628 L28.0684,39.8548 L4.4274,39.8548 L4.4274,8.8628 L8.1174,8.8628 C8.1174,9.2698 8.4474,9.5998 8.8554,9.5998 L8.8554,9.5998 Z M9.5934,5.1738 C9.5934,4.7648 9.9234,4.4348 10.3304,4.4348 L12.6184,4.4348 C12.9704,4.4388 13.2744,4.1898 13.3414,3.8458 C13.6654,2.2478 15.2234,1.2158 16.8214,1.5398 C17.9834,1.7748 18.8904,2.6828 19.1264,3.8458 C19.1934,4.1898 19.4974,4.4388 19.8494,4.4348 L22.1374,4.4348 C22.5454,4.4348 22.8754,4.7648 22.8754,5.1738 L22.8754,8.1248 L9.5934,8.1248 L9.5934,5.1738 Z M30.2544,4.4348 L24.2184,4.4348 C23.9044,3.5548 23.0724,2.9648 22.1374,2.9598 L20.4104,2.9598 C19.5994,0.6528 17.0714,-0.5592 14.7644,0.2518 C13.4984,0.6978 12.5034,1.6928 12.0574,2.9598 L10.3304,2.9598 C9.3954,2.9648 8.5634,3.5548 8.2494,4.4348 L2.2134,4.4348 C0.9924,4.4388 0.0034,5.4278 0.0004,6.6488 L0.0004,42.0688 C0.0034,43.2898 0.9924,44.2788 2.2134,44.2828 L30.2544,44.2828 C30.9314,44.2778 31.5264,44.0328 31.9084,43.6308 C32.4404,43.0698 32.4684,41.9648 32.4684,41.9648 L32.4684,6.6488 C32.4644,5.4278 31.4754,4.4388 30.2544,4.4348 L30.2544,4.4348 Z" id="Fill-10" fill="#707070" mask="url(#mask-2)"></path>
                <path d="M12.9016,16.9323 L15.1156,16.9323 C15.5236,16.9323 15.8536,16.6023 15.8536,16.1953 L15.8536,13.9813 L17.3296,13.9813 L17.3296,16.1953 C17.3296,16.6023 17.6596,16.9323 18.0676,16.9323 L20.2806,16.9323 L20.2806,18.4083 L18.0676,18.4083 C17.6596,18.4083 17.3296,18.7393 17.3296,19.1463 L17.3296,21.3603 L15.8536,21.3603 L15.8536,19.1463 C15.8536,18.7393 15.5236,18.4083 15.1156,18.4083 L12.9016,18.4083 L12.9016,16.9323 Z M12.1636,19.8843 L14.3776,19.8843 L14.3776,22.0973 C14.3776,22.5053 14.7076,22.8353 15.1156,22.8353 L18.0676,22.8353 C18.4746,22.8353 18.8046,22.5053 18.8046,22.0973 L18.8046,19.8843 L21.0186,19.8843 C21.4266,19.8843 21.7566,19.5533 21.7566,19.1463 L21.7566,16.1953 C21.7566,15.7863 21.4266,15.4563 21.0186,15.4563 L18.8046,15.4563 L18.8046,13.2433 C18.8046,12.8353 18.4746,12.5043 18.0676,12.5043 L15.1156,12.5043 C14.7076,12.5043 14.3776,12.8353 14.3776,13.2433 L14.3776,15.4563 L12.1636,15.4563 C11.7556,15.4563 11.4256,15.7863 11.4256,16.1953 L11.4256,19.1463 C11.4256,19.5533 11.7556,19.8843 12.1636,19.8843 L12.1636,19.8843 Z" id="Fill-11" fill="#707070" mask="url(#mask-2)"></path>
            </g>
        </g>
    </g>
</svg>