<?xml version="1.0" encoding="UTF-8" standalone="no"?>
<svg
   xmlns:dc="http://purl.org/dc/elements/1.1/"
   xmlns:cc="http://creativecommons.org/ns#"
   xmlns:rdf="http://www.w3.org/1999/02/22-rdf-syntax-ns#"
   xmlns:svg="http://www.w3.org/2000/svg"
   xmlns="http://www.w3.org/2000/svg"
   xmlns:sodipodi="http://sodipodi.sourceforge.net/DTD/sodipodi-0.dtd"
   xmlns:inkscape="http://www.inkscape.org/namespaces/inkscape"
   width="47px"
   height="45px"
   viewBox="0 0 47 45"
   version="1.1"
   id="svg22"
   sodipodi:docname="ico-vida-esencial-rojo.svg"
   inkscape:version="1.0.1 (3bc2e813f5, 2020-09-07)">
  <metadata
     id="metadata28">
    <rdf:RDF>
      <cc:Work
         rdf:about="">
        <dc:format>image/svg+xml</dc:format>
        <dc:type
           rdf:resource="http://purl.org/dc/dcmitype/StillImage" />
      </cc:Work>
    </rdf:RDF>
  </metadata>
  <defs
     id="defs26" />
  <sodipodi:namedview
     pagecolor="#ffffff"
     bordercolor="#666666"
     borderopacity="1"
     objecttolerance="10"
     gridtolerance="10"
     guidetolerance="10"
     inkscape:pageopacity="0"
     inkscape:pageshadow="2"
     inkscape:window-width="1366"
     inkscape:window-height="705"
     id="namedview24"
     showgrid="false"
     inkscape:zoom="11.955556"
     inkscape:cx="23.5"
     inkscape:cy="22.5"
     inkscape:window-x="-8"
     inkscape:window-y="-8"
     inkscape:window-maximized="1"
     inkscape:current-layer="svg22" />
  <title
     id="title2">D353090B-E8C7-4C17-AA8D-D6324962EC96</title>
  <g
     id="DESKTOP---MINISITE"
     stroke="none"
     stroke-width="1"
     fill="none"
     fill-rule="evenodd"
     style="fill:#e4241c;fill-opacity:1">
    <g
       id="BANORTE---HOME---VIDA-1---DESKTOP"
       transform="translate(-388.000000, -171.000000)"
       fill="#707070"
       fill-rule="nonzero"
       style="fill:#e4241c;fill-opacity:1">
      <g
         id="family-(4)"
         transform="translate(388.000000, 171.000000)"
         style="fill:#e4241c;fill-opacity:1">
        <path
           d="M44.6907277,15.75 L43.9348592,15.75 L43.9348592,14.25 C43.9348592,13.8357864 43.5964453,13.5 43.1789906,13.5 L42.9722606,13.5 C42.9749061,13.4829375 42.9774572,13.4657813 42.9801972,13.4487188 C44.3730355,13.1899476 45.3978842,12.006051 45.4455157,10.6008036 C45.4931472,9.19555626 44.5507811,7.94601144 43.1786127,7.59496875 L43.1786127,6.75 C43.1786006,6.17497199 43.0964652,5.60284689 42.9346561,5.0506875 C43.090281,4.90921272 43.178924,4.70942682 43.1789906,4.5 C43.1762308,2.01585378 41.1473633,0.00273837851 38.6437793,-1.85675008e-05 L35.4905792,-1.85675008e-05 C34.059876,-0.00358194128 32.6770664,0.511203949 31.6018245,1.4476875 C30.7378149,1.35235103 29.8720496,1.61132782 29.205112,2.16461724 C28.5381744,2.71790666 28.1279431,3.51749287 28.0694619,4.378125 C27.9315083,4.38483662 27.7943026,4.4023283 27.6591197,4.4304375 C27.2589818,2.8036875 26.2962887,1.4701875 24.9285446,0.69365625 C23.336213,-0.21028125 21.4020399,-0.23128125 19.4825117,0.6345 L17.7534624,1.41440625 C16.5997236,1.93415625 14.7148709,3.05784375 13.9992523,5.053125 C13.153484,4.22401378 12.1101824,3.62053327 10.9663298,3.29878125 C10.9318433,3.28865625 10.8986796,3.28003125 10.86476,3.2716875 C7.96127993,2.48934375 5.24610563,3.6373125 5.13905575,3.682875 C2.79463498,4.66415625 1.1810446,6.44634375 0.474213028,8.83696875 C-0.15277993,10.9557188 -0.0023620892,13.3932188 0.89740493,15.699 C1.16517136,16.3858125 1.47101467,17.049 1.73500176,17.607375 C1.8515,17.8536563 2.88770129,20.01 3.21914965,20.8564688 C3.36792573,21.2385906 3.49102394,21.6300729 3.58763556,22.0283438 C1.0856773,23.0805804 -0.327170578,25.7319714 0.205123826,28.3760625 L0.864619131,31.6469063 C0.866981221,31.65825 0.870382629,31.6693125 0.873217136,31.6804688 C0.876051643,31.691625 0.877657864,31.7011875 0.880681338,31.7114063 L3.86248826,41.7698438 C4.43741645,43.6799617 6.20439084,44.9917624 8.21345657,45 L44.6907277,45 C45.1081824,45 45.4465962,44.6642136 45.4465962,44.25 L45.4465962,16.5 C45.4465962,16.0857864 45.1081824,15.75 44.6907277,15.75 Z M25.7940141,36.75 L21.8775757,36.75 C21.8114542,36.3508421 21.8450986,35.9416813 21.9755552,35.5584375 L21.9969085,35.49675 C22.030091,35.4071752 22.068355,35.3195351 22.111517,35.23425 L26.470044,26.5858125 C26.5079034,26.5107131 26.5327836,26.4298385 26.5436467,26.3465625 L26.8984325,23.6184375 L29.1811555,20.301375 L33.2371461,20.8044375 L31.3064689,22.720125 C31.2235488,22.802505 31.1610296,22.9028566 31.1238322,23.0132813 L29.6120951,27.5132813 C29.609355,27.5217188 29.606615,27.5301563 29.604064,27.5387813 L27.3364583,35.1887813 L26.8736778,36.75 L25.7940141,36.75 Z M15.9599754,20.8200938 C15.8890182,22.6418438 15.3042594,24.6549375 13.224865,25.3247813 C10.9328826,26.063625 8.53999178,24.32775 6.93726702,22.7434688 L8.08722653,22.4971875 C10.5919529,23.5853743 13.5175237,22.9594264 15.3477218,20.94375 C15.3477218,20.94375 15.8757905,20.8332188 15.9599754,20.8200938 Z M11.2333404,7.8061875 C12.0603398,8.31462729 12.725841,9.0444397 13.1532465,9.911625 L14.1798104,11.990625 C14.8185831,13.2868864 15.2420371,14.6770568 15.4337964,16.107375 C15.6002473,17.4272082 15.2125078,18.7568951 14.3615023,19.784625 C12.9357379,21.4938256 10.5159044,22.0120994 8.5065446,21.038625 C6.79856514,20.2013438 5.53900469,18.2708438 4.72720188,16.6269375 L4.21264437,15.5835 C4.9496162,14.6451563 5.86261092,13.9622813 6.80876937,13.2549375 C7.96392547,12.3913125 9.15838674,11.4983438 10.1528263,10.0979063 C10.644869,9.4023314 11.0105469,8.62674607 11.2333404,7.8061875 Z M17.2723521,15.5614688 C17.1503985,15.6608855 17.0354281,15.7684481 16.928243,15.8834063 C16.8514931,15.321388 16.7422155,14.7642172 16.6009519,14.2146563 C16.6803877,14.1428389 16.7558936,14.0668552 16.8271455,13.9870313 C16.9836733,14.4998438 17.1320755,15.0246563 17.2723521,15.5614688 Z M16.1300458,8.17696875 C16.1096373,8.13740625 15.9920053,7.90996875 15.9529836,7.83628125 C16.0335781,7.83103125 16.114267,7.82484375 16.1953339,7.816875 C16.1824842,7.89965625 16.1377934,8.139 16.1300458,8.17696875 Z M15.8692711,11.2425938 C16.0211281,11.6110076 16.0715405,12.012858 16.0153427,12.4069688 C15.8703104,12.0422813 15.7112946,11.6830313 15.5378228,11.332125 L15.1966426,10.6410938 C15.488032,10.7520796 15.7276584,10.9662326 15.8692711,11.2422188 L15.8692711,11.2425938 Z M17.9404454,19.4379375 C17.6646324,19.0927483 17.513906,18.6655109 17.5125293,18.225 C17.5128166,17.5152618 17.9027485,16.8620411 18.5298864,16.5207056 C19.1570243,16.1793702 19.9217628,16.2041326 20.5251379,16.5853125 L23.7478779,18.6196875 L22.0922424,21.69975 L20.2763627,20.7988125 C20.0432491,20.559643 19.7871125,20.3436768 19.5116127,20.154 C19.0339388,19.826216 18.5022226,19.5837584 17.9404454,19.4375625 L17.9404454,19.4379375 Z M32.3370012,5.25 L38.8502259,5.25 C38.8570288,5.2663125 38.8640205,5.28346875 38.8707289,5.2993125 C39.5687833,6.99732257 40.5107114,8.5862122 41.6672535,10.016625 C41.7548398,10.1241563 41.5255282,12.9375 41.3245616,14.09475 C41.0244818,15.8225625 40.3410822,17.4015 38.8576901,18.4635 C37.5510721,19.3893287 35.9063203,19.7129725 34.3425094,19.3519688 C34.3349507,19.3501875 34.3272031,19.3485 34.3194554,19.3469063 C32.4645012,18.9016061 30.9713454,17.5399583 30.3679636,15.7434375 C29.7500411,13.9059375 29.5733568,11.9550938 29.5733568,10.0153125 C30.8471843,8.4166875 31.9082347,6.2030625 32.3370012,5.25 Z M41.4130927,5.25 C41.582117,5.73228742 41.6680399,6.23938482 41.6672589,6.75 L41.6672589,7.43615625 C41.2264283,6.73508983 40.8349635,6.00463057 40.4956573,5.25 L41.4130927,5.25 Z M39.6216843,22.1142188 L36.9861596,25.252125 L35.2837547,24.126 C35.17596,24.0547001 35.0515203,24.0120573 34.922355,24.0021563 L32.4484918,23.8134375 L32.5015915,23.6550938 L35.1920112,20.98575 C35.5356479,21.0060938 35.8809853,20.9979375 36.2249055,20.9905313 L36.6549002,21.13275 L39.6216843,22.1142188 Z M22.6930634,30.7261875 C22.6223894,30.3182739 22.5049393,29.9197165 22.3430018,29.5382813 L22.3197588,29.25 L23.437027,29.25 L22.6930634,30.7261875 Z M24.1928955,27.75 L22.1987254,27.75 L22.0146714,25.4705625 L22.0146714,24.313125 C22.0147676,24.0003243 22.0429405,23.6881535 22.0988562,23.3803125 L24.7002723,24.670875 C24.7876666,24.7141564 24.8826598,24.7402908 24.9800381,24.7478438 L25.2248451,24.7665938 L25.0607271,26.028 L24.1928955,27.75 Z M25.5477899,22.9208438 C25.4805407,23.0185678 25.4375155,23.1306762 25.4222212,23.2480313 L25.4185364,23.277 L25.2437418,23.2635938 L23.4447746,22.371 L25.0646954,19.3575 L26.1440757,20.0389688 C26.2488392,20.1051413 26.3684211,20.1446818 26.4922477,20.1540938 L27.4042031,20.2235625 L25.5477899,22.9208438 Z M28.0583128,18.76875 L30.0773322,18.323625 C30.2569869,18.5515252 30.450703,18.7681592 30.6573668,18.9722813 L28.0583128,18.76875 Z M40.6340757,20.8674375 L38.783615,20.2554375 C40.2566448,19.5229549 41.4236886,18.3005032 42.0810915,16.8014063 C42.1641426,16.6139063 42.3858955,15.9759375 42.4235945,15.8545313 L42.4235945,18.499875 L40.6340757,20.8674375 Z M28.0616197,9.17934375 C28.0616197,9.17934375 28.0747529,11.5663125 28.0899648,11.8362188 C27.9478202,11.7642614 27.8179325,11.670623 27.7050387,11.5587188 C27.4202235,11.2789297 27.2601053,10.8976768 27.2603987,10.5 C27.2626186,9.94714437 27.5702695,9.44004178 28.0616197,9.17934375 Z M28.6520475,15.2888438 C28.7372717,15.6019688 28.8312199,15.9117188 28.933892,16.2180938 C29.0206874,16.4750398 29.1224281,16.7267749 29.2386015,16.9720313 L25.8302958,17.7235313 C25.7021761,17.7516563 25.5739619,17.7845625 25.4463146,17.8204688 L25.3162107,17.7383438 C25.5296491,17.6661563 25.7406309,17.584125 25.9483058,17.4901875 C27.0276912,17.0030524 27.9598139,16.2441328 28.6520475,15.2888438 L28.6520475,15.2888438 Z M28.8174883,35.5084688 L31.0506074,27.975 L31.9556655,25.2807188 L34.60952,25.4832188 L36.7127242,26.8744688 C37.0341465,27.0871119 37.4654402,27.0250469 37.7127383,26.7305625 L43.7836854,19.2 C43.8818139,19.0701779 43.9348592,18.9122777 43.9348592,18.75 L43.9348592,36.87075 L32.0972019,38.94375 L30.1078504,36.9699375 C29.9661383,36.8291837 29.7738691,36.7500673 29.5733568,36.75 L28.8174883,36.75 L28.8174883,35.5084688 Z M43.9348621,10.5 C43.9356577,10.8976997 43.7764555,11.2792685 43.4925816,11.5600313 C43.3916587,11.6597392 43.2771678,11.7449407 43.1524407,11.8131563 C43.1694478,11.5051875 43.1788016,9.20296875 43.1788016,9.20296875 C43.6459823,9.47051154 43.9340982,9.96478008 43.9348621,10.5 Z M39.7127664,3.75 L40.9316045,2.540625 C41.2359682,2.88944816 41.4549779,3.30334008 41.5715417,3.75 L39.7127664,3.75 Z M39.6646743,1.67634375 L37.5747923,3.75 L35.6812471,3.75 L37.4953316,1.49999935 L38.6437793,1.49999935 C38.9917937,1.49977163 39.3372111,1.55943713 39.6646743,1.67634375 L39.6646743,1.67634375 Z M35.5593633,1.49998226 L33.7452788,3.75 L32.596831,3.75 L32.596831,2.5749375 C33.3974497,1.87917007 34.4263054,1.49698218 35.4905792,1.49998226 L35.5593633,1.49998226 Z M29.5733568,4.59225 C29.5739323,3.7367382 30.2272106,3.02059188 31.0850939,2.93503125 L31.0850939,4.34709375 C30.6382287,5.36753766 30.133509,6.36206582 29.5733568,7.32590625 L29.5733568,4.59225 Z M26.4488797,5.96428125 C26.5388281,6.1156875 27.3476074,7.85709375 27.3476074,7.85709375 C26.3661533,8.38010183 25.752378,9.39461465 25.748662,10.5 C25.7479199,11.0179348 25.8836094,11.5270695 26.1422805,11.9769375 L25.1808157,11.383875 C24.4722938,12.5193498 23.1434569,13.1186232 21.8154055,12.9015938 L21.5724883,14.3821875 C21.8321027,14.4241533 22.0947042,14.4452842 22.3577412,14.445375 C23.9692506,14.4450258 25.4742793,13.6466908 26.3697025,12.31725 C26.4517616,12.4237604 26.5407669,12.5248206 26.6361461,12.6197813 C27.0128421,12.995417 27.4834101,13.2649339 27.9996385,13.4007188 C27.4824298,14.6096308 26.5267073,15.5818548 25.3215962,16.125 C24.7013848,16.4064206 24.0316694,16.5647068 23.3501966,16.5909375 L21.3366573,15.3197813 C20.6852203,14.9077486 19.913651,14.7236467 19.1446385,14.79675 C18.8067883,14.4125842 18.5273731,13.9814603 18.3152617,13.5170625 L18.1553955,13.1690625 C17.7939959,12.1874063 17.1219343,10.322625 17.0558903,10.166625 C17.3280315,9.58482838 17.5239164,8.97082837 17.6387594,8.339625 C17.6894026,8.0745 17.727007,7.80065625 17.7544073,7.52203125 C20.343257,6.82171875 22.8548192,5.19778125 23.8128826,4.5331875 L26.4488797,5.96428125 Z M18.3785657,2.77959375 L20.107615,1.9996875 C21.5730552,1.33865625 23.0185593,1.33725 24.1774002,1.99528125 C24.9557589,2.44784697 25.5652337,3.13864337 25.9143862,3.96403125 L24.1216549,2.990625 C23.8612535,2.84948854 23.5417529,2.8723606 23.3044665,3.049125 C22.3362618,3.74554003 21.3170774,4.36936268 20.2553873,4.91540625 C18.2674531,5.9338125 16.5480411,6.4216875 15.2452072,6.34415625 C15.2508762,6.28678125 15.2573955,6.229125 15.266466,6.17109375 L15.266466,6.17109375 C15.4197183,5.1950625 16.0838433,3.8145 18.3785657,2.77959375 L18.3785657,2.77959375 Z M13.9245158,7.33584375 C14.2064548,7.731375 14.8497934,8.98978125 14.8630211,9.0159375 C14.7033865,9.0000428 14.542732,8.9967512 14.3825722,9.00609375 C13.7317158,7.81350025 12.727343,6.8480806 11.5053586,6.24046875 C11.5349718,5.86898988 11.5437724,5.49616594 11.5317195,5.12371875 C12.5042388,5.61121875 13.5820129,6.85546875 13.9245158,7.3359375 L13.9245158,7.33584375 Z M1.9251027,9.25940625 C2.50022418,7.31559375 3.81477406,5.86565625 5.73477465,5.06184375 C5.75641138,5.05246875 7.77146244,4.2013125 9.98757453,4.61109375 C10.1487635,6.4505625 9.79085974,8.00484375 8.91773709,9.23390625 C8.05992077,10.4419688 7.01068075,11.2262813 5.89983744,12.0567188 C4.6569061,12.985875 3.3815669,13.9401563 2.44240023,15.492 C2.39667019,15.3810938 2.35141256,15.269625 2.30776115,15.1575938 C1.52685446,13.1579063 1.39098709,11.06325 1.92463028,9.2595 L1.9251027,9.25940625 Z M3.24078638,17.2577813 C3.25817136,17.2155 3.27546185,17.1734063 3.29331925,17.131875 L3.36956749,17.2864688 C4.0814829,18.7268461 5.02395421,20.0432233 6.16032864,21.1844063 C6.21333392,21.2375625 6.26756749,21.289125 6.32227347,21.3402188 L5.04164319,21.61425 C4.93169884,21.1721661 4.79350491,20.7374747 4.62789965,20.3128125 C4.27632629,19.4147813 3.85719718,18.542625 3.45186268,17.69925 C3.38144092,17.55225 3.31108216,17.4050938 3.24078638,17.2577813 Z M4.66748826,23.2377188 C4.76886913,23.2095938 5.20481631,23.1139688 5.20481631,23.1139688 C6.73450528,24.78075 9.29897829,27.0009375 12.1040065,27.00075 C12.643261,27.0012294 13.1792026,26.9171291 13.6919918,26.7515625 C16.0304601,25.9981875 17.3525687,23.9235 17.4702952,20.8677188 C17.89393,20.9667015 18.2951709,21.1434272 18.6533239,21.3887813 C19.5708539,22.0179375 20.1178192,23.0251875 20.3540282,24.0875625 C20.3559178,24.0958125 20.357902,24.1041563 20.3599806,24.1125 C20.4570986,24.5686593 20.5050196,25.0337779 20.5029343,25.5 C20.5029343,25.5199688 20.5037846,25.5399375 20.5052964,25.5598125 L20.628125,27.0794063 L19.581436,25.78125 L18.4009583,26.71875 L20.3990023,29.1961875 C21.1395343,30.1146628 21.422096,31.315998 21.1678105,32.4648415 C20.913525,33.613685 20.1496298,34.5869797 19.0893656,35.1130313 L18.6536074,35.3292188 L19.3295428,36.6707813 C19.3295428,36.6707813 20.1571244,36.2445 20.340517,36.1244063 C20.3362653,36.1994063 20.3414619,36.6267188 20.3560123,36.7644375 C20.2092624,36.7932978 20.0744441,36.8647188 19.9686297,36.9696563 L17.9223046,39 L10.5220681,39 L8.39014085,29.83125 C8.3445217,29.6351417 8.22138046,29.4654553 8.04840294,29.3603413 C7.87542541,29.2552273 7.66712842,29.2235071 7.47034331,29.2723125 L2.19201878,30.58125 L1.68804343,28.0816875 C1.25801497,25.94348 2.55436882,23.8358734 4.66748826,23.2377188 L4.66748826,23.2377188 Z M9.92077465,43.5000043 L8.21345657,43.5000043 C6.87408286,43.4944981 5.69610538,42.6199683 5.31281103,41.3465625 L2.55389085,32.0380313 L7.09004695,30.9130313 L9.18427523,39.91875 C9.26346141,40.259002 9.56883611,40.5000057 9.92077465,40.5 L18.2353286,40.5 C18.4358002,40.5000072 18.6280637,40.4209944 18.7698222,40.2803438 L20.8159583,38.25 L25.0381455,38.25 L25.0381455,39.8777813 L21.6330522,40.5129375 C21.3834086,40.5594205 21.1739852,40.7272081 21.0755992,40.9595625 C20.4262195,42.5002852 18.9067882,43.5023918 17.2236931,43.5000043 L9.92077465,43.5000043 Z M21.0887324,43.5 C21.2896092,43.3156127 21.4767961,43.1170645 21.648831,42.9059063 C21.7343096,43.0773711 21.8329251,43.2420735 21.9438087,43.3985625 L21.9520288,43.5 L21.0887324,43.5 Z M43.9348592,43.5 L25.0381455,43.5 C24.0050848,43.4986059 23.1031276,42.8055951 22.8431978,41.8135313 L25.9336608,41.2370625 C26.2909933,41.1704105 26.5498697,40.8607686 26.5498826,40.5 L26.5498826,38.25 L29.2603327,38.25 L31.3064689,40.2803438 C31.480851,40.4534936 31.7294654,40.53123 31.9723891,40.4885625 L43.9348592,38.3939063 L43.9348592,43.5 Z"
           id="Shape"
           style="fill:#e4241c;fill-opacity:1" />
        <path
           d="M35.6575317,15.75 C36.480421,15.7557393 37.2988885,15.6301682 38.0816021,15.3780937 L37.6034208,13.9549687 C35.6147306,14.6128125 33.5650041,13.9610625 33.5445957,13.9545 L33.0682095,15.3780937 C33.9081623,15.6278503 34.78068,15.7531707 35.6575317,15.75 L35.6575317,15.75 Z"
           id="Path"
           style="fill:#e4241c;fill-opacity:1" />
        <path
           d="M9.20827406,18.5976562 C9.29453756,18.5821875 11.3398234,18.2026875 12.9621062,16.840125 L11.9854296,15.6951562 C10.6798556,16.7920312 8.95486913,17.11875 8.93767312,17.1219375 L9.20827406,18.5976562 Z"
           id="path6"
           style="fill:#e4241c;fill-opacity:1" />
        <ellipse
           id="Oval"
           cx="6.56660798"
           cy="15.4530938"
           rx="1.1810446"
           ry="1.171875"
           style="fill:#e4241c;fill-opacity:1" />
        <ellipse
           id="ellipse9"
           cx="11.9521714"
           cy="12.6405938"
           rx="1.1810446"
           ry="1.171875"
           style="fill:#e4241c;fill-opacity:1" />
        <ellipse
           id="ellipse11"
           cx="20.0462952"
           cy="10.7031563"
           rx="1.1810446"
           ry="1.171875"
           style="fill:#e4241c;fill-opacity:1" />
        <ellipse
           id="ellipse13"
           cx="24.8019366"
           cy="8.54690625"
           rx="1.1810446"
           ry="1.171875"
           style="fill:#e4241c;fill-opacity:1" />
        <ellipse
           id="ellipse15"
           cx="32.2661385"
           cy="10.8906563"
           rx="1.1810446"
           ry="1.171875"
           style="fill:#e4241c;fill-opacity:1" />
        <ellipse
           id="ellipse17"
           cx="39.0059349"
           cy="10.8906563"
           rx="1.1810446"
           ry="1.171875"
           style="fill:#e4241c;fill-opacity:1" />
      </g>
    </g>
  </g>
</svg>
