<?xml version="1.0" encoding="UTF-8"?>
<svg width="42px" height="46px" viewBox="0 0 42 46" version="1.1" xmlns="http://www.w3.org/2000/svg" xmlns:xlink="http://www.w3.org/1999/xlink">
    <title>F1D96BD2-10F8-41BD-AD52-1BA603787E26</title>
    <defs>
        <polygon id="path-1" points="0 0.6792 41.3359 0.6792 41.3359 45 0 45"></polygon>
    </defs>
    <g id="Iconografía" stroke="none" stroke-width="1" fill="none" fill-rule="evenodd">
        <g id="Banorte---Iconografía---Coberturas" transform="translate(-810.000000, -979.000000)">
            <g id="ico-GMM-estandarizado" transform="translate(810.000000, 979.000000)">
                <path d="M18.0645,15.9746 C18.5465,15.9746 18.9375,15.5836 18.9375,15.1016 C18.9375,14.6206 18.5465,14.2286 18.0645,14.2286 C17.5825,14.2286 17.1915,14.6206 17.1915,15.1016 C17.1915,15.5836 17.5825,15.9746 18.0645,15.9746" id="Fill-1" fill="#EB0029"></path>
                <path d="M13.9907,15.9746 C14.4727,15.9746 14.8637,15.5836 14.8637,15.1016 C14.8637,14.6206 14.4727,14.2286 13.9907,14.2286 C13.5087,14.2286 13.1177,14.6206 13.1177,15.1016 C13.1177,15.5836 13.5087,15.9746 13.9907,15.9746" id="Fill-3" fill="#EB0029"></path>
                <path d="M14.8638,18.8848 L15.3078,18.8848 C16.2548,18.8838 17.1868,18.6638 18.0338,18.2408 L17.5128,17.1998 C16.8288,17.5418 16.0738,17.7198 15.3078,17.7208 L14.8638,17.7208 L14.8638,18.8848 Z" id="Fill-5" fill="#EB0029"></path>
                <path d="M31.4512,17.1387 C30.9692,17.1387 30.5782,17.5307 30.5782,18.0117 C30.5782,18.4937 30.9692,18.8847 31.4512,18.8847 C31.9332,18.8847 32.3242,18.4937 32.3242,18.0117 C32.3242,17.5307 31.9332,17.1387 31.4512,17.1387" id="Fill-7" fill="#EB0029"></path>
                <path d="M28.6943,20.0488 L28.2503,20.0488 L28.2503,21.2128 L28.6943,21.2128 C29.6403,21.2118 30.5733,20.9918 31.4203,20.5698 L30.9003,19.5278 C30.2153,19.8698 29.4603,20.0478 28.6943,20.0488" id="Fill-9" fill="#EB0029"></path>
                <path d="M19.8579,33.4863 C20.5759,33.6213 21.2679,33.1493 21.4039,32.4313 L20.5619,32.2723 C20.5129,32.5243 20.2699,32.6913 20.0169,32.6433 C19.7639,32.5953 19.5979,32.3513 19.6459,32.0993 L18.8029,31.9403 C18.6679,32.6583 19.1399,33.3503 19.8579,33.4863" id="Fill-11" fill="#EB0029"></path>
                <g id="Group-15" transform="translate(0.000000, 0.321300)">
                    <mask id="mask-2" fill="white">
                        <use xlink:href="#path-1"></use>
                    </mask>
                    <g id="Clip-14"></g>
                    <path d="M21.1069,43.2432 C20.9459,43.3092 20.8009,43.3692 20.6739,43.4242 C20.5829,43.3832 20.4809,43.3392 20.3699,43.2912 C8.8419,38.3002 2.4879,27.4352 1.4809,10.9952 C5.4799,8.9362 7.8349,4.5192 8.2599,2.1062 L33.0829,2.1062 C33.5089,4.5202 35.8659,8.9412 39.8699,10.9982 C39.1089,27.5632 32.7969,38.4112 21.1069,43.2432 L21.1069,43.2432 Z M40.8999,9.9112 C36.7049,7.9962 34.4409,3.0092 34.4409,1.3922 L34.4409,0.6792 L6.9019,0.6792 L6.9019,1.3922 C6.9019,3.0092 4.6389,7.9962 0.4429,9.9112 L-0.0001,10.1132 L0.0259,10.5992 C0.6769,22.4872 4.6369,38.0352 19.8019,44.6012 C20.0349,44.7022 20.2229,44.7832 20.3609,44.8502 L20.6719,45.0002 L20.9819,44.8502 C21.1409,44.7732 21.3679,44.6802 21.6529,44.5622 C34.0139,39.4542 40.6299,28.0232 41.3169,10.5892 L41.3359,10.1092 L40.8999,9.9112 Z" id="Fill-13" fill="#EB0029" mask="url(#mask-2)"></path>
                </g>
                <path d="M10.6108,14.5908 L10.6108,15.6128 C10.4708,15.4848 10.3858,15.2998 10.3858,15.1018 C10.3858,14.9028 10.4708,14.7198 10.6108,14.5908 L10.6108,14.5908 Z M21.4438,15.6128 L21.4438,14.5908 C21.5838,14.7198 21.6688,14.9028 21.6688,15.1018 C21.6688,15.2998 21.5838,15.4848 21.4438,15.6128 L21.4438,15.6128 Z M36.5508,18.9028 C36.5218,18.6718 36.4658,18.4448 36.3628,18.2288 C36.1618,17.8028 35.8268,17.4498 35.4128,17.2278 L35.4128,15.9748 C35.4128,12.6668 32.7218,9.9768 29.4138,9.9768 C26.1068,9.9768 23.4148,12.6668 23.4148,15.9748 L23.4148,17.2278 C22.9318,17.4868 22.5668,17.9098 22.3808,18.4318 C22.1818,18.9878 22.2118,19.5898 22.4648,20.1238 C22.6668,20.5508 23.0018,20.9028 23.4148,21.1248 L23.4148,23.3828 C23.2818,23.3698 23.1468,23.3628 23.0118,23.3628 L19.7218,23.3628 C19.3468,23.1158 19.1158,22.6908 19.1158,22.2388 L19.1158,21.5888 C20.5318,20.6028 21.3918,19.0098 21.4418,17.2678 C22.5688,17.0238 23.3338,15.9418 23.1658,14.7838 C23.0338,13.8718 22.3358,13.1328 21.4438,12.9378 L21.4408,10.5728 C21.4408,10.5458 21.3508,9.7778 21.2138,9.4548 C20.6798,8.0278 19.2978,7.0678 17.7738,7.0668 L14.4198,7.0668 L14.4098,7.0668 C13.4648,7.0668 12.5908,7.5288 12.0588,8.3068 C11.6448,8.4398 10.6108,8.9488 10.6108,10.7368 L10.6108,12.9368 C10.0888,13.0498 9.6298,13.3438 9.3068,13.7768 C8.9528,14.2508 8.8038,14.8348 8.8888,15.4198 C9.0218,16.3328 9.7198,17.0718 10.6128,17.2678 C10.6568,18.9978 11.5178,20.5988 12.9388,21.5888 L12.9388,22.2398 C12.9408,22.6918 12.7108,23.1168 12.3348,23.3618 L9.0918,23.3618 L9.0788,23.3618 C8.0678,23.3618 7.1458,23.7278 6.4138,24.3228 C5.3108,20.9388 4.6208,17.1128 4.3588,12.8408 C7.7778,11.0808 9.7918,7.3048 10.1558,5.2408 L31.3788,5.2408 C31.7428,7.3058 33.7578,11.0858 37.1818,12.8438 C37.0838,14.9798 36.8638,16.9898 36.5508,18.9028 L36.5508,18.9028 Z M35.4128,23.8998 L35.4128,21.1248 C35.8198,20.9058 36.1358,20.5668 36.3398,20.1538 C36.0868,21.4618 35.7708,22.7028 35.4128,23.8998 L35.4128,23.8998 Z M15.5808,28.3358 C15.3448,28.8838 15.1438,29.5908 14.9028,30.6778 C14.2878,33.4588 14.9638,34.1908 15.0248,34.2448 C15.0528,34.2818 15.6328,35.0258 16.2748,35.3218 C16.0288,35.5698 15.8468,35.9308 15.8138,35.9998 L15.7508,36.1668 L15.4458,36.1668 C15.2958,36.1668 15.1498,36.2108 15.0238,36.2948 L14.4408,36.7158 C14.0548,36.3928 13.6808,36.0558 13.3178,35.7078 C12.4128,34.5518 10.9718,32.7478 9.6638,31.2658 C8.6188,29.6418 7.7228,27.8548 6.9798,25.9038 C7.4808,25.2828 8.2318,24.8838 9.0838,24.8838 L9.0908,24.8838 L11.8428,24.8838 C12.1848,26.7678 13.7458,28.1378 15.5808,28.3358 L15.5808,28.3358 Z M14.0958,26.0538 C13.6808,25.6428 13.4098,25.1038 13.3248,24.5258 C14.0188,24.0028 14.4368,23.1928 14.4598,22.3238 C15.4798,22.6308 16.5758,22.6308 17.5958,22.3238 C17.6218,23.1908 18.0398,24.0008 18.7298,24.5248 C18.6578,25.0128 18.4508,25.4468 18.1618,25.8108 C17.6388,26.0388 17.1448,26.3458 16.7008,26.7368 C16.6908,26.7478 16.6818,26.7578 16.6718,26.7688 C16.3698,26.8428 16.0538,26.8738 15.7288,26.8378 C15.1138,26.7708 14.5338,26.4918 14.0958,26.0538 L14.0958,26.0538 Z M21.1398,40.4118 C21.0018,40.4698 20.8778,40.5218 20.7698,40.5678 C20.6908,40.5318 20.6028,40.4938 20.5078,40.4528 C20.2298,40.3328 19.9688,40.1948 19.6978,40.0658 L19.6978,37.6888 L21.6368,37.6888 L23.9058,39.0498 C23.0228,39.5468 22.1098,40.0118 21.1398,40.4118 L21.1398,40.4118 Z M21.1198,35.9708 C21.0808,36.1038 21.0648,36.2418 21.0608,36.3788 L20.5028,36.1668 L18.7938,36.1668 L18.8548,35.9708 L21.1198,35.9708 Z M22.4868,36.0228 C22.5518,35.9868 22.6238,35.9668 22.6978,35.9708 C22.8108,35.9708 22.9198,36.0128 23.0108,36.0958 L23.0198,36.1058 L23.4488,37.3868 L22.3078,36.8888 L22.2478,36.5198 C22.2418,36.4888 22.2388,36.4578 22.2388,36.4288 C22.2398,36.2578 22.3348,36.1028 22.4868,36.0228 L22.4868,36.0228 Z M18.8928,30.1558 C18.6748,30.1148 18.4698,30.1958 18.3228,30.3418 L18.4528,29.6538 L18.7738,29.6598 C19.9138,29.7088 21.0458,29.4098 22.0468,28.8598 C22.3828,29.5448 22.5038,30.3168 22.4178,31.0748 C22.3288,30.9058 22.1748,30.7738 21.9718,30.7348 C21.6188,30.6668 21.2768,30.8988 21.2088,31.2528 C21.2088,31.2538 21.2088,31.2548 21.2088,31.2558 C21.1428,31.6108 21.3768,31.9508 21.7308,32.0168 C21.9478,32.0568 22.1528,31.9758 22.2988,31.8318 L21.8468,34.2278 C20.5048,35.1278 18.6758,34.7928 17.7428,33.4618 L17.7358,33.4518 L18.1878,31.0568 C18.2718,31.2458 18.4338,31.3968 18.6528,31.4378 C18.6918,31.4448 18.7328,31.4488 18.7728,31.4488 C19.0868,31.4478 19.3548,31.2258 19.4138,30.9168 C19.4798,30.5638 19.2468,30.2228 18.8928,30.1558 L18.8928,30.1558 Z M17.1128,36.1668 C17.2458,36.0478 17.4158,35.9708 17.5998,35.9708 L17.6038,35.9708 L17.6168,35.9708 L17.5548,36.1668 L17.1128,36.1668 Z M18.1768,37.6888 L18.1768,39.2848 C17.3028,38.7978 16.4648,38.2698 15.6728,37.6908 L15.6758,37.6888 L18.1768,37.6888 Z M25.5188,37.5758 L25.5188,35.7638 C25.5188,35.5078 25.3918,35.2718 25.1788,35.1308 L25.0288,35.0298 L25.0358,34.9268 C25.1818,34.6638 25.2978,34.3858 25.3548,34.0868 L25.7698,31.8888 C25.9658,30.8438 25.8478,29.8128 25.4888,28.8868 C25.4948,28.8498 25.5188,28.8178 25.5188,28.7788 L25.5188,26.6298 L26.3248,26.6298 L26.3248,27.0328 C26.3248,28.7368 27.7108,30.1218 29.4138,30.1218 C31.1168,30.1218 32.5028,28.7368 32.5028,27.0328 L32.5028,26.6298 L33.3098,26.6298 L33.3098,29.1778 C31.6728,32.3548 29.5268,34.9868 26.8788,37.0668 L25.5188,37.5758 Z M26.9068,24.2698 L26.9068,24.4638 C26.9058,24.6938 26.8418,24.9148 26.7218,25.1088 L26.4468,25.1088 C26.0508,24.5678 25.5318,24.1258 24.9368,23.8228 L24.9368,22.5168 C25.4378,23.2528 26.1088,23.8518 26.9068,24.2698 L26.9068,24.2698 Z M33.8918,16.7088 C32.5378,15.6328 32.5028,13.6668 32.5028,13.6468 C32.5028,13.2278 32.1618,12.8858 31.7418,12.8858 C31.4968,12.8858 31.2648,13.0048 31.1228,13.2048 C29.1568,15.9568 26.2758,16.6928 24.9368,16.8878 L24.9368,15.9748 C24.9388,13.5088 26.9478,11.5008 29.4138,11.4978 C31.8808,11.5008 33.8888,13.5088 33.8918,15.9748 L33.8918,16.7088 Z M31.9208,24.2568 C32.7208,23.8268 33.3918,23.2178 33.8918,22.4718 L33.8918,25.1088 L32.1058,25.1088 C31.9868,24.9158 31.9218,24.6908 31.9208,24.4648 L31.9208,24.2568 Z M30.9818,26.1538 L30.9818,27.0328 C30.9818,27.8978 30.2778,28.6008 29.4138,28.6008 C28.5498,28.6008 27.8468,27.8978 27.8468,27.0328 L27.8468,26.1538 C28.1488,25.7648 28.3428,25.2948 28.4058,24.8078 C28.9198,24.9188 29.8148,24.9148 30.4198,24.7928 C30.4818,25.2858 30.6768,25.7608 30.9818,26.1538 L30.9818,26.1538 Z M30.8688,23.0728 C30.3788,23.2768 29.8638,23.3918 29.3338,23.3618 C28.8568,23.3538 28.3918,23.2578 27.9528,23.0788 C26.4708,22.4838 25.5158,21.0658 25.518793,19.4668 L25.518793,18.3428 C25.8278,18.2888 26.2048,18.2148 26.5208,18.1378 C26.5768,18.6478 26.9168,18.9578 27.4358,18.9588 L27.4388,18.9588 C27.7368,18.9588 27.9898,18.8638 28.1698,18.6858 C28.3388,18.5168 28.4278,18.2838 28.4288,18.0138 C28.4288,17.8208 28.3768,17.6358 28.2808,17.4748 C29.4018,16.9568 30.4058,16.2538 31.2738,15.3788 C31.5588,16.2908 32.1378,17.4148 33.3098008,18.1628 L33.3098008,19.3898 C33.3108,21.0018 32.3528,22.4468 30.8688,23.0728 L30.8688,23.0728 Z M34.8088,19.7058 C34.8178,19.3998 34.8238,18.9588 34.8268,18.6618 C35.0278,18.8438 35.1108,19.1358 35.0158,19.4058 C34.9808,19.5048 34.9238,19.5948 34.8518,19.6658 L34.8518,19.6668 C34.8378,19.6808 34.8228,19.6948 34.8088,19.7058 L34.8088,19.7058 Z M21.1548,26.6128 C23.4998,27.0568 25.0478,29.3238 24.6058,31.6688 L24.1908,33.8678 C24.1058,34.3268 23.8338,34.7208 23.4378,34.9618 C23.2818,34.8838 23.1148,34.8308 22.9438,34.8048 L23.5518,31.5808 C23.8078,30.2238 23.5198,28.8468 22.7408,27.7038 C22.5558,27.4358 22.1878,27.3648 21.9178,27.5498 C20.9958,28.1818 19.9098,28.4908 18.7988,28.4768 L17.9758,28.4588 L17.9648,28.4588 C17.6798,28.4588 17.4358,28.6588 17.3818,28.9408 L16.4348,33.9648 C16.2708,33.8628 16.1238,33.7318 15.9988,33.5718 C15.8288,33.3528 15.7168,33.0908 15.6718,32.8008 C15.6468,32.6228 15.6508,32.4418 15.6848,32.2618 L16.0988,30.0648 C16.2598,29.1998 16.6748,28.4178 17.3108,27.7868 C18.3208,26.7868 19.7618,26.3518 21.1548,26.6128 L21.1548,26.6128 Z M23.8048,18.9678 C23.8378,18.8618 23.8968,18.7648 23.9758,18.6848 C23.9838,18.6768 23.9918,18.6698 23.9998,18.6618 C24.0028,18.9588 24.0068,19.3988 24.0138,19.7018 C23.8098,19.5268 23.7188,19.2398 23.8048,18.9678 L23.8048,18.9678 Z M24.0968,25.1088 L23.5928,25.1088 C23.1078,25.1108 22.9208,25.5018 22.6888,25.8808 C22.2778,25.6888 21.8398,25.5378 21.3738,25.4498 C20.9188,25.3628 20.4638,25.3388 20.0138,25.3648 C20.1038,25.2228 20.1778,25.0698 20.2118,24.8838 L23.0118,24.8838 L23.0158,24.8838 C23.3878,24.8838 23.7578,24.9618 24.0968,25.1088 L24.0968,25.1088 Z M13.4518,8.9948 C13.7038,8.7348 14.0468,8.5878 14.4128,8.5878 L14.4188,8.5878 L17.7738,8.5878 C17.8648,8.5878 17.9568,8.5928 18.0438,8.6048 C18.0488,8.6058 18.6518,8.7028 19.0458,9.0048 C19.3808,9.2508 19.6368,9.5908 19.7838,9.9768 L14.1068,9.9768 L13.4518,8.9948 Z M12.1318,11.4788 L12.1318,10.7368 C12.1318,10.3488 12.2018,10.1158 12.2778,9.9768 L12.7578,10.6958 L12.1318,11.4788 Z M14.0658,11.4978 L17.9898,11.4978 L19.9228,13.9138 L19.9228,17.1388 C19.9228,19.2868 18.1748,21.0338 16.0278,21.0338 C13.8798,21.0338 12.1318,19.2868 12.1318,17.1388 L12.1318,13.9138 L14.0658,11.4978 Z M32.5398,4.6308 L32.5398,4.0208 L8.9938,4.0208 L8.9938,4.6308 C8.9938,6.0128 7.0588,10.2768 3.4718,11.9138 L3.0928,12.0868 L3.1158,12.5028 C3.6718,22.6658 7.0568,35.9588 20.0228,41.5738 C20.2218,41.6598 20.3828,41.7308 20.5018,41.7868 L20.7668,41.9148 L21.0328,41.7868 C21.1678,41.7218 21.3618,41.6418 21.6068,41.5408 C32.1748,37.1718 37.8318,27.3998 38.4188,12.4938 L38.4348,12.0838 L38.0618,11.9138 C34.4748,10.2768 32.5398,6.0128 32.5398,4.6308 L32.5398,4.6308 Z" id="Fill-16" fill="#EB0029"></path>
            </g>
        </g>
    </g>
</svg>