<?xml version="1.0" encoding="UTF-8"?>
<svg width="41px" height="47px" viewBox="0 0 41 47" version="1.1" xmlns="http://www.w3.org/2000/svg" xmlns:xlink="http://www.w3.org/1999/xlink">
    <title>827B00B8-1B52-4B7B-AA51-D065B042609E</title>
    <defs>
        <polygon id="path-1" points="0 0.666 40.3729 0.666 40.3729 46 0 46"></polygon>
    </defs>
    <g id="Iconografía" stroke="none" stroke-width="1" fill="none" fill-rule="evenodd">
        <g id="Banorte---Iconografía---Coberturas" transform="translate(-50.000000, -1454.000000)">
            <g id="Group-10" transform="translate(50.000000, 1454.000000)">
                <g id="Group-3" transform="translate(0.000000, 0.334000)">
                    <mask id="mask-2" fill="white">
                        <use xlink:href="#path-1"></use>
                    </mask>
                    <g id="Clip-2"></g>
                    <path d="M38.5879,30.0762 C38.5819,33.2562 36.8509,36.1872 34.1199,37.7032 L31.1269,39.1252 L31.1269,38.1922 C32.0489,38.1922 32.7989,37.4662 32.8499,36.5562 C35.4929,34.9602 37.1339,32.1012 37.1399,28.9982 L37.1389,12.7742 C37.1329,11.6022 36.2879,10.6182 35.1249,10.4322 C30.2389,9.6902 25.5649,7.7332 21.6129,4.7762 C20.7729,4.1372 19.5999,4.1372 18.7649,4.7722 C14.8089,7.7332 10.1339,9.6902 5.2419,10.4332 C4.0849,10.6182 3.2399,11.6022 3.2339,12.7782 L3.2339,28.9982 C3.2349,32.0632 4.8359,34.8852 7.4489,36.5052 C7.4739,37.4382 8.2369,38.1922 9.1769,38.1922 L9.1769,39.0942 L6.3839,37.7682 L6.3019,37.7282 C3.5179,36.1902 1.7869,33.2592 1.7849,30.0782 L1.7849,10.7702 C1.7879,10.2532 2.1619,9.8182 2.6669,9.7382 C8.7759,8.8092 14.6189,6.3632 19.5699,2.6582 C19.7509,2.5202 19.9669,2.4512 20.1849,2.4512 C20.4039,2.4512 20.6239,2.5212 20.8099,2.6632 C25.7539,6.3622 31.5949,8.8082 37.7029,9.7372 C38.2129,9.8192 38.5849,10.2542 38.5879,10.7652 L38.5879,30.0762 Z M29.9719,39.5302 L20.7299,43.7132 L20.7299,33.9662 L29.9719,30.3722 L29.9719,32.6612 C28.9539,33.1072 28.2389,34.1232 28.2389,35.3042 C28.2389,36.4852 28.9539,37.5002 29.9719,37.9472 L29.9719,39.5302 Z M20.1519,32.9512 L17.8589,32.0602 L20.1519,29.7662 L22.4449,32.0592 L20.1519,32.9512 Z M19.5739,43.7142 L10.3319,39.5302 L10.3319,37.9472 C11.3509,37.5002 12.0649,36.4852 12.0649,35.3042 C12.0649,34.1232 11.3509,33.1072 10.3319,32.6612 L10.3319,30.3722 L19.5739,33.9662 L19.5739,43.7142 Z M8.5989,34.1482 C8.5989,33.8302 8.8589,33.5712 9.1769,33.5712 C10.1319,33.5712 10.9099,34.3482 10.9099,35.3042 C10.9099,36.2602 10.1319,37.0372 9.1769,37.0372 C8.8589,37.0372 8.5989,36.7782 8.5989,36.4592 L8.5989,34.1482 Z M24.1229,28.1062 L26.6239,28.5602 C27.3599,28.6942 28.0129,29.1202 28.4469,29.7242 L22.8589,31.8982 L24.1229,28.1062 Z M22.6069,27.8312 L22.9749,27.8972 L22.2099,30.1912 L21.0309,29.0132 L22.6069,27.8312 Z M18.4679,26.9652 C19.0019,27.1282 19.5669,27.2172 20.1519,27.2172 C20.7379,27.2172 21.3029,27.1282 21.8359,26.9652 L20.1519,28.2282 L18.4679,26.9652 Z M15.5309,18.5252 C16.9569,18.3932 18.2799,17.7752 19.3059,16.7502 L19.5309,16.5252 C20.6899,17.8042 22.3579,18.5532 24.0969,18.5532 L24.7729,18.5532 L24.7729,21.4402 C24.7729,23.9882 22.6999,26.0612 20.1519,26.0612 C17.6039,26.0612 15.5309,23.9882 15.5309,21.4402 L15.5309,18.5252 Z M26.5059,20.2852 C26.5059,20.7112 26.2719,21.0802 25.9279,21.2802 L25.9279,19.2912 C26.2719,19.4912 26.5059,19.8592 26.5059,20.2852 L26.5059,20.2852 Z M14.3759,19.2912 L14.3759,21.2802 C14.0319,21.0802 13.7979,20.7112 13.7979,20.2852 C13.7979,19.8592 14.0319,19.4912 14.3759,19.2912 L14.3759,19.2912 Z M13.7979,18.2962 L13.7979,15.8462 C13.7979,12.5602 16.4699,9.8882 19.7549,9.8882 C21.3459,9.8882 22.8429,10.5082 23.9679,11.6332 L24.4779,12.1422 L24.6329,12.1812 C25.7359,12.4572 26.5059,13.4432 26.5059,14.5802 L26.5059,18.2962 C26.3269,18.1912 26.1339,18.1102 25.9279,18.0562 L25.9279,17.3972 L24.0969,17.3972 C22.5309,17.3972 21.0349,16.6492 20.0969,15.3982 L19.6369,14.7852 L18.4899,15.9322 C17.5449,16.8772 16.2889,17.3972 14.9529,17.3972 L14.3759,17.3972 L14.3759,18.0562 C14.1699,18.1102 13.9769,18.1912 13.7979,18.2962 L13.7979,18.2962 Z M17.4449,31.8982 L11.8559,29.7242 C12.2909,29.1192 12.9439,28.6942 13.6799,28.5602 L16.1809,28.1062 L17.4449,31.8982 Z M17.3289,27.8962 L17.6969,27.8302 L19.2729,29.0132 L18.0939,30.1902 L17.3289,27.8962 Z M31.7049,34.1482 L31.7049,36.4592 C31.7049,36.7782 31.4449,37.0372 31.1269,37.0372 C30.1719,37.0372 29.3939,36.2602 29.3939,35.3042 C29.3939,34.3482 30.1719,33.5712 31.1269,33.5712 C31.4449,33.5712 31.7049,33.8302 31.7049,34.1482 L31.7049,34.1482 Z M31.1269,32.4162 L31.1269,28.6832 L29.5519,29.2962 L29.5469,29.2852 L29.5099,29.2182 C28.9059,28.2772 27.9299,27.6242 26.8309,27.4252 L23.0399,26.7342 L23.0399,26.4352 C24.4579,25.6122 25.4959,24.2082 25.8189,22.5482 C26.8689,22.3312 27.6609,21.3992 27.6609,20.2852 L27.6609,14.5802 C27.6609,12.9682 26.6059,11.5622 25.0729,11.1042 L24.7849,10.8152 C23.4409,9.4722 21.6549,8.7322 19.7549,8.7322 C15.8339,8.7322 12.6429,11.9232 12.6429,15.8462 L12.6429,20.2852 C12.6429,21.3992 13.4349,22.3312 14.4849,22.5482 C14.8089,24.2082 15.8459,25.6132 17.2639,26.4352 L17.2639,26.7342 L13.4739,27.4242 C12.3759,27.6232 11.4009,28.2752 10.7959,29.2152 L10.7609,29.3002 L9.1769,28.6832 L9.1769,32.4162 C8.2219,32.4162 7.4439,33.1932 7.4439,34.1482 L7.4439,34.6742 C5.7539,33.2952 4.7339,31.2242 4.7339,28.9982 L4.7329,12.7822 C4.7349,12.3472 5.0489,11.9822 5.4729,11.9152 C10.6029,11.1372 15.5099,9.0822 19.6689,5.9702 C19.9729,5.7362 20.3989,5.7362 20.7099,5.9732 C24.8629,9.0822 29.7699,11.1372 34.8949,11.9142 C35.3239,11.9822 35.6379,12.3472 35.6399,12.7782 L35.6399,28.9972 C35.6359,31.2522 34.5899,33.3502 32.8599,34.7302 L32.8599,34.1482 C32.8599,33.1932 32.0829,32.4162 31.1269,32.4162 L31.1269,32.4162 Z M37.9809,7.9732 L37.9749,7.9722 C32.1549,7.0892 26.5899,4.7582 21.8849,1.2382 C20.8859,0.4752 19.4879,0.4762 18.4939,1.2332 C13.7829,4.7582 8.2179,7.0892 2.3929,7.9732 C1.0139,8.1922 0.0079,9.3652 -0.0001,10.7652 L-0.0001,30.0782 C0.0019,33.9092 2.0859,37.4392 5.4729,39.3082 L18.9629,45.7162 C19.3469,45.9052 19.7689,46.0002 20.1899,46.0002 C20.6079,46.0002 21.0229,45.9072 21.3989,45.7222 L34.9349,39.2912 C38.2829,37.4352 40.3659,33.9062 40.3729,30.0782 L40.3729,10.7612 C40.3649,9.3652 39.3589,8.1922 37.9809,7.9732 L37.9809,7.9732 Z" id="Fill-1" fill="#707070" mask="url(#mask-2)"></path>
                </g>
                <path d="M20.4204,24.7295 C21.0874,24.7295 21.6874,24.3595 21.9854,23.7615 L22.0284,23.6745 L21.2904,23.3055 L21.2464,23.3925 C21.0884,23.7085 20.7734,23.9035 20.4204,23.9035 C20.0684,23.9035 19.7524,23.7085 19.5944,23.3925 L19.5514,23.3055 L18.8124,23.6755 L18.8554,23.7625 C19.1534,24.3595 19.7534,24.7295 20.4204,24.7295" id="Fill-4" fill="#707070"></path>
                <path d="M18.0444,21.8975 C18.4584,21.8975 18.7944,21.5615 18.7944,21.1475 C18.7944,20.7335 18.4584,20.3975 18.0444,20.3975 C17.6304,20.3975 17.2944,20.7335 17.2944,21.1475 C17.2944,21.5615 17.6304,21.8975 18.0444,21.8975" id="Fill-6" fill="#707070"></path>
                <path d="M22.0562,21.8975 C22.4702,21.8975 22.8062,21.5615 22.8062,21.1475 C22.8062,20.7335 22.4702,20.3975 22.0562,20.3975 C21.6412,20.3975 21.3062,20.7335 21.3062,21.1475 C21.3062,21.5615 21.6412,21.8975 22.0562,21.8975" id="Fill-8" fill="#707070"></path>
            </g>
        </g>
    </g>
</svg>