<?xml version="1.0" encoding="UTF-8"?>
<svg width="42px" height="46px" viewBox="0 0 42 46" version="1.1" xmlns="http://www.w3.org/2000/svg" xmlns:xlink="http://www.w3.org/1999/xlink">
    <title>FAE503D8-843D-44FB-8B2A-A181DCD4F532</title>
    <defs>
        <polygon id="path-1" points="0.0004 0.6792 41.335 0.6792 41.335 45 0.0004 45"></polygon>
        <polygon id="path-3" points="0 45.3213 41.335 45.3213 41.335 1.0003 0 1.0003"></polygon>
    </defs>
    <g id="Iconografía" stroke="none" stroke-width="1" fill="none" fill-rule="evenodd">
        <g id="Banorte---Iconografía---Coberturas" transform="translate(-50.000000, -1693.000000)">
            <g id="Group-9" transform="translate(50.000000, 1693.000000)">
                <path d="M32.2803,31.1367 L31.2463,31.1367 L31.2463,21.4177 C32.1693,20.7867 32.7173,19.7527 32.7173,18.6337 C32.7173,18.5417 32.6943,18.4517 32.6423,18.3637 L29.9173,14.3067 C29.6933,13.9157 29.2743,13.6727 28.8233,13.6727 L12.7503,13.6727 C12.2993,13.6727 11.8803,13.9157 11.6633,14.2957 L8.9253,18.3737 C8.8803,18.4517 8.8563,18.5417 8.8563,18.6337 C8.8563,19.7527 9.4043,20.7867 10.3273,21.4177 L10.3273,31.1367 L9.3013,31.1367 C6.3663,26.4127 4.6503,20.3607 4.1973,12.9887 C7.6313,11.2217 9.6523,7.4297 10.0173,5.3587 L31.3253,5.3587 C31.6903,7.4307 33.7143,11.2267 37.1513,12.9907 C36.8113,20.3817 35.1733,26.4337 32.2803,31.1367 L32.2803,31.1367 Z M21.0443,40.6697 C20.9053,40.7267 20.7823,40.7787 20.6743,40.8247 C20.5943,40.7897 20.5073,40.7517 20.4123,40.7107 C16.2373,38.9037 12.8633,36.1877 10.2803,32.6047 L30.9693,32.5647 L31.3403,32.5647 C28.7523,36.1887 25.3223,38.9027 21.0443,40.6697 L21.0443,40.6697 Z M14.5003,19.1567 C14.2593,20.1987 13.3183,20.9627 12.2313,20.9627 C11.1423,20.9627 10.2013,20.1987 9.9613,19.1567 L14.5003,19.1567 Z M14.6103,18.1107 L10.3113,18.1107 L12.5643,14.8257 C12.6023,14.7597 12.6733,14.7187 12.7503,14.7187 L15.3143,14.7187 L14.6103,18.1107 Z M20.2183,18.1107 L15.7043,18.1107 L16.4083,14.7187 L20.2183,14.7187 L20.2183,18.1107 Z M25.6553,18.1107 L21.2903,18.1107 L21.2903,14.7187 L24.9503,14.7187 L25.6553,18.1107 Z M30.7453,18.1107 L26.7493,18.1107 L26.0453,14.7187 L28.8233,14.7187 C28.9003,14.7187 28.9703,14.7597 29.0163,14.8377 L31.2623,18.1107 L30.7453,18.1107 Z M27.0733,19.1567 L31.6123,19.1567 C31.3723,20.1987 30.4303,20.9627 29.3423,20.9627 C28.2553,20.9627 27.3143,20.1987 27.0733,19.1567 L27.0733,19.1567 Z M21.3693,19.1567 L25.9083,19.1567 C25.6683,20.1987 24.7263,20.9627 23.6383,20.9627 C22.5513,20.9627 21.6103,20.1987 21.3693,19.1567 L21.3693,19.1567 Z M17.9353,20.9627 C16.8473,20.9627 15.9053,20.1987 15.6653,19.1567 L20.2043,19.1567 C19.9643,20.1987 19.0223,20.9627 17.9353,20.9627 L17.9353,20.9627 Z M30.1993,31.1367 L29.4053,31.1367 L29.4053,23.0497 C29.4053,22.7617 29.1713,22.5267 28.8833,22.5267 L24.4673,22.5267 C24.1783,22.5267 23.9443,22.7617 23.9443,23.0497 L23.9443,31.1137 L11.3743,31.1137 L11.3743,21.8977 C11.6533,21.9717 11.9403,22.0087 12.2313,22.0087 C13.4003,22.0087 14.4663,21.4137 15.0833,20.4377 C15.6993,21.4137 16.7653,22.0087 17.9353,22.0087 C19.1043,22.0087 20.1703,21.4137 20.7863,20.4377 C21.4043,21.4137 22.4693,22.0087 23.6383,22.0087 C24.8083,22.0087 25.8743,21.4137 26.4903,20.4377 C27.1083,21.4137 28.1743,22.0087 29.3423,22.0087 C29.6333,22.0087 29.9213,21.9717 30.1993,21.8977 L30.1993,31.1367 Z M24.9903,29.5187 L28.3603,29.5187 L28.3603,23.5727 L24.9903,23.5727 L24.9903,29.5187 Z M24.9903,31.3587 L28.3603,31.3587 L28.3603,30.5647 L24.9903,30.5647 L24.9903,31.3587 Z M32.4913,4.7447 L32.4913,4.1317 L8.8513,4.1317 L8.8513,4.7447 C8.8513,6.1327 6.9083,10.4137 3.3073,12.0577 L2.9263,12.2317 L2.9493,12.6487 C3.5083,22.8537 6.9073,36.1997 19.9253,41.8357 C20.1243,41.9217 20.2863,41.9917 20.4053,42.0487 L20.6713,42.1777 L20.9383,42.0487 C21.0733,41.9837 21.2683,41.9047 21.5123,41.8027 C32.1243,37.4177 37.8033,27.6067 38.3933,12.6397 L38.4093,12.2287 L38.0353,12.0577 C34.4343,10.4137 32.4913,6.1327 32.4913,4.7447 L32.4913,4.7447 Z" id="Fill-1" fill="#707070"></path>
                <g id="Group-5" transform="translate(0.000000, 0.321300)">
                    <mask id="mask-2" fill="white">
                        <use xlink:href="#path-1"></use>
                    </mask>
                    <g id="Clip-4"></g>
                    <path d="M21.1064,43.2432 C20.9444,43.3092 20.8004,43.3692 20.6744,43.4242 C20.5824,43.3832 20.4804,43.3392 20.3694,43.2912 C8.8414,38.3002 2.4884,27.4362 1.4804,10.9962 C5.4804,8.9372 7.8354,4.5192 8.2604,2.1062 L33.0824,2.1062 C33.5084,4.5212 35.8654,8.9422 39.8694,10.9992 C39.1084,27.5632 32.7964,38.4112 21.1064,43.2432 L21.1064,43.2432 Z M40.8994,9.9122 C36.7044,7.9962 34.4404,3.0092 34.4404,1.3922 L34.4404,0.6792 L6.9014,0.6792 L6.9014,1.3922 C6.9014,3.0102 4.6384,7.9972 0.4434,9.9122 L0.0004,10.1142 L0.0264,10.6002 C0.6774,22.4872 4.6364,38.0362 19.8014,44.6012 C20.0344,44.7022 20.2224,44.7832 20.3604,44.8502 L20.6714,45.0002 L20.9814,44.8502 C21.1404,44.7732 21.3674,44.6802 21.6514,44.5622 C34.0134,39.4542 40.6294,28.0242 41.3164,10.5902 L41.3354,10.1102 L40.8994,9.9122 Z" id="Fill-3" fill="#707070" mask="url(#mask-2)"></path>
                </g>
                <mask id="mask-4" fill="white">
                    <use xlink:href="#path-3"></use>
                </mask>
                <g id="Clip-7"></g>
                <path d="M13.214,29.5183 L22.104,29.5183 L22.104,28.6863 L13.214,28.6863 L13.214,29.5183 Z M13.214,27.9713 L22.104,27.9713 L22.104,23.5723 L13.214,23.5723 L13.214,27.9713 Z M22.627,22.5263 L12.691,22.5263 C12.403,22.5263 12.168,22.7613 12.168,23.0503 L12.168,30.0413 C12.168,30.3293 12.403,30.5643 12.691,30.5643 L22.627,30.5643 C22.915,30.5643 23.15,30.3293 23.15,30.0413 L23.15,23.0503 C23.15,22.7613 22.915,22.5263 22.627,22.5263 L22.627,22.5263 Z" id="Fill-6" fill="#707070" mask="url(#mask-4)"></path>
                <path d="M25.7217,27.7432 C25.9817,27.7432 26.1917,27.5332 26.1917,27.2732 C26.1917,27.0142 25.9817,26.8032 25.7217,26.8032 C25.4627,26.8032 25.2517,27.0142 25.2517,27.2732 C25.2517,27.5332 25.4627,27.7432 25.7217,27.7432" id="Fill-8" fill="#707070" mask="url(#mask-4)"></path>
            </g>
        </g>
    </g>
</svg>