<?xml version="1.0" encoding="UTF-8"?>
<svg width="36px" height="46px" viewBox="0 0 36 46" version="1.1" xmlns="http://www.w3.org/2000/svg" xmlns:xlink="http://www.w3.org/1999/xlink">
    <title>430F1FA5-FAB6-4458-A141-255F93160A4A</title>
    <g id="Iconografía" stroke="none" stroke-width="1" fill="none" fill-rule="evenodd">
        <g id="Banorte---Iconografía---Coberturas" transform="translate(-810.000000, -1850.000000)" fill="#EB0029">
            <g id="Group-21" transform="translate(810.000000, 1850.000000)">
                <path d="M19.5918,38.6719 L21.9358,38.6719 C22.2808,38.6719 22.5618,38.3929 22.5618,38.0459 C22.5618,37.6999 22.2808,37.4199 21.9358,37.4199 L19.5918,37.4199 C19.2458,37.4199 18.9658,37.6999 18.9658,38.0459 C18.9658,38.3929 19.2458,38.6719 19.5918,38.6719" id="Fill-1"></path>
                <path d="M1.3691,36.6788 L2.7311,38.3138 C3.1611,38.8298 3.3991,39.4848 3.3991,40.1578 L3.3991,44.6008 L1.3201,44.5988 L1.0401,37.9868 C1.0201,37.5198 1.1411,37.0688 1.3691,36.6788 L1.3691,36.6788 Z M2.4741,35.6908 L4.6831,34.7258 L6.2441,37.2598 C6.3981,37.5098 6.6531,37.6788 6.9431,37.7248 C6.9951,37.7328 7.0471,37.7378 7.0991,37.7378 C7.3371,37.7378 7.5681,37.6538 7.7511,37.4958 L8.7401,36.6528 L8.7401,44.6058 L4.4371,44.6018 L4.4371,40.1578 C4.4371,39.2418 4.1141,38.3518 3.5291,37.6488 L2.0801,35.9108 C2.2031,35.8258 2.3341,35.7508 2.4741,35.6908 L2.4741,35.6908 Z M6.3461,33.3478 L8.4951,35.4968 L7.1071,36.6818 L5.5461,34.1478 L6.3461,33.3478 Z M4.9991,27.5758 C4.9081,27.0778 4.4461,26.7158 3.9491,26.7528 C3.9041,26.7558 3.8591,26.7518 3.8131,26.7408 C3.6151,26.6948 3.4661,26.4788 3.4661,26.2388 L3.4661,25.8658 C3.4661,25.6248 3.6261,25.4078 3.8321,25.3718 C4.0051,25.3418 4.1711,25.4058 4.2761,25.5418 C4.3711,25.6658 4.4981,25.7548 4.6431,25.7988 C4.8561,25.8638 5.0911,25.8248 5.2711,25.6988 C5.5901,25.4728 6.9281,24.0958 7.1651,23.7798 C7.1831,23.7548 7.1901,23.7268 7.2031,23.6998 C7.9431,24.1218 8.7961,24.4428 9.7691,24.6478 C11.2021,24.9498 12.4751,24.9208 12.9741,24.8928 L13.5831,25.3928 C13.7501,25.5308 13.9851,25.5498 14.1731,25.4408 C14.2611,25.3928 14.5561,25.3468 14.6841,25.3728 C14.8941,25.4138 15.0531,25.6238 15.0531,25.8598 L15.0531,26.2388 C15.0531,26.4788 14.9031,26.6948 14.7051,26.7408 C14.6601,26.7518 14.6141,26.7558 14.5701,26.7528 C14.0731,26.7168 13.6101,27.0778 13.5191,27.5758 C13.1411,29.6318 11.3501,31.1238 9.2591,31.1238 C7.1681,31.1238 5.3771,29.6318 4.9991,27.5758 L4.9991,27.5758 Z M9.2591,18.0798 C12.1861,18.0798 14.5671,20.3528 14.5671,23.1458 C14.5671,23.5468 14.5161,23.9468 14.4171,24.3358 C14.2811,24.3468 14.1421,24.3688 14.0131,24.4028 L13.6231,24.0818 C13.4271,23.9208 13.1801,23.8398 12.9311,23.8558 C12.1681,23.9008 8.2611,24.0028 6.2561,21.6048 C6.0731,21.3848 5.7451,21.3558 5.5251,21.5388 C5.3051,21.7228 5.2761,22.0498 5.4601,22.2698 C5.7251,22.5868 6.0291,22.8718 6.3601,23.1338 C6.3531,23.1428 6.3421,23.1468 6.3351,23.1568 C6.2171,23.3138 5.0311,24.5568 4.8851,24.6838 C4.6621,24.4928 4.3901,24.3748 4.1011,24.3378 C4.0021,23.9478 3.9511,23.5478 3.9511,23.1458 C3.9511,20.3528 6.3321,18.0798 9.2591,18.0798 L9.2591,18.0798 Z M9.2591,15.8028 C10.3631,15.8028 11.2951,16.5078 11.5701,17.4618 C10.8541,17.1918 10.0741,17.0428 9.2591,17.0428 C8.4441,17.0428 7.6641,17.1918 6.9481,17.4618 C7.2231,16.5078 8.1551,15.8028 9.2591,15.8028 L9.2591,15.8028 Z M6.9621,5.7378 C9.0181,4.6348 10.2581,2.3848 10.5461,1.0568 L23.5521,1.0568 C23.8401,2.3858 25.0821,4.6388 27.1401,5.7408 C26.9711,9.2498 26.3081,12.2498 25.2011,14.7738 C25.0311,14.7748 24.8631,14.7718 24.6871,14.7818 C24.4191,14.7948 24.1631,14.8238 23.9191,14.8628 C24.9441,12.6988 25.5461,10.0928 25.6681,7.0028 L25.6821,6.6488 L25.3601,6.5018 C23.6511,5.7218 22.8771,3.7508 22.8771,3.2598 L22.8771,2.7318 L11.2211,2.7318 L11.2211,3.2598 C11.2211,3.7508 10.4471,5.7218 8.7381,6.5018 L8.4101,6.6518 L8.4301,7.0118 C8.5661,9.4948 9.0621,12.3638 10.3301,14.9448 C9.9921,14.8368 9.6351,14.7648 9.2591,14.7648 C9.1761,14.7648 9.0971,14.7828 9.0151,14.7878 C7.8771,12.2568 7.1861,9.2418 6.9621,5.7378 L6.9621,5.7378 Z M30.1101,22.0548 C29.9711,22.0508 29.8191,22.0608 29.6671,22.0858 L29.1801,20.9148 C29.0801,20.6758 28.8191,20.5468 28.5691,20.6128 C28.5211,20.6248 23.7281,21.8398 21.7181,19.3378 C21.5391,19.1148 21.2121,19.0788 20.9891,19.2578 C20.7651,19.4378 20.7291,19.7648 20.9091,19.9888 C21.1611,20.3018 21.4441,20.5678 21.7481,20.7928 C21.7421,20.7998 21.7341,20.8028 21.7291,20.8108 C21.6091,20.9718 20.4901,22.2808 20.3401,22.4088 C20.1761,22.2688 19.9841,22.1668 19.7781,22.1098 C19.6441,21.5978 19.4071,20.5038 19.4071,19.1838 C19.4071,19.0218 19.4241,18.8748 19.4451,18.7328 C20.0421,18.2948 20.5841,17.7968 21.0761,17.2418 C21.1471,17.2188 21.2141,17.1838 21.2691,17.1308 C21.2821,17.1188 22.5581,15.9358 24.7431,15.8178 C26.7431,15.7088 28.2861,16.2148 29.2081,17.2778 C30.1361,18.3498 30.4451,19.9948 30.1101,22.0548 L30.1101,22.0548 Z M30.5081,23.5858 L30.5081,23.9638 C30.5081,24.2108 30.3521,24.4288 30.1461,24.4708 C30.1051,24.4788 30.0651,24.4818 30.0251,24.4788 C29.5271,24.4428 29.0661,24.8038 28.9741,25.3028 C28.5971,27.3588 26.8061,28.8498 24.7151,28.8498 C22.6241,28.8498 20.8331,27.3588 20.4551,25.3028 C20.3641,24.8048 19.9021,24.4428 19.4041,24.4788 C19.3651,24.4818 19.3241,24.4788 19.2841,24.4708 C19.0771,24.4288 18.9211,24.2108 18.9211,23.9638 L18.9211,23.5918 C18.9211,23.3508 19.0821,23.1338 19.2871,23.0978 C19.4611,23.0678 19.6271,23.1308 19.7321,23.2678 C19.8271,23.3928 19.9541,23.4808 20.0991,23.5248 C20.3121,23.5888 20.5461,23.5508 20.7261,23.4238 C21.0511,23.1958 22.3221,21.7528 22.5611,21.4298 C22.5901,21.3918 22.6031,21.3488 22.6191,21.3068 C24.7171,22.2938 27.3501,21.9238 28.3891,21.7158 L28.7661,22.6208 C28.9281,23.0108 29.3431,23.2238 29.7511,23.1268 C29.9191,23.0878 30.0791,23.0868 30.1401,23.0988 C30.3501,23.1408 30.5081,23.3498 30.5081,23.5858 L30.5081,23.5858 Z M29.3881,31.3768 L27.3681,34.4078 C27.2651,34.5628 27.1161,34.5998 27.0361,34.6078 C26.9561,34.6158 26.8041,34.6088 26.6721,34.4768 L25.4741,33.2798 L28.5761,30.5648 L29.3881,31.3768 Z M24.1761,36.1998 L25.2531,36.1998 L25.6241,44.6188 L23.8051,44.6168 L24.1761,36.1998 Z M16.4591,34.7388 L15.0791,34.1368 C15.4561,33.8378 16.4241,33.0428 16.5701,32.9878 L19.1931,31.9758 L21.1981,34.9838 C21.4471,35.3568 21.8451,35.5958 22.2911,35.6398 C22.3411,35.6448 22.3901,35.6478 22.4391,35.6478 C22.6981,35.6478 22.9481,35.5788 23.1701,35.4538 L22.7661,44.6158 L18.2361,44.6138 L18.5151,38.0308 C18.5751,36.6238 17.7481,35.3018 16.4591,34.7388 L16.4591,34.7388 Z M15.1191,40.1578 C15.1191,39.4848 15.3561,38.8298 15.7871,38.3138 L17.1491,36.6788 C17.3771,37.0688 17.4981,37.5198 17.4781,37.9868 L17.1971,44.6128 L15.1191,44.6108 L15.1191,40.1578 Z M9.7781,36.6528 L10.7671,37.4968 C10.9511,37.6538 11.1821,37.7378 11.4191,37.7378 C11.4711,37.7378 11.5231,37.7338 11.5761,37.7248 C11.8661,37.6798 12.1201,37.5098 12.2741,37.2598 L13.8351,34.7268 L16.0441,35.6908 C16.1831,35.7508 16.3151,35.8258 16.4381,35.9108 L14.9901,37.6488 C14.4041,38.3518 14.0811,39.2418 14.0811,40.1578 L14.0811,44.6098 L9.7781,44.6058 L9.7781,36.6528 Z M11.1681,32.8848 L9.2591,34.7928 L7.3501,32.8848 L7.3501,31.8108 C7.9461,32.0378 8.5901,32.1618 9.2591,32.1618 C9.9281,32.1618 10.5721,32.0378 11.1681,31.8108 L11.1681,32.8848 Z M12.9721,34.1478 L11.4111,36.6818 L10.0231,35.4968 L12.1721,33.3478 L12.9721,34.1478 Z M23.9551,33.2798 L22.7581,34.4768 C22.6261,34.6088 22.4731,34.6158 22.3931,34.6078 C22.3141,34.5998 22.1651,34.5628 22.0621,34.4078 L20.0411,31.3768 L20.8541,30.5648 L23.9551,33.2798 Z M25.2071,35.1618 L24.2221,35.1618 L24.2531,34.4498 L24.7151,33.9878 L25.1761,34.4498 L25.2071,35.1618 Z M24.7151,32.5648 L21.8351,30.0438 L21.8351,29.0508 C22.6721,29.5828 23.6631,29.8878 24.7151,29.8878 C25.7661,29.8878 26.7571,29.5828 27.5951,29.0508 L27.5951,30.0438 L24.7151,32.5648 Z M15.4251,24.5838 C15.5351,24.1508 15.5881,23.7078 15.5981,23.2628 C15.9021,23.4178 16.2021,23.5778 16.5261,23.7188 C16.6481,23.7718 16.7471,23.8148 16.8191,23.8498 L17.0491,23.9598 L17.2791,23.8498 C17.3621,23.8098 17.4801,23.7608 17.6291,23.6998 C17.7171,23.6628 17.7991,23.6198 17.8851,23.5818 C17.8851,23.5858 17.8831,23.5878 17.8831,23.5918 L17.8831,23.9638 C17.8831,24.7048 18.3851,25.3458 19.0751,25.4878 C19.1961,25.5118 19.3181,25.5218 19.4391,25.5168 C19.6341,26.5498 20.1181,27.4668 20.7971,28.1908 L20.7971,29.3368 C20.6751,29.3448 20.5561,29.3958 20.4631,29.4878 L19.0221,30.9288 L16.1961,32.0188 C15.9521,32.1138 14.5711,33.2388 14.3551,33.3858 C14.2341,33.4678 14.1611,33.5918 14.1371,33.7258 L13.9251,33.6328 L12.5391,32.2468 C12.4471,32.1548 12.3271,32.1048 12.2061,32.0968 L12.2061,31.2808 C13.3901,30.5018 14.2561,29.2648 14.5351,27.7898 C14.6711,27.7968 14.8081,27.7828 14.9441,27.7518 C15.6081,27.5938 16.0901,26.9578 16.0901,26.2388 L16.0901,25.8598 C16.0901,25.3338 15.8291,24.8618 15.4251,24.5838 L15.4251,24.5838 Z M16.6021,21.0208 L17.0491,21.2278 L17.2791,21.1168 C17.3401,21.0868 17.4281,21.0518 17.5381,21.0058 C17.8571,20.8738 18.1531,20.7168 18.4511,20.5628 C18.5151,21.1478 18.6031,21.6408 18.6881,22.0108 C18.2181,22.2678 17.7361,22.5108 17.2251,22.7218 C17.1621,22.7478 17.1041,22.7718 17.0521,22.7938 C17.0181,22.7808 16.9831,22.7648 16.9471,22.7488 C16.4351,22.5278 15.9521,22.2758 15.4811,22.0088 C15.3331,21.2578 15.0441,20.5578 14.6381,19.9308 C15.2401,20.3338 15.8811,20.7078 16.6021,21.0208 L16.6021,21.0208 Z M20.7011,16.2518 C20.4591,16.2808 20.0481,16.3658 19.6321,16.6148 C19.0561,16.9598 18.3691,17.6868 18.3691,19.1838 C18.3691,19.2588 18.3761,19.3248 18.3771,19.3988 C17.9761,19.6238 17.5741,19.8468 17.1341,20.0288 C17.1061,20.0408 17.0781,20.0518 17.0521,20.0628 C17.0421,20.0588 17.0321,20.0548 17.0221,20.0498 C12.4671,18.0778 9.9401,13.7888 9.5071,7.2968 C11.0341,6.4478 11.9481,4.8298 12.2041,3.7878 L21.8941,3.7878 C22.1501,4.8308 23.0661,6.4498 24.5971,7.2998 C24.4321,10.4948 23.7301,13.1298 22.5311,15.2278 C21.5971,15.5758 20.9701,16.0308 20.7011,16.2518 L20.7011,16.2518 Z M32.8601,32.9878 C33.2281,33.1288 33.5441,33.3558 33.7931,33.6378 L31.9991,35.4318 C31.3501,36.0798 30.9941,36.9428 30.9941,37.8598 L30.9941,44.6228 L26.6631,44.6188 L26.2601,35.4538 C26.4811,35.5788 26.7321,35.6478 26.9901,35.6478 C27.0391,35.6478 27.0891,35.6448 27.1391,35.6398 C27.5841,35.5958 27.9831,35.3568 28.2311,34.9838 L30.2371,31.9758 L32.8601,32.9878 Z M34.3901,35.3168 L34.0131,44.6258 L32.0321,44.6238 L32.0321,37.8598 C32.0321,37.2198 32.2811,36.6178 32.7331,36.1658 L34.3081,34.5918 C34.3711,34.8238 34.4011,35.0678 34.3901,35.3168 L34.3901,35.3168 Z M33.2341,32.0188 L30.4071,30.9288 L28.9661,29.4888 C28.8741,29.3958 28.7541,29.3448 28.6331,29.3368 L28.6331,28.1908 C29.3121,27.4668 29.7951,26.5498 29.9911,25.5168 C30.1121,25.5218 30.2341,25.5118 30.3541,25.4878 C31.0451,25.3458 31.5461,24.7048 31.5461,23.9638 L31.5461,23.5858 C31.5461,23.1578 31.3721,22.7638 31.0891,22.4828 C31.5471,19.9898 31.1701,17.9578 29.9931,16.5988 C29.1371,15.6108 27.8881,15.0098 26.3311,14.8258 C27.4241,12.1788 28.0701,9.0638 28.2121,5.4408 L28.2261,5.0858 L27.9041,4.9388 C25.5911,3.8838 24.5441,1.1988 24.5441,0.5288 L24.5441,-0.0002 L9.5541,-0.0002 L9.5541,0.5288 C9.5541,1.1988 8.5071,3.8838 6.1941,4.9388 L5.8661,5.0888 L5.8861,5.4498 C6.0491,8.4358 6.6181,11.8478 7.9961,15.0008 C6.7391,15.4798 5.8421,16.6458 5.8271,18.0138 C4.0761,19.1018 2.9131,20.9948 2.9131,23.1458 C2.9131,23.6288 2.9731,24.1098 3.0921,24.5788 C2.6881,24.8558 2.4281,25.3298 2.4281,25.8658 L2.4281,26.2388 C2.4281,26.9578 2.9101,27.5938 3.5741,27.7518 C3.7091,27.7828 3.8471,27.7968 3.9831,27.7898 C4.2621,29.2648 5.1281,30.5018 6.3121,31.2808 L6.3121,32.0968 C6.1911,32.1048 6.0721,32.1548 5.9781,32.2468 L4.5931,33.6328 L2.0591,34.7388 C0.7701,35.3018 -0.0569,36.6238 0.0031,38.0298 L0.3091,45.2608 C0.3211,45.5398 0.5511,45.7578 0.8271,45.7578 L0.8501,45.7578 C0.8511,45.7578 0.8521,45.7568 0.8541,45.7568 C0.8841,45.7618 0.9111,45.7748 0.9421,45.7748 L34.3921,45.8018 L34.3921,45.8018 C34.4921,45.8018 34.5811,45.7718 34.6631,45.7278 C34.8651,45.6628 35.0171,45.4848 35.0261,45.2598 L35.4281,35.3588 C35.4871,33.8898 34.6051,32.5478 33.2341,32.0188 L33.2341,32.0188 Z" id="Fill-3"></path>
                <path d="M5.7871,40.1778 L7.5451,40.1778 C7.8911,40.1778 8.1711,39.8978 8.1711,39.5518 C8.1711,39.2058 7.8911,38.9258 7.5451,38.9258 L5.7871,38.9258 C5.4411,38.9258 5.1611,39.2058 5.1611,39.5518 C5.1611,39.8978 5.4411,40.1778 5.7871,40.1778" id="Fill-5"></path>
                <path d="M16.2031,13.5098 L14.4841,11.7908 L15.0501,11.2248 L16.2891,12.4648 L19.9511,8.8028 C20.1041,8.9548 20.2781,9.1288 20.4311,9.2808 L16.2031,13.5098 Z M20.3441,7.6188 L19.9491,7.2268 L16.2891,10.8868 L15.0501,9.6468 L12.9061,11.7908 L16.2031,15.0878 L21.9991,9.2908 L21.6211,8.8968 C21.5021,8.7718 20.3441,7.6188 20.3441,7.6188 L20.3441,7.6188 Z" id="Fill-7"></path>
                <path d="M25.5483,26.0899 C25.4173,26.3529 25.1523,26.5159 24.8583,26.5159 C24.5643,26.5159 24.2993,26.3529 24.1683,26.0899 L24.1313,26.0169 L23.5143,26.3259 L23.5503,26.3989 C23.7993,26.8969 24.3003,27.2059 24.8583,27.2059 C25.4153,27.2059 25.9163,26.8969 26.1653,26.3989 L26.2013,26.3249 L25.5843,26.0169 L25.5483,26.0899 Z" id="Fill-9"></path>
                <path d="M22.7441,23.0694 C22.3671,23.0694 22.0611,23.3754 22.0611,23.7534 C22.0611,24.1304 22.3671,24.4354 22.7441,24.4354 C23.1211,24.4354 23.4281,24.1304 23.4281,23.7534 C23.4281,23.3754 23.1211,23.0694 22.7441,23.0694" id="Fill-11"></path>
                <path d="M26.7685,23.0694 C26.3915,23.0694 26.0855,23.3754 26.0855,23.7534 C26.0855,24.1304 26.3915,24.4354 26.7685,24.4354 C27.1455,24.4354 27.4525,24.1304 27.4525,23.7534 C27.4525,23.3754 27.1455,23.0694 26.7685,23.0694" id="Fill-13"></path>
                <path d="M10.5913,28.6114 L10.6283,28.5384 L10.0103,28.2294 L9.9743,28.3024 C9.8423,28.5654 9.5783,28.7294 9.2843,28.7294 C8.9893,28.7294 8.7253,28.5654 8.5943,28.3024 L8.5583,28.2304 L7.9403,28.5394 L7.9773,28.6114 C8.2263,29.1094 8.7273,29.4204 9.2843,29.4204 C9.8413,29.4204 10.3423,29.1094 10.5913,28.6114" id="Fill-15"></path>
                <path d="M7.1704,25.2823 C6.7934,25.2823 6.4864,25.5883 6.4864,25.9663 C6.4864,26.3433 6.7934,26.6493 7.1704,26.6493 C7.5474,26.6493 7.8534,26.3433 7.8534,25.9663 C7.8534,25.5883 7.5474,25.2823 7.1704,25.2823" id="Fill-17"></path>
                <path d="M11.1948,26.6495 C11.5718,26.6495 11.8778,26.3425 11.8778,25.9655 C11.8778,25.5875 11.5718,25.2825 11.1948,25.2825 C10.8178,25.2825 10.5108,25.5875 10.5108,25.9655 C10.5108,26.3425 10.8178,26.6495 11.1948,26.6495" id="Fill-19"></path>
            </g>
        </g>
    </g>
</svg>