<?xml version="1.0" encoding="UTF-8"?>
<svg width="45px" height="45px" viewBox="0 0 45 45" version="1.1" xmlns="http://www.w3.org/2000/svg" xmlns:xlink="http://www.w3.org/1999/xlink">
    <title>9D7225F8-2E89-4EA5-9F14-FAFC647A0568</title>
    <g id="DESKTOP---MINISITE" stroke="none" stroke-width="1" fill="none" fill-rule="evenodd">
        <g id="BANORTE---HOME---VIDA-1---DESKTOP" transform="translate(-589.000000, -171.000000)" fill="#707070" fill-rule="nonzero">
            <g id="family-(5)" transform="translate(589.000000, 171.000000)">
                <path d="M13.9145625,14.1707812 C15.0056758,14.7146877 16.2079301,14.9985091 17.4270938,15 L18,15 L18,13.5 L17.4270938,13.5 C16.4407924,13.4987815 15.4681697,13.269191 14.5854375,12.8292187 L13.9145625,14.1707812 Z" id="Path"></path>
                <rect id="Rectangle" x="10.5" y="23.25" width="1.5" height="1.5" rx="0.75"></rect>
                <rect id="Rectangle" x="14.3571429" y="23.25" width="1.5" height="1.5" rx="0.75"></rect>
                <path d="M13.5,27.8026891 C14.3537299,27.8036549 15.151186,27.3769089 15.624,26.6660625 L14.376,25.8339375 C14.1807115,26.1267932 13.8519972,26.30269 13.5,26.30269 C13.1480028,26.30269 12.8192885,26.1267932 12.624,25.8339375 L11.376,26.6660625 C11.848814,27.3769089 12.6462701,27.8036549 13.5,27.8026891 L13.5,27.8026891 Z" id="Path"></path>
                <path d="M41.25,23.25 L41.25,12.375 C41.2490705,9.91778769 39.9829223,7.63421484 37.8992813,6.33178125 L37.89825,6.33103125 L37.8973125,6.33046875 L37.8973125,6.33046875 L37.8973125,6.33046875 C35.7006956,4.95956886 32.9332579,4.88826513 30.6689592,6.14422839 C28.4046605,7.40019165 26.9999677,9.78569657 27,12.375 L27,12.7767187 C25.7085891,12.963221 24.7502032,14.0699571 24.7502032,15.3747656 C24.7502032,16.6795741 25.7085891,17.7863103 27,17.9728125 L27,21.2188125 C26.5131839,21.0738496 26.007941,21.0001472 25.5,21 L21.1936875,21 C20.6071265,20.6447665 20.2491558,20.0085559 20.25,19.3228125 L20.25,18.363375 C21.9077866,17.2501601 22.9905776,15.4627951 23.2095937,13.4779688 C24.5113626,13.3107621 25.4894862,12.2076373 25.4996828,10.8952135 C25.5098794,9.58278963 24.5490138,8.46460036 23.25,8.2771875 L23.25,5.32171875 C23.36625,5.27409375 23.4786563,5.22421875 23.5854375,5.17078125 C23.8879334,5.01953299 24.0517809,4.68454239 23.9854687,4.35290625 C23.962125,4.236375 23.7300938,3.18309375 22.7760938,2.12325 C21.196875,0.3684375 18.89925,0 17.25,0 C13.963875,0 12.2324062,1.10465625 11.673375,1.54425 C11.04975,1.6798125 9.75,2.233875 9.75,4.5 L9.75,8.2771875 C8.45098625,8.46460036 7.49012062,9.58278963 7.50031719,10.8952135 C7.51051376,12.2076373 8.48863736,13.3107621 9.79040625,13.4779687 C9.95902709,15.0052217 10.6411197,16.429994 11.7250313,17.5190625 C11.4547767,17.6022474 11.1908213,17.7046652 10.9351875,17.8255312 C10.843875,17.8677187 10.7476875,17.9165625 10.6419375,17.9740312 C10.1329192,18.2500045 9.66641815,18.5980331 9.256875,19.0073437 C9.10140916,19.163533 8.95447717,19.3279904 8.81671875,19.5 L8.25,19.5 C5.89270252,19.4962705 3.82338372,21.0678292 3.19425,23.339625 C2.78105935,23.9565782 2.50477149,24.6548579 2.38396875,25.3875 L1.51021875,30.6271875 C1.51021875,30.6285937 1.51021875,30.6300938 1.50975,30.6315 C1.50928125,30.6329062 1.509,30.6347813 1.50871875,30.636375 C1.50871875,30.6359063 0,40.5375 0,40.7175 L0,41.42625 C0,41.4644062 0.00075,41.5019063 0.0024375,41.53875 C0.0024375,41.5467187 0.0031875,41.5525313 0.003375,41.5600313 C0.0759080624,43.4276181 1.57375077,44.9246848 3.441375,44.99625 C3.44840625,44.99625 3.45365625,44.9970937 3.46115625,44.9971875 C3.49828125,44.9991562 42,45 42,45 C42.241079,45 42.4674557,44.8840888 42.6084098,44.6885101 C42.7493639,44.4929314 42.78771,44.2415183 42.7114688,44.0128125 L41.9525625,41.7368438 L43.341,41.0425313 C44.3604192,40.5378503 45.0039386,39.497186 45.000018,38.3596875 L45.000018,27 C44.9976751,24.929896 43.320104,23.2523249 41.25,23.25 L41.25,23.25 Z M23.25,9.8143125 C23.6995297,9.97320839 24.0000773,10.398214 24.0000773,10.875 C24.0000773,11.351786 23.6995297,11.7767916 23.25,11.9356875 L23.25,9.8143125 Z M9.75,11.9356875 C9.3004703,11.7767916 8.9999227,11.351786 8.9999227,10.875 C8.9999227,10.398214 9.3004703,9.97320839 9.75,9.8143125 L9.75,11.9356875 Z M38.25,8.5513125 C39.2177935,9.5889127 39.7541372,10.9561197 39.75,12.375 L39.75,24.75 C39.7488858,25.7031918 39.1482854,26.5526285 38.25,26.8714688 L38.25,8.5513125 Z M39.8851875,30.627375 C40.4776908,31.616986 40.6494202,32.8025887 40.3620586,33.9196444 C40.0746969,35.0367001 39.352157,35.9922527 38.3556562,36.5730938 L37.093875,37.3161563 C35.0115352,38.5415278 32.3310332,37.8660136 31.078125,35.800125 C30.485699,34.8104951 30.3140132,33.6249181 30.601369,32.5078852 C30.8887248,31.3908523 31.6112141,30.4353011 32.6076562,29.8544063 L33.8694375,29.1113438 C35.951844,27.8862748 38.6321311,28.561578 39.8854688,30.6270938 L39.8851875,30.627375 Z M29.7912188,36.571875 C30.6487827,37.9986736 32.0715696,38.9945052 33.70575,39.3117188 L32.4143438,40.0722188 L25.5687188,33.9998438 L29.23275,31.8420938 C29.2004063,31.9452188 29.170125,32.049375 29.1432188,32.1549375 C28.7572621,33.6545271 28.9907934,35.2463372 29.7912188,36.571875 Z M31.4999994,25.5 L31.4999994,24.2871562 C31.9520933,23.7318696 32.2137701,23.0459948 32.2464375,22.3306875 C32.6922188,22.432125 33.7033125,22.5002813 33.748875,22.5002813 C34.2554029,22.5001664 34.7602418,22.4418782 35.2534688,22.3265625 C35.285275,23.0433123 35.5470367,23.7307695 35.9999994,24.2871563 L35.9999994,25.5 C35.9991201,26.0758975 35.7779771,26.6296439 35.3819063,27.0477188 C34.656765,27.1365259 33.9545432,27.3597795 33.31125,27.7060313 C32.2580068,27.4978287 31.4991937,26.5736242 31.4999994,25.5 Z M28.5,12.375 C28.5004666,10.4037615 29.5325441,8.57653357 31.2205356,7.55846373 C32.908527,6.54039388 35.0062154,6.47998182 36.75,7.39921875 L36.75,7.41440625 C36.60075,8.004 35.2185937,12.6374063 28.5,13.9191563 L28.5,12.375 Z M28.4999908,15.4425938 C29.0655937,15.3437812 29.596875,15.2225625 30.0989062,15.084 C30.3371001,15.6228452 30.9510491,15.8862066 31.5056505,15.6874411 C32.060252,15.4886756 32.3671484,14.8952895 32.2088437,14.3278125 C34.2338438,13.4144063 35.5626563,12.209625 36.4030312,11.18175 C36.5266875,11.0305313 36.6417187,10.8804375 36.7499062,10.73175 L36.7499062,13.565625 C36.2833743,13.3988888 35.7626813,13.5569773 35.4676011,13.954948 C35.1725208,14.3529186 35.1725208,14.8970814 35.4676011,15.295052 C35.7626813,15.6930227 36.2833743,15.8511112 36.7499062,15.684375 L36.7499062,20.0333438 C36.4274179,20.264682 36.0794171,20.458201 35.71275,20.6100937 C35.0570375,20.8821743 34.3518456,21.0147071 33.6420938,20.99925 C33.0037481,20.9874706 32.3729977,20.8585178 31.78125,20.6188125 C29.7953005,19.8189151 28.4960059,17.8909847 28.4999908,15.75 L28.4999908,15.4425938 Z M28.5,19.9906875 C29.1115661,20.7475599 29.8789642,21.3638445 30.75,21.797625 L30.75,22.1896875 C30.7482432,22.5706225 30.6271646,22.9414317 30.4037813,23.25 L28.5,23.25 L28.5,19.9906875 Z M26.25,15.375 C26.2501512,14.8985907 26.550706,14.4740571 27,14.315625 C27,14.315625 27.0125625,16.2166875 27.036375,16.4480625 C26.5685152,16.2998233 26.250436,15.8657825 26.25,15.375 L26.25,15.375 Z M28.393125,28.135875 C28.4630606,28.019312 28.5000022,27.8859335 28.5,27.75 L28.5,24.75 L30,24.75 L30,25.5 C29.9987658,26.7695169 30.6411264,27.9531194 31.70625,28.6439062 L26.382375,31.7792812 C26.4752365,31.4313484 26.6161221,31.0980505 26.8009687,30.789 L28.393125,28.135875 Z M25.515,30.017625 C25.0217217,30.840667 24.7578628,31.7807958 24.7508437,32.7403125 L24,33.1824375 L24,27 C24.0014465,25.757959 25.007959,24.7514465 26.25,24.75 L27,24.75 L27,27.54225 L25.515,30.017625 Z M21.0254062,24.4125 C21.371539,23.8248079 21.5994681,23.1751288 21.696375,22.5 L25.5,22.5 C26.0162447,22.5002707 26.5268843,22.6070263 27,22.8135937 L27,23.25 L26.25,23.25 C24.179896,23.2523249 22.5023249,24.929896 22.5,27 L22.5,33.75 L21.75,33.75 L21.75,33 C21.7476751,30.929896 20.070104,29.2523249 18,29.25 L17.46225,29.25 C18.3846509,28.4387194 19.0360353,27.3640512 19.3285312,26.1709688 C20.0243045,25.7260843 20.6056018,25.1236869 21.0254062,24.4125 L21.0254062,24.4125 Z M20.25,33 L20.25,33.9594375 L18.75,34.4594063 L18.75,30.8781562 C19.6484149,31.1970427 20.2490444,32.0466706 20.25,33 Z M19.2673125,21.1445625 C19.5148477,21.5439365 19.8409819,21.8888254 20.2259062,22.1582813 C20.1566678,22.8264735 19.9056033,23.4629057 19.5,23.9984063 L19.5,23.25 C19.5008392,21.8071228 18.9793353,20.4127161 18.031875,19.3245 C18.2749579,19.2678289 18.5147027,19.1976895 18.75,19.1144063 L18.75,19.3228125 C18.7500369,19.9663028 18.929157,20.597086 19.2673125,21.1445625 L19.2673125,21.1445625 Z M21.75,6.52340625 L21.273375,5.80828125 C21.4370625,5.78734375 21.5959375,5.7635 21.75,5.73675 L21.75,6.52340625 Z M17.25,1.5 C20.60625,1.5 21.864375,3.159375 22.302,4.07015625 C19.9574063,4.79203125 15.8000625,4.20646875 13.9546875,3.829875 L13.0275938,2.439375 C13.6914375,2.05828125 15.0409688,1.5 17.25,1.5 Z M11.25,4.5 C11.25,3.67725 11.4782813,3.30525 11.6900625,3.13715625 L12.5985937,4.5 L11.25,6.5229375 L11.25,4.5 Z M11.25,12.75 L11.25,9.2270625 L13.8443437,5.33559375 C14.5069687,5.463375 15.7505625,5.67928125 17.1818437,5.80940625 C17.9735313,5.88140625 18.7099062,5.917375 19.3909687,5.9173125 C19.4421562,5.9173125 19.4918437,5.916375 19.542375,5.916 L21.75,9.2270625 L21.75,12.75 C21.7508961,14.1426611 21.1980605,15.4785399 20.2133002,16.4633002 C19.2285399,17.4480605 17.8926611,18.0008961 16.5,18.0000011 C16.4674687,18.0000011 16.4329687,17.9993437 16.398375,17.9986875 C15.6028117,17.5572737 14.716723,17.3039223 13.8080625,17.2580625 C12.2240706,16.3077014 11.2534696,14.5972153 11.25,12.75 Z M10.3174687,20.0687813 C10.3730312,20.0130938 10.4301875,19.9589063 10.4889375,19.9062188 C12.1382812,18.4260937 14.7426562,18.396 16.4270625,19.8362813 C17.2956331,20.585665 17.8462805,21.6376505 17.9670937,22.7784375 C16.9216875,22.8299063 15.8603437,22.7464688 14.8644375,22.4243438 C13.8685312,22.1022188 12.9388125,21.531375 12.2819062,20.7165 C12.0345,20.4096563 11.7728437,20.0385938 11.37975,20.0097188 C11.1252187,19.9909688 10.8809062,20.1315938 10.7071875,20.3185313 C10.5440184,20.5150094 10.4039451,20.7295703 10.2897187,20.958 C9.95416246,21.5452867 9.54027403,22.0841964 9.0594375,22.5599063 C9.20414872,21.6171817 9.64469115,20.7448295 10.3174687,20.0687813 Z M9,24.5687813 C10.078125,23.8562812 10.8354375,22.8835313 11.4181875,21.9945937 C12.5834063,23.1758437 13.7655938,23.7542813 15,24.037125 L16.5,24.253875 C16.9896563,24.2905313 17.4889688,24.3021563 18,24.3051563 L18,24.75 C18,27.2352814 15.9852814,29.25 13.5,29.25 C11.0147186,29.25 9,27.2352814 9,24.75 L9,24.5687813 Z M17.25,30.75 L17.25,34.5 L15.345,34.5 L12.1305937,30.75 L17.25,30.75 Z M8.92546875,28.6262813 C9.11439838,28.848703 9.31918372,29.0571542 9.53821875,29.25 C9.26902978,29.2514419 9.00145838,29.2917323 8.74378125,29.369625 C8.82240952,29.1266115 8.88313445,28.8781657 8.92546875,28.6262813 Z M8.25,35.311125 L8.2895625,35.0736562 L10.7570625,37.9523437 C11.0938899,38.3451383 11.5266852,38.6440254 12.0133125,38.8199063 L8.25,38.377125 L8.25,35.311125 Z M4.49999653,24.75 C4.49959298,24.4519085 4.53497106,24.1548459 4.605375,23.8651875 C4.60828125,23.8551563 4.61109375,23.845125 4.61353125,23.8349063 C5.00100828,22.2812587 6.33472512,21.1467701 7.93040625,21.0135 C7.64524014,21.7246177 7.49913136,22.483836 7.49999653,23.25 L7.49999653,27.75 C7.50067345,28.6728768 7.1600862,29.5634123 6.54375,30.2503125 C6.496125,30.3035625 6.44803125,30.3546563 6.400875,30.4018125 C5.88246287,30.9235748 5.22094022,31.2798496 4.49999653,31.4255625 L4.49999653,24.75 Z M2.89340625,31.5 L3,31.5 L3,32.25 C3,32.6642136 3.33578644,33 3.75,33 C4.82310803,33.0026515 5.87084962,32.6738243 6.75,32.0584688 L6.75,35.1868125 L6.2570625,38.1426563 L3.99178125,37.8762188 C3.25057343,37.7893263 2.50075904,37.9366535 1.84753125,38.2975313 L2.89340625,31.5 Z M19.5,43.5 L3.569625,43.5 C3.550875,43.5 3.532125,43.4994375 3.514125,43.4984063 C3.50475,43.4979375 3.495375,43.4976563 3.486,43.4974688 L3.48440625,43.4974688 C2.4121667,43.4454804 1.55464863,42.5878407 1.5028125,41.5155938 L1.5028125,41.5126875 C1.5028125,41.5039688 1.50225,41.4953438 1.501875,41.486625 C1.50075,41.4684375 1.50028125,41.4499688 1.50028125,41.4312188 C1.50028125,41.4294375 1.50028125,41.4276563 1.50028125,41.425875 C1.50028125,40.8336093 1.75349847,40.2695994 2.19602894,39.8759683 C2.63855941,39.4823373 3.22823625,39.2966237 3.81646875,39.365625 L13.4123437,40.4945625 C13.5892379,40.5152874 13.7677394,40.4724564 13.9159688,40.3737187 L15.9770625,39 L19.5,39 L19.5,43.5 Z M20.2499994,37.5000003 L13.0349063,37.5000003 C12.5969696,37.5002698 12.1808449,37.3088895 11.8960313,36.9762187 L8.56415625,33.0890625 L8.56415625,33.0890625 C8.36149994,32.8525333 8.24999939,32.5513483 8.24999939,32.239875 L8.24999939,32.0549062 C8.24964077,31.6845456 8.40682295,31.331512 8.68229672,31.0839612 C8.9577705,30.8364105 9.32553278,30.7177099 9.69375,30.7575 L9.70434375,30.7589062 C10.031207,30.7962391 10.3318534,30.9558225 10.5459375,31.205625 L14.4309375,35.7380625 C14.5733319,35.9042077 14.7811841,35.9998814 15,36 L18.7499994,36 C18.8306109,35.9999739 18.910694,35.986996 18.9871875,35.9615625 L21.121875,35.25 L22.335375,35.25 L21.885375,37.5000003 L20.2499994,37.5000003 Z M22.5,39.75 L22.5,42.4259063 C22.2139203,42.1772675 21.9617608,41.8921067 21.75,41.57775 L21.75,39 L22.5,39 C22.8575212,39.0000165 23.1653499,38.7476715 23.2354688,38.3970938 L23.920875,34.9697813 L24.202125,34.8039375 L26.1945,36.5117813 L25.94475,39 L23.25,39 C22.8357864,39 22.5,39.3357864 22.5,39.75 Z M27,43.5 L24,43.5 L24,40.5 L27,40.5 L27,43.5 Z M27.75,39 L27.4523438,39 L27.5828437,37.7015625 L28.002375,38.0611875 L31.06275,40.8675937 L28.5,42.3766875 L28.5,39.75 C28.5,39.3357864 28.1642136,39 27.75,39 Z M38.4267187,43.5 L40.5974062,42.4144687 L40.959375,43.5 L38.4267187,43.5 Z M43.5000088,38.3596875 C43.5019444,38.9283469 43.1801733,39.4485701 42.6705,39.7007813 L35.0729063,43.5 L29.5485938,43.5 L39.1168125,37.865625 C40.6287004,36.9831098 41.6623636,35.4662373 41.9307048,33.736315 C42.199046,32.0063927 41.6734868,30.2476576 40.5,28.9485938 L40.5,26.997375 C40.9875788,26.3496568 41.2508641,25.5607226 41.25,24.75 C42.492041,24.7514465 43.4985535,25.757959 43.5000088,27 L43.5000088,38.3596875 Z" id="Shape"></path>
                <path d="M36.3354375,17.9207812 L35.6645625,16.5792187 C34.7818303,17.019191 33.8092076,17.2487815 32.8229063,17.25 L32.25,17.25 L32.25,18.75 L32.8229063,18.75 C34.0420699,18.7485091 35.2443242,18.4646877 36.3354375,17.9207813 L36.3354375,17.9207812 Z" id="Path"></path>
                <path d="M34.3570987,30.5873552 C34.7614488,30.5873552 35.0892393,30.9151457 35.0892393,31.3194958 L35.0892393,31.3552145 C35.0892393,31.7595646 34.7614488,32.0873552 34.3570987,32.0873552 C33.9527486,32.0873552 33.6249581,31.7595646 33.6249581,31.3552145 L33.6249581,31.3194958 C33.6249581,30.9151457 33.9527486,30.5873552 34.3570987,30.5873552 Z" id="Rectangle" transform="translate(34.357099, 31.337355) rotate(-30.494000) translate(-34.357099, -31.337355) "></path>
                <path d="M36.6061109,34.3390887 C37.010461,34.3390887 37.3382516,34.6668792 37.3382516,35.0712293 L37.3382516,35.1069481 C37.3382516,35.5112982 37.010461,35.8390887 36.6061109,35.8390887 C36.2017608,35.8390887 35.8739703,35.5112982 35.8739703,35.1069481 L35.8739703,35.0712293 C35.8739703,34.6668792 36.2017608,34.3390887 36.6061109,34.3390887 Z" id="Rectangle" transform="translate(36.606111, 35.089089) rotate(-30.494000) translate(-36.606111, -35.089089) "></path>
                <path d="M33.5541562,34.3354688 C33.3830234,34.0520535 33.3681107,33.7009688 33.5145938,33.4040625 L32.1640313,32.7512812 C31.8006518,33.5010728 31.8379814,34.3832133 32.2634063,35.099625 C32.6929071,35.8250944 33.457968,36.2864412 34.3000312,36.32775 L34.3771875,34.8298125 C34.0365262,34.8160565 33.7263292,34.6297404 33.5541562,34.3354688 L33.5541562,34.3354688 Z" id="Path"></path>
                <path d="M36.4748438,33.4815 C36.6103204,33.7068451 36.8539099,33.844789 37.1168438,33.8450625 L37.118625,33.8450625 C37.3811271,33.8448002 37.6244528,33.7075341 37.7604375,33.483 C38.0416875,33.0195 38.5605,32.4863437 38.8347188,32.46675 L38.728125,30.9706875 C38.184375,31.0095 37.7056875,31.3122187 37.3290938,31.6579688 C37.1370938,30.6735938 37.7442188,30.2200312 37.9009688,30.1210313 L37.8915938,30.1264688 L37.1304375,28.8339375 C36.5105128,29.2315738 36.0640976,29.8491462 35.8809375,30.5625 C35.6522813,31.46025 35.8520625,32.4425625 36.4748438,33.4815 Z" id="Path"></path>
                <circle id="Oval" cx="19.125" cy="10.125" r="1.125"></circle>
                <circle id="Oval" cx="13.875" cy="10.125" r="1.125"></circle>
            </g>
        </g>
    </g>
</svg>