<?xml version="1.0" encoding="UTF-8"?>
<svg width="45px" height="45px" viewBox="0 0 45 45" version="1.1" xmlns="http://www.w3.org/2000/svg" xmlns:xlink="http://www.w3.org/1999/xlink">
    <title>A22B362F-4E96-4696-86BF-AD5421C4E5AE</title>
    <g id="DESKTOP---MINISITE" stroke="none" stroke-width="1" fill="none" fill-rule="evenodd">
        <g id="BANORTE---HOME---VIDA-1---DESKTOP" transform="translate(-1009.000000, -171.000000)" fill="#707070" fill-rule="nonzero">
            <g id="grandparents" transform="translate(1009.000000, 171.000000)">
                <path d="M11.25,12.0000114 C11.8855605,11.9929768 12.3957631,11.4733009 12.3910939,10.8377188 C12.3864246,10.2021367 11.8686419,9.69001286 11.2330469,9.69232028 C10.5974518,9.69464334 10.0834138,10.2105257 10.083375,10.846125 C10.0876079,11.4866136 10.6095035,12.0028055 11.25,12.0000114 Z" id="Path"></path>
                <path d="M18.75,12.0000114 C19.3855605,11.9929768 19.8957631,11.4733009 19.8910939,10.8377188 C19.8864246,10.2021367 19.3686419,9.69001286 18.7330469,9.69232028 C18.0974518,9.69464334 17.5834138,10.2105257 17.583375,10.846125 C17.5876079,11.4866136 18.1095035,12.0028055 18.75,12.0000114 L18.75,12.0000114 Z" id="Path"></path>
                <path d="M39.75,24 L36.369375,24 C36.2036896,24 36.069375,23.8656854 36.069375,23.7 L36.069375,22.5 L38.9203125,22.5 C40.7384205,22.5001146 42.4269461,21.5587978 43.3828213,20.012247 C44.3386966,18.4656962 44.4256025,16.5344678 43.6125,14.9083125 L42.6519375,12.988125 C42.2811563,12.2475 42.3088125,11.47875 42.340875,10.588125 C42.3473438,10.41 42.3537187,10.2293437 42.3572813,10.0467187 C42.3614001,9.09338771 42.2242226,8.1447087 41.9502188,7.23159375 C40.7762299,3.20331667 37.2196945,0.330896878 33.0345692,0.0309095526 C28.8494439,-0.269077773 24.9195864,2.06672176 23.1830625,5.886375 C23.1104654,5.43069636 22.9772862,4.98676567 22.7870625,4.566375 C22.5255,1.9936875 20.2540313,0 17.544375,0 L12.4551562,0 C9.7419375,0 7.471875,1.99471875 7.21209375,4.57021875 C6.90617993,5.24819578 6.74863292,5.98370282 6.75,6.7275 L6.75,9.08915625 C5.70967652,9.36062223 4.89314959,10.1663852 4.60790289,11.2030148 C4.32265619,12.2396445 4.61200966,13.3497097 5.367,14.1151875 C5.821954,14.581411 6.41922575,14.8828341 7.06453125,14.971875 C7.22214328,15.7942086 7.43764838,16.6043812 7.7094375,17.3963438 C8.20940036,18.8425663 9.14128406,20.1004473 10.3791563,21 L6.75,21 C3.02381276,21.0041849 0.00418490259,24.0238128 0,27.75 L0,39 C0.00371991341,42.3121664 2.68783356,44.9962801 6,45 L41.25,45 C43.320104,44.9976751 44.9976751,43.320104 45,41.25 L45,29.25 C44.9967451,26.3518544 42.6481456,24.0032549 39.75,24 Z M43.4999995,29.25 L43.4999995,38.2520625 C43.0027675,37.8772758 42.4196477,37.6328831 41.8037813,37.5411563 C42.3496652,35.4235255 41.7357326,33.1750772 40.1894063,31.6287188 L39.53025,30.9696563 L38.46975,32.0303438 L39.1287188,32.6894063 C40.006696,33.5674606 40.4999529,34.7582981 40.4999995,35.9999963 C40.4988087,36.521378 40.4110853,37.0389426 40.2404063,37.5315938 C40.2216563,37.5340313 40.201875,37.5349688 40.1828438,37.5376875 L29.9468438,38.9999963 L27.4429688,38.9999963 C26.6675122,37.7084687 25.4465785,36.7450457 24.010125,36.2911875 C24.0040313,36.19425 23.9999995,36.0970313 23.9999995,35.9999963 C24.0001355,34.7583341 24.4933406,33.5675401 25.3711875,32.6894063 L26.03025,32.0303438 L24.96975,30.9696563 L24.3105,31.6287188 C23.1513868,32.7881917 22.5001622,34.360512 22.4999995,35.9999963 L22.4999995,36.0109688 C22.3820625,36.0042188 22.2638438,35.9999963 22.145625,35.9999963 L20.9999995,35.9999963 L20.9999995,29.25 C20.9996767,28.6170297 21.1596835,27.9942901 21.4650938,27.439875 C21.4688438,27.4330313 21.4725,27.4261875 21.4759688,27.41925 C22.1380787,26.2326822 23.391203,25.4980958 24.75,25.4999963 L27.373875,25.4999963 L31.6606875,33.3591563 C31.7921025,33.600134 32.0446589,33.7500748 32.3191406,33.7500748 C32.5936223,33.7500748 32.8461787,33.600134 32.9775938,33.3591563 L37.2644063,25.4999963 L39.75,25.4999963 C41.820104,25.5023249 43.4976751,27.179896 43.4999995,29.25 L43.4999995,29.25 Z M15.4371563,38.25 L7.5,38.25 L7.5,22.5 L9.75,22.5 L9.75,28.5 C9.75000883,28.7599341 9.88460723,29.0013302 10.1057255,29.1379773 C10.3268437,29.2746245 10.6029501,29.2870368 10.8354375,29.1707812 L13.0812188,28.0479375 L14.3415938,30.3590625 C14.4730234,30.5999923 14.7255534,30.7498951 15,30.7498951 C15.2744466,30.7498951 15.5269766,30.5999923 15.6584063,30.3590625 L16.9187813,28.0479375 L19.1645625,29.1707812 C19.2687008,29.2228925 19.383551,29.2500162 19.5,29.25 L19.5,36.1643438 C19.2265139,36.0556663 18.9348818,35.9998977 18.6405938,36 C18.0169579,36.001659 17.4194852,36.2508111 16.9794375,36.6927188 L15.4371563,38.25 Z M21.5590313,5.53828125 C21.6861977,5.92184527 21.7506817,6.32340569 21.7500053,6.7275 L21.7500053,7.588875 C21.2652009,6.93802869 20.8288405,6.2524672 20.4444375,5.53771875 L21.5590313,5.53828125 Z M35.6402813,25.344375 L34.7374687,27 L29.9007187,27 L28.9984687,25.345875 C29.6512426,25.0593415 30.0718647,24.4128878 30.069375,23.7 L30.069375,21.4048125 C31.5340512,21.8651852 33.1046988,21.8651852 34.569375,21.4048125 L34.569375,23.7 C34.5703687,24.4115692 34.9900952,25.0558894 35.6405625,25.344375 L35.6402813,25.344375 Z M11.25,22.8507187 L13.8255,25.99875 L11.25,27.2865 L11.25,22.8507187 Z M15,27.0882187 L15.5762813,27.3764062 L15,28.4335312 L14.4237188,27.3766875 L15,27.0882187 Z M16.1745,25.9984687 L18.75,22.8507187 L18.75,27.2865 L16.1745,25.9984687 Z M20.25,22.5 L22.5,22.5 L22.5,24.50625 C21.5656727,24.9498289 20.7829959,25.6592275 20.25,26.5455937 L20.25,22.5 Z M24,22.5527812 C25.1045521,22.7094971 26.1295717,23.2168144 26.9240625,24 L24.75,24 C24.4990316,24.0002606 24.2483994,24.0183688 24,24.0541875 L24,22.5527812 Z M33.9193125,28.5 L32.3190937,31.4337188 L30.718875,28.5 L33.9193125,28.5 Z M32.3190938,20.25 C29.0069273,20.2462801 26.3228137,17.5621664 26.3190938,14.25 L26.3190938,11.20575 C28.5661629,10.9393734 30.4996789,9.49271321 31.389375,7.41215625 L32.034375,5.90803125 L32.323125,5.85028125 C32.8578331,5.74345035 33.4122712,5.88195784 33.8339189,6.22770168 C34.2555666,6.57344553 34.5000081,7.09000556 34.5,7.63528125 C34.5025482,9.22152823 35.6245085,10.5854054 37.1805,10.89375 L38.3190938,11.1173437 L38.3190938,14.25 C38.3153738,17.5621664 35.6312602,20.2462801 32.3190938,20.25 L32.3190938,20.25 Z M28.5690937,23.594625 C28.3998972,23.3776562 28.2175881,23.1712396 28.0231875,22.9765312 C27.8549889,22.8086298 27.6781885,22.6495721 27.4935,22.5 L28.569375,22.5 L28.5690937,23.594625 Z M19.6182188,21 C20.1527161,20.6097819 20.6339993,20.1514739 21.049875,19.6366875 C21.310969,20.1425896 21.6521184,20.6029639 22.060125,21 L19.6182188,21 Z M11.071875,19.603125 C12.5051586,19.5935934 13.8891179,19.0786465 14.9800312,18.1489688 C16.0710141,19.0787785 17.4551394,19.5937379 18.8885625,19.603125 L18.9745312,19.603125 C18.8620312,19.69425 18.74625,19.7820937 18.627,19.865625 C16.3128079,21.4699672 13.2195092,21.3632044 11.0214375,19.603125 L11.071875,19.603125 Z M10.945875,18.103125 C11.263125,16.4796563 12.5884687,15.2582813 14.170875,15.2582813 L15.7896562,15.2582813 C17.371875,15.2582813 18.6972188,16.4796563 19.0146563,18.103125 L18.8885625,18.103125 C17.6081116,18.0966654 16.3892436,17.5527125 15.5293125,16.6039687 C15.3874418,16.4516536 15.1886519,16.3651486 14.9805,16.3651486 C14.7723481,16.3651486 14.5735582,16.4516536 14.4316875,16.6039687 C13.5715689,17.5527799 12.3525021,18.0967304 11.071875,18.103125 L10.945875,18.103125 Z M15,22.5 C15.8160418,22.5008393 16.6272557,22.3748353 17.4045937,22.1265 L15,25.0655625 L12.5954062,22.1263125 C13.3727978,22.3744421 14.1839696,22.5005028 15,22.5 Z M23.8021875,10.6274062 C23.7962813,10.3602187 23.7902812,10.0836562 23.796375,9.81684375 C23.9016642,5.61367447 27.0548514,2.11452247 31.2244236,1.57379627 C35.3939959,1.03307007 39.3354334,3.6121638 40.509375,7.6494375 C40.7415235,8.41758624 40.8587612,9.21585178 40.8572813,10.0183125 C40.854,10.1924063 40.8479063,10.3643438 40.841625,10.5345 C40.8055313,11.5381875 40.768125,12.5760938 41.310375,13.6591875 L42.2701875,15.5789062 C42.8503435,16.7400297 42.7881685,18.1187158 42.105853,19.2229052 C41.4235375,20.3270946 40.2183065,20.9994482 38.9203125,21 L36.069375,21 L36.069375,20.740875 C38.3881386,19.4014904 39.8172741,16.9277997 39.819375,14.25 L39.819375,10.5 C39.8193758,10.1415208 39.5656945,9.83315937 39.2139375,9.7640625 L37.4701875,9.42159375 C36.6169292,9.25280393 36.0015246,8.50507288 36,7.63528125 C35.9999945,6.64052963 35.5539911,5.69818495 34.7847046,5.06752729 C34.0154181,4.43686963 33.0039021,4.18434631 32.0284688,4.3794375 L31.3529063,4.51453125 C31.1106883,4.56295851 30.9078464,4.72754621 30.8105625,4.95459375 L30.0105938,6.82125 C29.2503347,8.59897884 27.5025651,9.75146791 25.5690938,9.75 C25.1548802,9.75 24.8190938,10.0857864 24.8190938,10.5 L24.8190938,14.25 C24.8210943,16.9279002 26.2502432,19.4017213 28.5690938,20.7411562 L28.5690938,21 L25.7184375,21 C23.8623479,20.991463 22.289344,19.6316284 22.0125,17.7962812 C22.0125,17.792625 22.0114688,17.788875 22.0109063,17.785125 C21.9859852,17.6087815 21.9734063,17.4309082 21.9734063,17.2528125 C21.9739344,16.6718757 22.1092313,16.0989822 22.3686563,15.5791875 L23.3284688,13.659375 C23.8457813,12.6229688 23.8235625,11.6085 23.8021875,10.6274062 Z M19.5646875,4.03734375 L20.2919063,2.627625 C20.6877881,3.02241157 20.9837638,3.50595524 21.15525,4.03809375 L19.5646875,4.03734375 Z M19.0354687,1.7915625 L17.8772812,4.03659375 L17.4165938,4.03659375 L17.4165938,1.49999679 L17.544375,1.49999679 C18.0556325,1.49934635 18.5621129,1.59838149 19.0354687,1.7915625 Z M14.0834062,4.03490625 L14.0834062,1.5 L15.9165938,1.5 L15.9165938,4.03575 L14.0834062,4.03490625 Z M12.5834063,1.49999605 L12.5834063,4.03425 L12.1213125,4.03425 L10.9643438,1.7911875 C11.4376412,1.59818231 11.9440193,1.49927586 12.4551562,1.49999605 L12.5834063,1.49999605 Z M9.70771875,2.62696875 L10.43325,4.03321875 L8.84596875,4.03246875 C9.01775405,3.50228652 9.31312513,3.02054118 9.70771875,2.62696875 L9.70771875,2.62696875 Z M9.55771875,5.53321875 C9.17263229,6.24929436 8.73555402,6.93616745 8.24999551,7.5883125 L8.24999551,6.7275 C8.24937157,6.32128385 8.31468984,5.91765937 8.44340625,5.532375 L9.55771875,5.53321875 Z M5.99999248,12 C5.99830223,11.4614997 6.28426216,10.9630715 6.75,10.69275 L6.75,11.664375 C6.75,12.2251875 6.777375,12.789375 6.831375,13.3489687 C6.68447016,13.2760667 6.5507088,13.1792466 6.4355625,13.0624687 C6.1555918,12.7798428 5.99897989,12.397819 5.99999248,12 Z M8.4705,14.315625 C8.460375,14.2577812 8.4511875,14.1998437 8.441625,14.1346875 C8.31437119,13.3173969 8.25030642,12.491513 8.25,11.664375 L8.25,9.93178125 C9.45879586,8.62129783 10.4671129,7.13922949 11.2422188,5.5336875 L18.75975,5.53696875 C19.5340288,7.14154841 20.5417142,8.62258935 21.75,9.931875 L21.75,11.664375 C21.7494188,12.356564 21.703917,13.0479857 21.6137813,13.7342813 L21.0269063,14.9079375 C20.6634776,15.6362258 20.4739171,16.4388815 20.473125,17.2528125 C20.473125,17.422875 20.4825,17.5941562 20.498625,17.7645 C20.4931875,17.774625 20.4874688,17.7846563 20.4819375,17.7947813 C20.0218125,15.492 18.0930938,13.7586563 15.7898438,13.7586563 L14.1710625,13.7586563 C11.884875,13.7586563 9.9684375,15.4665938 9.490125,17.743875 C9.34809155,17.4753458 9.22704297,17.196232 9.1280625,16.9090313 C8.83774323,16.0641719 8.61780587,15.1967457 8.4705,14.315625 L8.4705,14.315625 Z M6,43.5 C3.51589656,43.4971585 1.50284149,41.4841034 1.5,39 L1.5,27.75 C1.50325861,25.1413634 3.41861426,22.9295267 6,22.5534375 L6,39 C6,39.4142136 6.33578644,39.75 6.75,39.75 L15.007125,39.75 L15.012,40.2575625 L15.0432188,43.5 L6,43.5 Z M16.5434063,43.5 L16.539375,43.086 L16.503,39.3054375 L18.0451875,37.74825 C18.2841931,37.5069683 18.6452006,37.4338131 18.9592819,37.5630162 C19.2733632,37.6922193 19.4783957,37.9982256 19.4784375,38.3378437 C19.4784375,38.3416875 19.4784375,38.3454375 19.4784375,38.3492812 L19.5,39.7615312 C19.5062999,40.1712346 19.8402482,40.5000484 20.25,40.5 L22.5,40.5 C22.9140208,40.500465 23.249535,40.8359792 23.25,41.25 L23.25,42.75 C23.249535,43.1640208 22.9140208,43.499535 22.5,43.5 L16.5434063,43.5 Z M28.5,43.4999994 C27.3859687,43.4999994 25.7090625,43.1754375 24.999375,42.223875 C24.5548125,41.627625 24.8440312,40.8983438 24.5079375,40.2350625 C24.1214385,39.4810265 23.3473064,39.0048655 22.5,38.9999994 L21,38.9999994 C20.9961562,38.9999994 20.9924062,38.9994375 20.9886562,38.9993438 L20.9784375,38.3315625 C20.9778398,38.0544504 20.9277731,37.7796706 20.8305937,37.5201563 C20.8861129,37.5070209 20.9429487,37.5002584 21,37.4999994 L22.145625,37.4999994 C22.4651329,37.4998347 22.7838102,37.5325381 23.096625,37.5975938 L23.1087187,37.6000313 C23.1216562,37.6024688 23.1345937,37.6056563 23.146875,37.6086563 L23.1597187,37.6115625 C24.5340355,37.9185486 25.697685,38.8268065 26.3292187,40.0854375 C26.4562641,40.3395023 26.7159411,40.4999994 27,40.4999994 L29.25,40.4999994 L29.25,43.4999994 L28.5,43.4999994 Z M41.25,43.5 L30.75,43.5 L30.75,40.4004375 C30.75,40.4004375 40.6071562,39 40.7131875,39 L41.25,39 C42.4926407,39 43.5,40.0073593 43.5,41.25 C43.5,42.4926407 42.4926407,43.5 41.25,43.5 Z" id="Shape"></path>
                <path d="M30.0690938,12.375 C30.0690938,11.7536797 29.5654141,11.25 28.9440938,11.25 C28.3227734,11.25 27.8190938,11.7536797 27.8190938,12.375 C27.8190938,12.9963203 28.3227734,13.5 28.9440938,13.5 C29.5651357,13.4993283 30.068422,12.9960419 30.0690938,12.375 L30.0690938,12.375 Z" id="Path"></path>
                <path d="M35.6940938,11.25 C35.0727734,11.25 34.5690938,11.7536797 34.5690938,12.375 C34.5690938,12.9963203 35.0727734,13.5 35.6940938,13.5 C36.3154141,13.5 36.8190938,12.9963203 36.8190938,12.375 C36.818422,11.7539581 36.3151357,11.2506717 35.6940938,11.25 L35.6940938,11.25 Z" id="Path"></path>
                <path d="M33.1562812,15 C33.1562812,15.4135313 32.74275,15.75 32.2343438,15.75 C31.7259375,15.75 31.3125,15.4135313 31.3125,15 L29.8176563,15 L28.626,16.8339375 L29.874,17.6660625 L30.5657813,16.6284375 C31.5313206,17.4638434 32.9658791,17.4563916 33.9226875,16.611 L34.6258125,17.6660625 L35.8738125,16.8339375 L34.7039063,15 L33.1562812,15 Z" id="Path"></path>
            </g>
        </g>
    </g>
</svg>