<?xml version="1.0" encoding="UTF-8"?>
<svg width="39px" height="48px" viewBox="0 0 39 48" version="1.1" xmlns="http://www.w3.org/2000/svg" xmlns:xlink="http://www.w3.org/1999/xlink">
    <title>D2F97BC5-FA1B-4C67-886A-463320EBC285</title>
    <defs>
        <polygon id="path-1" points="0.0002 0.047149546 38.28 0.047149546 38.28 47 0.0002 47"></polygon>
    </defs>
    <g id="Iconografía" stroke="none" stroke-width="1" fill="none" fill-rule="evenodd">
        <g id="Banorte---Iconografía---Coberturas" transform="translate(-50.000000, -1136.000000)">
            <g id="Group-20" transform="translate(50.000000, 1136.000000)">
                <path d="M31.1545,13.4754 L29.6625,13.4754 C29.1475,13.4754 28.7295,13.8924 28.7295,14.4084 L28.7295,15.9074 L26.8635,15.9074 L26.8635,14.4084 C26.8635,13.8924 26.4455,13.4754 25.9305,13.4754 L24.2835,13.4754 L24.2835,11.6094 L25.9305,11.6094 C26.4455,11.6094 26.8635,11.1914 26.8635,10.6764 L26.8635,8.9994 L28.7295,8.9994 L28.7295,10.6764 C28.7295,11.1914 29.1475,11.6094 29.6625,11.6094 L31.1545,11.6094 L31.1545,13.4754 Z M31.7495,10.5754 L29.7765,10.5754 L29.7765,8.6014 C29.7765,8.2384 29.4815,7.9444 29.1175,7.9444 L26.4865,7.9444 C26.1235,7.9444 25.8285,8.2384 25.8285,8.6014 L25.8285,10.5754 L23.8555,10.5754 C23.4915,10.5754 23.1965,10.8704 23.1965,11.2334 L23.1965,13.8654 C23.1965,14.2284 23.4915,14.5224 23.8555,14.5224 L25.8285,14.5224 L25.8285,16.4964 C25.8285,16.8604 26.1235,17.1544 26.4865,17.1544 L29.1175,17.1544 C29.4815,17.1544 29.7765,16.8604 29.7765,16.4964 L29.7765,14.5224 L31.7495,14.5224 C32.1125,14.5224 32.4075,14.2284 32.4075,13.8654 L32.4075,11.2334 C32.4075,10.8704 32.1125,10.5754 31.7495,10.5754 L31.7495,10.5754 Z" id="Fill-1" fill="#707070"></path>
                <g id="Group-5" transform="translate(0.000000, 0.952800)">
                    <mask id="mask-2" fill="white">
                        <use xlink:href="#path-1"></use>
                    </mask>
                    <g id="Clip-4"></g>
                    <path d="M37.2062,15.2784 C37.2032,16.8874 36.3272,18.3734 34.9482,19.1384 L30.4922,21.2554 C30.1722,20.9554 29.8282,20.6824 29.4582,20.4444 L33.8172,18.3734 C35.2182,17.5964 36.0912,16.1194 36.0942,14.5154 L36.0942,6.7494 C36.0902,6.0994 35.6222,5.5554 34.9822,5.4554 L34.9792,5.4554 C32.6692,5.1044 30.4592,4.1784 28.5922,2.7804 C28.1272,2.4274 27.4782,2.4254 27.0162,2.7784 C25.1452,4.1784 22.9352,5.1044 20.6222,5.4554 C19.9812,5.5564 19.5142,6.1004 19.5112,6.7524 L19.5112,14.5154 C19.5112,16.1204 20.3842,17.5984 21.8642,18.4124 L23.9782,19.4154 C23.4172,19.5324 22.8822,19.7184 22.3752,19.9554 L20.6852,19.1534 C19.6752,18.5954 18.9592,17.6674 18.6232,16.5974 C18.6572,16.2454 18.6802,15.8914 18.6802,15.5384 L18.6802,14.1064 C18.6802,13.8264 18.5672,13.5784 18.3982,13.3804 L18.3982,5.3314 C18.3992,5.1024 18.5642,4.9104 18.7872,4.8754 C21.9462,4.3954 24.9692,3.1304 27.5312,1.2134 C27.6102,1.1524 27.7062,1.1224 27.8012,1.1224 C27.8972,1.1224 27.9952,1.1524 28.0772,1.2154 C30.6352,3.1304 33.6572,4.3944 36.8152,4.8754 C37.0402,4.9114 37.2052,5.1024 37.2062,5.3284 L37.2062,15.2784 Z M26.2402,19.3024 L22.3062,17.4354 C21.2432,16.8484 20.5822,15.7304 20.5822,14.5154 L20.5822,6.7554 C20.5822,6.6334 20.6702,6.5324 20.7862,6.5134 C23.2692,6.1364 25.6462,5.1414 27.6612,3.6334 C27.7022,3.6024 27.7512,3.5864 27.8012,3.5864 C27.8522,3.5864 27.9032,3.6024 27.9472,3.6354 C29.9572,5.1404 32.3332,6.1354 34.8162,6.5134 C34.9352,6.5324 35.0212,6.6334 35.0222,6.7524 L35.0222,14.5144 C35.0202,15.7284 34.3592,16.8474 33.3272,17.4214 L28.2762,19.8204 C27.6372,19.5554 26.9542,19.3774 26.2402,19.3024 L26.2402,19.3024 Z M31.7002,36.0884 C31.6882,36.0854 31.6772,36.0804 31.6652,36.0774 L28.2222,35.2164 L27.8562,33.3854 C29.4672,32.5284 30.5682,30.8344 30.5682,28.8854 L30.5682,27.0264 C30.5682,25.8584 29.6912,24.8884 28.5282,24.7734 L27.2682,24.6474 C25.8002,24.5004 24.6182,23.4284 24.3302,21.9814 L23.2202,22.2044 C23.2702,22.4554 23.3402,22.6994 23.4292,22.9324 L22.8512,23.1254 C22.5462,23.2264 22.2562,23.3684 21.9892,23.5474 C20.9802,24.2184 20.3782,25.3424 20.3782,26.5554 L20.3782,28.8854 C20.3782,30.8344 21.4792,32.5284 23.0902,33.3854 L22.7242,35.2154 L21.0722,35.6294 C20.5132,35.3234 19.8882,35.1544 19.2462,35.1274 L19.2462,26.6214 C19.2462,23.1884 22.0402,20.3944 25.4732,20.3944 C28.9062,20.3944 31.7002,23.1884 31.7002,26.6214 L31.7002,36.0884 Z M27.1232,35.4924 L27.0052,35.6094 C26.6022,36.0134 26.0432,36.2444 25.4732,36.2444 C24.9022,36.2444 24.3442,36.0134 23.9412,35.6104 L23.8242,35.4934 L24.1622,33.8024 C24.5812,33.9154 25.0192,33.9804 25.4732,33.9804 C25.9272,33.9804 26.3662,33.9154 26.7852,33.8024 L27.1232,35.4924 Z M25.4732,32.8474 C23.2892,32.8474 21.5112,31.0704 21.5112,28.8854 L21.5112,26.5554 C21.5112,25.7224 21.9242,24.9504 22.6172,24.4894 C22.8012,24.3664 23.0002,24.2684 23.2092,24.1984 L23.9742,23.9444 C24.7032,24.9604 25.8442,25.6424 27.1572,25.7734 L28.4162,25.8994 C28.9982,25.9574 29.4352,26.4414 29.4352,27.0264 L29.4352,28.8854 C29.4352,31.0704 27.6582,32.8474 25.4732,32.8474 L25.4732,32.8474 Z M33.9642,40.4704 L33.9642,44.5954 C32.9312,43.1964 31.5992,42.0194 30.0782,41.1744 C28.3132,40.1934 26.3182,39.6694 24.3002,39.6454 C24.1612,38.6124 23.6462,37.6644 22.8332,36.9864 L22.2512,36.5014 L23.0362,36.3054 L23.1412,36.4114 C23.7542,37.0244 24.6052,37.3774 25.4732,37.3774 C26.3412,37.3774 27.1922,37.0244 27.8062,36.4104 L27.9112,36.3044 L31.3922,37.1744 C32.9062,37.5534 33.9642,38.9094 33.9642,40.4704 L33.9642,40.4704 Z M26.2902,45.8684 C26.4852,45.5334 26.6052,45.1504 26.6052,44.7354 C26.6052,43.4874 25.5902,42.4714 24.3412,42.4714 L22.3112,42.4714 L24.0092,40.7734 L24.1612,40.7734 C26.0352,40.7734 27.8912,41.2544 29.5282,42.1644 C31.0612,43.0154 32.3852,44.2364 33.3582,45.6954 L33.4732,45.8684 L26.2902,45.8684 Z M24.3412,45.8684 L14.6842,45.8684 C14.6322,45.1724 14.4952,44.4894 14.2602,43.8404 C14.4942,43.0444 14.9352,42.3234 15.5352,41.7524 C15.6592,41.9194 15.7902,42.0794 15.9392,42.2284 L17.3142,43.6034 L24.3412,43.6034 C24.9652,43.6034 25.4732,44.1114 25.4732,44.7354 C25.4732,45.3604 24.9652,45.8684 24.3412,45.8684 L24.3412,45.8684 Z M13.1362,41.8044 L13.1392,41.7994 C14.1712,39.7334 14.7182,37.4214 14.7182,35.1124 C14.7182,33.7864 14.3602,32.5454 13.7442,31.4694 L15.4782,29.5174 L16.6732,29.8164 C17.2122,29.9514 17.7032,30.2214 18.1142,30.5914 L18.1142,35.1874 C16.1842,35.5504 14.7182,37.2464 14.7182,39.2814 C14.7182,39.7824 14.8102,40.2694 14.9792,40.7254 C14.4082,41.2154 13.9402,41.8114 13.5952,42.4754 C13.4552,42.2444 13.3012,42.0204 13.1362,41.8044 L13.1362,41.8044 Z M1.1572,45.8684 C1.2932,44.3264 1.9882,42.8784 3.0882,41.7974 C3.4652,42.5294 4.2192,43.0374 5.0942,43.0374 C5.3192,43.0374 5.5432,43.0044 5.7562,42.9404 C6.1782,43.3614 6.7502,43.6034 7.3592,43.6034 C7.9672,43.6034 8.5392,43.3614 8.9622,42.9404 C9.1752,43.0044 9.3982,43.0374 9.6232,43.0374 C10.4982,43.0374 11.2542,42.5284 11.6302,41.7954 C12.7302,42.8754 13.4152,44.3264 13.5522,45.8684 L1.1572,45.8684 Z M10.7172,41.0534 C10.5922,41.5484 10.1572,41.9054 9.6232,41.9054 C9.4242,41.9054 9.2372,41.8574 9.0682,41.7614 L8.6062,41.5044 L8.3172,41.9474 C8.1032,42.2754 7.7462,42.4714 7.3592,42.4714 C6.9722,42.4714 6.6142,42.2754 6.4012,41.9474 L6.1122,41.5044 L5.6502,41.7614 C5.4802,41.8574 5.2942,41.9054 5.0942,41.9054 C4.5602,41.9054 4.1252,41.5484 4.0012,41.0544 C4.2462,40.8874 4.4962,40.7404 4.7512,40.6134 C5.5162,41.0714 6.4062,41.3394 7.3592,41.3394 C8.3122,41.3394 9.2022,41.0714 9.9662,40.6134 C10.2212,40.7404 10.4722,40.8874 10.7172,41.0534 L10.7172,41.0534 Z M7.3592,40.2074 C5.1742,40.2074 3.3962,38.4284 3.3962,36.2444 L3.3962,35.0474 C3.3962,34.2144 3.8102,33.4414 4.5022,32.9794 C4.6862,32.8574 4.8862,32.7594 5.0952,32.6894 L5.8592,32.4354 C6.5882,33.4514 7.7302,34.1334 9.0432,34.2644 L10.3022,34.3904 C10.8832,34.4484 11.3212,34.9324 11.3212,35.5164 L11.3212,36.2444 C11.3212,38.4284 9.5432,40.2074 7.3592,40.2074 L7.3592,40.2074 Z M1.1322,35.1124 C1.1322,31.6784 3.9252,28.8854 7.3592,28.8854 C10.7922,28.8854 13.5852,31.6784 13.5852,35.1124 C13.5852,37.0944 13.1442,39.0784 12.3172,40.8814 C12.1102,40.6844 11.8922,40.4994 11.6612,40.3264 C11.4312,40.1524 11.1932,39.9954 10.9522,39.8524 C11.8792,38.9284 12.4542,37.6534 12.4542,36.2444 L12.4542,35.5164 C12.4542,34.3494 11.5772,33.3804 10.4142,33.2634 L9.1542,33.1384 C7.6852,32.9914 6.5042,31.9204 6.2152,30.4724 L5.1052,30.6954 C5.1562,30.9464 5.2262,31.1904 5.3152,31.4234 L4.7372,31.6164 C4.4322,31.7174 4.1422,31.8594 3.8742,32.0384 C2.8662,32.7104 2.2642,33.8344 2.2642,35.0474 L2.2642,36.2444 C2.2642,37.6534 2.8392,38.9284 3.7652,39.8524 C3.5232,39.9954 3.2872,40.1524 3.0572,40.3254 C2.8262,40.4984 2.6082,40.6844 2.4002,40.8814 C1.5732,39.0784 1.1322,37.0954 1.1322,35.1124 L1.1322,35.1124 Z M6.7922,22.5974 L9.0572,22.5974 C9.6812,22.5974 10.1892,22.0904 10.1892,21.4654 L11.3212,21.4654 C11.3212,22.0904 11.8292,22.5974 12.4542,22.5974 L14.7182,22.5974 C14.7182,24.7824 12.9402,26.5604 10.7552,26.5604 C8.5712,26.5604 6.7922,24.7824 6.7922,22.5974 L6.7922,22.5974 Z M5.6612,18.9764 L5.6612,19.2014 C5.3802,19.2014 5.1142,19.2584 4.8662,19.3524 L4.6312,18.4134 C4.5632,18.1394 4.5282,17.8564 4.5282,17.5734 C4.5282,15.6624 6.0832,14.1064 7.9952,14.1064 L17.5482,14.1064 L17.5482,15.5384 C17.5482,16.8594 17.2832,18.1834 16.7802,19.4064 C16.4962,19.2774 16.1822,19.2014 15.8502,19.2014 C15.8502,17.9534 14.8342,16.9374 13.5852,16.9374 L10.8472,16.9374 C10.0202,16.9374 9.2892,16.4104 9.0272,15.6264 L7.9542,15.9844 C8.0322,16.2174 8.1372,16.4384 8.2632,16.6404 L7.6052,16.7344 C6.4972,16.8924 5.6612,17.8564 5.6612,18.9764 L5.6612,18.9764 Z M5.6612,22.5974 C5.0362,22.5974 4.5282,22.0904 4.5282,21.4654 C4.5282,20.8414 5.0362,20.3344 5.6612,20.3344 L5.6612,22.5974 Z M15.8502,22.5974 L15.8502,20.3344 C16.4742,20.3344 16.9822,20.8414 16.9822,21.4654 C16.9822,22.0904 16.4742,22.5974 15.8502,22.5974 L15.8502,22.5974 Z M12.4542,21.4664 L14.7182,21.4664 L14.7182,20.3344 L12.4542,20.3344 L12.4542,21.4664 Z M6.7922,21.4654 L9.0572,21.4654 L9.0572,20.3334 L6.7922,20.3334 L6.7922,21.4654 Z M6.7922,19.2014 L6.7922,18.9764 C6.7922,18.4164 7.2102,17.9344 7.7652,17.8554 L9.2832,17.6384 C9.7442,17.9154 10.2812,18.0694 10.8472,18.0694 L13.5852,18.0694 C14.2102,18.0694 14.7182,18.5774 14.7182,19.2014 L12.4542,19.2014 C11.8292,19.2014 11.3212,19.7094 11.3212,20.3344 L10.1892,20.3344 C10.1892,19.7094 9.6812,19.2014 9.0572,19.2014 L6.7922,19.2014 Z M11.1802,28.8354 C10.5542,28.4524 9.8672,28.1614 9.1362,27.9794 L9.4442,27.5144 C9.8622,27.6274 10.3012,27.6924 10.7552,27.6924 C11.2092,27.6924 11.6482,27.6274 12.0672,27.5144 L12.4052,28.1324 L12.2882,28.2504 C11.9862,28.5514 11.5972,28.7514 11.1802,28.8354 L11.1802,28.8354 Z M13.0872,29.0514 L13.1932,28.9464 L14.2402,29.2084 L13.0872,30.5054 C12.8382,30.1954 12.5612,29.9094 12.2662,29.6434 C12.5662,29.4894 12.8462,29.2934 13.0872,29.0514 L13.0872,29.0514 Z M18.1142,26.6214 L18.1142,29.1904 C17.7502,28.9814 17.3592,28.8214 16.9472,28.7184 L13.5042,27.8574 L13.1382,27.0984 C14.4272,26.4134 15.3862,25.1904 15.7182,23.7304 L15.8502,23.7304 C17.0992,23.7304 18.1142,22.7154 18.1142,21.4654 C18.1142,20.9764 17.9542,20.5254 17.6882,20.1544 C17.9452,19.5814 18.1402,18.9814 18.2982,18.3734 C18.7892,19.0834 19.4452,19.6934 20.2552,20.1384 L21.2452,20.6084 C19.3542,21.9414 18.1142,24.1374 18.1142,26.6214 L18.1142,26.6214 Z M18.1572,39.9194 L18.9142,40.6764 C19.1252,40.8864 19.2462,41.1784 19.2462,41.4764 L19.2462,42.4714 L17.7822,42.4714 L16.7392,41.4274 C16.1742,40.8624 15.8502,40.0804 15.8502,39.2814 C15.8502,37.6824 17.0952,36.3824 18.6642,36.2664 L17.9652,37.1994 C17.6962,37.5564 17.5482,38.0004 17.5482,38.4474 C17.5482,38.9954 17.7702,39.5314 18.1572,39.9194 L18.1572,39.9194 Z M19.7152,39.8754 L18.9572,39.1184 C18.7822,38.9414 18.6802,38.6974 18.6802,38.4474 C18.6802,38.2414 18.7462,38.0444 18.8702,37.8784 L19.9842,36.3934 C20.3592,36.5114 20.7122,36.6944 21.0182,36.9484 L22.1082,37.8564 C22.7502,38.3914 23.1372,39.1584 23.1972,39.9854 L20.7102,42.4714 L20.3782,42.4714 L20.3782,41.4764 C20.3782,40.8804 20.1372,40.2974 19.7152,39.8754 L19.7152,39.8754 Z M36.9832,3.8134 L36.9792,3.8124 C33.9942,3.3594 31.1382,2.1644 28.7242,0.3584 C28.1822,-0.0566 27.4222,-0.0556 26.8842,0.3554 C24.4662,2.1644 21.6102,3.3594 18.6222,3.8134 C17.8742,3.9324 17.3282,4.5684 17.3242,5.3284 L17.3242,12.9744 L7.9952,12.9744 C5.4592,12.9744 3.3962,15.0374 3.3962,17.5734 C3.3962,17.9494 3.4432,18.3244 3.5342,18.6884 L3.8822,20.0814 C3.5822,20.4654 3.3962,20.9414 3.3962,21.4654 C3.3962,22.7154 4.4122,23.7304 5.6612,23.7304 L5.7922,23.7304 C6.1242,25.1904 7.0832,26.4134 8.3732,27.0974 L8.0202,27.7874 C7.8022,27.7674 7.5812,27.7534 7.3592,27.7534 C3.3012,27.7534 0.0002,31.0544 0.0002,35.1124 C0.0002,37.4214 0.5462,39.7334 1.5792,41.7994 L1.5812,41.8054 C0.5772,43.1234 0.0002,44.7484 0.0002,46.4334 L0.0002,47.0004 L35.0962,47.0004 L35.0962,40.4704 C35.0962,38.8194 34.2072,37.3434 32.8322,36.5514 L32.8322,26.6214 C32.8322,24.9084 32.2392,23.3344 31.2532,22.0824 L35.4392,20.0934 C37.1882,19.1244 38.2772,17.2794 38.2802,15.2794 L38.2802,5.3254 C38.2762,4.5684 37.7312,3.9324 36.9832,3.8134 L36.9832,3.8134 Z" id="Fill-3" fill="#707070" mask="url(#mask-2)"></path>
                </g>
                <path d="M13.0871,25.0555 L13.1471,24.9365 L12.1341,24.4295 L12.0741,24.5495 C11.8581,24.9815 11.4251,25.2485 10.9421,25.2485 C10.4601,25.2485 10.0251,24.9815 9.8101,24.5495 L9.7511,24.4305 L8.7381,24.9365 L8.7971,25.0565 C9.2061,25.8735 10.0281,26.3815 10.9421,26.3815 C11.8571,26.3815 12.6781,25.8735 13.0871,25.0555" id="Fill-6" fill="#707070"></path>
                <path d="M26.7922,30.8367 C26.5772,31.2687 26.1432,31.5367 25.6602,31.5367 C25.1772,31.5367 24.7442,31.2687 24.5282,30.8367 L24.4682,30.7177 L23.4562,31.2247 L23.5152,31.3437 C23.9242,32.1607 24.7462,32.6687 25.6602,32.6687 C26.5742,32.6687 27.3962,32.1607 27.8052,31.3427 L27.8642,31.2237 L26.8522,30.7167 L26.7922,30.8367 Z" id="Fill-8" fill="#707070"></path>
                <path d="M8.6779,38.1961 C8.4619,38.6281 8.0289,38.8951 7.5459,38.8951 C7.0629,38.8951 6.6299,38.6281 6.4139,38.1961 L6.3539,38.0771 L5.3419,38.5831 L5.4009,38.7031 C5.8099,39.5201 6.6319,40.0281 7.5459,40.0281 C8.4599,40.0281 9.2819,39.5201 9.6909,38.7021 L9.7499,38.5831 L8.7379,38.0761 L8.6779,38.1961 Z" id="Fill-10" fill="#707070"></path>
                <path d="M5.967,36.9988 C6.359,36.9988 6.677,36.6808 6.677,36.2888 C6.677,35.8958 6.359,35.5788 5.967,35.5788 C5.575,35.5788 5.257,35.8958 5.257,36.2888 C5.257,36.6808 5.575,36.9988 5.967,36.9988" id="Fill-12" fill="#707070"></path>
                <path d="M8.9816,36.9988 C9.3736,36.9988 9.6916,36.6808 9.6916,36.2888 C9.6916,35.8958 9.3736,35.5788 8.9816,35.5788 C8.5896,35.5788 8.2716,35.8958 8.2716,36.2888 C8.2716,36.6808 8.5896,36.9988 8.9816,36.9988" id="Fill-14" fill="#707070"></path>
                <path d="M24.3044,28.4031 C24.3044,28.0101 23.9864,27.6931 23.5944,27.6931 C23.2014,27.6931 22.8844,28.0101 22.8844,28.4031 C22.8844,28.7961 23.2014,29.1131 23.5944,29.1131 C23.9864,29.1131 24.3044,28.7961 24.3044,28.4031" id="Fill-16" fill="#707070"></path>
                <path d="M27.2316,27.6932 C26.8396,27.6932 26.5216,28.0102 26.5216,28.4032 C26.5216,28.7962 26.8396,29.1132 27.2316,29.1132 C27.6236,29.1132 27.9416,28.7962 27.9416,28.4032 C27.9416,28.0102 27.6236,27.6932 27.2316,27.6932" id="Fill-18" fill="#707070"></path>
            </g>
        </g>
    </g>
</svg>