<?xml version="1.0" encoding="UTF-8"?>
<svg width="44px" height="44px" viewBox="0 0 44 44" version="1.1" xmlns="http://www.w3.org/2000/svg" xmlns:xlink="http://www.w3.org/1999/xlink">
    <title>D585FEBB-08F6-45E0-8B51-464F91053B25</title>
    <defs>
        <polygon id="path-1" points="0 0.655 43.4918 0.655 43.4918 42 0 42"></polygon>
    </defs>
    <g id="Iconografía" stroke="none" stroke-width="1" fill="none" fill-rule="evenodd">
        <g id="Banorte---Iconografía---Coberturas" transform="translate(-50.000000, -2089.000000)">
            <g id="Group-20" transform="translate(50.000000, 2089.000000)">
                <path d="M14.8415,9.73 C15.3235,9.73 15.7145,9.339 15.7145,8.857 C15.7145,8.376 15.3235,7.984 14.8415,7.984 C14.3595,7.984 13.9685,8.376 13.9685,8.857 C13.9685,9.339 14.3595,9.73 14.8415,9.73" id="Fill-1" fill="#707070"></path>
                <path d="M10.7673,9.73 C11.2493,9.73 11.6403,9.339 11.6403,8.857 C11.6403,8.376 11.2493,7.984 10.7673,7.984 C10.2853,7.984 9.8943,8.376 9.8943,8.857 C9.8943,9.339 10.2853,9.73 10.7673,9.73" id="Fill-3" fill="#707070"></path>
                <path d="M11.3942,12.4282 L11.8312,12.5052 C12.7642,12.6672 13.7212,12.6122 14.6272,12.3422 L14.2952,11.2272 C13.5612,11.4452 12.7872,11.4902 12.0332,11.3592 L11.5952,11.2822 L11.3942,12.4282 Z" id="Fill-5" fill="#707070"></path>
                <path d="M36.2702,13.6938 C35.5362,13.9118 34.7622,13.9568 34.0082,13.8248 L33.5702,13.7488 L33.3692,14.8948 L33.8072,14.9708 C34.7382,15.1338 35.6952,15.0788 36.6032,14.8088 L36.2702,13.6938 Z" id="Fill-7" fill="#707070"></path>
                <path d="M36.7985,12.6401 C37.2805,12.6401 37.6715,12.2491 37.6715,11.7671 C37.6715,11.2861 37.2805,10.8941 36.7985,10.8941 C36.3165,10.8941 35.9255,11.2861 35.9255,11.7671 C35.9255,12.2491 36.3165,12.6401 36.7985,12.6401" id="Fill-9" fill="#707070"></path>
                <path d="M23.2219,12.1977 C22.9689,12.1497 22.8029,11.9057 22.8499,11.6527 L22.0079,11.4947 C21.8719,12.2127 22.3449,12.9047 23.0629,13.0397 C23.7809,13.1757 24.4729,12.7037 24.6089,11.9847 L23.7659,11.8257 C23.7189,12.0787 23.4749,12.2447 23.2219,12.1977" id="Fill-11" fill="#707070"></path>
                <path d="M30.2155,31.4038 C30.2135,32.8988 29.4985,34.2728 28.3855,34.9678 L22.5455,38.0888 C22.5035,38.1128 22.4615,38.1128 22.4115,38.0848 L16.6145,34.9878 C15.4655,34.2738 14.7505,32.9008 14.7505,31.4048 L14.7505,22.0108 C14.7505,21.8298 14.8575,21.6978 14.9505,21.6808 C17.6345,21.2228 20.2025,20.0138 22.3805,18.1818 C22.4135,18.1538 22.4465,18.1388 22.4815,18.1388 C22.5175,18.1388 22.5535,18.1548 22.5905,18.1858 C24.7615,20.0138 27.3275,21.2218 30.0105,21.6798 C30.1095,21.6998 30.2145,21.8308 30.2155,22.0078 L30.2155,31.4038 Z M30.2255,20.4768 L30.2195,20.4758 C27.7505,20.0548 25.3835,18.9388 23.3815,17.2548 C22.8615,16.8078 22.1045,16.8078 21.5885,17.2508 C19.5815,18.9388 17.2155,20.0548 14.7395,20.4768 C14.0405,20.6028 13.5305,21.2458 13.5275,22.0078 L13.5275,31.4048 C13.5285,33.3198 14.4635,35.0908 16.0535,36.0738 L21.8285,39.1588 C22.0345,39.2718 22.2605,39.3288 22.4855,39.3288 C22.7075,39.3288 22.9295,39.2728 23.1295,39.1628 L28.9975,36.0258 C30.4995,35.0898 31.4345,33.3188 31.4385,31.4048 L31.4385,22.0058 C31.4345,21.2458 30.9235,20.6028 30.2255,20.4768 L30.2255,20.4768 Z" id="Fill-13" fill="#707070"></path>
                <g id="Group-17" transform="translate(0.000000, 0.345200)">
                    <mask id="mask-2" fill="white">
                        <use xlink:href="#path-1"></use>
                    </mask>
                    <g id="Clip-16"></g>
                    <path d="M42.3278,30.168 C42.3268,30.692 41.9758,31.152 41.4698,31.291 L33.6648,33.419 C33.7588,32.952 33.8198,32.474 33.8208,31.984 L33.8208,31.312 L39.6218,29.137 C39.8488,29.052 39.9998,28.834 39.9998,28.592 L39.9998,19.861 L40.5818,19.861 C41.5458,19.862 42.3268,20.644 42.3278,21.607 L42.3278,30.168 Z M35.2008,34.207 L39.8638,32.936 L40.2868,34.207 L35.2008,34.207 Z M33.5948,17.983 C34.0358,18.169 35.2948,18.164 35.9278,17.98 C35.9528,18.537 36.1558,19.07 36.5078,19.502 L36.5078,20.443 C36.5078,21.407 35.7258,22.189 34.7618,22.189 C34.4138,22.189 34.0918,22.086 33.8208,21.911 L33.8208,19.938 C33.8188,19.497 33.6728,19.093 33.4318,18.774 C33.5258,18.522 33.5828,18.256 33.5948,17.983 L33.5948,17.983 Z M30.6867933,12.877 L30.6867933,11.602 C31.0808,11.538 31.6578,11.425 32.0418,11.318 C32.0398,11.343 32.0378,11.368 32.0378,11.395 C32.0388,11.876 32.3018,12.189 32.7838,12.19 C33.2648,12.19 33.5968,11.905 33.5978,11.424 C33.5978,11.196 33.5088,10.978 33.3498,10.814 C34.6198,10.261 35.7618,9.454 36.7078,8.442 C36.9608,9.418 37.5358,10.685 38.8358007,11.474 L38.8358007,12.8 C38.8368,14.48 37.8318,15.996 36.2848,16.648 C35.7758,16.859 35.2288,16.962 34.6778,16.95 C34.1818,16.941 33.6928,16.841 33.2338,16.655 C31.6928,16.034 30.6838,14.538 30.6867933,12.877 L30.6867933,12.877 Z M32.5358,31.983 C32.5318,33.948 31.5908,35.754 30.1158,36.675 L22.6318,40.675 C22.5358,40.727 22.4308,40.728 22.3258,40.67 L14.8858,36.696 C13.3718,35.756 12.4308,33.95 12.4308,31.984 L12.4308,19.943 C12.4318,19.661 12.5948,19.42 12.8048,19.383 C16.2218,18.799 19.4898,17.261 22.2598,14.929 C22.3278,14.871 22.4038,14.841 22.4808,14.841 C22.5598,14.841 22.6388,14.872 22.7098,14.934 C25.4748,17.26 28.7418,18.798 32.1578,19.382 C32.3708,19.421 32.5338,19.662 32.5358,19.94 L32.5358,31.983 Z M11.1478,19.905 C11.0078,19.81 10.8688,19.712 10.7468,19.591 C10.2768,19.124 9.9818,18.511 9.9108,17.853 C10.6328,17.352 11.0618,16.528 11.0578,15.649 L11.0578,15.488 C12.1878,15.887 13.4208,15.887 14.5508,15.488 L14.5508,15.649 C14.5508,16.314 14.7958,16.943 15.2258,17.429 C14.3598,17.722 13.4798,17.963 12.5838,18.116 C11.7648,18.262 11.1668,19.011 11.1478,19.905 L11.1478,19.905 Z M2.7878,34.411 L2.7698,34.411 C2.7508,34.411 2.7318,34.411 2.7138,34.41 L2.7038,34.409 C1.8718,34.369 1.2068,33.704 1.1658,32.872 C1.1658,32.868 1.1658,32.866 1.1658,32.862 C1.1638,32.844 1.1638,32.825 1.1638,32.807 L1.1638,32.802 C1.1638,31.913 1.8848,31.192 2.7738,31.192 C2.8368,31.192 2.8998,31.196 2.9618,31.203 L10.4088,32.079 C10.5458,32.096 10.6838,32.063 10.7988,31.985 L11.1448,31.755 L11.1448,31.984 C11.1448,32.829 11.2978,33.649 11.5668,34.411 L2.7878,34.411 Z M2.2448,25.1 L5.7148,25.1 L4.8558,30.255 L3.0978,30.048 C2.5228,29.981 1.9408,30.095 1.4338,30.374 L2.2448,25.1 Z M2.9978,20.547 C3.2278,19.142 4.4448,18.111 5.8688,18.1149884 L8.7718,18.1149884 C8.9788,19.549 9.9138,20.689 11.1448,21.239 L11.1448,30.356 L10.3318,30.898 L6.1608,30.51 L6.9838,24.518 C6.9838,24.196 6.7238,23.936 6.4018,23.936 L2.4328,23.936 L2.9978,20.547 Z M8.7298,10.549 L8.7298,7.261 L10.7558,4.73 L14.8528,4.73 L16.8788,7.261 L16.8788,10.549 C16.8788,12.799 15.0548,14.623 12.8048,14.623 C10.5548,14.623 8.7298,12.799 8.7298,10.549 L8.7298,10.549 Z M8.7298,4.147 C8.7298,3.509 8.9078,3.22 9.0718,3.089 L9.7558,4.116 L8.7298,5.397 L8.7298,4.147 Z M11.1958,1.819 L11.2658,1.819 L11.2698,1.79 L14.6828,1.79 C15.0968,1.79 15.5768,2.027 15.9238,2.28 L15.9278,2.272 C15.9508,2.288 15.9688,2.309 15.9908,2.326 C16.0508,2.373 16.0958,2.414 16.1428,2.46 C16.2038,2.517 16.2598,2.577 16.3138,2.64 C16.3158,2.644 16.3208,2.647 16.3228,2.649 C16.3238,2.651 16.3238,2.651 16.3238,2.652 C16.5468,2.917 16.7168,3.226 16.8048,3.565 L15.7618,3.565 L15.7418,3.58 L11.0698,3.58 L11.0718,3.565 L10.7878,3.565 L10.0048,2.391 C10.2938,2.028 10.7318,1.817 11.1958,1.819 L11.1958,1.819 Z M16.8788,5.397 L16.3438,4.73 L16.8768,4.73 L16.8788,5.397 Z M17.8588,11.9 C17.8598,13.036 18.1868,13.416 18.2298,13.454 C18.2578,13.491 18.8378,14.233 19.4798,14.53 C19.2338,14.778 19.0518,15.139 19.0188,15.209 L18.7918,15.808 C18.0468,16.249 17.2708,16.62 16.4828,16.952 L16.4468,16.952 C15.9918,16.676 15.7138,16.182 15.7147973,15.649 L15.7147973,14.905 C16.7828,14.189 17.5338,13.114 17.8588,11.9 L17.8588,11.9 Z M18.0428,7.689 C18.2808,7.773 18.4578,7.958 18.5508,8.182 C18.4558,8.478 18.3618,8.815 18.2648,9.215 C18.1978,9.265 18.1238,9.306 18.0428,9.335 L18.0428,7.689 Z M25.6918,15.23 C25.8498,15.144 26.0558,15.159 26.2248,15.313 L26.2278,15.315 L26.4548,15.978 C26.1358,15.796 25.8198,15.607 25.5088,15.407 C25.5528,15.334 25.6138,15.272 25.6918,15.23 L25.6918,15.23 Z M24.9348,11.226 C25.1528,11.266 25.3568,11.185 25.5038,11.04 L25.0518,13.436 C24.5878,13.748 24.0568,13.913 23.5088,13.935 C23.0878,13.589 22.5668,13.495 22.0808,13.624 C21.6348,13.405 21.2418,13.089 20.9478,12.67 L20.9408,12.66 L21.3918,10.266 C21.4768,10.454 21.6388,10.606 21.8568,10.647 C21.8968,10.653 21.9368,10.657 21.9768,10.657 C22.2908,10.657 22.5598,10.435 22.6188,10.126 C22.6848,9.772 22.4518,9.431 22.0978,9.364 C21.8798,9.323 21.6748,9.405 21.5278,9.55 L21.6578,8.861 L21.9778,8.868 C23.1118,8.909 24.2498,8.619 25.2508,8.067 C25.5878,8.753 25.7088,9.525 25.6228,10.284 C25.5338,10.114 25.3798,9.981 25.1768,9.943 C24.8238,9.876 24.4818,10.107 24.4138,10.461 C24.4128,10.462 24.4128,10.464 24.4128,10.465 C24.3478,10.819 24.5808,11.159 24.9348,11.226 L24.9348,11.226 Z M18.8898,11.471 L19.3038,9.272 C19.4648,8.409 19.8798,7.627 20.5158,6.996 C21.5248,5.994 22.9618,5.555 24.3598,5.821 C26.7048,6.265 28.2528,8.532 27.8108,10.878 L27.3958,13.077 C27.3108,13.536 27.0378,13.93 26.6418,14.171 C26.4868,14.093 26.3198,14.04 26.1478,14.014 L26.7568,10.79 C27.0128,9.432 26.7238,8.056 25.9458,6.914 C25.8568,6.783 25.7228,6.694 25.5668,6.665 C25.4098,6.636 25.2538,6.668 25.1228,6.758 L25.0878,6.782 C24.1738,7.398 23.1018,7.716 22.0038,7.685 L21.1808,7.667 L21.1698,7.667 C20.8848,7.667 20.6408,7.868 20.5868,8.149 L19.6388,13.174 C19.4748,13.072 19.3278,12.94 19.2038,12.78 C19.0338,12.561 18.9218,12.299 18.8768,12.01 C18.8508,11.831 18.8548,11.649 18.8898,11.471 L18.8898,11.471 Z M28.9408,14.426 L28.9408,16.993 C28.7818,16.971 28.6198,16.963 28.4578,16.959 C28.2108,16.855 27.9628,16.755 27.7198,16.64 L27.2018,15.132 C27.3958,15.037 27.6088,14.905 27.8338,14.71 L27.8468,14.698 C28.0498,14.481 28.2058,14.23 28.3308,13.965 C28.5048,14.152 28.7058,14.314 28.9408,14.426 L28.9408,14.426 Z M28.9818,12.324 C29.0238,12.19 29.0978,12.068 29.1978,11.969 C29.2888,11.877 29.4008,11.807 29.5228,11.763 C29.5228,11.763 29.5328,13.239 29.5518,13.419 C29.0918,13.273 28.8368,12.784 28.9818,12.324 L28.9818,12.324 Z M30.1048,15.278 C30.6188,16.27 31.4338,17.072 32.4328,17.57 L32.4328,17.875 C32.4328,17.958 32.4088,18.038 32.3938,18.12 C32.3898,18.119 32.3858,18.117 32.3818,18.116 L32.3768,18.115 C31.8368,18.022 31.3028,17.896 30.7708,17.753 C30.5618,17.599 30.3428,17.457 30.1048,17.345 L30.1048,15.278 Z M38.8358,19.861 L38.8358,28.189 L33.8208,30.069 L33.8208,23.189 C34.1158,23.292 34.4308,23.354 34.7618,23.354 C36.3688,23.354 37.6718,22.051 37.6718,20.443 L37.6718,19.861 L38.8358,19.861 Z M37.3578,18.697 C37.1848,18.458 37.0908,18.17 37.0898,17.874 L37.0898,17.558 C38.0918,17.045 38.9068,16.229 39.4178,15.226 L39.4178,18.697 L37.3578,18.697 Z M30.1048,9.385 C30.1078,6.814 32.1908,4.731 34.7618,4.73 C37.3318,4.731 39.4148,6.814 39.4178,9.385 L39.4178,10.464 C37.7058,9.396 37.6718,7.08 37.6718,7.058 C37.6718,6.735 37.4108,6.476 37.0898,6.475 C36.9018,6.475 36.7248,6.565 36.6158,6.719 C34.5118,9.665 31.3888,10.346 30.1048,10.503 L30.1048,9.385 Z M39.9988,11.764 C40.4538,11.924 40.6918,12.422 40.5318,12.876 C40.4878,12.999 40.4178,13.111 40.3258,13.203 C40.2238,13.305 40.0998,13.38 39.9628,13.421 C39.9868,13.216 39.9988,11.764 39.9988,11.764 L39.9988,11.764 Z M7.5658,9.335 C7.2178,9.212 6.9848,8.882 6.9838,8.512 C6.9848,8.142 7.2178,7.813 7.5658,7.689 L7.5658,9.335 Z M40.5818,18.697 L40.5818,14.426 C41.5978,13.944 42.0308,12.731 41.5498,11.715 C41.3488,11.29 41.0068,10.948 40.5818,10.747 L40.5818,9.385 C40.5818,6.171 37.9758,3.565 34.7618,3.565 C31.6758,3.565 29.1578,5.968 28.9608,9.003 C28.5328,6.863 26.8508,5.088 24.5788,4.659 C22.8978,4.336 21.1968,4.806 19.9058,5.946 C19.5568,6.302 19.2928,6.609 19.0698,6.976 C18.7838,6.73 18.4358,6.554 18.0428,6.496 L18.0428,6.476 L18.0388,3.983 C18.0388,3.98 17.9508,3.228 17.8238,2.931 L17.8228,2.928 C17.3118,1.563 16.0088,0.656 14.5508,0.654985352 L11.1958,0.654985352 C10.2888,0.652 9.4428,1.11 8.9488,1.87 C8.3378,2.035 7.5658,2.633 7.5658,4.147 L7.5658,6.496 C6.4528,6.657 5.6818,7.69 5.8428,8.805 C5.9728,9.697 6.6738,10.398 7.5658,10.528 L7.5658,10.549 C7.5698,12.298 8.4418,13.931 9.8938,14.905 L9.8938,15.649 C9.8958,16.183 9.6188,16.677 9.1618,16.951 L5.8688,16.951 C3.8748,16.945 2.1718,18.388 1.8498,20.355 L1.1718,24.422 C1.1718,24.424 1.1718,24.427 1.1708,24.429 L0.0318,31.83 C0.0108,31.971 -0.0002,32.803 -0.0002,32.803 L-0.0002,32.804 C0.0028,34.334 1.2428,35.573 2.7718,35.575 L12.1068,35.575 C12.6278,36.478 13.3378,37.248 14.2078,37.788 L21.7118,41.8 C21.9538,41.934 22.2198,42 22.4848,42 C22.7468,42 23.0088,41.935 23.2448,41.805 L30.7588,37.788 C31.6158,37.253 32.3188,36.499 32.8368,35.611 C32.8758,35.618 32.9118,35.635 32.9538,35.635 L41.0358,35.635 C41.4298,35.635 41.7498,35.315 41.7498,34.921 C41.7498,34.779 41.6978,34.655 41.6268,34.544 L40.9878,32.629 L41.7758,32.414 C42.7878,32.137 43.4898,31.218 43.4918,30.168 L43.4918,21.607 C43.4898,20.001 42.1878,18.699 40.5818,18.697 L40.5818,18.697 Z" id="Fill-15" fill="#707070" mask="url(#mask-2)"></path>
                </g>
                <path d="M21.4523,31.6811 L18.9433,29.1721 L19.9503,28.1651 L21.5643,29.7801 L26.3343,25.0101 C26.6023,25.2781 26.9603,25.6351 27.2293,25.9041 L21.4523,31.6811 Z M26.7113,23.8731 L26.3323,23.4961 L21.5643,28.2641 L19.9503,26.6501 L17.4283,29.1721 L21.4523,33.1971 L28.7343,25.9141 L28.3723,25.5351 C28.2173,25.3721 26.7113,23.8731 26.7113,23.8731 L26.7113,23.8731 Z" id="Fill-18" fill="#707070"></path>
            </g>
        </g>
    </g>
</svg>