<?xml version="1.0" encoding="UTF-8"?>
<svg width="40px" height="45px" viewBox="0 0 40 45" version="1.1" xmlns="http://www.w3.org/2000/svg" xmlns:xlink="http://www.w3.org/1999/xlink">
    <title>DEB03B4D-65BE-40E6-AC32-D7164E467E24</title>
    <defs>
        <polygon id="path-1" points="0 0.842 39.28 0.842 39.28 43 0 43"></polygon>
    </defs>
    <g id="Iconografía" stroke="none" stroke-width="1" fill="none" fill-rule="evenodd">
        <g id="Banorte---Iconografía---Coberturas" transform="translate(-810.000000, -1059.000000)">
            <g id="ico" transform="translate(810.000000, 1059.000000)">
                <g id="Group-3" transform="translate(0.000000, 0.158000)">
                    <mask id="mask-2" fill="white">
                        <use xlink:href="#path-1"></use>
                    </mask>
                    <g id="Clip-2"></g>
                    <path d="M37.501,33.878 C37.203,34.155 36.714,34.135 36.411,33.832 L32.681,30.102 C33.074,29.774 33.438,29.411 33.766,29.018 L37.522,32.774 C37.67,32.922 37.75,33.119 37.747,33.329 C37.743,33.539 37.656,33.734 37.501,33.878 L37.501,33.878 Z M33.357,41.466 L5.44,41.466 C5.017,41.466 4.673,41.122 4.673,40.699 L4.673,40.109 L30.218,40.109 C31.487,40.109 32.519,39.078 32.519,37.809 L32.519,32.109 L34.124,33.715 L34.124,40.699 C34.124,41.122 33.78,41.466 33.357,41.466 L33.357,41.466 Z M6.903,19.719 L9.868,19.719 L9.868,17.112 L6.903,17.112 L6.903,19.719 Z M15.118,12.202 L15.118,19.719 L11.402,19.719 L11.402,16.344 L11.402,12.202 L15.118,12.202 Z M1.534,37.809 L1.534,3.143 C1.534,2.72 1.878,2.376 2.301,2.376 L30.218,2.376 C30.641,2.376 30.985,2.72 30.985,3.143 L30.985,16.059 C29.867,15.51 28.616,15.193 27.289,15.193 C27.243,15.193 27.196,15.194 27.15,15.195 L27.15,13.374 C27.15,12.95 26.807,12.607 26.383,12.607 L21.901,12.607 L21.901,6.066 C21.901,5.644 21.557,5.3 21.134,5.3 L15.884,5.3 C15.461,5.3 15.118,5.644 15.118,6.066 L15.118,10.669 L10.635,10.669 C10.211,10.669 9.868,11.012 9.868,11.436 L9.868,15.577 L6.136,15.577 C5.712,15.577 5.369,15.921 5.369,16.344 L5.369,20.485 C5.369,20.909 5.712,21.253 6.136,21.253 L19.198,21.253 C18.977,22.006 18.857,22.802 18.857,23.625 C18.857,28.274 22.64,32.057 27.289,32.057 C28.617,32.057 29.866,31.733 30.985,31.185 L30.985,37.809 C30.985,38.232 30.641,38.576 30.218,38.576 L2.301,38.576 C1.878,38.576 1.534,38.232 1.534,37.809 L1.534,37.809 Z M33.357,5.266 C33.78,5.266 34.124,5.61 34.124,6.033 L34.124,18.708 C33.668,18.075 33.129,17.508 32.519,17.024 L32.519,5.266 L33.357,5.266 Z M25.616,14.141 L25.616,15.36 C24.22,15.643 22.956,16.28 21.901,17.161 L21.901,14.141 L25.616,14.141 Z M20.372,18.819 C20.171,19.107 19.983,19.405 19.819,19.719 L16.651,19.719 L16.651,11.436 L16.651,6.834 L20.367,6.834 L20.367,10.976 L20.367,13.752 L20.367,18.793 C20.367,18.803 20.372,18.811 20.372,18.819 L20.372,18.819 Z M27.289,30.524 C23.485,30.524 20.391,27.429 20.391,23.625 C20.391,19.822 23.485,16.728 27.289,16.728 C31.092,16.728 34.187,19.822 34.187,23.625 C34.187,27.429 31.092,30.524 27.289,30.524 L27.289,30.524 Z M38.606,31.689 L35.658,28.74 L35.658,24.588 C35.694,24.272 35.721,23.951 35.721,23.625 C35.721,23.292 35.696,22.964 35.658,22.641 L35.658,6.033 C35.658,4.764 34.626,3.732 33.357,3.732 L32.519,3.732 L32.519,3.143 C32.519,1.874 31.486,0.842 30.218,0.842 L2.301,0.842 C1.032,0.842 0,1.874 0,3.143 L0,37.809 C0,39.078 1.032,40.109 2.301,40.109 L3.139,40.109 L3.139,40.699 C3.139,41.968 4.171,43 5.44,43 L33.357,43 C34.626,43 35.658,41.968 35.658,40.699 L35.658,35.189 C36.061,35.469 36.525,35.613 36.991,35.613 C37.55,35.613 38.107,35.41 38.546,35.001 C39.008,34.57 39.269,33.986 39.2803635,33.357 C39.291,32.727 39.052,32.135 38.606,31.689 L38.606,31.689 Z" id="Fill-1" fill="#EB0029" mask="url(#mask-2)"></path>
                </g>
                <path d="M26.1431,33.8778 L6.4351,33.8778 C6.0121,33.8778 5.6681,34.2218 5.6681,34.6458 C5.6681,35.0678 6.0121,35.4118 6.4351,35.4118 L26.1431,35.4118 C26.5661,35.4118 26.9101,35.0678 26.9101,34.6458 C26.9101,34.2218 26.5661,33.8778 26.1431,33.8778" id="Fill-4" fill="#EB0029"></path>
                <path d="M6.2857,31.117 L16.2597,31.117 C16.6827,31.117 17.0267,30.773 17.0267,30.35 C17.0267,29.927 16.6827,29.583 16.2597,29.583 L6.2857,29.583 C5.8627,29.583 5.5187,29.927 5.5187,30.35 C5.5187,30.773 5.8627,31.117 6.2857,31.117" id="Fill-6" fill="#EB0029"></path>
                <path d="M6.2857,26.8221 L16.2597,26.8221 C16.6827,26.8221 17.0267,26.4781 17.0267,26.0551 C17.0267,25.6321 16.6827,25.2881 16.2597,25.2881 L6.2857,25.2881 C5.8627,25.2881 5.5187,25.6321 5.5187,26.0551 C5.5187,26.4781 5.8627,26.8221 6.2857,26.8221" id="Fill-8" fill="#EB0029"></path>
                <path d="M27.2252,21.6356 C27.6692,21.6356 28.0312,21.9366 28.0312,22.3056 C28.0312,22.6756 28.3312,22.9766 28.7022,22.9766 C29.0732,22.9766 29.3732,22.6756 29.3732,22.3056 C29.3732,21.4146 28.7532,20.6586 27.8962,20.3946 C27.8892,20.0296 27.5912,19.7366 27.2252,19.7366 C26.8592,19.7366 26.5612,20.0296 26.5542,20.3946 C25.6972,20.6586 25.0772,21.4146 25.0772,22.3056 C25.0772,23.4136 26.0402,24.3176 27.2252,24.3176 C27.6692,24.3176 28.0312,24.6166 28.0312,24.9866 C28.0312,25.3546 27.6692,25.6556 27.2252,25.6556 C26.7812,25.6556 26.4192,25.3546 26.4192,24.9866 C26.4192,24.6146 26.1192,24.3146 25.7482,24.3146 C25.3772,24.3146 25.0772,24.6146 25.0772,24.9866 C25.0772,25.8756 25.6972,26.6316 26.5542,26.8966 L26.5542,26.9356 C26.5542,27.3056 26.8542,27.6066 27.2252,27.6066 C27.5962,27.6066 27.8962,27.3056 27.8962,26.9356 L27.8962,26.8966 C28.7532,26.6316 29.3732,25.8756 29.3732,24.9866 C29.3732,23.8766 28.4102,22.9746 27.2252,22.9746 C26.7812,22.9746 26.4192,22.6736 26.4192,22.3056 C26.4192,21.9366 26.7812,21.6356 27.2252,21.6356" id="Fill-10" fill="#EB0029"></path>
            </g>
        </g>
    </g>
</svg>