<?xml version="1.0" encoding="UTF-8"?>
<svg width="45px" height="45px" viewBox="0 0 45 45" version="1.1" xmlns="http://www.w3.org/2000/svg" xmlns:xlink="http://www.w3.org/1999/xlink">
    <title>383C8EE6-FFAD-44BC-8BAD-1C5A7C40A594</title>
    <g id="DESKTOP---MINISITE" stroke="none" stroke-width="1" fill="none" fill-rule="evenodd">
        <g id="BANORTE---HOME---VIDA-1---DESKTOP" transform="translate(-802.000000, -171.000000)" fill="#707070" fill-rule="nonzero">
            <g id="tombstone" transform="translate(802.000000, 171.000000)">
                <path d="M43.5,40.629 L43.5,36.75 C43.5,36.3357864 43.1642136,36 42.75,36 L39,36 L39,6.75 C38.9999637,6.56831862 38.9340454,6.39281409 38.8144688,6.25603125 L38.5032188,5.9004375 C35.2223439,2.15071401 30.4824257,0 25.5,0 L20.25,0 C15.2676255,0 10.5277807,2.15080916 7.246875,5.9004375 L6.935625,6.25603125 C6.8160144,6.39280053 6.75006226,6.56830651 6.75,6.75 L6.75,36 L3,36 C2.58578644,36 2.25,36.3357864 2.25,36.75 L2.25,40.5 C1.00735931,40.5 0,41.5073593 0,42.75 C0,43.9926407 1.00735931,45 2.25,45 L42.75,45 C43.8454793,45 44.7814262,44.2102074 44.9666872,43.1305067 C45.1519481,42.0508061 44.532672,40.9946004 43.5,40.629 Z M42,40.5 L39,40.5 L39,37.5 L42,37.5 L42,40.5 Z M37.374375,6.8881875 L37.5,7.0318125 L37.5,36 L33.75,36 L33.75,27.75 L35.25,27.75 L35.25,26.25 L33.75,26.25 L33.75,12 L35.25,12 L35.25,10.5 L33.75,10.5 L33.75,6.75 C33.7499637,6.56831862 33.6840454,6.39281409 33.5644687,6.25603125 L33.2532187,5.9004375 C31.6811538,4.10430141 29.7538661,2.65350475 27.5929687,1.63959375 C31.3815559,2.14656351 34.857295,4.01160643 37.374375,6.8881875 Z M8.25,7.0318125 L8.375625,6.88828125 C11.3717055,3.46410562 15.7001124,1.49998045 20.25,1.49998045 C24.7998876,1.49998045 29.1282945,3.46410562 32.124375,6.88828125 L32.25,7.0318125 L32.25,10.5 L30.75,10.5 L30.75,12 L32.25,12 L32.25,20.25 L30.75,20.25 L30.75,21.75 L32.25,21.75 L32.25,36 L8.25,36 L8.25,7.0318125 Z M3.75,37.5 L13.5,37.5 L13.5,39 L15,39 L15,37.5 L37.5,37.5 L37.5,40.5 L32.25,40.5 L32.25,39 L30.75,39 L30.75,40.5 L3.75,40.5 L3.75,37.5 Z M42.75,43.5 L2.25,43.5 C1.83578644,43.5 1.5,43.1642136 1.5,42.75 C1.5,42.3357864 1.83578644,42 2.25,42 L42.75,42 C43.1642136,42 43.5,42.3357864 43.5,42.75 C43.5,43.1642136 43.1642136,43.5 42.75,43.5 Z" id="Shape"></path>
                <polygon id="Path" points="12 26.8125 15 26.8125 15 28.3125 12 28.3125"></polygon>
                <polygon id="Path" points="13.5 29.8125 21.75 29.8125 21.75 31.3125 13.5 31.3125"></polygon>
                <polygon id="Path" points="16.5 26.8125 28.5 26.8125 28.5 28.3125 16.5 28.3125"></polygon>
                <polygon id="Path" points="23.25 29.8125 27 29.8125 27 31.3125 23.25 31.3125"></polygon>
                <polygon id="Path" points="9.75 10.6875 12 10.6875 12 12.1875 9.75 12.1875"></polygon>
                <path d="M27.5257624,12.9831704 C25.9748466,11.4320632 23.4581161,11.4298409 21.9044179,12.9782495 C21.7713391,13.110875 21.6478796,13.2527073 21.5349137,13.402794 L20.5377771,14.7298426 L19.544377,13.4078736 C18.2283761,11.6496928 15.733905,11.289596 13.9729568,12.6034694 C12.2119292,13.9173428 11.8512493,16.4077813 13.1672501,18.1658827 C13.281647,18.3186679 13.4068555,18.46304 13.5420011,18.5978878 L20.0550686,25.1258243 C20.1742353,25.2451158 20.3359331,25.3122619 20.5047062,25.3125 C20.6730818,25.3125 20.8345411,25.2457507 20.9537078,25.1270942 L27.5208336,18.595348 C29.0744523,17.0470188 29.0766782,14.5343569 27.5257624,12.9831704 Z M26.89654,17.3783841 C26.8135447,17.4902149 26.7220431,17.5954581 26.6228303,17.6931613 L20.5072501,23.7772666 L14.4412763,17.6988759 C13.3924664,16.6420784 13.3938179,14.9385035 14.4444562,13.8834522 C14.9525245,13.3762847 15.6416084,13.0914296 16.3600269,13.0916677 C16.4236249,13.0916677 16.4872228,13.0916677 16.5508208,13.0980172 C17.3340297,13.1534961 18.0545947,13.5457374 18.5255376,14.1729901 L20.0289934,16.1692777 C20.260172,16.4498469 20.6753872,16.4900869 20.9564107,16.259282 C20.9893227,16.2322966 21.0195317,16.2021364 21.0465609,16.1692777 L22.5519247,14.1647358 C23.4407857,12.9669791 25.1339225,12.7153796 26.3336981,13.6028037 C27.5333942,14.4902278 27.7854011,16.1806274 26.89654,17.3783841 Z" id="Shape"></path>
                <polygon id="Path" points="12.75 5.25 14.25 5.25 14.25 6.75 12.75 6.75"></polygon>
                <polygon id="Path" points="10.5 32.25 12 32.25 12 33.75 10.5 33.75"></polygon>
            </g>
        </g>
    </g>
</svg>