<?xml version="1.0" encoding="UTF-8" standalone="no"?>
<svg
   xmlns:dc="http://purl.org/dc/elements/1.1/"
   xmlns:cc="http://creativecommons.org/ns#"
   xmlns:rdf="http://www.w3.org/1999/02/22-rdf-syntax-ns#"
   xmlns:svg="http://www.w3.org/2000/svg"
   xmlns="http://www.w3.org/2000/svg"
   xmlns:sodipodi="http://sodipodi.sourceforge.net/DTD/sodipodi-0.dtd"
   xmlns:inkscape="http://www.inkscape.org/namespaces/inkscape"
   width="36px"
   height="45px"
   viewBox="0 0 36 45"
   version="1.1"
   id="svg38"
   sodipodi:docname="ico-vida-individual-gris.svg"
   inkscape:version="1.0.1 (3bc2e813f5, 2020-09-07)">
  <metadata
     id="metadata44">
    <rdf:RDF>
      <cc:Work
         rdf:about="">
        <dc:format>image/svg+xml</dc:format>
        <dc:type
           rdf:resource="http://purl.org/dc/dcmitype/StillImage" />
      </cc:Work>
    </rdf:RDF>
  </metadata>
  <defs
     id="defs42" />
  <sodipodi:namedview
     pagecolor="#ffffff"
     bordercolor="#666666"
     borderopacity="1"
     objecttolerance="10"
     gridtolerance="10"
     guidetolerance="10"
     inkscape:pageopacity="0"
     inkscape:pageshadow="2"
     inkscape:window-width="1366"
     inkscape:window-height="705"
     id="namedview40"
     showgrid="false"
     inkscape:zoom="11.955556"
     inkscape:cx="18"
     inkscape:cy="22.5"
     inkscape:window-x="-8"
     inkscape:window-y="-8"
     inkscape:window-maximized="1"
     inkscape:current-layer="svg38" />
  <title
     id="title2">52F5F3F8-536A-4BF1-9138-84E765DC83B7</title>
  <g
     id="DESKTOP---MINISITE"
     stroke="none"
     stroke-width="1"
     fill="none"
     fill-rule="evenodd"
     style="fill:#747474;fill-opacity:1">
    <g
       id="BANORTE---HOME---VIDA-1---DESKTOP"
       transform="translate(-186.000000, -171.000000)"
       fill="#EB0029"
       fill-rule="nonzero"
       style="fill:#747474;fill-opacity:1">
      <g
         id="trekking"
         transform="translate(186.000000, 171.000000)"
         style="fill:#747474;fill-opacity:1">
        <path
           d="M9.70307884,21.7500293 L9.70307884,23.2500586 C9.70307884,24.0772852 9.03715909,24.7500879 8.21820135,24.7500879 L5.99092862,24.7500879 C5.17205788,24.7500879 4.50605114,24.077373 4.50605114,23.2500586 L4.50605114,12.0000586 C4.50605114,11.172832 5.17197088,10.5000293 5.99092862,10.5000293 L8.21820135,10.5000293 C8.82774325,10.5000293 9.37490412,10.8772559 9.59763139,11.4458203 L9.71195312,12.1260938 L11.1760369,11.8748145 L11.0497958,11.1248438 C11.0424006,11.0821289 11.0319602,11.0408203 11.0178658,11.0003027 C10.5999041,9.80332031 9.47434837,9.00008789 8.21820135,9.00008789 L8.21741832,9.00008789 L5.9901456,9.00008789 C4.35231712,9.00008789 3.02047763,10.3456055 3.02047763,12.0000586 L3.02047763,23.2500586 C3.02047763,24.9045996 4.35240412,26.2500293 5.9901456,26.2500293 L8.21741832,26.2500293 C9.8552468,26.2500293 11.1870863,24.9045117 11.1878693,23.2500586 L11.1878693,21.7500293 L9.70307884,21.7500293 L9.70307884,21.7500293 Z"
           id="Path"
           style="fill:#747474;fill-opacity:1" />
        <path
           d="M7.10386896,2.25 C4.85206143,2.25 3.02056463,4.10027344 3.02056463,6.3749707 C3.02056463,8.64966797 4.85214844,10.4999414 7.10386896,10.4999414 C9.35558949,10.4999414 11.1871733,8.64966797 11.1871733,6.3749707 C11.1871733,4.10027344 9.35567649,2.25 7.10386896,2.25 Z M7.10386896,9 C5.67101918,9 4.50535511,7.8225293 4.50535511,6.3749707 C4.50535511,4.9275 5.67093217,3.74994141 7.10386896,3.74994141 C8.53671875,3.74994141 9.70238281,4.92741211 9.70238281,6.3749707 C9.70238281,7.8225293 8.53671875,9 7.10386896,9 Z"
           id="Shape"
           style="fill:#747474;fill-opacity:1" />
        <path
           d="M3.76295987,15.75 L2.12965554,15.75 C0.983393111,15.75 0.0508966619,16.6920117 0.0508966619,17.8499707 L0.0508966619,21.15 C0.0508966619,22.307959 0.983393111,23.2499707 2.12965554,23.2499707 L3.76295987,23.2499707 C4.17274325,23.2499707 4.50535511,22.9147559 4.50535511,22.5 L4.50535511,16.4999707 C4.50535511,16.0860059 4.17274325,15.75 3.76295987,15.75 Z M3.02056463,21.7500293 L2.12965554,21.7500293 C1.80226385,21.7500293 1.53568714,21.4808203 1.53568714,21.15 L1.53568714,17.8499707 C1.53568714,17.5192383 1.80217685,17.2499414 2.12965554,17.2499414 L3.02056463,17.2499414 L3.02056463,21.7500293 Z"
           id="path6"
           style="fill:#747474;fill-opacity:1" />
        <path
           d="M16.384201,9 L13.414533,9 L13.414533,10.5000293 L16.384201,10.5000293 C17.6121591,10.5000293 18.6114737,11.509541 18.6114737,12.7500293 L18.6114737,25.5000586 L11.1872603,25.5000586 L11.1872603,20.25 L9.70238281,20.25 L9.70238281,26.2500293 C9.70238281,26.6647852 10.0349947,27 10.4447781,27 L19.353869,27 C19.7644354,27 20.0962642,26.6647852 20.0962642,26.2500293 L20.0962642,12.7500293 C20.0962642,10.6822266 18.4310298,9 16.384201,9 Z"
           id="path8"
           style="fill:#747474;fill-opacity:1" />
        <path
           d="M19.232152,2.80274414 L17.7993022,3.19728516 C17.8475888,3.37579102 17.8713406,3.55957031 17.8698615,3.7500293 L17.8698615,6.75 C17.8698615,7.99048828 16.8705469,9 15.6425888,9 C14.4146307,9 13.4153161,7.99048828 13.4153161,6.75 L13.4153161,3.74326172 C13.413837,3.55798828 13.4375888,3.375 13.4850923,3.19798828 L12.0529386,2.80125 C11.9682848,3.11176758 11.9266974,3.43353516 11.9296555,3.7500293 L11.9296555,6.75 C11.9296555,8.81771484 13.5948899,10.5000293 15.6418058,10.5000293 C17.6886346,10.5000293 19.353956,8.81780273 19.354652,6.75 L19.354652,3.75670898 C19.3576101,3.4350293 19.3160227,3.11396484 19.232152,2.80274414 Z"
           id="path10"
           style="fill:#747474;fill-opacity:1" />
        <path
           d="M20.0962642,0 L14.8993235,0 C13.261495,0 11.9296555,1.34551758 11.9296555,2.9999707 L11.9296555,5.99994141 C11.9296555,6.30290039 12.1107955,6.57667969 12.3877255,6.69295898 C12.4797745,6.73119141 12.5762607,6.74991211 12.6720508,6.74991211 C12.8651101,6.74991211 13.0551243,6.67344727 13.1969389,6.53018555 L15.9490998,3.74994141 L17.8689915,3.74994141 C19.50682,3.74994141 20.8386595,2.40442383 20.8386595,0.749970703 C20.8386595,0.336005859 20.5068306,0 20.0962642,0 Z M17.8689915,2.25 L15.6417188,2.25 C15.4450053,2.25 15.2563832,2.32875 15.1168306,2.46972656 L13.414446,4.18948242 L13.414446,2.9999707 C13.414446,2.17274414 14.0803658,1.49994141 14.8993235,1.49994141 L19.1541974,1.49994141 C18.8980611,1.94774414 18.4177184,2.25 17.8689915,2.25 Z"
           id="path12"
           style="fill:#747474;fill-opacity:1" />
        <path
           d="M26.6994318,39.4140234 L20.0176136,25.9140234 L18.6894283,26.5852441 L25.0394176,39.4140234 L23.3652219,40.2592676 L17.4398935,29.6467383 C17.0709144,28.9477441 16.352967,28.5082031 15.5601101,28.5000293 C14.3766974,28.5000293 13.414533,29.4720117 13.414533,30.6675 L13.414533,33.9930176 C13.4093129,34.8989941 12.8718093,35.7089941 12.0432812,36.0585352 L5.6012429,38.7870117 L4.77419389,37.1167383 L10.7462429,34.435459 C11.0142987,34.3146973 11.1872603,34.0469824 11.1872603,33.75 L11.1872603,26.2500293 L9.70238281,26.2500293 L9.70238281,33.2632617 L3.46158203,36.0645117 C3.27670099,36.1477441 3.13271129,36.30375 3.06441406,36.4964941 C2.99611683,36.6892383 3.00873224,36.9022852 3.0993022,37.0852734 L4.58417969,40.0852441 C4.75862038,40.4384766 5.17292791,40.5929883 5.53520774,40.4414648 L12.616456,37.4421973 C13.995103,36.8609766 14.8912322,35.5109766 14.8994105,33.9974121 L14.8994105,30.6674121 C14.8994105,30.2991504 15.1956552,29.9998828 15.5527148,29.9998828 C15.7954528,30.002168 16.016005,30.137168 16.138505,30.3681445 L22.4194141,41.6181445 C22.5560085,41.8611621 22.8062287,41.9998535 23.0668022,41.9998535 C23.1789489,41.9998535 23.2917915,41.9743652 23.397935,41.9203125 L26.367603,40.4202832 C26.73432,40.2352734 26.8828338,39.7844824 26.6994318,39.4140234 Z"
           id="path14"
           style="fill:#747474;fill-opacity:1" />
        <path
           d="M7.06158558,41.7472559 L4.42600852,36.4147559 C4.33839666,36.237041 4.18396662,36.10125 3.99691051,36.0382324 C3.8098544,35.9737207 3.60565874,35.9894531 3.42973899,36.07875 L0.460071023,37.5787793 C0.284151278,37.6679883 0.150514915,37.8239941 0.0881338778,38.0122559 C0.0257528409,38.2012207 0.0406303267,38.408291 0.12893821,38.5860059 L2.69030185,43.752041 C3.06954723,44.5215234 3.83273615,45 4.68353693,45 L5.06956854,45 C5.92036932,45 6.68512429,44.5207324 7.0621946,43.7505469 C7.37114169,43.1235352 7.37114169,42.3749707 7.06158558,41.7472559 Z M5.73409624,43.0837207 C5.60785511,43.3401855 5.3531978,43.4999707 5.06965554,43.4999707 L4.68362393,43.4999707 C4.4007777,43.4999707 4.14612038,43.3401855 4.01987926,43.0837207 C4.01987926,43.0829297 4.01918324,43.0822266 4.01918324,43.0807324 L1.79043146,38.5852148 L3.43121804,37.7557031 L5.73418324,42.4161914 C5.83728161,42.625459 5.83728161,42.874541 5.73409624,43.0837207 Z"
           id="path16"
           style="fill:#747474;fill-opacity:1" />
        <path
           d="M30.410799,39.4125293 C29.8168306,38.2192383 28.3721484,37.7317969 27.1879528,38.32875 L22.7334073,40.57875 C22.3666903,40.7640234 22.2181765,41.2147266 22.4015785,41.5852734 L23.886456,44.5852441 C24.0171342,44.8484766 24.2791868,45 24.5516797,45 C24.6638263,45 24.776669,44.9745117 24.8828125,44.920459 L29.337358,42.670459 C29.337358,42.670459 29.338141,42.669668 29.338837,42.669668 C30.5192045,42.0705176 31.0010263,40.6110059 30.410799,39.4125293 Z M28.6727433,41.3287207 L24.8826385,43.2435059 L24.0622887,41.5852734 L27.8509144,39.6712793 C28.3030682,39.443291 28.8569283,39.6300586 29.0826136,40.08375 C29.307516,40.5405176 29.123418,41.0985352 28.6727433,41.3287207 Z"
           id="path18"
           style="fill:#747474;fill-opacity:1" />
        <path
           d="M7.10386896,5.2499707 C6.48988991,5.2499707 5.9902326,5.75472656 5.9902326,6.3749707 C5.9902326,6.99521484 6.48988991,7.4999707 7.10386896,7.4999707 C7.71784801,7.4999707 8.21750533,6.99521484 8.21750533,6.3749707 C8.21750533,5.75472656 7.71784801,5.2499707 7.10386896,5.2499707 Z M7.10386896,6.75 C6.89897727,6.75 6.73262784,6.58204102 6.73262784,6.3749707 C6.73262784,6.16798828 6.89889027,5.99994141 7.10386896,5.99994141 C7.30876065,5.99994141 7.47511009,6.16790039 7.47511009,6.3749707 C7.47511009,6.58204102 7.30876065,6.75 7.10386896,6.75 Z"
           id="path20"
           style="fill:#747474;fill-opacity:1" />
        <path
           d="M30.1420472,13.9942969 C30.0663548,13.8930469 29.9838761,13.7977734 29.8955682,13.7085645 C29.4093093,13.220332 28.7655753,12.9525293 28.0803409,12.9525293 C28.0773828,12.9525293 28.0744247,12.9525293 28.0706836,12.9525293 C27.3831871,12.9548145 26.736582,13.2278027 26.2539773,13.7190234 L23.1164808,16.8885352 L19.9247816,13.0193262 L18.7836523,13.9793555 L22.4958026,18.4793555 C22.6301349,18.6413379 22.8246733,18.7388965 23.0333061,18.7485645 C23.2404599,18.7568262 23.4445685,18.6787793 23.5916033,18.529541 L27.3059286,14.7780176 C27.5108203,14.569541 27.7840092,14.4532617 28.0765998,14.4525586 C28.0772958,14.4525586 28.0788619,14.4525586 28.0803409,14.4525586 C28.3698864,14.4525586 28.6438583,14.5658496 28.84875,14.772041 C28.8865962,14.8102734 28.9229634,14.851582 28.9541974,14.8942969 C29.2794141,15.3338379 29.2363477,15.9570703 28.8524911,16.3447559 L25.1812322,20.0534766 C24.593267,20.655 23.7772674,20.9999707 22.938386,20.9999707 C22.9354279,20.9999707 22.9361239,20.9999707 22.9295117,20.9999707 C21.8685991,20.9999707 20.886337,20.4667383 20.2946307,19.5667383 L19.967935,19.079209 L18.7384979,19.9206738 L19.0614524,20.4014355 C19.9233026,21.7162793 21.3680717,22.5 22.9271626,22.5 C22.9345579,22.5 22.9353409,22.5 22.939082,22.5 C24.1714773,22.5 25.3735085,21.9922559 26.2347496,21.1102734 L29.9023544,17.4052441 C30.8043129,16.493291 30.9074982,15.0270117 30.1420472,13.9942969 Z"
           id="path22"
           style="fill:#747474;fill-opacity:1" />
        <path
           d="M17.7546697,20.5335352 C17.6158132,19.8487793 17.2216033,19.2592969 16.6685263,18.8902441 L12.5287571,15.8827148 L15.8793235,13.8164941 C15.8881978,13.8120117 15.8963761,13.8060352 15.9045543,13.8007617 C15.9505788,13.77 15.9951243,13.7377441 16.0404528,13.7025 C16.5876136,13.2772852 16.9372781,12.6622266 17.026369,11.970791 C17.1147638,11.2792676 16.9320579,10.5945117 16.5178374,10.0508203 C15.6937464,8.93408203 14.148054,8.6662793 13.0210192,9.42829102 L7.55306463,12.8752734 C6.57228161,13.5360352 5.98805753,14.6423145 5.99022655,15.8302441 C5.98875355,17.022041 6.57228161,18.1275293 7.5367081,18.777041 L13.7745508,23.2358203 C14.2162642,23.5350879 14.7174006,23.6783496 15.2134038,23.6783496 C16.0048686,23.6783496 16.783631,23.3130762 17.2892045,22.6268262 C17.3211346,22.5841113 17.3508026,22.5420996 17.3775124,22.500791 C17.7591069,21.9172852 17.8935263,21.218291 17.7546697,20.5335352 Z M16.1013548,21.7290234 C15.7494283,22.2060059 15.0894247,22.320791 14.6157813,22.0005176 L8.37715554,17.5410352 C7.81146307,17.1592383 7.47363104,16.5217676 7.47510524,15.8310352 C7.47363104,15.143291 7.81068004,14.5058203 8.35784091,14.1360645 L13.8272745,10.688291 C14.0151136,10.5615527 14.2281836,10.5000293 14.4397745,10.5000293 C14.7790856,10.5000293 15.1146555,10.6583203 15.3351207,10.9575 C15.5140856,11.1922559 15.5920401,11.4839648 15.5541069,11.7780469 C15.5162607,12.07125 15.3677468,12.3330762 15.1368413,12.5122852 L10.8003587,15.1920703 C10.5872887,15.323291 10.4543484,15.5528613 10.4447781,15.8040527 C10.4359038,16.055332 10.5517045,16.2945703 10.7536381,16.4415234 L15.8265998,20.12625 C16.0730788,20.2905176 16.2416033,20.5425 16.3010263,20.835 C16.3596662,21.1275 16.3025053,21.4252734 16.1013548,21.7290234 Z"
           id="path24"
           style="fill:#747474;fill-opacity:1" />
        <polygon
           id="Rectangle"
           transform="translate(14.558503, 15.159562) rotate(-61.092314) translate(-14.558503, -15.159562) "
           points="12.1770767 14.4255701 16.9463414 14.405136 16.9399297 15.8935547 12.1706649 15.9139888"
           style="fill:#747474;fill-opacity:1" />
        <polygon
           id="polygon27"
           transform="translate(11.185399, 22.500698) rotate(-63.434949) translate(-11.185399, -22.500698) "
           points="9.51491462 21.7635854 12.8619436 21.7500347 12.8558834 23.2378101 9.50885444 23.2513609"
           style="fill:#747474;fill-opacity:1" />
        <rect
           id="rect29"
           x="3.76295987"
           y="21.7500293"
           width="6.68181818"
           height="1.5000293"
           style="fill:#747474;fill-opacity:1" />
        <polygon
           id="polygon31"
           transform="translate(30.489843, 28.125813) rotate(-13.091244) translate(-30.489843, -28.125813) "
           points="29.7843096 11.5801541 31.2691649 11.5768132 31.1953771 44.6714717 29.7105219 44.6748127"
           style="fill:#747474;fill-opacity:1" />
        <rect
           id="rect33"
           x="6.73262784"
           y="9"
           width="8.16669567"
           height="1.5000293"
           style="fill:#747474;fill-opacity:1" />
      </g>
    </g>
  </g>
</svg>
