<?xml version="1.0" encoding="UTF-8"?>
<svg width="41px" height="47px" viewBox="0 0 41 47" version="1.1" xmlns="http://www.w3.org/2000/svg" xmlns:xlink="http://www.w3.org/1999/xlink">
    <title>1B5D4277-31A1-4F2F-B973-3C54C0742694</title>
    <defs>
        <polygon id="path-1" points="0.0003 0.779 40.206 0.779 40.206 45.9999 0.0003 45.9999"></polygon>
    </defs>
    <g id="Iconografía" stroke="none" stroke-width="1" fill="none" fill-rule="evenodd">
        <g id="Banorte---Iconografía---Coberturas" transform="translate(-810.000000, -1928.000000)">
            <g id="Group-24" transform="translate(810.000000, 1928.000000)">
                <g id="Group-3" transform="translate(0.000000, 0.221200)">
                    <mask id="mask-2" fill="white">
                        <use xlink:href="#path-1"></use>
                    </mask>
                    <g id="Clip-2"></g>
                    <path d="M39.0273,30.2109 C39.0213,33.5409 37.2083,36.6109 34.3293,38.2069 L20.6823,44.6889 C20.3193,44.8659 19.8863,44.8659 19.5173,44.6859 L6.0053,38.2709 L5.9083,38.2239 C2.9923,36.6119 1.1803,33.5429 1.1783,30.2119 L1.1783,10.6819 C1.1823,10.0049 1.6713,9.4359 2.3363,9.3299 C8.4633,8.3989 14.3243,5.9449 19.2893,2.2309 C19.5283,2.0479 19.8153,1.9569 20.1023,1.9569 C20.3903,1.9569 20.6783,2.0489 20.9213,2.2329 C25.8813,5.9449 31.7413,8.3989 37.8673,9.3289 C38.5363,9.4369 39.0243,10.0059 39.0273,10.6789 L39.0273,30.2109 Z M38.0503,8.1649 L38.0463,8.1639 C32.1103,7.2639 26.4333,4.8859 21.6313,1.2929 C20.7323,0.6069 19.4743,0.6079 18.5793,1.2899 C13.7733,4.8859 8.0953,7.2639 2.1553,8.1649 C0.9133,8.3619 0.0073,9.4189 0.0003,10.6789 L0.0003,30.2119 C0.0013,33.9719 2.0473,37.4379 5.3603,39.2669 L19.0043,45.7469 C19.3493,45.9159 19.7273,45.9999 20.1053,45.9999 C20.4803,45.9999 20.8553,45.9169 21.1953,45.7499 L34.8673,39.2549 C38.1533,37.4349 40.1993,33.9699 40.2063,30.2119 L40.2063,10.6759 C40.1983,9.4189 39.2923,8.3619 38.0503,8.1649 L38.0503,8.1649 Z" id="Fill-1" fill="#EB0029" mask="url(#mask-2)"></path>
                </g>
                <path d="M34.6436,34.4868 L34.6436,31.1658 C34.6436,30.6428 34.2196,30.2178 33.6966,30.2178 L30.8556,30.2178 L30.8556,28.7988 C30.8556,28.5078 30.7686,28.2388 30.6186,28.0138 C30.8096,27.9048 30.9906,27.7798 31.1476,27.6238 L31.2276,27.5438 L33.8776,28.2058 C35.0316,28.4948 35.8366,29.5258 35.8366,30.7158 L35.8366,32.4748 C35.5406,33.2038 35.1376,33.8798 34.6436,34.4868 L34.6436,34.4868 Z M21.9216,18.9928 L21.9216,18.0458 L22.3946,18.0458 C22.6556,18.0458 22.8686,18.2578 22.8686,18.5188 C22.8686,18.7798 22.6556,18.9928 22.3946,18.9928 L21.9216,18.9928 Z M33.2506,21.8928 L33.2506,20.4768 C33.2506,19.5888 32.5826,18.8498 31.6976,18.7618 L30.7386,18.6668 C29.6196,18.5538 28.7206,17.7388 28.5006,16.6358 L27.6556,16.8058 C27.6936,16.9968 27.7476,17.1818 27.8146,17.3598 L27.3746,17.5078 C27.1426,17.5848 26.9216,17.6918 26.7186,17.8288 C25.9496,18.3408 25.4916,19.1958 25.4916,20.1198 L25.4916,21.8928 C25.4916,23.3778 26.3296,24.6678 27.5576,25.3198 L27.2776,26.7138 C27.2776,26.7138 26.8166,26.8498 26.2736,26.9938 C25.8406,26.8518 25.2936,26.6998 24.6296,26.5218 L24.6296,20.1698 C24.6296,17.5548 26.7566,15.4278 29.3716,15.4278 C31.9856,15.4278 34.1126,17.5548 34.1126,20.1698 L34.1126,27.3778 C34.1036,27.3758 34.0956,27.3718 34.0866,27.3698 L31.4646,26.7148 L31.1856,25.3208 C32.4126,24.6678 33.2506,23.3778 33.2506,21.8928 L33.2506,21.8928 Z M29.3716,24.9108 C27.7076,24.9108 26.3536,23.5568 26.3536,21.8928 L26.3536,20.1198 C26.3536,19.4848 26.6686,18.8968 27.1966,18.5458 C27.3366,18.4518 27.4886,18.3778 27.6476,18.3248 L28.2296,18.1318 C28.7846,18.9038 29.6536,19.4238 30.6536,19.5238 L31.6126,19.6198 C32.0546,19.6638 32.3886,20.0328 32.3886,20.4768 L32.3886,21.8928 C32.3886,23.5568 31.0346,24.9108 29.3716,24.9108 L29.3716,24.9108 Z M29.8026,27.4318 C29.6846,27.3998 29.5626,27.3778 29.4356,27.3778 L28.7626,27.3778 C28.5556,27.2958 28.3636,27.1738 28.2046,27.0138 L28.1156,26.9248 L28.3726,25.6378 C28.6916,25.7228 29.0256,25.7728 29.3716,25.7728 C29.7166,25.7728 30.0506,25.7228 30.3706,25.6368 L30.6276,26.9248 L30.5386,27.0128 C30.3346,27.2168 30.0776,27.3558 29.8026,27.4318 L29.8026,27.4318 Z M33.6966,32.5868 C33.6966,33.8928 32.6366,34.9538 31.3296,34.9538 L28.4886,34.9538 L28.4886,33.5328 C28.4886,33.2718 28.2766,33.0588 28.0146,33.0588 L26.1206,33.0588 C25.8596,33.0588 25.6476,33.2718 25.6476,33.5328 L25.6476,34.9538 L22.8066,34.9538 C21.4986,34.9538 20.4386,33.8928 20.4386,32.5868 L20.4386,31.1658 L33.6966,31.1658 L33.6966,32.5868 Z M26.5946,36.3738 L26.5946,34.0068 L27.5416,34.0068 L27.5416,36.3738 C27.5416,36.6348 27.3286,36.8468 27.0676,36.8468 C26.8076,36.8468 26.5946,36.6348 26.5946,36.3738 L26.5946,36.3738 Z M24.6546,39.6558 L25.5166,39.6488 L24.6546,40.0578 L24.6546,39.6558 Z M27.1346,30.2178 L24.2356,30.2178 C24.2356,30.1638 24.2376,28.9248 24.2376,28.8688 C24.2376,28.5698 24.5406,28.3248 24.8766,28.3248 L26.4756,28.3248 C27.0136,28.6558 27.1316,29.6878 27.1346,30.2178 L27.1346,30.2178 Z M17.1866,26.8458 L15.7666,25.4248 L15.7666,24.4558 C16.2156,24.5968 16.6916,24.6738 17.1866,24.6738 C17.6816,24.6738 18.1586,24.5968 18.6076,24.4558 L18.6076,25.4248 L17.1866,26.8458 Z M16.2886,27.9188 L16.4466,27.4448 L16.8516,27.8498 C16.9446,27.9418 17.0656,27.9888 17.1866,27.9888 C17.3086,27.9888 17.4296,27.9418 17.5216,27.8498 L17.9266,27.4448 L18.0846,27.9188 L17.4066,28.9358 L16.9666,28.9358 L16.2886,27.9188 Z M17.0336,29.8828 L17.3396,29.8828 L18.1126,36.0998 L17.1866,38.3258 L16.2616,36.0998 L17.0336,29.8828 Z M13.3986,17.2108 L14.0416,15.9248 L14.3456,16.1518 C15.1606,16.7618 16.1696,17.0978 17.1866,17.0978 C18.2046,17.0978 19.2136,16.7618 20.0276,16.1518 L20.3316,15.9248 L20.9746,17.2108 L20.9746,19.9398 C20.9746,22.1488 19.0736,23.9228 16.8216,23.7098 C14.8586,23.5248 13.3986,21.7988 13.3986,19.8288 L13.3986,17.2108 Z M14.2136,14.8688 C13.6076,14.0298 14.3226,12.9788 14.6716,12.5568 C14.8306,12.4088 14.9216,12.2278 15.1726,12.0078 C16.2446,11.3438 17.6336,11.2358 18.7866,11.7608 L20.1076,12.3628 C20.8236,12.6878 21.3736,13.2868 21.6436,14.0548 C21.8836,14.7408 21.8256,15.4978 21.5396,16.1658 L21.5266,16.1948 L20.9246,14.9928 C20.8616,14.8668 20.7476,14.7758 20.6096,14.7438 C20.4736,14.7108 20.3296,14.7418 20.2176,14.8258 L19.4596,15.3928 C18.8086,15.8828 18.0006,16.1518 17.1866,16.1518 C16.3726,16.1518 15.5656,15.8828 14.9146,15.3938 L14.2136,14.8688 Z M12.4526,18.0458 L12.4526,18.9928 L11.9786,18.9928 C11.7176,18.9928 11.5046,18.7798 11.5046,18.5188 C11.5046,18.2578 11.7176,18.0458 11.9786,18.0458 L12.4526,18.0458 Z M13.0986,13.2508 C13.1106,13.2398 13.1266,13.2348 13.1396,13.2248 C12.8966,13.9218 12.9026,14.6508 13.2966,15.2978 L12.8076,16.2768 L12.5366,15.7348 C12.1216,14.9048 12.3156,13.8848 13.0986,13.2508 L13.0986,13.2508 Z M19.6276,41.9948 L15.2266,39.9058 L15.0836,38.8008 C15.0456,38.2908 14.9446,37.7888 14.7726,37.3128 L14.2846,36.3108 C14.1816,36.1408 14.0686,35.9768 13.9476,35.8188 L13.9496,35.8148 C14.7076,34.2998 15.1086,32.6018 15.1086,30.9068 C15.1086,29.9338 14.8466,29.0218 14.3936,28.2328 C13.8816,27.4638 13.3116,26.9188 12.7576,26.5238 L15.1306,26.1288 L15.6986,26.6958 L15.3166,27.8388 C15.2706,27.9768 15.2916,28.1298 15.3726,28.2518 L16.1816,29.4648 L15.3266,35.8858 C15.2906,35.9748 15.2836,36.0738 15.3046,36.1688 L16.7256,39.1098 C16.7746,39.3248 16.9666,39.4768 17.1866,39.4768 C17.4076,39.4768 17.5986,39.3248 17.6486,39.1098 L19.0686,36.1688 C19.0906,36.0748 19.0826,35.9758 19.0476,35.8858 L18.1926,29.4648 L19.0006,28.2518 C19.0826,28.1298 19.1026,27.9768 19.0566,27.8388 L18.6756,26.6958 L19.2436,26.1288 L23.3756,27.1868 C23.5386,27.2398 24.4176,27.3948 24.5536,27.4668 C24.2726,27.4728 24.0976,27.4868 24.0856,27.4928 C23.1956,27.6348 23.2796,28.7848 23.2796,28.7988 L23.2796,30.2178 L20.4386,30.2178 C19.9156,30.2178 19.4926,30.6428 19.4926,31.1658 L19.4926,38.5408 C19.4926,39.1738 20.0056,39.6878 20.6406,39.6878 L23.4796,39.6658 L23.4796,40.6158 L20.5706,41.9978 C20.2786,42.1438 19.9286,42.1428 19.6276,41.9948 L19.6276,41.9948 Z M9.7066,37.1388 C10.1536,37.1388 10.5736,36.9618 10.8836,36.6518 C11.0396,36.6988 11.2046,36.7228 11.3696,36.7228 C12.0116,36.7228 12.5666,36.3498 12.8426,35.8108 C13.6406,36.5938 14.2886,38.3798 14.4006,39.5128 L9.2426,37.0648 C9.3926,37.1088 9.5466,37.1388 9.7066,37.1388 L9.7066,37.1388 Z M8.5306,36.6518 C8.5976,36.7178 8.6706,36.7758 8.7476,36.8298 L8.4106,36.6698 C8.4496,36.6618 8.4916,36.6638 8.5306,36.6518 L8.5306,36.6518 Z M9.7066,34.6458 C8.1036,34.6458 6.7986,33.3408 6.7986,31.7378 L6.7986,30.8588 C6.7986,30.2478 7.1016,29.6798 7.6106,29.3408 C7.7456,29.2518 7.8926,29.1798 8.0456,29.1288 L8.6066,28.9418 C9.1416,29.6868 9.9796,30.1878 10.9436,30.2848 L11.8676,30.3778 C12.2936,30.4198 12.6156,30.7748 12.6156,31.2038 L12.6156,31.7378 C12.6156,33.3408 11.3106,34.6458 9.7066,34.6458 L9.7066,34.6458 Z M8.7926,35.5978 L8.4536,35.7878 C8.3286,35.8568 8.1916,35.8928 8.0456,35.8928 C7.6526,35.8928 7.3336,35.6308 7.2426,35.2678 C7.4226,35.1448 7.6056,35.0378 7.7936,34.9438 C8.3546,35.2798 9.0076,35.4768 9.7066,35.4768 C10.4066,35.4768 11.0606,35.2798 11.6206,34.9438 C11.8086,35.0378 11.9916,35.1448 12.1716,35.2678 C12.0806,35.6298 11.7616,35.8928 11.3696,35.8928 C11.2226,35.8928 11.0856,35.8568 10.9616,35.7878 L10.6226,35.5978 L10.4106,35.9238 C10.2536,36.1648 9.9906,36.3078 9.7066,36.3078 C9.4236,36.3078 9.1606,36.1648 9.0036,35.9238 L8.7926,35.5978 Z M5.1366,30.9068 C5.1366,28.3868 7.1866,26.3368 9.7066,26.3368 C12.2266,26.3368 14.2776,28.3868 14.2776,30.9068 C14.2776,32.3618 13.9536,33.8168 13.3466,35.1398 C13.1946,34.9968 13.0346,34.8598 12.8646,34.7328 C12.6956,34.6058 12.5216,34.4908 12.3446,34.3848 C13.0246,33.7078 13.4466,32.7718 13.4466,31.7378 L13.4466,31.2038 C13.4466,30.3458 12.8026,29.6348 11.9496,29.5498 L11.0246,29.4578 C9.9466,29.3498 9.0796,28.5638 8.8676,27.5018 L8.0536,27.6648 C8.0896,27.8488 8.1416,28.0278 8.2066,28.1988 L7.7826,28.3408 C7.5596,28.4148 7.3456,28.5188 7.1496,28.6498 C6.4096,29.1428 5.9676,29.9678 5.9676,30.8588 L5.9676,31.7378 C5.9676,32.7718 6.3896,33.7078 7.0696,34.3848 C6.8926,34.4908 6.7186,34.6058 6.5496,34.7328 C6.3966,34.8468 6.2526,34.9718 6.1136,35.1008 C6.0746,35.0618 6.0416,35.0178 6.0026,34.9778 C5.4426,33.6978 5.1366,32.3028 5.1366,30.9068 L5.1366,30.9068 Z M33.6976,35.4518 C33.2966,35.7988 32.8696,36.1198 32.3976,36.3818 L27.4386,38.7358 L21.3316,38.7408 C20.8386,38.7408 20.4386,38.3418 20.4386,37.8488 L20.4386,34.9008 C21.0416,35.5168 21.8796,35.9008 22.8066,35.9008 L25.6476,35.9008 L25.6476,36.3098 C25.6476,37.0508 26.1876,37.7158 26.9256,37.7878 C27.7726,37.8698 28.4886,37.2038 28.4886,36.3738 L28.4886,35.9008 L31.3296,35.9008 C32.2566,35.9008 33.0946,35.5158 33.6976,34.9008 L33.6976,35.4518 Z M29.9086,28.7988 L29.9086,30.2178 L28.3086,30.2178 C28.3096,29.8128 28.2536,29.0268 27.9296,28.3248 L28.9306,28.3248 C29.0446,28.3408 29.1586,28.3588 29.2736,28.3588 L29.3716,28.3588 C29.4236,28.3588 29.4756,28.3468 29.5276,28.3428 C29.7436,28.3868 29.9086,28.5698 29.9086,28.7988 L29.9086,28.7988 Z M3.7816,12.6008 C3.7846,12.0508 4.1816,11.5898 4.7206,11.5038 C10.0416,10.6948 15.1316,8.5638 19.4446,5.3368 C19.6376,5.1888 19.8696,5.1148 20.1016,5.1148 C20.3356,5.1148 20.5696,5.1898 20.7656,5.3398 C25.0736,8.5628 30.1626,10.6948 35.4846,11.5038 C36.0266,11.5908 36.4216,12.0508 36.4246,12.5968 L36.4246,29.3668 C36.1336,28.6818 35.6256,28.1058 34.9756,27.7308 L34.9756,20.1698 C34.9756,17.0798 32.4606,14.5658 29.3716,14.5658 C26.2816,14.5658 23.7676,17.0798 23.7676,20.1698 L23.7676,22.1258 L23.7676,23.1918 L23.7676,26.2938 C23.7636,26.2928 23.7596,26.2918 23.7556,26.2908 L19.5546,25.2198 L19.5546,24.0338 C20.9676,23.2138 21.9216,21.6878 21.9216,19.9398 L22.3316,19.9398 C23.0736,19.9398 23.7366,19.3988 23.8086,18.6608 C23.8916,17.8148 23.2256,17.0978 22.3946,17.0978 L22.1676,17.0978 L22.3876,16.5908 C22.8246,15.5758 22.8606,14.4148 22.4026,13.4088 C22.0126,12.5518 21.3436,11.8838 20.5006,11.5018 L19.1796,10.8998 C17.5906,10.1758 15.7326,10.3778 14.3356,11.4248 L13.5886,11.9848 L13.5896,11.9868 C12.3986,12.2978 11.4336,13.3418 11.3826,14.7428 C11.3646,15.2668 11.5026,15.7858 11.7366,16.2548 L12.1596,17.0978 L12.0416,17.0978 C11.3006,17.0978 10.6376,17.6388 10.5646,18.3778 C10.4826,19.2228 11.1486,19.9398 11.9786,19.9398 L12.4526,19.9398 C12.4526,21.6878 13.4066,23.2138 14.8196,24.0338 L14.8196,25.2198 L11.3726,25.7948 C10.6326,25.5308 10.1046,25.5218 10.1046,25.5218 C9.9736,25.5118 9.8416,25.5058 9.7066,25.5058 C6.7286,25.5058 4.3056,27.9278 4.3056,30.9068 C4.3056,31.5048 4.3596,32.1018 4.4576,32.6918 C4.0236,31.7088 3.7826,30.6328 3.7816,29.5218 L3.7816,12.6008 Z M35.6666,10.3428 L35.6636,10.3428 C30.5316,9.5628 25.6236,7.5078 21.4736,4.4028 C20.6666,3.7868 19.5396,3.7878 18.7366,4.3998 C14.5826,7.5078 9.6746,9.5628 4.5396,10.3428 C3.4266,10.5198 2.6136,11.4658 2.6066,12.5968 L2.6066,29.5218 C2.6086,32.8088 4.3966,35.8378 7.2936,37.4358 L19.1166,43.0518 C19.4266,43.2048 19.7666,43.2798 20.1046,43.2798 C20.4416,43.2798 20.7776,43.2048 21.0816,43.0548 L32.9346,37.4248 C35.8056,35.8338 37.5936,32.8058 37.5996,29.5218 L37.5996,12.5938 C37.5926,11.4658 36.7806,10.5198 35.6666,10.3428 L35.6666,10.3428 Z" id="Fill-4" fill="#EB0029"></path>
                <path d="M17.2944,22.2026 C17.8514,22.2026 18.3524,21.8926 18.6014,21.3946 L18.6374,21.3216 L18.0204,21.0136 L17.9844,21.0866 C17.8534,21.3486 17.5884,21.5136 17.2944,21.5136 C17.0004,21.5136 16.7354,21.3486 16.6044,21.0866 L16.5674,21.0146 L15.9504,21.3226 L15.9864,21.3946 C16.2354,21.8926 16.7364,22.2026 17.2944,22.2026" id="Fill-6" fill="#EB0029"></path>
                <path d="M15.1802,19.4331 C15.5572,19.4331 15.8642,19.1261 15.8642,18.7491 C15.8642,18.3711 15.5572,18.0661 15.1802,18.0661 C14.8032,18.0661 14.4962,18.3711 14.4962,18.7491 C14.4962,19.1261 14.8032,19.4331 15.1802,19.4331" id="Fill-8" fill="#EB0029"></path>
                <path d="M19.2046,19.4331 C19.5816,19.4331 19.8886,19.1261 19.8886,18.7491 C19.8886,18.3711 19.5816,18.0661 19.2046,18.0661 C18.8276,18.0661 18.5216,18.3711 18.5216,18.7491 C18.5216,19.1261 18.8276,19.4331 19.2046,19.4331" id="Fill-10" fill="#EB0029"></path>
                <path d="M10.6753,32.4702 C10.5173,32.7872 10.1983,32.9842 9.8443,32.9842 C9.4893,32.9842 9.1713,32.7872 9.0133,32.4702 L8.9693,32.3832 L8.2263,32.7542 L8.2703,32.8422 C8.5703,33.4422 9.1733,33.8152 9.8443,33.8152 C10.5153,33.8152 11.1183,33.4422 11.4183,32.8422 L11.4623,32.7542 L10.7183,32.3822 L10.6753,32.4702 Z" id="Fill-12" fill="#EB0029"></path>
                <path d="M8.6855,31.5923 C8.9735,31.5923 9.2065,31.3583 9.2065,31.0713 C9.2065,30.7823 8.9735,30.5493 8.6855,30.5493 C8.3975,30.5493 8.1645,30.7823 8.1645,31.0713 C8.1645,31.3583 8.3975,31.5923 8.6855,31.5923" id="Fill-14" fill="#EB0029"></path>
                <path d="M10.8984,31.5923 C11.1864,31.5923 11.4194,31.3583 11.4194,31.0713 C11.4194,30.7823 11.1864,30.5493 10.8984,30.5493 C10.6104,30.5493 10.3774,30.7823 10.3774,31.0713 C10.3774,31.3583 10.6104,31.5923 10.8984,31.5923" id="Fill-16" fill="#EB0029"></path>
                <path d="M30.3755,22.6538 C30.2115,22.9818 29.8815,23.1858 29.5135,23.1858 C29.1465,23.1858 28.8155,22.9818 28.6515,22.6538 L28.6055,22.5628 L27.8345,22.9488 L27.8805,23.0398 C28.1915,23.6628 28.8175,24.0488 29.5135,24.0488 C30.2095,24.0488 30.8355,23.6628 31.1465,23.0398 L31.1915,22.9478 L30.4205,22.5628 L30.3755,22.6538 Z" id="Fill-18" fill="#EB0029"></path>
                <path d="M28.481,20.8003 C28.481,20.5013 28.239,20.2603 27.94,20.2603 C27.642,20.2603 27.399,20.5013 27.399,20.8003 C27.399,21.0993 27.642,21.3413 27.94,21.3413 C28.239,21.3413 28.481,21.0993 28.481,20.8003" id="Fill-20" fill="#EB0029"></path>
                <path d="M30.7104,20.2603 C30.4114,20.2603 30.1694,20.5013 30.1694,20.8003 C30.1694,21.0993 30.4114,21.3413 30.7104,21.3413 C31.0084,21.3413 31.2514,21.0993 31.2514,20.8003 C31.2514,20.5013 31.0084,20.2603 30.7104,20.2603" id="Fill-22" fill="#EB0029"></path>
            </g>
        </g>
    </g>
</svg>