<?xml version="1.0" encoding="UTF-8"?>
<svg width="50px" height="41px" viewBox="0 0 50 41" version="1.1" xmlns="http://www.w3.org/2000/svg" xmlns:xlink="http://www.w3.org/1999/xlink">
    <title>9F9684BA-1977-4203-8EC7-E33BC1DDC62B</title>
    <g id="Iconografía" stroke="none" stroke-width="1" fill="none" fill-rule="evenodd">
        <g id="Banorte---Iconografía---Coberturas" transform="translate(-810.000000, -1614.000000)" fill="#EB0029">
            <g id="Group-17" transform="translate(810.000000, 1614.000000)">
                <path d="M42.9912,21.0446 C42.7072,21.0446 42.4772,20.8156 42.4772,20.5316 C42.4772,20.2476 42.7072,20.0186 42.9912,20.0186 C43.2742,20.0186 43.5042,20.2476 43.5042,20.5316 C43.5042,20.8156 43.2742,21.0446 42.9912,21.0446 M42.9912,18.9916 C42.1402,18.9916 41.4512,19.6816 41.4512,20.5316 C41.4512,21.3826 42.1402,22.0716 42.9912,22.0716 C43.8422,22.0716 44.5312,21.3826 44.5312,20.5316 C44.5302,19.6816 43.8412,18.9926 42.9912,18.9916" id="Fill-1"></path>
                <path d="M39.3979,14.3718 C39.3979,14.6558 39.6279,14.8858 39.9109,14.8858 L41.4509,14.8858 C41.7349,14.8858 41.9639,14.6558 41.9639,14.3718 C41.9639,14.0888 41.7349,13.8588 41.4509,13.8588 L39.9109,13.8588 C39.6279,13.8588 39.3979,14.0888 39.3979,14.3718" id="Fill-3"></path>
                <path d="M33.2383,17.7682 L34.7783,17.7682 C35.0623,17.7682 35.2913,17.5392 35.2913,17.2542 C35.2913,16.9712 35.0623,16.7422 34.7783,16.7422 L33.2383,16.7422 C32.9553,16.7422 32.7253,16.9712 32.7253,17.2542 C32.7253,17.5392 32.9553,17.7682 33.2383,17.7682" id="Fill-5"></path>
                <path d="M48.124,13.8591 L47.098,13.8591 C46.247,13.8591 45.558,14.5481 45.558,15.3991 C45.558,16.2501 46.247,16.9391 47.098,16.9391 L48.124,16.9391 L48.124,20.0181 L46.547,20.0181 C46.264,18.0541 44.442,16.6921 42.478,16.9751 C40.901,17.2031 39.663,18.4421 39.435,20.0181 L37.858,20.0181 L37.858,5.6461 L43.737,5.6461 L44.068,6.1601 L39.911,6.1601 C39.628,6.1601 39.398,6.3891 39.398,6.6721 L39.398,12.3191 C39.398,12.6021 39.628,12.8321 39.911,12.8321 L48.124,12.8321 L48.124,13.8591 Z M48.124,15.9121 L47.098,15.9121 C46.814,15.9121 46.584,15.6821 46.584,15.3991 C46.584,15.1151 46.814,14.8851 47.098,14.8851 L48.124,14.8851 L48.124,15.9121 Z M42.991,23.0981 C41.574,23.0981 40.425,21.9491 40.425,20.5321 C40.425,19.1141 41.574,17.9651 42.991,17.9651 C44.409,17.9651 45.558,19.1141 45.558,20.5321 C45.556,21.9491 44.408,23.0961 42.991,23.0981 L42.991,23.0981 Z M44.728,7.1861 L47.697,11.8051 L40.425,11.8051 L40.425,7.1861 L44.728,7.1861 Z M36.832,13.8591 L18.353,13.8591 L18.353,1.7961 C18.353,1.3711 18.698,1.0271 19.123,1.0271 L36.061,1.0271 C36.487,1.0271 36.831,1.3711 36.832,1.7961 L36.832,13.8591 Z M36.832,20.0181 L33.412,20.0181 L30.933,17.6901 C29.91,16.7301 28.573,16.2011 27.171,16.2011 L18.353,16.2011 L18.353,14.8851 L36.832,14.8851 L36.832,20.0181 Z M35.67,23.4641 L36.637,23.4641 C37.807,23.4641 38.879,23.8881 39.712,24.5881 C39.42,24.6071 39.186,24.8431 39.186,25.1401 C39.186,25.4491 39.437,25.6991 39.746,25.6991 L40.678,25.6991 C41.146,26.4381 41.422,27.3111 41.422,28.2491 C41.422,28.7991 41.097,29.2731 40.616,29.4881 C40.465,27.5621 38.854,26.0411 36.891,26.0411 C34.886,26.0411 33.25,27.6271 33.16,29.6101 L30.432,29.6101 C30.148,28.4181 29.202,27.3621 27.186,27.3621 L24.362,27.3621 C24.172,26.9111 23.309,24.8631 22.95,24.0231 L22.984,24.0231 C23.292,24.0231 23.542,23.7731 23.542,23.4641 L23.542,18.4471 C23.542,18.1381 23.292,17.8881 22.984,17.8881 L10.692,17.8881 C10.383,17.8881 10.133,18.1381 10.133,18.4471 L10.133,23.4641 C10.133,23.7731 10.383,24.0231 10.692,24.0231 L15.018,24.0231 L15.018,24.2011 L10.387,28.1211 L10.23,28.1211 C10.251,28.0621 10.269,28.0011 10.269,27.9341 C10.269,27.6261 10.096,27.6811 9.787,27.6811 L9.016,27.6611 L9.016,19.0781 C9.016,18.1071 9.805,17.3181 10.774,17.3181 L27.171,17.3181 C28.288,17.3181 29.353,17.7401 30.167,18.5051 L35.288,23.3131 C35.391,23.4101 35.528,23.4641 35.67,23.4641 L35.67,23.4641 Z M36.891,32.4041 C35.444,32.4041 34.269,31.2281 34.269,29.7811 C34.269,28.3351 35.445,27.1591 36.891,27.1591 C38.337,27.1591 39.514,28.3351 39.514,29.7811 C39.514,31.2281 38.337,32.4041 36.891,32.4041 L36.891,32.4041 Z M30.626,35.2961 C30.776,35.2961 30.898,35.4181 30.898,35.5671 L30.898,36.3791 C30.898,36.5281 30.776,36.6501 30.626,36.6501 L27.708,36.6501 C27.645,36.1611 27.488,35.7061 27.252,35.2961 L30.626,35.2961 Z M24.064,39.8161 C22.58,39.8161 21.372,38.6081 21.372,37.1241 C21.372,35.6391 22.58,34.4321 24.064,34.4321 C25.548,34.4321 26.756,35.6391 26.756,37.1241 C26.756,38.6081 25.548,39.8161 24.064,39.8161 L24.064,39.8161 Z M22.425,22.9061 L22.308,22.9061 C21.931,22.4131 21.363,21.8681 20.672,21.8681 L15.018,21.8681 L15.018,22.9061 L11.25,22.9061 L11.25,19.0051 L22.425,19.0051 L22.425,22.9061 Z M18.487,27.3621 C18.294,27.3621 18.137,27.2051 18.137,27.0121 L18.137,25.4951 C18.137,25.3011 18.294,25.1441 18.487,25.1441 L22.34,25.1441 C22.65,25.8761 23.042,26.8041 23.277,27.3621 L18.487,27.3621 Z M29.538,30.8111 L29.538,32.2911 L28.586,32.2911 C28.358,32.2911 28.2,32.1501 28.2,32.0231 L28.2,31.0791 C28.2,30.9521 28.358,30.8111 28.586,30.8111 L29.538,30.8111 Z M28.586,29.8831 C27.861,29.8831 27.272,30.4201 27.272,31.0791 L27.272,32.0231 C27.272,32.6821 27.861,33.2181 28.586,33.2181 L29.538,33.2181 L29.538,34.2961 L26.408,34.2961 C25.768,33.7641 24.958,33.4321 24.064,33.4321 C23.086,33.4321 22.202,33.8211 21.541,34.4441 L16.018,34.4441 L16.018,22.9061 L20.844,22.9061 C21.257,23.0761 21.746,23.7721 21.891,24.0921 C21.896,24.1031 21.906,24.1261 21.914,24.1441 L18.487,24.1441 C17.743,24.1441 17.137,24.7501 17.137,25.4951 L17.137,27.0121 C17.137,27.7561 17.743,28.3621 18.487,28.3621 L27.186,28.3621 C28.813,28.3621 29.325,29.2081 29.477,29.8831 L28.586,29.8831 Z M20.414,36.7111 L10.552,36.7111 C10.5,36.2571 10.371,35.8331 10.17,35.4441 L20.795,35.4441 C20.595,35.8331 20.465,36.2571 20.414,36.7111 L20.414,36.7111 Z M6.901,39.8161 C5.417,39.8161 4.209,38.6081 4.209,37.1241 C4.209,36.4161 4.489,35.7761 4.937,35.2961 L5,35.2961 L5,35.2201 C5.487,34.7341 6.16,34.4321 6.901,34.4321 C8.386,34.4321 9.593,35.6391 9.593,37.1241 C9.593,38.6081 8.386,39.8161 6.901,39.8161 L6.901,39.8161 Z M3.257,36.6501 L1.272,36.6501 C1.122,36.6501 1,36.5281 1,36.3791 L1,35.5671 C1,35.4181 1.122,35.2961 1.272,35.2961 L3.713,35.2961 C3.478,35.7061 3.321,36.1611 3.257,36.6501 L3.257,36.6501 Z M11.821,28.1211 L15.018,25.4151 L15.018,28.1211 L11.821,28.1211 Z M1.602,29.2361 C1.602,29.1721 1.653,29.1211 1.717,29.1211 L15.018,29.1211 L15.018,34.4441 L9.425,34.4441 C8.764,33.8211 7.879,33.4321 6.901,33.4321 C6.007,33.4321 5.197,33.7641 4.558,34.2961 L1.602,34.2961 L1.602,29.2361 Z M49.069,12.0411 L44.45,4.8551 C44.355,4.7091 44.192,4.6201 44.018,4.6201 L37.858,4.6201 L37.858,1.7961 C37.857,0.8041 37.053,0.0011 36.061,0.0001 L19.123,0.0001 C18.131,0.0011 17.327,0.8041 17.326,1.7961 L17.326,16.2011 L10.774,16.2011 C9.188,16.2011 7.898,17.4921 7.898,19.0781 L7.898,27.6351 C7.898,27.7161 7.904,27.7961 7.91,27.8751 C7.908,27.8941 7.898,27.9131 7.898,27.9341 C7.898,28.0011 7.916,28.0621 7.938,28.1211 L1.717,28.1211 C1.102,28.1211 0.602,28.6211 0.602,29.2361 L0.602,34.5131 C0.249,34.7401 0,35.1171 0,35.5671 L0,36.3791 C0,37.0801 0.571,37.6501 1.272,37.6501 L3.263,37.6501 C3.521,39.4351 5.046,40.8161 6.901,40.8161 C8.736,40.8161 10.25,39.4661 10.534,37.7111 L20.432,37.7111 C20.715,39.4661 22.229,40.8161 24.064,40.8161 C25.919,40.8161 27.444,39.4351 27.703,37.6501 L30.626,37.6501 C31.328,37.6501 31.898,37.0801 31.898,36.3791 L31.898,35.5671 C31.898,34.8661 31.328,34.2961 30.626,34.2961 L30.538,34.2961 L30.538,30.7281 L33.277,30.7281 C33.698,32.3331 35.156,33.5211 36.891,33.5211 C38.643,33.5211 40.113,32.3091 40.517,30.6811 C41.691,30.4621 42.539,29.4511 42.539,28.2491 C42.539,27.0201 42.161,25.8791 41.516,24.9321 C41.481,24.8481 41.425,24.7791 41.357,24.7201 C40.28,23.2831 38.568,22.3471 36.637,22.3471 L35.892,22.3471 L34.505,21.0451 L39.435,21.0451 C39.719,23.0081 41.541,24.3711 43.504,24.0881 C45.081,23.8601 46.319,22.6221 46.547,21.0451 L48.637,21.0451 C48.921,21.0451 49.15,20.8151 49.15,20.5321 L49.15,12.3191 C49.15,12.2201 49.123,12.1241 49.069,12.0411 L49.069,12.0411 Z" id="Fill-7"></path>
                <path d="M25.7773,22.9059 L25.7773,19.0059 L26.8413,19.0059 C27.5663,19.0059 28.2573,19.2789 28.7863,19.7739 L32.1303,22.9059 L25.7773,22.9059 Z M26.8413,17.8879 L25.2183,17.8879 C24.9103,17.8879 24.6603,18.1379 24.6603,18.4469 L24.6603,23.4649 C24.6603,23.7729 24.9103,24.0229 25.2183,24.0229 L33.5443,24.0229 C33.7743,24.0229 33.9803,23.8829 34.0643,23.6699 C34.1493,23.4569 34.0933,23.2139 33.9263,23.0559 L29.5503,18.9589 C28.8133,18.2689 27.8513,17.8879 26.8413,17.8879 L26.8413,17.8879 Z" id="Fill-9"></path>
                <path d="M36.8906,30.572 C36.4546,30.572 36.0996,30.218 36.0996,29.781 C36.0996,29.344 36.4546,28.99 36.8906,28.99 C37.3276,28.99 37.6826,29.344 37.6826,29.781 C37.6826,30.218 37.3276,30.572 36.8906,30.572 M36.8906,27.873 C35.8386,27.873 34.9826,28.728 34.9826,29.781 C34.9826,30.834 35.8386,31.689 36.8906,31.689 C37.9436,31.689 38.7996,30.834 38.7996,29.781 C38.7996,28.728 37.9436,27.873 36.8906,27.873" id="Fill-11"></path>
                <path d="M6.9014,37.7224 C6.5714,37.7224 6.3024,37.4534 6.3024,37.1234 C6.3024,36.7934 6.5714,36.5254 6.9014,36.5254 C7.2314,36.5254 7.5004,36.7934 7.5004,37.1234 C7.5004,37.4534 7.2314,37.7224 6.9014,37.7224 M6.9014,35.5254 C6.0204,35.5254 5.3024,36.2424 5.3024,37.1234 C5.3024,38.0054 6.0204,38.7224 6.9014,38.7224 C7.7824,38.7224 8.5004,38.0054 8.5004,37.1234 C8.5004,36.2424 7.7824,35.5254 6.9014,35.5254" id="Fill-13"></path>
                <path d="M24.064,37.7224 C23.734,37.7224 23.465,37.4534 23.465,37.1234 C23.465,36.7934 23.734,36.5254 24.064,36.5254 C24.395,36.5254 24.663,36.7934 24.663,37.1234 C24.663,37.4534 24.395,37.7224 24.064,37.7224 M24.064,35.5254 C23.183,35.5254 22.465,36.2424 22.465,37.1234 C22.465,38.0054 23.183,38.7224 24.064,38.7224 C24.946,38.7224 25.663,38.0054 25.663,37.1234 C25.663,36.2424 24.946,35.5254 24.064,35.5254" id="Fill-15"></path>
            </g>
        </g>
    </g>
</svg>