<?xml version="1.0" encoding="UTF-8"?>
<svg width="39px" height="45px" viewBox="0 0 39 45" version="1.1" xmlns="http://www.w3.org/2000/svg" xmlns:xlink="http://www.w3.org/1999/xlink">
    <title>DE50AABD-837D-4B5F-ACD5-896288556D7F</title>
    <g id="DESKTOP---MINISITE" stroke="none" stroke-width="1" fill="none" fill-rule="evenodd">
        <g id="BANORTE---HOME---VIDA-1---DESKTOP" transform="translate(-1218.000000, -171.000000)" fill="#707070" fill-rule="nonzero">
            <g id="family-(3)" transform="translate(1218.000000, 171.000000)">
                <rect id="Rectangle" x="6.76271186" y="6.75" width="1.50282486" height="1.5" rx="0.75"></rect>
                <rect id="Rectangle" x="9.76836158" y="6.75" width="1.50282486" height="1.5" rx="0.75"></rect>
                <rect id="Rectangle" x="27.0508475" y="6.75" width="1.50282486" height="1.5" rx="0.75"></rect>
                <rect id="Rectangle" x="24.2330508" y="6.75" width="1.50282486" height="1.5" rx="0.75"></rect>
                <path d="M37.5706215,20.58 C37.5706215,20.1638852 37.5177105,19.7494528 37.4132006,19.346625 C37.3083785,18.94275 34.814065,14.352375 34.814065,14.352375 C34.0050652,12.9009635 32.4719461,12.000731 30.8079096,12 L29.9703665,12 C30.3653984,11.6137482 30.6977487,11.1684427 30.9554682,10.6800937 C31.6679118,11.517419 32.7129538,12.0000339 33.8135593,12 C34.2285529,12 34.5649718,11.6642136 34.5649718,11.25 L34.5649718,5.25 C34.565196,4.25536955 34.1694359,3.3014123 33.4648014,2.59810235 C32.760167,1.89479239 31.8044132,1.49977613 30.8079096,1.5 L29.9756264,1.5 C28.4638018,0.0206333748 26.2103297,-0.409010679 24.2586458,0.410007923 C22.306962,1.22902652 21.0380847,3.13681453 21.039548,5.25 L21.039548,8.25 C21.0390414,9.12498511 21.2580371,9.98617142 21.6765579,10.755 C20.4105114,11.1665116 19.3467659,12.0398881 18.698053,13.2004687 C18.3329892,13.532584 18.0244819,13.9217598 17.7846172,14.35275 L17.1760671,15.446625 C16.760918,13.4453439 15.2231132,11.8645651 13.2311518,11.3914687 C13.9112598,10.4849208 14.278205,9.38253562 14.2768362,8.25 L14.2768362,3.75 C14.2745068,1.67989598 12.5937765,0.00232494588 10.519774,-0.000205760841 L4.50847458,-0.000205760841 C4.09348095,-0.000205760841 3.75706215,0.335786438 3.75706215,0.75 L3.75706215,1.5 C3.75661092,2.02664914 3.89596721,2.54401539 4.16094633,2.9994375 C3.89627395,3.45539663 3.75694761,3.97303978 3.75706215,4.5 L3.75706215,8.25 C3.75647493,9.66208442 4.32764899,11.0144754 5.34085169,12 L4.50847458,12 C2.01969298,12.0028415 0.00284683871,14.0158966 0,16.5 L0,30.75 C0,31.1642136 0.336418804,31.5 0.751412429,31.5 L3.00564972,31.5 L3.00564972,33 C3.00546604,33.6397772 3.27883182,34.2492262 3.75706215,34.6752188 L3.75706215,40.5 C2.51208127,40.5 1.50282486,41.5073593 1.50282486,42.75 C1.50282486,43.9926407 2.51208127,45.0000001 3.75706215,45.0000001 L16.2198948,45.0000001 C16.8330173,45.0000001 17.4043635,44.6897958 17.7384993,44.1766875 C18.144219,44.6961447 18.7672158,45.0000001 19.4271109,45.0000001 L31.000459,45.0000001 C32.0117116,45.0000001 32.8738277,44.2682984 33.0357757,43.271974 C33.1977236,42.2756497 32.6116774,41.3091872 31.6522154,40.9903125 L30.8079096,40.7090625 L30.8079096,32.25 L33.0621469,32.25 C33.2997063,32.2500224 33.5232848,32.137917 33.6650851,31.9476785 C33.8068854,31.75744 33.8502044,31.5114771 33.7819061,31.284375 L32.0433256,25.5 L32.6413559,25.5 C35.3624267,25.4969002 37.5675158,23.2959559 37.5706215,20.58 Z M33.5004082,15.081 L35.6369555,18.9211875 C35.7778879,19.1735748 35.885903,19.4429159 35.9583722,19.7226562 C36.2241436,20.7470536 35.9998546,21.8365508 35.3509282,22.6733514 C34.7020019,23.5101519 33.7015354,24 32.6413559,24 L30.7327684,24 C30.6213415,23.4559194 30.3897663,22.943485 30.0549004,22.5 L31.9528743,22.5 C32.6055293,22.4997327 33.2087335,22.1528411 33.5362979,21.5894022 C33.8638623,21.0259633 33.8662917,20.3311133 33.5426751,19.7654062 L31.559322,16.3007812 L31.559322,13.593 C32.3842978,13.8005024 33.086732,14.3389752 33.5004082,15.081 L33.5004082,15.081 Z M22.5423729,33.75 L22.5423729,40.5 L20.2881356,40.5 L20.2881356,32.25 L26.299435,32.25 L26.299435,40.5 L24.0451977,40.5 L24.0451977,33.75 L22.5423729,33.75 Z M17.0971688,36 L6.94793503,36 L7.11474859,35.25 L7.51412429,35.25 C7.92911792,35.25 8.26553672,34.9142136 8.26553672,34.5 L8.26553672,24 L15.779661,24 L15.779661,33.75 C15.779661,34.1642136 16.1160798,34.5 16.5310734,34.5 L16.7632599,34.5 L17.0971688,36 Z M15.0282486,40.5 L12.7740113,40.5 L12.7740113,37.5 L15.0282486,37.5 L15.0282486,40.5 Z M9.01694915,37.5 L11.2711864,37.5 L11.2711864,40.5 L9.01694915,40.5 L9.01694915,37.5 Z M5.25988701,18 C5.26011959,17.0309562 5.88153617,16.170765 6.80263065,15.8644687 C6.77649447,16.075315 6.76316385,16.2875465 6.76271186,16.5 L6.76271186,19.5 C6.76159561,20.4531918 6.15986409,21.3026285 5.25988701,21.6214687 L5.25988701,18 Z M7.51412429,13.5 L7.70977331,13.5 C7.65012994,13.5852188 7.59217726,13.6718438 7.53751201,13.7607188 C7.52211929,13.6746588 7.5142936,13.5874204 7.51412429,13.5 L7.51412429,13.5 Z M26.8005332,14.4065625 C26.553519,14.1568858 26.3801502,13.8441435 26.299435,13.502625 C26.507499,13.7793879 26.6761355,14.0835934 26.8005332,14.4065625 L26.8005332,14.4065625 Z M27.0508475,16.2995625 L27.0508475,17.25 C27.0508475,19.3210678 25.3687534,21 23.2937853,21 C21.2188172,21 19.5367232,19.3210678 19.5367232,17.25 L19.5367232,15.75 C19.5367232,15.7379063 19.5374746,15.7260938 19.5376624,15.714 C20.4034615,15.6472442 21.2609492,15.498545 22.0985699,15.2699063 C23.2213679,14.9565313 24.1435075,14.5192188 24.8649887,13.9579688 C25.0971751,14.7930938 25.6730388,15.7752188 27.0508475,16.2995625 Z M19.5367232,22.5 L27.0508475,22.5 C28.295249,22.501395 29.3036872,23.5079376 29.3050847,24.75 L29.3050847,26.25 L27.8022599,26.25 L27.8022599,24.75 L26.299435,24.75 L26.299435,30.75 L20.2881356,30.75 L20.2881356,24.75 L18.7853107,24.75 L18.7853107,26.25 L17.2824859,26.25 L17.2824859,24.75 C17.2838835,23.5079376 18.2923216,22.501395 19.5367232,22.5 Z M15.7796647,18.75 C15.7806725,19.4655974 15.5757051,20.1664222 15.1891448,20.7690937 C14.7369269,21.4726752 14.0635683,22.0065775 13.2746398,22.2870937 C12.1245401,22.6911511 10.8495549,22.5135838 9.85419635,21.8107281 C8.85883775,21.1078724 8.26665798,19.9669727 8.26553672,18.75 L8.26553672,17.9971875 C9.76188549,17.9703631 11.1564388,17.2354578 12.0225989,16.0172812 C12.8887589,17.2354578 14.2833122,17.9703631 15.7796647,17.9971875 L15.7796647,18.75 Z M7.51412429,22.5 C7.22070011,22.5000991 6.92798525,22.5287661 6.64013771,22.5855938 C7.02199995,22.3220734 7.35206573,21.9907213 7.61387429,21.6080625 C7.82476402,21.9311527 8.07043457,22.2302445 8.34650141,22.5 L7.51412429,22.5 Z M4.50847458,33 L4.50847458,27 C4.51024985,25.6325279 5.43665746,24.4386296 6.76271186,24.094875 L6.76271186,33.75 L5.25988701,33.75 C4.8450865,33.749535 4.50894044,33.4140208 4.50847458,33 Z M17.2824859,33 L17.2824859,27.75 L18.7853107,27.75 L18.7853107,33 L17.2824859,33 Z M27.8022599,40.5 L27.8022599,34.5 L29.3050847,34.5 L29.3050847,40.5 L27.8022599,40.5 Z M29.3050847,33 L27.8022599,33 L27.8022599,27.75 L29.3050847,27.75 L29.3050847,33 Z M31.559322,19.3244063 L32.2379414,20.5097813 C32.2956936,20.611236 32.2951196,20.735671 32.2364339,20.8365907 C32.1777481,20.9375103 32.0697807,20.9997296 31.9528743,21 L31.559322,21 L31.559322,19.3244063 Z M30.0564972,16.5 L30.0564972,21 L26.9699767,21 C27.9831178,20.0144413 28.5542521,18.6620642 28.5536723,17.25 L28.5536723,15.75 C28.5536723,15.59775 28.5456886,15.447375 28.5329145,15.2984063 C28.6993367,15.0469162 28.8219785,14.7691611 28.8956589,14.476875 L29.1398679,13.5 L30.0564972,13.5 L30.0564972,16.5 Z M33.0621471,5.25 L33.0621471,10.3714687 C32.1621698,10.0526285 31.5604383,9.20319176 31.559322,8.25 L31.559322,5.25 C31.5600206,4.47671548 31.3884739,3.71294733 31.0570968,3.01396875 C32.1988331,3.14011504 33.0626553,4.10344928 33.0621471,5.25 L33.0621471,5.25 Z M22.5423729,5.25 C22.5423729,3.17893219 24.2244669,1.5 26.299435,1.5 C28.3744032,1.5 30.0564972,3.17893219 30.0564972,5.25 C30.0562399,5.33623914 30.0451002,5.42210249 30.0233411,5.5055625 C29.3492048,4.98977791 28.8279521,4.30104898 28.5151624,3.5128125 C28.4267891,3.24814782 28.1985414,3.0543129 27.9226477,3.00963088 C27.646754,2.96494886 27.368812,3.07680445 27.2011299,3.3 C25.7845297,5.18540625 23.6619774,5.7545625 22.5423729,5.926125 L22.5423729,5.25 Z M22.5423648,7.44375 C23.0508069,7.3798973 23.5533377,7.27572413 24.0451977,7.13221875 L25.1122034,6.75 C26.0485806,6.35491879 26.902922,5.78899315 27.6314075,5.08125 C28.0840395,5.802375 28.8526405,6.710625 30.0564972,7.2590625 L30.0564972,8.25 C30.0500414,10.0810716 28.7247587,11.64204 26.9161568,11.9488125 C25.9406183,11.0183868 24.6430928,10.4994253 23.2937853,10.5 C22.8052731,9.85128832 22.5415231,9.06152571 22.5423648,8.25 L22.5423648,7.44375 Z M23.2937853,11.9999999 C23.7113782,11.9999147 24.1260374,12.0696288 24.52056,12.20625 C23.5031476,13.443 21.4745219,13.9928437 19.8850028,14.1758437 C20.5003288,12.8503434 21.8301601,12.0015051 23.2937853,11.9999999 Z M18.0338983,16.9945312 L18.0338983,17.25 C18.0329826,18.2728743 18.3332796,19.2734607 18.897459,20.127375 C18.8010464,20.4300266 18.7868498,20.7527985 18.8563192,21.0627187 C18.1101971,21.20007 17.4233201,21.5599585 16.8863037,22.0949062 C16.7630433,21.8477173 16.6705582,21.5863995 16.610911,21.3167812 C17.0519383,20.5329657 17.2832286,19.6489665 17.2824859,18.75 L17.2824859,18.3451875 L18.0338983,16.9945312 Z M15.779661,16.4986875 C14.3380236,16.4590284 13.0996671,15.4650373 12.7515629,14.068125 C12.6679176,13.7342753 12.3673775,13.5000792 12.0225989,13.5000792 C11.6778202,13.5000792 11.3772801,13.7342753 11.2936349,14.068125 C10.9455306,15.4650373 9.70717414,16.4590284 8.26553672,16.4986875 C8.26553672,14.4276197 9.94763074,12.7486875 12.0225989,12.7486875 C14.097567,12.7486875 15.779661,14.4276197 15.779661,16.4986875 L15.779661,16.4986875 Z M10.519774,1.5 C11.7641755,1.50139497 12.7726137,2.50793759 12.7740113,3.75 L12.7740113,4.5 L10.9706215,3.15 C10.8405549,3.0526334 10.6823573,3 10.519774,3 L6.76271186,3 C5.93313228,2.99901847 5.26087038,2.32802022 5.25988701,1.5 L10.519774,1.5 Z M5.25988701,8.25 L5.25988701,6.20775 L6.30744986,4.46559375 C6.45811667,4.48851196 6.61030546,4.50001357 6.76271186,4.5 L10.2692719,4.5 L12.7740155,6.375 L12.7740155,8.25 C12.775851,9.47309685 12.1777344,10.6196317 11.1727514,11.3194687 C10.5269611,11.4247138 9.90673884,11.6501577 9.34437712,11.9840625 C9.23532839,11.9934375 9.12590395,12 9.01694915,12 C6.94294663,11.9976751 5.26221633,10.320104 5.25988701,8.25 Z M1.50282486,16.5 C1.50468832,14.8439168 2.84927256,13.50186 4.50847458,13.5 L6.01129944,13.5 C6.01135494,13.8384701 6.068902,14.1744812 6.18149435,14.49375 C4.72270646,15.0471298 3.75797264,16.4423422 3.75706215,18 L1.50282486,18 L1.50282486,16.5 Z M1.50282486,30 L1.50282486,19.5 L3.75706215,19.5 L3.75706215,24.5162812 C3.26626593,25.2519167 3.00479534,26.1161816 3.00564972,27 L3.00564972,30 L1.50282486,30 Z M5.25988701,35.25 L5.5753863,35.25 L5.27773305,36.5874375 C5.22833637,36.8094986 5.2825781,37.041936 5.42519798,37.2193563 C5.56781787,37.3967766 5.78340239,37.5000052 6.01129944,37.5 L7.51412429,37.5 L7.51412429,40.5 L5.25988701,40.5 L5.25988701,35.25 Z M3.00564659,42.75 C3.00507377,42.550912 3.08405525,42.3598123 3.22509746,42.2190352 C3.36613967,42.0782582 3.55759918,41.9994251 3.75706215,41.9999969 L6.45998658,41.9999969 C6.17019506,42.3286402 6.01063644,42.7516076 6.01129944,43.1894062 C6.01189898,43.2935663 6.02148359,43.3974814 6.03994703,43.4999969 L3.75706215,43.4999969 C3.34226164,43.499535 3.00611558,43.1640208 3.00564659,42.75 L3.00564659,42.75 Z M7.82530297,43.5 C7.69944258,43.4999354 7.58600642,43.4242253 7.53786289,43.3081553 C7.48971936,43.1920852 7.51634358,43.058499 7.60532698,42.9696563 L8.5767154,42 L11.2711864,42 L11.2711864,43.5 L7.82530297,43.5 Z M16.2198948,43.5 L12.7740113,43.5 L12.7740113,42 L15.4684823,42 L16.4398708,42.9696563 C16.5288542,43.058499 16.5554784,43.1920852 16.5073349,43.3081553 C16.4591913,43.4242253 16.3457552,43.4999354 16.2198948,43.5 L16.2198948,43.5 Z M17.5038708,41.9104687 L17.5026497,41.9090625 L16.5310734,40.9393125 L16.5310734,37.5 L18.0338983,37.5 C18.2618159,37.5000115 18.4774204,37.3967704 18.6200442,37.219327 C18.762668,37.0418836 18.8168943,36.8094185 18.7674647,36.5873437 L18.3027161,34.5 L18.7853107,34.5 L18.7853107,40.7865 L18.4679329,40.9448437 C18.0493608,41.1527346 17.7106863,41.4919581 17.5038708,41.9104687 L17.5038708,41.9104687 Z M18.7853069,42.8594062 C18.7844654,42.6165479 18.9220602,42.3943449 19.1400713,42.2865 L19.7141504,42 L22.5423729,42 L22.5423729,43.5 L19.4271109,43.5 C19.0728047,43.4996383 18.7856731,43.2130465 18.7853069,42.8594062 L18.7853069,42.8594062 Z M24.0451977,43.5 L24.0451977,42 L26.8734202,42 L27.4474993,42.2865 C27.7136624,42.4193989 27.8533725,42.7174977 27.7849886,43.0065999 C27.7166048,43.295702 27.4580694,43.4999543 27.1604597,43.5 L24.0451977,43.5 Z M31.5593246,42.9421875 C31.5597729,43.0902661 31.5010376,43.2324095 31.3961326,43.3371173 C31.2912276,43.4418252 31.1488165,43.50045 31.000459,43.5 L29.2064619,43.5 C29.3609452,43.0065646 29.3323388,42.4741159 29.1258729,42 L29.9343927,42 L31.1768531,42.4133437 C31.4052173,42.4889169 31.5593594,42.7020508 31.5593246,42.9421875 Z M30.8079096,30.75 L30.8079096,26.6100937 L32.0522486,30.75 L30.8079096,30.75 Z" id="Shape"></path>
                <rect id="Rectangle" x="9.76836158" y="18" width="1.50282486" height="1.5" rx="0.75"></rect>
                <rect id="Rectangle" x="12.7740113" y="18" width="1.50282486" height="1.5" rx="0.75"></rect>
                <rect id="Rectangle" x="21.039548" y="16.5" width="1.50282486" height="1.5" rx="0.75"></rect>
                <rect id="Rectangle" x="24.0451977" y="16.5" width="1.50282486" height="1.5" rx="0.75"></rect>
            </g>
        </g>
    </g>
</svg>