<?xml version="1.0" encoding="UTF-8"?>
<svg width="38px" height="48px" viewBox="0 0 38 48" version="1.1" xmlns="http://www.w3.org/2000/svg" xmlns:xlink="http://www.w3.org/1999/xlink">
    <title>07A47321-2688-4A26-B398-40DF1AE4263D</title>
    <defs>
        <polygon id="path-1" points="0 0.840220771 37.545 0.840220771 37.545 46 0 46"></polygon>
    </defs>
    <g id="Iconografía" stroke="none" stroke-width="1" fill="none" fill-rule="evenodd">
        <g id="Banorte---Iconografía---Coberturas" transform="translate(-50.000000, -905.000000)">
            <g id="ico-plan-hospitalario-suma" transform="translate(50.000000, 905.000000)">
                <path d="M21.0163,21.1869 L21.0763,21.0669 L20.0633,20.5609 L20.0033,20.6809 C19.7873,21.1119 19.3543,21.3799 18.8713,21.3799 C18.3893,21.3799 17.9553,21.1119 17.7393,20.6809 L17.6803,20.5609 L16.6673,21.0679 L16.7263,21.1869 C17.1353,22.0039 17.9573,22.5119 18.8713,22.5119 C19.7863,22.5119 20.6073,22.0039 21.0163,21.1869" id="Fill-1" fill="#707070"></path>
                <path d="M15.4035,15.725 C14.7845,15.725 14.2825,16.227 14.2825,16.846 C14.2825,17.465 14.7845,17.967 15.4035,17.967 C16.0225,17.967 16.5245,17.465 16.5245,16.846 C16.5245,16.227 16.0225,15.725 15.4035,15.725" id="Fill-3" fill="#707070"></path>
                <path d="M22.006,17.9672 C22.625,17.9672 23.127,17.4652 23.127,16.8462 C23.127,16.2272 22.625,15.7252 22.006,15.7252 C21.386,15.7252 20.884,16.2272 20.884,16.8462 C20.884,17.4652 21.386,17.9672 22.006,17.9672" id="Fill-5" fill="#707070"></path>
                <g id="Group-9" transform="translate(0.000000, 0.160100)">
                    <mask id="mask-2" fill="white">
                        <use xlink:href="#path-1"></use>
                    </mask>
                    <g id="Clip-8"></g>
                    <path d="M31.778,36.9545 L31.78,36.9545 L31.788,36.9545 C32.481,36.9585 33.042,37.5195 33.043,38.2135 L33.043,38.2145 C33.042,38.9105 32.478,39.4755 31.781,39.4745013 C31.086,39.4745013 30.522,38.9095 30.522,38.2135 C30.522,37.5185 31.084,36.9565 31.778,36.9545 L31.778,36.9545 Z M36.255,44.7095 L22.087,44.7095 L27.939,35.2435 C28.09,35.0015 28.063,34.6885 27.874,34.4755 L26.835,33.3085 L28.046,30.8805 L28.974,30.8805 C29.158,30.8805 29.34,30.8945 29.52,30.9085 C29.872,31.2825 30.905,32.6425 31.105,35.7655 C30.027,36.0625 29.231,37.0415 29.231,38.2145 C29.232,39.6235 30.374,40.7655 31.783,40.7655 C33.191,40.7635 34.332,39.6215 34.333,38.2135 C34.333,37.0165 33.507,36.0205 32.396,35.7455 C32.269,33.6455 31.793,32.2075 31.311,31.2715 C34.182,32.2485 36.251,34.9595 36.255,38.1605 L36.255,44.7095 Z M1.291,38.1605 C1.297,35.2445 3.017,32.7385 5.492,31.5755 C4.965,32.5415 4.539,33.9575 4.613,35.9435 C3.03,36.8095 2.219,38.6915 2.768,40.4815 C2.904,40.9825 3.136,41.4545 3.451,41.8675 C3.458,41.8765 3.469,41.8805 3.477,41.8885 C3.528,41.9505 3.59,42.0005 3.661,42.0405 C3.67,42.0455 3.676,42.0535 3.686,42.0575 C3.772,42.0995 3.865,42.1285 3.967,42.1275 C4.045,42.1285 4.122,42.1145 4.195,42.0885 L4.969,41.8015 C5.303,41.6765 5.473,41.3045 5.348,40.9705 C5.224,40.6365 4.852,40.4665 4.517,40.5915 L4.236,40.6955 C4.142,40.5175 4.063,40.3325 4.009,40.1375 C3.575,38.7865 4.308,37.3375 5.654,36.8875 C6.258,36.7205 6.904,36.8025 7.446,37.1155 C8.286,37.6075 8.797,38.4845 8.846,39.4305 L8.812,39.4265 C8.458,39.3835 8.137,39.6375 8.095,39.9905 C8.053,40.3455 8.306,40.6665 8.66,40.7085 L9.387,40.7935 C9.413,40.7975 9.439,40.7975 9.464,40.7975 L9.464,40.7985 C9.498,40.7985 9.528,40.7855 9.56,40.7805 C9.584,40.7765 9.608,40.7735 9.632,40.7675 C9.696,40.7495 9.755,40.7215 9.81,40.6855 C9.819,40.6795 9.829,40.6755 9.838,40.6685 C9.979,40.5655 10.082,40.4135 10.104,40.2285 C10.107,40.2095 10.099,40.1915 10.1,40.1725 C10.343,38.4975 9.549,36.8395 8.078,35.9895 C7.41,35.6065 6.643,35.4605 5.887,35.5435 C5.871,32.4525 7.264,31.2285 7.655,30.9455 C7.96,30.9065 8.268,30.8805 8.583,30.8805 L9.422,30.8805 L10.633,33.3105 L9.594,34.4765 C9.405,34.6905 9.379,35.0035 9.53,35.2455 L15.383,44.7095 L1.291,44.7095 L1.291,38.1605 Z M13.403,28.9025 L14.028,33.0435 C14.025,33.1305 14.037,33.2145 14.066,33.2915 L15.432,42.3335 L10.881,34.9755 L11.889,33.8435 C12.065,33.6465 12.103,33.3625 11.985,33.1265 L10.341,29.8265 L13.403,28.9025 Z M18.757,26.0435 C20.039,26.0015 21.094,25.7165 21.982,25.2945 C22.101,26.1485 22.358,27.3455 22.87,28.1935 L22.222,32.4775 C19.903,32.7275 17.565,32.7275 15.245,32.4775 L14.6,28.2085 C15.117,27.3555 15.377,26.1445 15.498,25.2845 C16.392,25.7125 17.459,26.0015 18.757,26.0435 L18.757,26.0435 Z M12.453,18.6565 C12.427,18.3515 12.19,18.1065 11.886,18.0705 C11.49,18.0535 11.118,17.8775 10.854,17.5815 C10.644,17.2745 10.548,16.9035 10.583,16.5335 C10.589,16.4905 10.591,16.4465 10.588,16.4035 C10.518,15.9995 10.613,15.5835 10.852,15.2495 C11.022,15.0965 11.246,15.0175 11.475,15.0275 L11.518,15.0315 C11.783,15.0505 12.03,14.8965 12.13,14.6495 C12.173,14.5535 12.184,14.4505 12.178,14.3495 C12.178,14.3415 12.183,14.3335 12.182,14.3255 C11.818,10.3125 14.064,10.4405 14.886,9.8215 C16.978,11.5485 19.69,12.3345 22.381,11.9925 C25.292,12.3675 25.142,14.2575 25.15,14.4245 C25.15,14.4375 25.157,14.4495 25.158,14.4625 C25.16,14.4785 25.156,14.4955 25.159,14.5125 C25.164,14.5395 25.18,14.5605 25.189,14.5875 C25.201,14.6285 25.215,14.6685 25.235,14.7055 C25.256,14.7425 25.28,14.7745 25.307,14.8065 C25.332,14.8365 25.357,14.8645 25.387,14.8895 C25.421,14.9175 25.456,14.9385 25.495,14.9595 C25.528,14.9765 25.56,14.9925 25.596,15.0045 C25.64,15.0185 25.684,15.0255 25.73,15.0305 C25.753,15.0325 25.772,15.0435 25.795,15.0435 L25.822,15.0415 C25.833,15.0405 25.842,15.0345 25.854,15.0335 C25.872,15.0315 25.889,15.0375 25.907,15.0345 C26.155,15.0045 26.406,15.0695 26.608,15.2185 C26.864,15.5565 26.969,15.9845 26.899,16.4025 C26.897,16.4445 26.898,16.4865 26.903,16.5275 C26.94,16.8995 26.844,17.2725 26.633,17.5815 C26.369,17.8775 25.996,18.0535 25.601,18.0705 C25.297,18.1065 25.06,18.3505 25.033,18.6555 C25.012,18.8965 24.437,24.5665 18.758,24.7535 C13.047,24.5665 12.475,18.8965 12.453,18.6565 L12.453,18.6565 Z M10.121,9.0135 C10.572,6.2695 11.636,5.6075 12.204,5.4525 C12.107,6.5625 12.391,7.7125 13.62,8.6775 C12.622,9.0215 11.227,9.9245 10.918,12.3935 C10.037,10.6635 10.121,9.0135 10.121,9.0135 L10.121,9.0135 Z M15.304,2.6835 C16.774,1.9615 19.739,1.9815 20.989,2.3365 C23.591,3.0155 25.308,4.2725 26.095,6.0745 C27.031,8.2255 26.492,10.7515 25.935,12.3865 C25.415,11.5305 24.397,10.9045 22.436,10.7005 C22.376,10.6955 22.316,10.6975 22.257,10.7075 C19.765,11.0185 17.261,10.2285 15.4,8.5435 C15.396,8.5395 15.39,8.5375 15.386,8.5335 L15.401,8.5005 C13.242,7.5185 13.005,6.2805 13.445,4.6415 C13.776,4.0305 14.184,3.2345 15.304,2.6835 L15.304,2.6835 Z M17.095,44.7095 L15.444,33.7905 C16.554,33.8965 17.668,33.9665 18.783,33.9675 C19.866,33.9685 20.946,33.8995 22.024,33.7925 L20.374,44.7095 L17.095,44.7095 Z M27.055,29.9775 L27.051,29.9865 L25.486,33.1285 C25.368,33.3645 25.406,33.6485 25.582,33.8455 L26.591,34.9775 L22.039,42.3355 L24.069,28.9025 L27.13,29.8285 L27.055,29.9775 Z M28.974,29.5895 L28.668,29.5895 C28.754,29.2565 28.567,28.9115 28.234,28.8105 L23.967,27.5245 C23.499,26.7505 23.27,25.3485 23.193,24.5585 C25.35,22.9065 26.045,20.3365 26.244,19.2645 C26.805,19.1335 27.304,18.8165 27.66,18.3645 C28.067,17.8055 28.255,17.1165 28.19,16.4285 C28.299,15.6335 28.033,14.8315 27.469,14.2595 C27.265,14.0775 27.025,13.9395 26.765,13.8545 C27.447,12.2495 28.636,8.6735 27.281,5.5665 C26.329,3.3815 24.322,1.8745 21.314,1.0895 C19.783,0.6625 15.926,0.7165 14.432,1.7875 C12.937,2.8585 12.871,3.4665 12.311,4.1165 C11.096,4.1425 9.146,5.4935 8.839,8.8815 C8.754,10.9335 9.315,12.2495 10.397,13.9955 C10.223,14.0895 10.064,14.2095 9.926,14.3505 C9.432,14.9225 9.203,15.6765 9.296,16.4265 C9.232,17.1145 9.42,17.8035 9.826,18.3625 C10.182,18.8145 10.681,19.1325 11.241,19.2625 C11.44,20.3325 12.134,22.8915 14.285,24.5445 C14.209,25.3305 13.981,26.7455 13.509,27.5245 L9.235,28.8125 C9.2,28.8235 9.167,28.8365 9.135,28.8515 C8.857,28.9895 8.734,29.3005 8.808,29.5895 L8.583,29.5895 C8.186,29.5895 7.798,29.6265 7.415,29.6785 C7.375,29.6805 7.337,29.6875 7.298,29.6965 C3.174,30.3195 0.008,33.8635 0,38.1605 L0,45.3545 C0,45.7115 0.289,46.0005 0.645,46.0005 L36.9,46.0005 C37.257,46.0005 37.545,45.7115 37.545,45.3545 L37.545,38.1605 C37.539,33.4295 33.705,29.5965 28.974,29.5895 L28.974,29.5895 Z" id="Fill-7" fill="#707070" mask="url(#mask-2)"></path>
                </g>
            </g>
        </g>
    </g>
</svg>