<?xml version="1.0" encoding="UTF-8"?>
<svg width="45px" height="45px" viewBox="0 0 45 45" version="1.1" xmlns="http://www.w3.org/2000/svg" xmlns:xlink="http://www.w3.org/1999/xlink">
    <title>571FECA7-01C4-45DE-A8AA-4E68760D3ED1</title>
    <defs>
        <polygon id="path-1" points="0 44.2824 44.275 44.2824 44.275 0.0004 0 0.0004"></polygon>
    </defs>
    <g id="Iconografía" stroke="none" stroke-width="1" fill="none" fill-rule="evenodd">
        <g id="Banorte---Iconografía---Coberturas" transform="translate(-50.000000, -1296.000000)">
            <g id="Group-16" transform="translate(50.000000, 1296.000000)">
                <path d="M16.234,5.1735 C15.827,5.1735 15.496,4.8425 15.496,4.4355 C15.496,4.0275 15.827,3.6965 16.234,3.6965 C16.642,3.6965 16.972,4.0275 16.972,4.4355 C16.972,4.8425 16.642,5.1735 16.234,5.1735 M16.234,2.2215 C15.011,2.2215 14.02,3.2125 14.02,4.4355 C14.02,5.6575 15.011,6.6495 16.234,6.6495 C17.457,6.6495 18.448,5.6575 18.448,4.4355 C18.448,3.2125 17.457,2.2215 16.234,2.2215" id="Fill-1" fill="#707070"></path>
                <mask id="mask-2" fill="white">
                    <use xlink:href="#path-1"></use>
                </mask>
                <g id="Clip-4"></g>
                <polygon id="Fill-3" fill="#707070" mask="url(#mask-2)" points="8.069 24.3594 9.592 24.3594 9.592 22.8824 8.069 22.8824"></polygon>
                <polygon id="Fill-5" fill="#707070" mask="url(#mask-2)" points="11.068 24.3594 22.137 24.3594 22.137 22.8824 11.068 22.8824"></polygon>
                <polygon id="Fill-6" fill="#707070" mask="url(#mask-2)" points="11.068 28.7854 22.137 28.7854 22.137 27.3094 11.068 27.3094"></polygon>
                <polygon id="Fill-7" fill="#707070" mask="url(#mask-2)" points="11.068 33.2124 22.137 33.2124 22.137 31.7364 11.068 31.7364"></polygon>
                <polygon id="Fill-8" fill="#707070" mask="url(#mask-2)" points="11.068 37.6384 22.137 37.6384 22.137 36.1624 11.068 36.1624"></polygon>
                <polygon id="Fill-9" fill="#707070" mask="url(#mask-2)" points="8.069 28.7854 9.592 28.7854 9.592 27.3094 8.069 27.3094"></polygon>
                <polygon id="Fill-10" fill="#707070" mask="url(#mask-2)" points="8.069 33.2134 9.592 33.2134 9.592 31.7374 8.069 31.7374"></polygon>
                <polygon id="Fill-11" fill="#707070" mask="url(#mask-2)" points="8.069 37.6414 9.592 37.6414 9.592 36.1654 8.069 36.1654"></polygon>
                <path d="M42.7990178,35.2653 C42.804,37.1673 41.757,38.9173 40.076,39.8103 L33.944,42.7253 L27.827,39.8183 C26.141,38.9253 25.087,37.1723 25.0889972,35.2653 L25.0889972,25.8343 C27.802,25.8293 30.442,24.9503 32.616,23.3263 L33.944,22.3293 L35.272,23.3263 C37.446,24.9503 40.086,25.8293 42.7990178,25.8343 L42.7990178,35.2653 Z M30.255,42.8063 L2.214,42.8063 C1.806,42.8063 1.476,42.4763 1.476,42.0693 L1.476,6.6493 C1.476,6.2423 1.806,5.9113 2.214,5.9113 L8.117,5.9113 L8.117,7.3863 L3.69,7.3863 C3.282,7.3863 2.952,7.7173 2.952,8.1243 L2.952,40.5923 C2.952,41.0003 3.282,41.3303 3.69,41.3303 L27.569,41.3303 L30.535,42.7403 C30.446,42.7803 30.351,42.8023 30.255,42.8063 L30.255,42.8063 Z M8.855,9.6003 L23.613,9.6003 C24.021,9.6003 24.351,9.2703 24.351,8.8633 L28.041,8.8633 L28.041,23.9463 C27.08,24.2153 26.087,24.3543 25.089,24.3593 L24.351,24.3593 C23.944,24.3593 23.613,24.6893 23.613,25.0963 L23.613,27.3103 C23.613,27.3103 23.572,32.1203 23.572,34.4563 C23.572,36.7923 24.063,37.6413 24.063,37.6413 C24.382,38.4653 24.861,39.2173 25.473,39.8553 L4.427,39.8553 L4.427,8.8633 L8.117,8.8633 C8.117,9.2703 8.447,9.6003 8.855,9.6003 L8.855,9.6003 Z M9.593,5.1733 C9.593,4.7653 9.924,4.4353 10.331,4.4353 L12.618,4.4353 C12.97,4.4393 13.275,4.1903 13.341,3.8443 C13.666,2.2473 15.224,1.2153 16.821,1.5393 C17.983,1.7753 18.891,2.6833 19.127,3.8443 C19.194,4.1903 19.498,4.4393 19.85,4.4353 L22.137,4.4353 C22.545,4.4353 22.875,4.7653 22.875,5.1733 L22.875,8.1243 L9.593,8.1243 L9.593,5.1733 Z M24.351,5.9113 L30.255,5.9113 C30.662,5.9113 30.992,6.2423 30.992,6.6493 L30.992,22.6543 C30.52,22.9493 30.027,23.2073 29.516,23.4293 L29.516,8.1243 C29.516,7.7173 29.186,7.3863 28.778,7.3863 L24.351,7.3863 L24.351,5.9113 Z M43.537,24.3593 L42.799,24.3593 C40.405,24.3533 38.076,23.5773 36.158,22.1453 L34.387,20.8173 C34.125,20.6183 33.763,20.6183 33.501,20.8173 L32.468,21.5913 L32.468,6.6493 C32.465,5.4273 31.475,4.4393 30.255,4.4353 L24.218,4.4353 C23.904,3.5543 23.072,2.9643 22.137,2.9593 L20.411,2.9593 C19.599,0.6533 17.071,-0.5587 14.765,0.2513 C13.499,0.6973 12.503,1.6933 12.057,2.9593 L10.331,2.9593 C9.396,2.9643 8.564,3.5543 8.25,4.4353 L2.214,4.4353 C0.993,4.4393 0.004,5.4273 0,6.6493 L0,42.0693 C0.004,43.2893 0.993,44.2793 2.214,44.2833 L30.255,44.2833 C30.931,44.2783 31.57,43.9653 31.988,43.4333 L33.627,44.2083 C33.827,44.3073 34.061,44.3073 34.261,44.2083 L40.74,41.1313 C42.918,39.9863 44.28,37.7263 44.2750137,35.2653 L44.2750137,25.0963 C44.2750137,24.6893 43.945,24.3593 43.537,24.3593 L43.537,24.3593 Z" id="Fill-12" fill="#707070" mask="url(#mask-2)"></path>
                <path d="M12.5446,15.5036 L14.7586,15.5036 C15.1656,15.5036 15.4966,15.1736 15.4966,14.7666 L15.4966,12.5526 L16.9716,12.5526 L16.9716,14.7666 C16.9716,15.1736 17.3026,15.5036 17.7106,15.5036 L19.9236,15.5036 L19.9236,16.9806 L17.7106,16.9806 C17.3026,16.9806 16.9716,17.3106 16.9716,17.7176 L16.9716,19.9316 L15.4966,19.9316 L15.4966,17.7176 C15.4966,17.3106 15.1656,16.9806 14.7586,16.9806 L12.5446,16.9806 L12.5446,15.5036 Z M11.8066,18.4556 L14.0206,18.4556 L14.0206,20.6696 C14.0206,21.0766 14.3506,21.4066 14.7586,21.4066 L17.7106,21.4066 C18.1176,21.4066 18.4476,21.0766 18.4476,20.6696 L18.4476,18.4556 L20.6616,18.4556 C21.0686,18.4556 21.3996,18.1246 21.3996,17.7176 L21.3996,14.7666 C21.3996,14.3576 21.0686,14.0276 20.6616,14.0276 L18.4476,14.0276 L18.4476,11.8146 C18.4476,11.4066 18.1176,11.0766 17.7106,11.0766 L14.7586,11.0766 C14.3506,11.0766 14.0206,11.4066 14.0206,11.8146 L14.0206,14.0276 L11.8066,14.0276 C11.3986,14.0276 11.0686,14.3576 11.0686,14.7666 L11.0686,17.7176 C11.0686,18.1246 11.3986,18.4556 11.8066,18.4556 L11.8066,18.4556 Z" id="Fill-13" fill="#707070" mask="url(#mask-2)"></path>
                <path d="M39.8473281,35.2653 C39.8513,36.0553 39.4283,36.7863 38.7403,37.1763 L33.9443,39.4563 L29.1623,37.1913 C28.4693,36.7973 28.0403,36.0623 28.0403,35.2653 L28.0403,28.4983 C30.1593,28.0853 32.1703,27.2363 33.9443,26.0043 C35.7173,27.2363 37.7273,28.0853 39.8473281,28.4983 L39.8473281,35.2653 Z M33.5013,24.5063 C31.6483,25.8933 29.4803,26.8003 27.1923,27.1483 C26.8323,27.2043 26.5673,27.5143 26.5653,27.8783 L26.5653,35.2653 C26.5653,36.6063 27.2943,37.8413 28.4683,38.4903 L28.5133,38.5113 L33.6263,40.9393 C33.8263,41.0373 34.0613,41.0373 34.2613,40.9393 L39.4193,38.4903 C40.5923,37.8393 41.3213,36.6063 41.3233,35.2653 L41.3233,27.8783 C41.3213,27.5143 41.0553,27.2043 40.6963,27.1483 C38.4073,26.8003 36.2403,25.8933 34.3873,24.5063 C34.1253,24.3073 33.7633,24.3073 33.5013,24.5063 L33.5013,24.5063 Z" id="Fill-14" fill="#707070" mask="url(#mask-2)"></path>
                <path d="M30.776,33.4303 L29.733,34.4733 L31.946,36.6873 C32.234,36.9753 32.702,36.9753 32.99,36.6873 L38.893,30.7843 L37.85,29.7403 L32.468,35.1213 L30.776,33.4303 Z" id="Fill-15" fill="#707070" mask="url(#mask-2)"></path>
            </g>
        </g>
    </g>
</svg>