<?xml version="1.0" encoding="UTF-8"?>
<svg width="48px" height="37px" viewBox="0 0 48 37" version="1.1" xmlns="http://www.w3.org/2000/svg" xmlns:xlink="http://www.w3.org/1999/xlink">
    <title>D194E4DF-38D6-433D-BCFC-D7E9A489CB79</title>
    <defs>
        <polygon id="path-1" points="0 0.667 47.157 0.667 47.157 35.9996 0 35.9996"></polygon>
        <polygon id="path-3" points="0 36.333 47.157 36.333 47.157 1 0 1"></polygon>
    </defs>
    <g id="Iconografía" stroke="none" stroke-width="1" fill="none" fill-rule="evenodd">
        <g id="Banorte---Iconografía---Coberturas" transform="translate(-50.000000, -1776.000000)">
            <g id="Group-10" transform="translate(50.000000, 1776.000000)">
                <g id="Group-3" transform="translate(0.000000, 0.333000)">
                    <mask id="mask-2" fill="white">
                        <use xlink:href="#path-1"></use>
                    </mask>
                    <g id="Clip-2"></g>
                    <path d="M45.856,25.9766 C45.853,27.9256 44.792,29.7236 43.123,30.6496 L34.705,34.6466 C34.561,34.7186 34.388,34.7176 34.235,34.6436 L25.86,30.6666 C24.153,29.7246 23.093,27.9266 23.092,25.9776 L23.092,13.9366 C23.093,13.6606 23.293,13.4276 23.562,13.3846 C27.387,12.8046 31.045,11.2726 34.146,8.9526 C34.242,8.8786 34.357,8.8416 34.473,8.8416 C34.589,8.8416 34.707,8.8786 34.806,8.9556 C37.902,11.2726 41.56,12.8036 45.383,13.3846 C45.656,13.4286 45.855,13.6606 45.856,13.9336 L45.856,25.9766 Z M6.996,22.4966 L6.996,13.1146 L21.991,13.1146 C21.868,13.3626 21.793,13.6386 21.792,13.9336 L21.792,16.0696 L18.018,16.0696 L18.018,17.5926 L21.792,17.5926 L21.792,19.3716 L18.018,19.3716 L18.018,20.8946 L21.792,20.8946 L21.792,24.7316 L9.231,24.7316 C7.999,24.7316 6.996,23.7286 6.996,22.4966 L6.996,22.4966 Z M3.532,22.7416 C2.3,22.7416 1.297,21.7386 1.297,20.5056 L1.297,11.1656 L5.699,11.1656 L5.699,22.4966 C5.699,22.5806 5.718,22.6596 5.724,22.7416 L3.532,22.7416 Z M3.532,1.9636 L33.408,1.9636 C34.041,1.9636 34.606,2.2316 35.011,2.6576 L9.231,2.6576 C8.119,2.6576 7.137,3.1846 6.489,3.9916 L1.318,3.9916 C1.425,2.8576 2.371,1.9636 3.532,1.9636 L3.532,1.9636 Z M41.322,5.9816 L7.017,5.9816 C7.124,4.8476 8.07,3.9546 9.231,3.9546 L39.107,3.9546 C40.269,3.9546 41.215,4.8476 41.322,5.9816 L41.322,5.9816 Z M5.768,5.5146 C5.725,5.7336 5.699,5.9576 5.699,6.1896 L5.699,9.6426 L1.297,9.6426 L1.297,5.5146 L5.768,5.5146 Z M35.59,7.9176 C34.934,7.4176 34.016,7.4176 33.362,7.9146 C31.092,9.6136 28.5,10.8586 25.763,11.5906 L6.996,11.5906 L6.996,7.5046 L41.343,7.5046 L41.343,11.0126 C39.288,10.2666 37.341,9.2286 35.59,7.9176 L35.59,7.9176 Z M45.585,12.0996 L45.581,12.0996 C44.585,11.9486 43.604,11.7226 42.64,11.4386 L42.64,6.1896 C42.64,4.2426 41.055,2.6576 39.107,2.6576 L36.569,2.6576 C35.995,1.4836 34.8,0.6666 33.408,0.6666 L3.532,0.6666 C1.585,0.6666 0,2.2516 0,4.1996 L0,20.5056 C0,22.4536 1.585,24.0386 3.532,24.0386 L6.069,24.0386 C6.644,25.2116 7.839,26.0286 9.231,26.0286 L21.795,26.0286 C21.814,28.4316 23.126,30.6416 25.231,31.8056 L33.67,35.8146 C33.923,35.9386 34.2,35.9996 34.476,35.9996 C34.75,35.9996 35.023,35.9396 35.27,35.8176 L43.717,31.8046 C45.835,30.6316 47.152,28.3996 47.157,25.9776 L47.157,13.9296 C47.151,13.0126 46.49,12.2436 45.585,12.0996 L45.585,12.0996 Z" id="Fill-1" fill="#707070" mask="url(#mask-2)"></path>
                </g>
                <path d="M43.2129,25.3848 C43.2099,26.8548 42.4099,28.2098 41.1609,28.9028 L34.5909,32.0228 C34.5179,32.0588 34.4289,32.0578 34.3479,32.0188 L27.8219,28.9208 C26.5349,28.2098 25.7359,26.8558 25.7349,25.3858 L25.7349,15.9928 C25.7359,15.8468 25.8409,15.7238 25.9819,15.7008 C28.9889,15.2438 31.8649,14.0398 34.3029,12.2158 C34.3529,12.1778 34.4129,12.1578 34.4729,12.1578 C34.5339,12.1578 34.5959,12.1788 34.6489,12.2188 C37.0829,14.0398 39.9579,15.2438 42.9639,15.7008 C43.1079,15.7248 43.2119,15.8478 43.2129,15.9888 L43.2129,25.3848 Z M43.1639,14.4198 L43.1599,14.4198 C40.3639,13.9948 37.6899,12.8738 35.4299,11.1838 C34.8679,10.7548 34.0829,10.7538 33.5219,11.1808 C31.2589,12.8738 28.5839,13.9938 25.7839,14.4198 C25.0079,14.5428 24.4429,15.2008 24.4389,15.9888 L24.4389,25.3858 C24.4389,27.3268 25.4959,29.1158 27.1949,30.0558 L33.7839,33.1868 C34.0019,33.2928 34.2389,33.3458 34.4759,33.3458 C34.7109,33.3458 34.9439,33.2938 35.1559,33.1908 L41.7539,30.0558 C43.4499,29.1158 44.5059,27.3268 44.5099,25.3858 L44.5099,15.9858 C44.5049,15.1998 43.9389,14.5418 43.1639,14.4198 L43.1639,14.4198 Z" id="Fill-4" fill="#707070"></path>
                <path d="M37.5845,27.1435 L35.0565,27.1435 L35.0565,26.4195 C35.7055,26.1715 36.1695,25.5465 36.1695,24.8115 C36.1695,23.8605 35.3955,23.0855 34.4435,23.0855 C33.4915,23.0855 32.7175,23.8605 32.7175,24.8115 C32.7175,25.5385 33.1695,26.1585 33.8065,26.4135 L33.8065,27.1435 L31.3635,27.1435 L31.3635,21.6145 L37.5845,21.6145 L37.5845,27.1435 Z M33.9675,24.8115 C33.9675,24.5485 34.1805,24.3355 34.4435,24.3355 C34.7065,24.3355 34.9195,24.5485 34.9195,24.8115 C34.9195,25.0745 34.7065,25.2885 34.4435,25.2885 C34.1805,25.2885 33.9675,25.0745 33.9675,24.8115 L33.9675,24.8115 Z M33.0215,18.3615 C33.0215,17.5595 33.6725,16.9085 34.4745,16.9085 C35.2755,16.9085 35.9275,17.5595 35.9275,18.3615 L35.9275,20.3645 L33.0215,20.3645 L33.0215,18.3615 Z M37.1775,18.3615 C37.1775,16.8715 35.9645,15.6585 34.4745,15.6585 C32.9835,15.6585 31.7715,16.8715 31.7715,18.3615 L31.7715,20.3645 L30.1135,20.3645 L30.1135,28.3935 L38.8345,28.3935 L38.8345,20.3645 L37.1775,20.3645 L37.1775,18.3615 Z" id="Fill-6" fill="#707070"></path>
                <mask id="mask-4" fill="white">
                    <use xlink:href="#path-3"></use>
                </mask>
                <g id="Clip-9"></g>
                <path d="M10.627,19.493 L14.752,19.493 L14.752,18.041 L10.627,18.041 L10.627,19.493 Z M9.104,21.017 L16.276,21.017 L16.276,16.518 L9.104,16.518 L9.104,21.017 Z" id="Fill-8" fill="#707070" mask="url(#mask-4)"></path>
            </g>
        </g>
    </g>
</svg>