<?xml version="1.0" encoding="UTF-8"?>
<svg width="44px" height="40px" viewBox="0 0 44 40" version="1.1" xmlns="http://www.w3.org/2000/svg" xmlns:xlink="http://www.w3.org/1999/xlink">
    <title>43E4C0D7-4C8B-4BB4-9C77-C6859DEE4F9B</title>
    <defs>
        <polygon id="path-1" points="0 0.536312083 23.1277 0.536312083 23.1277 38.8103 0 38.8103"></polygon>
        <polygon id="path-3" points="0.6562 0.4806 30.214 0.4806 30.214 21.9996 0.6562 21.9996"></polygon>
        <polygon id="path-5" points="0 39.4641 43.214 39.4641 43.214 1.0001 0 1.0001"></polygon>
    </defs>
    <g id="Iconografía" stroke="none" stroke-width="1" fill="none" fill-rule="evenodd">
        <g id="Banorte---Iconografía---Coberturas" transform="translate(-810.000000, -2169.000000)">
            <g id="Group-21" transform="translate(810.000000, 2169.000000)">
                <path d="M16.6502,15.0481 C16.8572,14.7231 16.7592,14.2911 16.4342,14.0851 C16.1082,13.8791 15.6772,13.9761 15.4712,14.3021 C15.1812,14.7601 14.5412,15.0561 13.8402,15.0561 C13.1392,15.0561 12.4992,14.7601 12.2092,14.3021 C12.0032,13.9761 11.5722,13.8791 11.2462,14.0851 C10.9212,14.2911 10.8232,14.7231 11.0292,15.0481 C11.5772,15.9141 12.6542,16.4521 13.8402,16.4521 C15.0252,16.4521 16.1032,15.9141 16.6502,15.0481" id="Fill-1" fill="#EB0029"></path>
                <path d="M16.5408,10.6389 L16.5408,11.3159 C16.5408,11.7009 16.8538,12.0129 17.2388,12.0129 C17.6248,12.0129 17.9368,11.7009 17.9368,11.3159 L17.9368,10.6389 C17.9368,10.2529 17.6248,9.9409 17.2388,9.9409 C16.8538,9.9409 16.5408,10.2529 16.5408,10.6389" id="Fill-3" fill="#EB0029"></path>
                <path d="M11.1385,11.3157 L11.1385,10.6387 C11.1385,10.2537 10.8265,9.9407 10.4405,9.9407 C10.0555,9.9407 9.7425,10.2537 9.7425,10.6387 L9.7425,11.3157 C9.7425,11.7007 10.0555,12.0127 10.4405,12.0127 C10.8265,12.0127 11.1385,11.7007 11.1385,11.3157" id="Fill-5" fill="#EB0029"></path>
                <path d="M11.2181,6.8459 L16.4611,6.8459 C16.8471,6.8459 17.1591,6.5329 17.1591,6.1479 C17.1591,5.7629 16.8471,5.4499 16.4611,5.4499 L11.2181,5.4499 C10.8331,5.4499 10.5201,5.7629 10.5201,6.1479 C10.5201,6.5329 10.8331,6.8459 11.2181,6.8459" id="Fill-7" fill="#EB0029"></path>
                <path d="M12.3748,7.4485 C11.9898,7.4485 11.6768,7.7605 11.6768,8.1465 C11.6768,8.5325 11.9898,8.8445 12.3748,8.8445 L15.3048,8.8445 C15.6898,8.8445 16.0028,8.5325 16.0028,8.1465 C16.0028,7.7605 15.6898,7.4485 15.3048,7.4485 L12.3748,7.4485 Z" id="Fill-9" fill="#EB0029"></path>
                <g id="Group-13" transform="translate(0.000000, 0.464100)">
                    <mask id="mask-2" fill="white">
                        <use xlink:href="#path-1"></use>
                    </mask>
                    <g id="Clip-12"></g>
                    <path d="M4.1487,37.4053 L1.7737,37.4053 C1.5657,37.4053 1.3957,37.2353 1.3957,37.0273 L1.3957,27.3453 C1.3957,25.9553 2.1667,24.6993 3.4067,24.0703 C3.6477,23.9473 3.8957,23.8273 4.1487,23.7113 L4.1487,26.4063 L4.1487,26.8043 L4.1487,37.4053 Z M10.2657,20.8363 C10.3337,20.7893 10.4227,20.7933 10.4847,20.8473 L12.6617,22.7403 L10.6687,23.9523 L9.1377,21.7083 L10.2657,20.8363 Z M7.8947,13.3523 L7.8927,12.3233 L7.8927,12.3223 L7.8927,12.3193 L7.8847,8.4843 C7.9497,8.2023 8.2497,7.0083 8.9547,5.7243 C9.9827,3.8493 11.3567,2.6583 13.0357,2.1823 C13.3067,2.1453 13.5767,2.1273 13.8397,2.1273 C14.1037,2.1273 14.3737,2.1453 14.6447,2.1823 C16.3237,2.6583 17.6967,3.8493 18.7257,5.7243 C19.4287,7.0083 19.7297,8.2003 19.7947,8.4833 L19.7857,13.3533 C19.7857,17.0933 15.3787,18.4023 13.8397,18.4383 C12.3007,18.4023 7.8947,17.0933 7.8947,13.3523 L7.8947,13.3523 Z M6.6697,7.6213 C6.5257,7.5503 6.3857,7.4263 6.3057,7.2153 C6.1427,6.7813 6.1957,6.0113 6.4427,5.2553 C6.7337,4.3613 7.2387,3.5873 7.8637,3.0763 C8.6877,2.4033 9.5587,2.1003 10.3307,1.9863 C9.3107,2.7393 8.4287,3.7763 7.7227,5.0683 C7.1727,6.0723 6.8447,7.0193 6.6697,7.6213 L6.6697,7.6213 Z M5.9477,10.7423 L5.9477,9.9943 C5.9477,9.6293 6.1717,9.3143 6.4907,9.1803 L6.4947,11.5573 C6.1747,11.4263 5.9477,11.1103 5.9477,10.7423 L5.9477,10.7423 Z M19.8157,3.0763 C20.4407,3.5873 20.9457,4.3613 21.2377,5.2553 C21.4837,6.0113 21.5377,6.7813 21.3747,7.2153 C21.2947,7.4263 21.1547,7.5493 21.0117,7.6203 C20.6507,6.3823 19.6427,3.6763 17.3687,1.9943 C18.1377,2.1093 19.0027,2.4123 19.8157,3.0763 L19.8157,3.0763 Z M21.7317,10.7423 C21.7317,11.1103 21.5047,11.4263 21.1847,11.5573 L21.1897,9.1803 C21.5077,9.3143 21.7317,9.6293 21.7317,9.9943 L21.7317,10.7423 Z M15.9697,20.0643 L13.8407,21.9163 L11.7107,20.0623 L11.7107,19.4533 C12.5317,19.7113 13.2807,19.8243 13.8267,19.8343 L13.8397,19.8343 L13.8527,19.8343 C14.3987,19.8243 15.1477,19.7113 15.9697,19.4533 L15.9697,20.0643 Z M16.1217,25.0443 L13.7197,28.4233 L11.4567,25.1063 L13.8407,23.6583 L16.1217,25.0443 Z M5.5447,37.4053 L5.5447,26.8043 L5.5447,26.4073 L5.5447,23.1183 C6.3107,22.8233 7.0957,22.5673 7.8897,22.3553 L12.7667,29.5033 C12.9787,29.8123 13.3297,30.0003 13.7047,30.0043 C14.0817,30.0073 14.4337,29.8273 14.6517,29.5213 L16.2117,27.3273 L16.2117,23.4653 L15.0187,22.7403 L16.2117,21.7033 L16.2117,18.2893 L18.3347,18.3323 C20.1957,17.0943 21.1817,15.3753 21.1817,13.3553 L21.1817,12.9963 C22.2807,12.8353 23.1277,11.8853 23.1277,10.7423 L23.1277,9.9953 C23.1277,9.3153 22.8287,8.7053 22.3557,8.2873 C22.4837,8.1253 22.5957,7.9333 22.6807,7.7073 C23.2367,6.2303 22.5077,3.4733 20.6997,1.9963 C18.2127,-0.0357 15.4027,0.5823 14.6997,0.7823 C14.4107,0.7493 14.1227,0.7313 13.8397,0.7303 C13.5567,0.7313 13.2687,0.7493 12.9807,0.7823 C12.2767,0.5823 9.4667,-0.0357 6.9807,1.9963 C5.1717,3.4733 4.4427,6.2293 4.9997,7.7073 C5.0847,7.9333 5.1957,8.1253 5.3247,8.2873 C4.8507,8.7053 4.5517,9.3153 4.5517,9.9943 L4.5517,10.7423 C4.5517,11.8853 5.3987,12.8353 6.4977,12.9963 L6.4987,13.3533 C6.4987,15.3883 7.4967,17.1203 9.3837,18.3593 C9.6897,18.5603 10.0027,18.7383 10.3147,18.8923 L10.3147,19.4063 C10.0057,19.4173 9.6997,19.5193 9.4337,19.7153 C9.4297,19.7183 9.4247,19.7213 9.4207,19.7243 L7.8797,20.9163 C4.2497,22.0743 3.3367,22.5403 2.7747,22.8253 C1.0637,23.6943 -0.0003,25.4263 -0.0003,27.3453 L-0.0003,37.0273 C-0.0003,37.9783 0.7527,38.7573 1.6927,38.7993 C1.7197,38.8013 1.7467,38.8013 1.7737,38.8013 L14.9467,38.8103 C14.7187,38.3733 14.4757,37.8313 14.2997,37.4053 L5.5447,37.4053 Z" id="Fill-11" fill="#EB0029" mask="url(#mask-2)"></path>
                </g>
                <g id="Group-16" transform="translate(13.000000, 17.464100)">
                    <mask id="mask-4" fill="white">
                        <use xlink:href="#path-3"></use>
                    </mask>
                    <g id="Clip-15"></g>
                    <path d="M1.8812,19.3096 L1.8812,18.9636 L11.7562,18.9636 C11.8602,19.8156 12.5942,20.4816 13.4682,20.4816 L17.4012,20.4816 C18.2762,20.4816 19.0092,19.8156 19.1132,18.9636 L28.9892,18.9636 L28.9892,19.3096 C28.9892,20.1176 28.3322,20.7746 27.5242,20.7746 L21.7092,20.7746 L3.3462,20.7746 C2.5382,20.7746 1.8812,20.1176 1.8812,19.3096 L1.8812,19.3096 Z M17.4012,19.2566 L13.4682,19.2566 C13.2652,19.2566 13.0912,19.1376 13.0122,18.9636 L17.8572,18.9636 C17.7782,19.1376 17.6042,19.2566 17.4012,19.2566 L17.4012,19.2566 Z M3.7072,2.4106 C3.7072,2.0216 4.0232,1.7056 4.4112,1.7056 L26.3212,1.7056 C26.7102,1.7056 27.0262,2.0216 27.0262,2.4106 L27.0262,17.7396 L3.7072,17.7396 L3.7072,2.4106 Z M29.6012,17.7396 L28.2512,17.7396 L28.2512,2.4106 C28.2512,1.3466 27.3852,0.4806 26.3212,0.4806 L4.4112,0.4806 C3.3472,0.4806 2.4822,1.3466 2.4822,2.4106 L2.4822,17.7396 L1.2682,17.7396 C0.9312,17.7396 0.6562,18.0136 0.6562,18.3516 L0.6562,19.3096 C0.6562,20.7926 1.8632,21.9996 3.3462,21.9996 L27.5232,21.9996 C29.0062,21.9996 30.2142,20.7926 30.2142,19.3096 L30.2142,18.3516 C30.2142,18.0136 29.9392,17.7396 29.6012,17.7396 L29.6012,17.7396 Z" id="Fill-14" fill="#EB0029" mask="url(#mask-4)"></path>
                </g>
                <mask id="mask-6" fill="white">
                    <use xlink:href="#path-5"></use>
                </mask>
                <g id="Clip-18"></g>
                <path d="M19.115,33.0821 L37.619,33.0821 L37.619,21.2901 L19.115,21.2901 L19.115,33.0821 Z M38.182,20.1631 L18.55,20.1631 C18.239,20.1631 17.986,20.4161 17.986,20.7271 L17.986,33.6461 C17.986,33.9561 18.239,34.2091 18.55,34.2091 L38.182,34.2091 C38.493,34.2091 38.747,33.9561 38.747,33.6461 L38.747,20.7271 C38.747,20.4161 38.493,20.1631 38.182,20.1631 L38.182,20.1631 Z" id="Fill-17" fill="#EB0029" mask="url(#mask-6)"></path>
                <path d="M31.6736,27.4436 C31.6736,29.2966 30.1666,30.8036 28.3136,30.8036 C26.4616,30.8036 24.9536,29.2966 24.9536,27.4436 C24.9536,25.5906 26.4616,24.0836 28.3136,24.0836 C30.1646,24.0866 31.6726,25.5926 31.6736,27.4436 M28.3136,22.8316 C25.7706,22.8316 23.7016,24.9006 23.7016,27.4436 C23.7016,29.9866 25.7706,32.0546 28.3136,32.0546 C30.8536,32.0516 32.9226,29.9836 32.9246,27.4436 C32.9246,24.9006 30.8566,22.8316 28.3136,22.8316" id="Fill-19" fill="#EB0029" mask="url(#mask-6)"></path>
                <path d="M28.6102,26.9377 C27.9742,26.6757 27.9252,26.5427 27.9252,26.3837 C27.9252,26.2127 28.0522,26.0317 28.4112,26.0317 C28.6612,26.0147 28.9142,26.0957 29.1352,26.2277 C29.1862,26.2557 29.2482,26.2627 29.3102,26.2427 C29.3702,26.2207 29.4172,26.1737 29.4372,26.1177 L29.6022,25.6837 C29.6392,25.5857 29.6022,25.4767 29.5092,25.4207 C29.2782,25.2897 29.0222,25.2067 28.7592,25.1757 L28.7592,25.0577 C28.7592,24.9397 28.6632,24.8437 28.5452,24.8437 L28.1362,24.8437 C28.0182,24.8437 27.9222,24.9397 27.9222,25.0577 L27.9222,25.2237 C27.3522,25.3557 26.9332,25.8657 26.9272,26.4637 C26.9272,27.2227 27.5452,27.5667 28.1482,27.8027 C28.6532,28.0087 28.7572,28.1867 28.7572,28.3897 C28.7572,28.6477 28.5282,28.8217 28.1872,28.8217 C27.8902,28.8207 27.6022,28.7347 27.3562,28.5747 C27.3012,28.5397 27.2312,28.5297 27.1692,28.5497 C27.1072,28.5717 27.0582,28.6187 27.0362,28.6797 L26.8782,29.1217 C26.8452,29.2127 26.8782,29.3147 26.9622,29.3727 C27.2362,29.5457 27.5492,29.6537 27.8742,29.6867 L27.8742,29.8297 C27.8742,29.9477 27.9702,30.0427 28.0882,30.0427 L28.5122,30.0427 L28.5142,30.0427 C28.6332,30.0397 28.7242,29.9437 28.7232,29.8277 L28.7232,29.6407 C29.3232,29.4997 29.7532,28.9737 29.7642,28.3417 C29.7642,27.6967 29.4082,27.2637 28.6102,26.9377" id="Fill-20" fill="#EB0029" mask="url(#mask-6)"></path>
            </g>
        </g>
    </g>
</svg>